<mxfile host="65bd71144e">
    <diagram id="WkBjb4pW22fDtr13lLDv" name="ページ1">
        <mxGraphModel dx="450" dy="263" grid="1" gridSize="10" guides="1" tooltips="1" connect="1" arrows="1" fold="1" page="1" pageScale="1" pageWidth="827" pageHeight="1169" math="0" shadow="0">
            <root>
                <mxCell id="0"/>
                <mxCell id="1" parent="0"/>
                <mxCell id="7" value="0" style="rounded=0;whiteSpace=wrap;html=1;fillColor=#dcdcea;strokeColor=#36393d;" parent="1" vertex="1">
                    <mxGeometry x="20" y="30" width="780" height="300" as="geometry"/>
                </mxCell>
                <mxCell id="21" value="アーキテクチャ構成" style="text;html=1;strokeColor=none;fillColor=none;align=center;verticalAlign=middle;whiteSpace=wrap;rounded=0;fontSize=16;labelBorderColor=default;fontColor=#0a0a0a;strokeWidth=0;" parent="1" vertex="1">
                    <mxGeometry x="30" y="40" width="760" height="30" as="geometry"/>
                </mxCell>
                <mxCell id="25" style="edgeStyle=none;html=1;exitX=1;exitY=0.75;exitDx=0;exitDy=0;" parent="1" edge="1">
                    <mxGeometry relative="1" as="geometry">
                        <mxPoint x="120" y="180" as="sourcePoint"/>
                        <mxPoint x="120" y="176.66666666666663" as="targetPoint"/>
                    </mxGeometry>
                </mxCell>
                <mxCell id="26" value="ブラウザ" style="rounded=0;whiteSpace=wrap;html=1;gradientColor=none;fillStyle=auto;fillColor=#ffffff;fontColor=#000000;verticalAlign=top;strokeColor=#000000;" parent="1" vertex="1">
                    <mxGeometry x="50" y="90" width="140" height="230" as="geometry"/>
                </mxCell>
                <mxCell id="28" value="" style="shape=image;imageAspect=0;aspect=fixed;verticalLabelPosition=bottom;verticalAlign=top;fillStyle=auto;fontColor=#000000;fillColor=#E0E0E0;gradientColor=none;image=data:image/png,iVBORw0KGgoAAAANSUhEUgAAAT4AAACfCAMAAABX0UX9AAABdFBMVEUAAAD///8ac+ilpaUik0LcMyjfNyv7vgohkkHkPC/lPTAomkj7vw8rnUovok78wx38xCP8xir7ugAyplEAbecAaucAZ+f4tBP7vwDfAAD99fXiLjDn7/y1yvXu8/1lle2PsfHT4fp3qPDO5NP+7swAjED30tD76OfmOCnbKx34y8nXAAD+8df/9+f8/f9Wjuz935/94qsAYeagvfP92455ou/i8eauxfTgQzb804KKw5AyfOkAkTPz+PSz1roAiyf8yzzvpaDrhYDnb2vkX1niJxHxs7Drj4vsmZjlaWPme3nmJw/fUU/329ndRz3hKSW/y7P65cn50Zf5w2v4qQCabTr80XZ9gUOazqYbokTHRS1gkkqzWDNNsWZFnU7yvbr7xEi9UDCpYTcAnDOOdj50voZyh0T8zWHSOSttbBDTpJM/n1Vgr3Phx2C6zJalzrPZtwC72cePpB21sC1Rmj5qoDsAiRXTuiuEpDhTpWR7ojrDsADqqyLuAAAJu0lEQVR4nO3ci1PbRh4H8IraxvglPwiVOUweDsaKQ4CWuITImASLUEihvWup3fRySTkfvXPuHJqEhrt//lYvW5J3V5LXnal+3u9MMplkgelnfrv725XcTz6ZbD4V/tD5dML/uZMO52MK52MK52MK52MK52MK52MK52MK52MK52MK52MK52MK52MK52MK52MK52MK52MK52MK52MK52MK52MK52MK52MK52PKJPkWzUzwW04F32LlydP91rZa1KNut/afPqlMRBE83+rB/jYik6vVWGzOSKxaleVicfvoYJXz0VJ5JiO5aGyYOVuqalF+VuF8+Kwenjjp3Hxzc4k5WT05ZKhBsHyVr2TVbTfKh1JVq/v3OJ8j91qjhUfg0wTl1piAIPkqrZocxerh+RDgcWusRRAg3+pRTY5FCXwxPJ8GeDTGGgiP70BVo1GiHpFPm8IHU8+32qpFo775nH6J41bQAgTGd6AtejQ/mp62CwcsQFh8+7VoNACfW08rwKOp5Vt8rnrpeVSfVoDPgxyGAfGtynI0GB9GD/lVv55GvopTb6y1z/BL+G8BwfDdU116Y/MlEqrvMwgUvntq1J3x+RKyXz8gfF+7S49h8dMnsM/1DwbfqnvdY6w+5OevgQbBt7iN0WPk254evhZOj40vUW1NC99hDafHyJdQD6eDr4LXY+VLHPto/8LPt4iduRPgSySmge+pGoQviF/1KXw+0tSdRPV5T9+w8y2e+J27sqyqx+rxsaqenv7JZzxvX8LO9w2x+Ox+UbVY3T88qKwuLq59u/nnv3z23We+8t0mbL5G4ftTTz65ePLEdYhY28jlZ2dTqdQsPak10Hw7ncwvHnzy8RH2AHv/LJ+nyeX1PILMVy8UCj+Qyk/Hq9bweDrghbefR/mFm6/dQX4/UvjUE+rV0909T8AtuHyNgpYX+PLT9GpH9q3zwfISyvID+3c4o/ohwBy1/ELNt6sVX6HzE8EvWnsyHLtUurP+eGZ+fubx+sPS0vDvN7z8qJtvqPn+qldf4SVh9VP/NhhZujm/gOj0zKM/rpcG/7SZl6h+r6Dy1TsGXwffvAyfWJQeL5h0VuYXHg8A73qsf/eB8u2YfIUCrnmpWS8MLK1/PoPJ5+vWFN6k+9E2jzDzFQYZbV5iNeu6rnRjHqeHKvCGVYBbNL98CiZfuTP0e+32k78yR91awONpWbhlDqI2gPm7IPnaA77MaPMim83yrRtkvZmZG6bffers3QDJd23hoRR+dvjFrJblC0rt6fX3hTFuI08+/tL23hDznQ/wEN9LZ/GdGO3ybQ895Hfb+GY5iXx/kIfIVz4f4GXQ9P37qb34jI7vAWHTsGfeOIRsovIjAVIWv/Dy9TsDPR3QfvSNGUPoC59z+ctKRD/K4hdevq5dD/n9Y1h+5jPGJc+pq09fo/3bMsoPB5g/A8jnwNP8Xg87ZuNy9KGPuYtm70N98JrFNwpI6fzCy3duzNkh3+DoK5/oA5Z9TF19+i7rw/ekWaIfPL76uav6Mh2reZGNufulr7mLZu+X+vCtgd6IX554aRVavvIIXyZjzV3j+eJNX3MXzd6b+vC7w9nrFiTfGoSW77Izomc1LzW96Vv2h6dFn71rTj67IPnOL7R87VG+jHlvX9QH3Pa59KHF77b+BRQ+YucCi89oXoxX80o+lz60+Bk3L1k33wCQfGcVWr4dDF+mo928mJctfnpms/qMzvlCIvlB5MPoZTLa0Vc23uy543PnQHvHHf0LHmH4DMGp4dNeOpCfjce3has+3Y/8sBwUXzqdSf4y6epDgcg3svaltRR+OJX39QETWfvMGoQ3ed07b9pM5vXp5HZeq/rA86UHfC9OJ9X3Dfng9X2OU0falszPxQmdOoZ88E4dtjNv2pHMy+J4Z95ZMh+8M+/wxiXtSuZ7o3MJeuMiieL08AnneDyUznN9QND7vlRKJAACvO8TMmk8Hiq/f4512yzqwejNigD5umk8nlZ+/9JHBHvWIYkiAVCC+Kyj3yHppdMvjMe8gZ60oambwgPOQnzSVj4n8ynf6EOCPOcdFN8oIMjnvAKFL9lr6EN8v2XQyKVEoh/ItwyEa7JeUmkbY3y/42IWX8r8hX4bLn0w33Fp4xe/pJ503Rjk7w2rNREXi4/yfmSI+coKWS+ZfGOO8vN+34N/S3Y0k84CnKW8nRtiPgHXuFh6g+nr5+3S/0jY6jP9yF1fuPl23LM3aY+yaw7zfLe5/9aNZv8zbe6Gmq/unr1Jp9+lNZD+Zv3lr7iyswxTEtQ364Ue2c7pJ5TWnZ/ruDn8XMdlM4eft0YV0vbdkPPtKhQ8za8/HLtUemh9quiO/VNF/eY70sKnR4L7qaJGJknTQ37dhm047jNtXeU9mU7bOAB/pk1oKzQ8za9Xpn19uaes/EYpPXrTF3q+ejpJw9PS7NaJX91txiMfqFM3JUL+PK+wo3jooQJU8ID1rhKPRFZyYpa28oH+NLnQ8NRLJiPxZq/vEqz3e6jykN5HMYtC9oP9/zJAG6c3H4pyley2d8v1RqNe3m2/iVxplReJxCOizkcCpNz0weATet52RuIKSrPZRL/H4+Zfrbwz9fCAqT2vnx56vrLiT2808Xj8/VAP5ydRPgwIhA/tHmPhaXqoacna49pFvPYNEHyNsfB0vY9OPXcBSp4/GwCfUMbuHl52KJG32ZEEmrog+NDZYyy9lV9H9WyAHucNOHzCtdvPBx7aN3JYPlOQftMCis/VvXguekbx/UbS0/y8exZAfPXApRdf+ZDNEcsvK0oexw1QfEJdiQTCQ3xvER/JT6ReMcPjQ91zxE+fPNT7qOkRAH1tuqD4hEvk52/RM/hygzDoweETyr7nrab3Lkv0E0XfeoD40P6h+MTTmhZHnHo+1z1gfELjmuDnxkNNSy5HAJRe+dtz4fEJQhfrN6r3wa03AJQuAv1AWHzCrhL3xEMZKT7DL+fxWBI8n1C/bnrirXzE6SE/6SLIxIXIJwh9RaHrxeN7WL3ApQeST6jvNOMUO9S04PHOgpYeTD7UAr7RAEl67zF4aN76b/ag86EzyLVC0MM0LTlRfDUWHlg+rQIVrODKf0fxxqs80HxoDWz3MIIrzn1DlPY2xljzpoAPpdxWrpyC9qYlK0rZrQAntKnjQ6nvdnvN5tBwICftnW0y1N2U8GlplPs7b64jytXV1f8kSdy7uHi0cZ+ZTstU8JlpaJng9xOmi+93COdjCudjCudjCudjCudjCudjCudjCudjCudjCudjCudjCudjCudjCudjCudjCudjCudjCudjCudjCudjCudjCudjCudjyqT5/g9iljd9nb6cRwAAAABJRU5ErkJggg==;clipPath=inset(16.67% 33.33% 16.67% 33.33%);" parent="1" vertex="1">
                    <mxGeometry x="91.5" y="179.5" width="57" height="57" as="geometry"/>
                </mxCell>
                <mxCell id="37" style="edgeStyle=none;html=1;exitX=0.75;exitY=1;exitDx=0;exitDy=0;entryX=0.686;entryY=1.08;entryDx=0;entryDy=0;entryPerimeter=0;fontColor=#000000;" parent="1" edge="1">
                    <mxGeometry relative="1" as="geometry">
                        <mxPoint x="715" y="270" as="sourcePoint"/>
                        <mxPoint x="706.04" y="274" as="targetPoint"/>
                    </mxGeometry>
                </mxCell>
                <mxCell id="40" value="" style="endArrow=block;html=1;strokeColor=#A50040;strokeWidth=3;fontColor=#000000;exitX=1;exitY=0.25;exitDx=0;exitDy=0;fillColor=#d80073;endFill=1;entryX=0;entryY=0.75;entryDx=0;entryDy=0;" parent="1" edge="1">
                    <mxGeometry width="50" height="50" relative="1" as="geometry">
                        <mxPoint x="310" y="250" as="sourcePoint"/>
                        <mxPoint x="400" y="250" as="targetPoint"/>
                    </mxGeometry>
                </mxCell>
                <mxCell id="45" value="Linux サーバ" style="rounded=0;whiteSpace=wrap;html=1;gradientColor=none;fillStyle=auto;fillColor=#ffffff;fontColor=#000000;verticalAlign=top;strokeColor=#1d1921;" parent="1" vertex="1">
                    <mxGeometry x="285" y="90" width="495" height="230" as="geometry"/>
                </mxCell>
                <mxCell id="46" value="アプリケーション&lt;br&gt;（Spring Framework）" style="rounded=0;whiteSpace=wrap;html=1;gradientColor=none;fillStyle=auto;fillColor=#ffffff;fontColor=#000000;verticalAlign=top;strokeColor=#1d1921;" parent="1" vertex="1">
                    <mxGeometry x="314" y="159" width="200" height="150" as="geometry"/>
                </mxCell>
                <mxCell id="47" value="データベース&lt;br&gt;（PostgreSQL）" style="rounded=0;whiteSpace=wrap;html=1;gradientColor=none;fillStyle=auto;fillColor=#ffffff;fontColor=#000000;verticalAlign=top;strokeColor=#1d1921;" parent="1" vertex="1">
                    <mxGeometry x="594" y="159" width="160" height="150" as="geometry"/>
                </mxCell>
                <mxCell id="48" value="" style="shape=cylinder3;whiteSpace=wrap;html=1;boundedLbl=1;backgroundOutline=1;size=15;fillColor=#ffffff;strokeColor=#1d1921;" parent="1" vertex="1">
                    <mxGeometry x="633" y="202" width="90" height="90" as="geometry"/>
                </mxCell>
                <mxCell id="49" value="" style="shape=image;imageAspect=0;aspect=fixed;verticalLabelPosition=bottom;verticalAlign=top;strokeColor=#1d1921;fillColor=#ffffff;image=data:image/png,iVBORw0KGgoAAAANSUhEUgAAAoAAAAKUCAYAAACUiomuAAAABGdBTUEAALGPC/xhBQAAACBjSFJNAAB6JgAAgIQAAPoAAACA6AAAdTAAAOpgAAA6mAAAF3CculE8AAAABmJLR0QA/wD/AP+gvaeTAAAAB3RJTUUH6AYQEjUEU2TgwQAAgABJREFUeNrsnXd8W+X1/z+SLMl7723He2UnziQ7IYOQsPePAoVSVqGldFFaKAU6KKOUPZMQQkL23omd4STeK957xVu2PLR+f8jkGyDDjs+VrqTzfr38CmSc++jo0dXnnucMCRiGYRjG+vAE4DH06+X+2wWAOwA5AGcAjgCUAFyHfs/tKrY9LvnvXgCDQz+9AAwAOof+rBuADkAPgHYAHZf59fv/brvk3zGM4EjYBQzDMIwF4QwgHEAoAH8AQT/6NRiA75CIszT6ANQBqAdQO/TfDQBqhn6vHkATbwGGBSDDMAxjbciGBF40gMih//7+JwKAt437ZwDA+aGfEgBFl/y/ircPwwKQYRiGETOOABIBxA39xACIHfpVye65LuovEYMFADIBZMMYWWQYFoAMwzCMSXEDkAxg4tBPwtD/K9g1gqMbEoTnLvnJBKBm17AAZBiGYRgqwgGMBzBu6Gc8gBB2i6jQwBghPAcgA8DRIZHIsABkGIZhmGviAmAagBlDPxPwwwpZxnJoAHAYwJGhX8vZJSwAGYZhLB1/GIsHvAH4DP14Df2/F4z5aC4AHADYw3hkKYexJcjV+L7lhxbGBPx+GPOtvm8N0j30Zz/+O2oArUM/Fy75b7ETAGDmJT9jYSzaYKyPmiExeGjo12p2CQtAhgEAKX7aJ8v1ki8DDYy9r4D/64XFMELhC2NeWQSM7UHChn4NGfrV3gJeg+5HYrD5R//fMvRTA2OLEK0J1hQFYO6Q2JsBYAxvNZulHMAOAFsBHDfR/mNYADICYT/0RB849OONHzZM/f5XZxgbpirxf5ESu+u43veNUi8Vhd//Xi+MjVC/b4ja+qP/v/TXQX7rbJZAGPPKEmCsHI0f+tXTxvygHRKBFQAqL/PTfJ12XQHMA7AIwGIY27AwzI9pB7BzSAzuueS+zrAAZESCy9AT+5ihG/kYGCMkQUPCz1K/NFX4v0aptTBGRGp+9P/c9sDy8YOxYnTSJT8B7JZh0fsjQVgMIA9A7tDD1/dIYczbWzwk+qZf58MdY7v0Azg4JAa3jeLhg2EByFwHHjC2VEgc+jUJxqiIjw375MIlgrAKxoap3zdOreUtI0oiAcwGMGfo1wh2iSBUDgnBTgA3wnh8zjAU6AGcArAewNewjLxWFoCMxeANYMolPykwRvSY4dN7iRg8jx921e9h95iMwCEBMgfADeBWIQxjTQwC2AXg86FfNewSFoDM8JHBmO80+xLBxzk5wlILY3QkB8YO+lkw5lnp2TWjRjq0h5cDWDq0t/kexDDWzwUA6wB8MXRPZVgAMpd5P5JhrLqbOyT8uKeW+VENicLsIWGYBSAfxtwX5uooYMwtu3VI9PmwSxjGpsmDMSq4DkATu4MFoC3jAWAJgBUAFoIHnVsKWhiHsJ8a+jk99P8cKTQWESwAcDuAm/khhmGYK9xDtwN4C8ZJJAwLQJsgekjwLQcwC1x1Zy10AzhziSA8DWPfNlthKoAHYYz2efF2YBhmmGQB+A+MxSPc5osFoNURBeCuoZ94dofNUAHgBIBjQ0+5JVb2+rwA3AvgYRirzxnGInBxcYGbmxvc3Nzg6uoKJyeni79vZ2cHmUwGV1fjIBhHR0colUro9Xp0dXVd0WZHRwfUajXUajW6u7uhUqmgVqvR29uLzs5OGAwGdvzVaQLwHoD3YcwbZFgAWiwBMB6D3Q1j8jvDNA4Jwe8FYRGM48QsjbkAHoXxiFfJbytjTuzt7eHj44PAwED4+vrC19cXAQEB8PX1hZ+fH3x9fS+KPQ8PD7i5uUEqlZp8nX19fWhvb0dzczOamppw4cIFtLS0/OC/Gxsb0dDQgNZWm+6g0g9gLYzHw3m8w1kAWgoKAKsAPARjR32ek8lcjQuXiMH9MDbsFSvKoYeZp2GcAcswJsHZ2RkREREIDw9HWFgYwsLCEBoaevHXgADr6w/e3d2NiooKVFZWoqKi4gc/VVVVGBy0mZPSAwD+DWA3fxJYAIqVYAD3AHhi6L8Z5npoHhKEB2Ccu9kggjX5wpjb9yS45yQjEHK5HGPGjEFsbCyio6MRHR2NmJgYREdHIyiIt92l6PV61NbWIi8vD3l5ecjJyUFubi5KS0uh1VrtiN5cAK8A2AjLPDVhAWhl2MFYyPEYjBW8UnYJQ3mfh7H1zP6hnzQAAya8fiiAFwD8DHzMy1B96UgkCA8PR1JSEhITE5GSkoLExETExcVBoVCwg0ZBf38/CgsLkZube/Hn3Llz6OzstKaXmQXgrzCOnmMhyALQ5DjAGBF5DtyYmTEdvUNCcCeMnfWFig6GA/gdgP8HY0oDw1w3QUFBmDJlCiZPnoypU6di0qRJF4srGBM8Rer1KCgoQFpaGk6cOIG0tDRUVVVZw0vLAfD7oXshwwJQcDwAPA7gKfD8TMa8GABkDonBnQDOYvQ9CCMA/AHA/QDk7GJmpLi4uGDs2LGYOHEiJk6ciJkzZyIigkc6i42mpiacPXsWaWlpSE9PR0ZGhiXnFB6D8aTiJL+zLACFIBDGaN8jAFzYHYwIaQawDcAmAIcwsrmbXkPC75ewsYifvb09vL294eDgcLEViL29Pdzc3C62/rga/f396Ovrw+DgIHp7e6HT6dDd3Y3+/n50dHSgs7MTarXaav0XHR2NuXPnYubMmZg8eTJiY2MhkfDXiqWhUqlw4MAB7Nq1C7t370Z9fb0lvoytMEYEC/kdZQFIgQeMFY/PsvBjLIgOGAtItsN4PNJ7hb+nAPALAC8BcLcmB8jlcoSEhPygcjQoKAje3t7w8fG52B7E2dlZ8LUMDg6is7PzoiC8cOECmpqa0NDQgJaWFtTX11/8tb6+XtRJ/IGBgZgxYwYWLFiAxYsXIywsjD9tVkhFRQV27NiB7du34+jRo9BoNJaydD2M7WN+Ddtqws8CkBBHGI95n4cNjLGSSCTw8/O72EPLy8sLnp6eP/hxcnKCi4sLnJ2doVQq4ebmBgcHB9jb2//Ajru7+8UoyPdffr29Rv3R19eH/n7j+Nyenh5oNBpoNBq0t7f/5Kejo+Mnv6fT6XhnjpzuITG4CcY2Cn1Dn/t7APwNxkIPi8XT0/NiMUFycjLi4uIQERGB4OBg2NlZ3oAdrVaL2tpaVFVVobKy8uJPWVkZiouLr9qEWAgCAgKwYMECzJ07F3PnzkV4eDh/omztabKjA/v27bsYHbxwwSL6M3cA+AuMTaU1/C6yABxW4ADGiscXYTz2tQrs7OwQGhqKMWPGICoqCmPGjEF4eDgCAgIQGhoKPz8/yOXiT/nq7OxEQ0MDampqUFdXh7q6uh/8d3V1tVUftxHQC2NE0B/GEYQWhb+/P6ZOnYpp06ZhwoQJSExMRGBgoE29gfX19SgqKkJxcTEKCwtRVFSE7Oxs0irPxMRELF++HCtWrMC0adPM0jCZESc6nQ6nTp3Cl19+ifXr11980BcxxQB+BWAPv3ssAK/GXADvAkiwZKEXFRWF5OTki60VkpOTERYWZhECj+pp9XsxWFpaipKSkos/dXV1vMst5cYkkWDs2LGYPXs2UlNTMW3aNI4+XYWKigpkZmYiMzMTWVlZyMzMREvL8E7A7O3tsXDhQqxYsQLLli2zOVHNXB99fX3Ytm0b1q1bhz179oi9iOQ7GNO5+EuABeAPCADwTxgnHFjUF2RcXBymTJmCKVOmYOrUqUhKSrpm0rot09vbi5KSkovC8Pz58ygpKUFRURFUKhU7yMz4+/tj1qxZWLBgAZYtW8bNf0dJY2PjxSrPc+fO/aDSUy6XY8GCBbjjjjtw8803w83NjR3GjOrBe+PGjVi3bh2OHTsGvV4vxmWqYDzdexeAlt812xaAUhgH2L8BQPR3P7lcjqlTp2LevHmYOXMmpkyZwjdtIgwGAyoqKpCdnY3c3Fzk5OQgJyfHWnplifcDKJVi+vTpWLVqFVasWIHo6Gh2ipDffioVMjIy0NXVhdmzZ8Pb25udwpBTV1eHL7/8Eh9//DEqKyvFuMQcGIc3nGIBaJtMBfABRDzPVCqVYsKECZg3b95F0efk5MR3FxPS2dl5URDm5ubi7NmzyM/Pt+ZRS4KjUCgwb948rFq1CitXroSfnx87hWGsEL1ej3379uHDDz/E9u3bxXbf1AF4C8AfYSyMYwFoC98/MIaAfwvjGDdRYW9vj5kzZ2LFihW45ZZb+AhMhGg0GuTm5l48Vjt37hwKCwthMPBEoqsxceJE3H///bj77rs58sQwNkZDQwPef/99vP/++2KrIi6BsfAznQWgdZMI4EsAE8S0KFdXV6xatQqrV6/GggUL4OjoyHcLC6OpqQkZGRnIyMjAqVOncOrUqYutb2yZiIgI3HfffbjvvvsQFRXFG4VhbJz+/n6sXbsWb731FvLy8sSyLAOAj2Ds92tTN25bEIAyGKd4/BUiGWivVCqxaNEi3HbbbVi9ejUf7VoZOp0O2dnZSE9PR1paGg4ePIj29nabeO1SqRTz5s3D008/jWXLlvFUCIZhLsuBAwfw2muv4eDBg2JZUgmAewGcYQFoHYQDWANghhgWM3nyZDzyyCO49dZb4eHhwXcAGxKEeXl5OHr0KI4dO4bjx49bSjPVYePp6YmHHnoIv/jFL3j2K8MwwyY7Oxtvvvkm1q5dK4Zm/xoAf4axONTqJw9YswBcMiT+vMy5CHt7e6xYsQJPP/00ZsyYwZ92BoCxb9uBAwdw4MAB7N271xIaql6WiIgIPP/883jggQfg4ODAbywjKgY0WrSr+tDa1YsOlRrdvQNQ9Q2gp28QPUO/qtQD6OkfgKp3AADQ2z8Ind4AnV4Pdb+xbU7foBYarVEPSKUSONv/dGS2TCaFo1IBJwcFHBR2sFfI4eKovPjfzg4KeLg4wN3ZAZ4ujvByc4SHswM8XBwg42bbKCgowN///nd8/fXXYmgjcxTA/QBqWABaFlIAf4Kx2MNsn6q4uDg88cQTuPfee7ldC3P1L6mBAaSnp18UhJmZmaIfe5eQkIAXXngBd911l0WOXGMsn+7efjS2q9DUrkJDWzca21Ro7lChrVuNdpUarZ29UA+IfwqYRAJ4ODvA3cURvu5OCPJ2Q5C3G4J9XBHk7YZAL1e4ONpOf9fCwkL8+c9/xqZNm8xdXNcBY7uYDSwALQNPGKN+N5prAVOmTMFvf/tb3HzzzTxCibku2tvbsW/fPuzcuRN79uxBa2uraNY2btw4/OlPf+L9zZjms6DqQ3VzB2pbOi/+WtPSiYY21cXonC3g6mSPYG+jIBwT6IXoYG9EB3kjwMsV1ppmm52djRdffBHbt28391L+C2MdwQALQPEyAcBGAGZJQJo5cyZ++9vfYvny5XzXZsjQ6/XIysrCgQMHsGPHDqSnp5vlqTgiIgIvv/wy7rrrLhZ+DDmdPX0orW9DeX0byhvaUFbfisqmdvT0DbJzroKTvQJRQV6ICvJGzJAojAr2hqPSekZ/pqen49e//jVOnTJr3+YzAG4DUM0CUHzcDGAtAJP3UJk/fz5effVVTJkyhe9GjOA0NDRg+/bt+O6773D48GFoNMIecXl5eeE3v/kNnn76adjb2/MbwIyadlUfCquaUVDVhILqZhTXXEB7t5odQ4RUKkFMsA/GjgnA2DEBGBcVCF93Z4t+TQaDARs2bMDvfvc7c04X6YKxZ+B3LADFw1MA3oSJ8/2SkpLw4osv4rbbbuM7DmMWOjo6sGPHDmzfvh27du0i7T2oUCjwzDPP4A9/+ANcXV3Z2QwJLZ09+PpgNrakF0ClHmCHmIhAL1eMiwpESqRREEYGekJqgWfHAwMDePvtt/HKK6+Yq3DOAOBVGGsM9Ja+LyQWvvY/D/2YjPDwcPzud7/Dww8/zEdhjGjo6+vDwYMH8e2332LLli2jujkuXLgQb7/9NuLi4tixjCCoBzTYkpaPNfuz0NLZww4xMZ6ujpiRGIbpSeFIjQ+1uCKTxsZG/OY3v8G6devMVSiyG8BdMEYFWQCaGCWAzwHcaaoLOjo64vnnn8cLL7wApVLJdxBGtPT39+PAgQPYvn07tmzZgpaWlmH9u9DQUPz73//GLbfcYpV+GdBoUd/ajU5VH9pUanSo1OhQ9aGzpx8dPX3o7RvEgFaLvn4NegcGMTCoQ9/A1XPQ7JVyyGUyKOUyKOV2kNvJYK+0g6ujPVwdlXB2UMLFUQkXByVcnZTwdnWCp6sjfNyd4HSZViK2xqBWhx0ni/DlvnOou9DFH14zIJNKMXZMAGYkhWN6UhiigyxnVOOxY8fwy1/+Evn5+ea4fAmAlQCKWQCa8OEFwDaYsLnzqlWr8J///AehoaE2d3Po6RtEd28/utT96OkbxMCgFv2DGvT0DWJQq0XfgPYHN/P+QWNOmrODElKJBFKp5OIXncJOBnuFsWWIo1IBO5kUzg4KuDrZw83J3qZaHZgKjUaDffv2Ye3atdi6dSvU6p/mWkmlUjzxxBN49dVXLX4qzYBGi4rGdpTXtw1Vi3ajobUb9a1daBNZnplSbgdvNyd4uzki0MsVgd7/1/Yj0MsVfp7ONtMfTq83YN/ZEny6+wwqGtv5g2tG/DxcMCMpDAsnxWBiTJDoj4q1Wi3efvttvPjii+YYwdkO4HYABy3xvbY0AegF4ACAcaa4WGRkJN555x0sXbrU6j7k6v5B1F7oQn1rN1o6enChqwcXOnvR0tmD1q5edPX2o6u3H3q96cLrUokErk72cHVSGiMoTkq4OdrD1ckeXq6O8Pd0gZ+HM3zcneHv4QKFXMZ36xGgUqnw3XffYe3atTh06BB0Oh2io6Px6aefYubMmRb3erp6+5Ff2YT8yiaU1behrL4N9a1d0Ju3dxgZdjIpQnzcERHgiXB/D0QO/Rru73nxQcrqhKDBgL1nSvDRjtOoaenkD62Z8XFzwsJJMVgyJRYJYb6iXmtlZSV+/vOf48CBAybXoACeBvAeC0Dh8ACwH8BEwZ0ikeDJJ5/Ea6+9ZvHTDRrbVSivN7ZVqGhsR92FLtRd6ES7qs/ib06eLg7w9XCBr7vzRXEY6O2KUF93hPq6w8GKWiFQ09DQgNLSUqSmplpMSkN1cwfOnq9DboVR9FU3d9jkeyeVShDu54HYEB/EhfoiNsQHsSE+VhVB1+n12HmqGB/tOI3GdhV/YEVAqJ87lkyOxZLJsQj1cxflGg0GAz7//HM899xz6Ogw+f3hbQC/ggUVh1iKADSZ+AsNDcVnn32GefPmWdwHtO5CFwqqmpFf2YSimhaU1bfadB8tPw8XhPq6IdTPA2F+7gjz80ConzsCvVx59JIF0N6tRkZxLTKKa3G6qBbNHSwErkaYnwdSIv0xdkwgUsYEIMLf0+KbBGu0Onx3PB8f7cxAZ08fv8kiISHMFzdOjcOyqXFwdRJfe6jGxkb84he/wNatW0196U0A7gNgEZvVEm4PPjAe+6YIfaEHHngAb731lkWMbtPrDSiuvYCz5+uQWVqH/MpmvkEOE7mdDGF+7ogO8kZ0sA9iQ4wNVD1dHdk5IniIOZRVjiPZ5civbLKa41xz4OqoRHJkACbHBmNKXAiigr0tsvUHYMxF/mzPGaw/lIMBjZbfXJGgkMuwYEI0Vs9KwrioQNGt75NPPsGvfvUrqFQmfXg8CeAmAK1if//Efjcwifhzd3fHJ598gtWrV4vaGfWtXUjLq0JGcS2ySuvRzX20SPFydUR0sDdign0QHeyN2GBvhAd4WuyXpiWJvt0Z53Eoswyl9a3sEKHuc84OmDQkBlMTQhHoZXn9HZvaVXhv60nsyTjPDwciY0ygF+6YOxbLUuOglIsnR7WiogL3338/0tPTTXnZIhhH0op6coiYv9kcYaysSRXyIikpKdi0aROioqJE5wC9wYD8yiYcy63EsdxKVDS08V3G1JvQXoGEMF8kR/gjMdwPSRH+8HZzYseMEpV6AAcyS7HzVDFyyhvA3+Xm+cKemRyOWckRSIkMgFRqOQ86BVXNeGP9ERRUNfMbKTLcnOyxelYSbpuTIpoJJDqdDq+//jpeeuklwacnXUIjgEUA8sX6Xon1Ey+HsdXLEiEvct999+H999+Ho6O4jv4Kq5qxO+M89p0tEV3rCsaYW5gUYRSDSUPCUGHHFcnDIb+yCRuO5OJAZikGNTp2iIi+tGckhWPBxCikJoRZxH7WGwzYcbII725Ot4qiNmvDTibFkimxeGDxRET4e4piTSdOnMBdd92FmpoaU12yZUjHZLEAHP6aPgHwoFAXUCgUePPNN/H444+L5kU3tHZjx6ki7DlzHjXNnXz3sCAUchmSwv0xISYIE6KCkBzpzxXIlzCo0WHf2RJsOJKDwuoWdojIcbJX4IaxkZg/IQrTEsJE325JpR7AhztOY8ORXOj0en4DRYZUIsHM5HD87MbJSIrwN/t6urq68NBDD2HTpk0muySAZQDSxfbeiFEAvgzgj0IZ9/LywpYtW0TR90yvN+B4XiU2HcvDqcIazmmxEmRSKRLCfDE+OhDjo4MwITrIJqc+9PQNYsORHKw/lM0RGgvF2UGB+ROisSw1DuOjgkRdVVxc04K/rTmEohp+yBAr05PC8NiKaWbvKWgwGPCvf/0Lv//97011JNwL4BYAe1kAXpmfA/hAKOORkZHYtWsXYmNjzfoiO1R92HgsD5vT8tHSwXMwbUEQJkX4YWp8KKbEhSA50t+q29B0qPrw9aFsbDiSY9NtiKyNQG9XLJ0ah2WpcQjxcRflGvV6A9Yfzsb7205BPaDhN02ESCTADWPH4LEVqYgK8jLrWtLS0nDbbbehqanJFJcbBHArgO0sAH/KcgBbAAhy3jB58mRs374dfn5+ZnuBje0qrNmfia3pBegf5FYGtoqjvQKTYoIwJS4UUxNCRJMfM1pU6gF8ue8cvj6Uzfvbyr/AJ8UEY/XsZMwZGwm5CPMFG9tV+Pu6QziRX81vmEiRSiRYNDkGj6+cZtaK9Lq6OqxevRpnzpwxxeUGAKwCsJsF4P8RDeAMAEEa8C1fvhzr168325zTqqYOfLbnLPaeOQ+tjnNUmB8S6OWK6UlhmJkUgclxwaJqoTCsx1qNDhuO5OCzPWfR1dvPb6gN4enqiJumJ2D1zCQEeourrYzBAGxOy8d/Nh7naKCIkdvJcOvsZPx8+VSzTbMZGBjA448/jk8//dQUl+sfEoF7WAACTgBOAUgSwvh9992Hzz77DDKZ6Z9SmztU+HBHBrafLDTpTF3GclHK7TApNhgzk8MxIylc9L3a9p0twdvfpaOJx3XZNFKJBDeMjcRd88dhQnSQqNZW39qFFz/bh5zyRn6jRIy7swMeXTEVt8xKNltLorfffhvPPfcctFrBTzD6AdwMM+cEikEArgNwlxCG77zzTnz11VewszNtRKW7tx9f7DvHXeuZURMZ6IUFE6IwKyUC8aHiGcZe0diOf6w/gjPn6/hNYn5AXKgv7p4/DgsnRovmeFivN+Cr/Zn4YPspDGq5/ZCYiQn2xm/vmouxYwLMcv39+/fj1ltvRXd3t9CX6oNxYsgBWxWATwP4jxCGzRH50xsM2Hw8H//dcoKndDDkhPt7YN74KMwbPwZxZhKDfQMafLDjNNYfyuZ0Buaq+Ho4494FE7BqZqJo2iKV1rfixU/38cQZkSORAEunxuPp1TPMMqIzLy8Py5YtQ21trdCX6gGwAMBpWxOAs2Cc9EF+ZzCH+CuqacFr6w5zZ3rGJDy8bAoeW5Fq0muePV+Hl786iPrWLn4DmGHj7uyAu+aNw+1zUsyW43Upg1odPth+Cl/tz+TUHJHj4qjE06tnYuWMRJO3IKqrq8OyZcuQm5sr9KXaAcwGUGArAtAXQDYA8hjvPffcgy+++MJk4k89oMG7m09g47FcvpkwJmH1rCT87u55JrshqvsH8fbmdGw6lscj25jrxslegbvmj8M988eLQgjmlDfiT5/tRUNrN785ImdybDD+cO98BPu4mfS6KpUKt956K/bt2yf0pRoAzARQacrXZ64EjbUAJlEbXbRoETZs2GCynL+c8kY8+fYWnCys5i9GxiTcND0Bv793HqQmUn+55Y14/K0tOF1Uy85nRoVGq0NmaT02H8+HVmdAXIiPWXME/T1dsCw1HpWN7ajm6UuipqGtG1vSC6CU2yEp3B8SE93/lEol7rjjDpSUlKCgQNAAnQuM00K+hfFY2GoF4IMAfkttdMKECdi1axccHBwEfwGDWh3+u+Uk/rb2ILe9YEzG0qlxePH+BSapkDMYDPh0z1m89Pl+dKt5jzN0DGh0OHu+DpvTCiCVSBAX5mu2xuhKuR0WTYqFUi7D2ZI6fpAXMVqdHqcKa3CqsAYTY4Pg5mRvGpEkk2H16tVoamrCuXPnhLyUJ4CFMBbGmqSIwNQCMBzAVgCk8f+IiAgcOnQIXl7CdxWvbu7AE29tweHscr5ZMCZjdkokXn14iUnEX3dvP55+dzu2nSiEgTc5IxD9g1qcKqrB7tPn4enqiDGBXmYZNSeRAOOiAjE+KggnCqvRxz0DRU1LZw+2nyyCm5M94k00Uk4qlWL58uWQSCQ4cuSIkJfyBzARwDcABK+yM6UAlAL4DgDpHDYvLy8cOnQI4eHhgr+AQ1nleObdbWjq4J5njOkYOyYAb/5yhUmOy3LKG/DIvzahoqGNHc+YBFXfAA5llSG9oAphfh4IMFPvy0BvVyyZHIuCqmbuaylyNFodjudVoqSuFVPiQmCvEL7KXCKRYM6cOXB0dMSBA4J2bhkDY32E4CPjTCkAfwXgUUqDcrkcu3fvxoQJEwRduE6vx7ubT+Bf3x7lHlKMSYkM8MR7T6+Ck71C8Gt9dzwfv/94D3p5fi9jBi509mL7ySIU17QgOTLALIUiTvYKLEuNg0arQ24FN44WO1VNHdhzpgSJ4X7w93QxyTVnzJgBd3d37N0raA/nCQA0AI5bgwBMgDGkSVqd8dZbb+HWW28VdOHd6gE8+9/t2J1xnj9tjEnx9XDGB8+uhpersCMMNVod/rbmED7elcGV7IzZqW7uxOa0fOj1BiRF+EMmM21+oFQiwdT4UEQFeeFEQTU0/NAvanr7B7HzVDEMBgPGRweZpEAkNTXVFCJwHoASAPmWLAAlADYDiKQ0evfdd+P1118XdOEtnT144q0tyKts4k8ZY1IclXK89/QqhPl5CP6A86v/bseR7HJ2OiMatDo9zpbUYc+ZEoT4uCPUz93ka4gI8MTccWNwoqCaG/uLHIPBgHMl9SisbsH0xDDYK4TvBJKamgo3NzchRaAEwHIAhwEI0obBFALwfgBPURpMSUnB1q1bIZcLd+5fVt+GR9/8DjUtnfzpYkwegXj14SWYGBss6HUaWrvxizc3o7Cam5cz4kSlHsCeM+dRXNOC8VFBcHJQmPT67s4OWDo1DnmVTWjkvEDRU9vSiQOZpZgUGwwvE0wQmTZtmtCRQDsAS2E8QSVvWCm0AHQFsAXGHjc0H0h3dxw8eBB+fn6CLfp0UQ2eeHsrOnv6+BPFmJwnVs3AzTMTBb1GYXULHntzE3+pMRZBdXMntp0shIuDEnGhvibrAwcASoUdFk+ORV1rF8q5OMoiHhq2nyxEgJcrooO9Bb9eamoqlEolDh48KNQlnAHMBfAVjHmBFiMA34Bxzh0Z69evx7Rp0wRb8ImCajz3vx3oH9TyJ4kxOctS4/HMrTMFvUZmaT2efHsrH2sxFsWgRoe0vCqcK6nHxJhgkxaJyGRSzBsfBQMMyCqr5zdD5Oj0BhzJKceARovJsSGCPzDMmjUL/f39SE9PF+oSAQBCYUynswgBmALgYxjbv5DwyCOP4De/+Y1gCz5ZWI1fv78DgxpO+mVMT0ywN/71i+WwEzDp/cz5Ojz73+1Qc68zxkJpbFdhc1o+HJUKJIb7m6x3oEQCTIoNRri/B47nVULHBVOiJ6e8EaX1bZidEinofRUA5s+fL3Sz6LEAVABOil0ASgBshLHxMwkRERHYvHkzlEphnvpOFhojfyz+GHPg6qjE+7+6BR4uwk2yOZxdjl+/vxMDGo5uM5aNVqfHiYJqnK9tweTYEDgo5Sa79phAL4yPCsLR3Er+LFkAVU0dSMurxKyUCEHbaUkkEixduhQlJSXIzxescHcBgBMAKsQsAO8F8AyVMalUii1btiAmJkaQxZ45X4dfvbedxR9jFqQSCV77+VIkRgiX13ostwIvfLgbWp2eHc5YDdXNndhxqgjBPu6ICPA02XUDvFwvqRDmUYlip61bjcNZ5ZiaECroQ7ZEIsHKlSuRkZGB8nJBOitIASyCMR+wV4wCUAHjxA93KoPPPfccHnnkEUHesPKGNjz5zlYe/8OYjYeWTcHqWUmC2T+RX43nP9gFDYs/xgrpH9Ri/7lS1F3owuS4ECjkpmlv6+Zsj0WTonGqsAbtKjW/ESJH1WesKE+JDBB02oxMJsPKlSuxe/duNDUJ0kLOGUASjDODRScAfwHgbipjiYmJWL9+Pezs6Pv6NLWr8Ni/v0OHiqt9GfMwPioQLz2wULAk5YyiWjz7/naeYMNYPaX1rdhz5jxiQ3wQaKJxcg5KORZNjkFmST1aOnv4TRA5gxod9p4pQWSgFyL8hYsYK5VK3HTTTdi4cSO6urqEuEQ0gC4Ap8QkAJ0AfAuiti8SiQQbNmxAVFQUufd6+gbxy7e2oPZCJ38qGLPg4qjEu0+vgqtA1YyF1S146p2tXNHO2Aw9fYPYdboYBgNMNhVCKbfD4skxKKxuQX1rF78JIkenN+BgZhn8PV0RG+Ij3P3dxQWLFi3CunXr0N8vSJrAHAAbAFx3byJqAfgcgJupjN1///145plnyL2m1xvwq/e284QPxqy89MBCjBsTKIjtugtd+MV/NnOrF8bmMBiAcyX1KKppwfSkcCjlwk+FkNvJsHBSNCob21HZ1MFvggXskWO5FXB2UCI50l+w6/j6+mLq1Kn4+uuvodORn8LYwThm90sxCEB3GLtVk2RYurq6YsuWLXBxoR/w/M7mE9h1upg/BYzZuHlmIh5cMlkQ2+3davz839+hpYOPpBjbpaalEwfOlWFCdBC83ZwEv55MKsXc8VGovdDJDaMthJOF1XCyVyAlMkCwa0RERMDX1xc7duwQwnwkgFIAeeYWgH8EsJjK2BtvvIEFCxaQe+toTgX+ueEo73zGbAR6ueJfv1gOuR19Cu6gRocn39mKMv4CYhio1APYcbIITvZKJEX4C349qVSCeeOj0K3uR0EVj1i0BE4V1kBuJ8P4qEDBrjFp0iQ0Nzfj7NmzQpifCeAjACM+7qH6BvIB8DWMFcCjJjExER9//DFkMtovyJrmTjz97lZu98KYDYkEeOPRZQj39yC3bTAAL362DycLq9nRDDOETm/AiYJqNLWrkJoQKnhDYIkEmJ4Yjr5BDXIrGvkNsADOFNfCTibF+Oggwa6xePFiHD9+HFVVVdSmnQHoARwylwD8LYCFVK9m48aNiIyMJPXQoEaHX/xnM5r5WIwxI7fdkILb56QIYvujnaex4UguO5lhLsP52gtIy6/C9KRwuDgIO0ZOIgFSE0LR0zfAueaWIgLP18FRKUfKGGGOg2UyGZYuXYoNGzYIURk8AcCnAEYkcCgEoAOAtTBWAI+aFStW4IUXXiB3/tub03E0p4J3OWM2grzd8MZjywQ5+j2YWYY31h9hJzPMVWjrVmPfmRJMiA6Cr7uz4NdLTQhDR48ahdUt7HwL4FRRjaCFIU5OTpg7dy7WrFkDjYa097ACgD2A3aYWgA8DuJ3mqUmC9evXw9+f1vnZZQ34+7rDMPDoRsaMvPKzxRgT6EVut6a5E8/8dxv3+mOYYdA3oMGu08UI9nFHVJCXoNeSSIAZSRFo6+5FUQ2LQEvgdFENQnzdERXkLYh9f39/BAQEYOvWrdSmxwH4AkC3qQSgFMaRJCSeuvPOO/HEE0+QekQ9oMGT72xFVy+P62HMx/wJUfjZjfRVv+oBDR5/awtX/DLMCNDpDTicXQYAmBgTLLwITA5H3YUulNVzcZbYMQA4klOBMYHego0XHD9+vBAzg2Uw5gLuM5UAvAkAiWKzs7PDt99+Cy8v2ieyv687jDPn63hXM2bDUSnHm79cAWcB8o7+/Pl+nOX9zTDXxbmhCR7TE8MhlQrXNFoikeCGsZGoaGhHZVM7O17sItAAHMutxPioQMHGxs2fPx9r1qyBSqWiNJsM4D0MsyJ4tOVQz1Kt+oEHHkBMTAypg7PLGrD9ZCHvZsasPLxsKvw86PtZbk7Lx76zJexghhkFW9IK8NQ7W6ESuGm6TCrFqw8vweyUSHa6BTCg0eJX721HaX2rIPbd3d3xn//8h9qsC4BHhr0nR3GhyQBeoVixUqnExo0b4ebmRuYFnV6PX/13O9p5zi9jRiIDvfDSAwvJowuVTe34zfs7odXp2ckMM0rqW7txPLcSs1IiBInUf49UKsHc8WNQUNWMugs8Nk7saLQ6nMivwqJJMXC0V5DbT0hIQEZGBsrKyijNRgF4Z1j7cRQXeZJqtffccw9CQ0NJHbv+UA53Y2fMikQCPH/HDeR9xwa1Ovzxk70845dhCKlobMfD/9yImuZOQa+jsJPhn48tR7IJGlMzo6exXYVn/rsd6gGNIPb//e9/U/c8jgQwfTh/8Xqv6gbgEwByitV+/vnn8PPzI3v1bd1q/PbDXVwVyZiVpVPjcM+C8eR23/4uHYezy9nBDENMT98g9meWIjUhFF6ujoJdx04mxeyUCBzKKhf86JkZPa1dvSitb8XCSdGQSmhPc7y9vVFdXY2srCxKswMAdl7rL11vaOJOACSfjsWLFyMlhbYx7lub0tDTN8i7ljEbTvYKPLV6Brnd3PJGfH0omx3MMALR3q3Gz/+1Cbnlwk7x8HR1xH+fvhmeLg7sdAsgLa8K/9mYJojtP//5z1AoSI+Yb8cwAnTXGwF8DwDJzJT333+fdOpHWX0bXv/6CLjlH2NOnlw1A1PjadMa+ge1ePKdrejs4ZZGDCMkgxod9p8rRVJkAIK8XQW7jquTPcZGBWJPRgl0es7nFTv5lU3w83BGXKgvqV03NzeUlZUhJyeHyqQjgDMArloleD0RwCQAUyhWmJycjPnz55M68t0t6dBzx2fGjPh7uuDWG5LJ7b67JR01LZ3sYIYxAeoBDZ5+dyuO5Qo7QSolMgB/e2ixoG1oGDpeX38E+QKM9/v1r38NCe3x8r3X+gvXIwAfFOsLLqhqRnp+Fe9Qxqz8fPlUKIjHvRVUNWPDYZ7zyzCmZFCjw/Mf7MKejPOCXmfOuDH4zR03sMMtZE/85v2daO3qJbWbnJyM2bNnU5pcAeCq4euRfkspYBw1Muq5v76+vvj0009Jq1/+9Ok+NLR18w5lzEa4vwf+cM980gcbvd6AX/9vBy4Q33AYhhnG589gwJGcCoT5eQgyyvF7EsP9MKjVIbusgZ0uctQDGuRWNGFZajxp5Fan02Hbtm1U5uQAzgO44rnySCOAywH4UKzs3nvvJU16PF1Ug3MlPBGBMS+Pr5xOfpSz8VgezxFlGHOKQL0Bf/x0L/afKxX0Or9cOR0LJ0azwy2A3IpGfLjjNKnNW265Bfb29pQml1ztD0cqAO+mWtUDDzxA6rhPd5/lHcmYlYQwX8wdN4bUZruqD+9vO8nOZRgRiMAXP9uH43mVgl1DIgH+dP8CRAV5scMtgC/2nkNJ7QUye+7u7li6dCnlEucCkFAIQMdrqcnhkpqaStr6pbimhaN/jNl54uYZIG4Rhbc2paGb+4QxjCjQaI05gSfyqwW7hqNSjn8/vgIe3B5G9Oj0ery58TipzXvvvZfSnB+ARAoBeCMIcv8A4MEHHyR12JoDWbwTGbMyIToIU+JDSG1mlzVg1+kidi7DiE0EfrhT0KBDoJcr3nh0GeTExWQMPWfO1yGjuJbM3tKlS+Hh4UG5xHkUAnAVxUocHBxw++23k72yls4eHBA4L4NhrgV102edXo/Xvj4M7mjEMOKjf1CLX723A3kCtAP5nvFRgfjVrTPZ2RbAF3vPkdlSKpVYtmyZqASgAsYCkFFz++23w93dneyVrT+UDa2OG2gy5mNqfCiSiOd6fnskD2X1PMuaYcSKun8QT72zFaX1rYJd4/Y5Y7FyRiI7W+ScLqpBRQPd/XrevHmUy7sBV+j4MlwBuADG+b+jhvJ8u39Qi81pBbz7GLPywOKJtF8sAxp8ujuDHcswIkelHsBTb29FY7tKsGv87u65mBATxM4WObsIe0USD8hwBzB+NAJwNcUqvLy8MGfOHLJXdTCzlAdpM2YlLtQXU+Joc//W7M9Eu6qPncswFsCFrl488+42wb6L7GRSvPrQEni6OrKzRczu0+fJppCFhoaSjsiFMQp4XQJQBuAmihWsXLkSdnZ2ZK9o2wlOkGfMy/2LJpDa6+zpw1ouamIYi6K8oQ3P/W8HBjU6Qex7uznh1YeW8Lg4EdPcoSJt4j137lzK5Y27XgE4DUTNn1etWkX2ahpau5FZyq1fGPMR6O2K+ROiSG1+tucsevsH2bkMY2Fkltbjz5/vE2wW/aTYYDx042R2tIjZe6aEzBZxHmDS9QrAhRRXd3FxwYIFC8hezZb0Aq6QZMzKfQsnQCaVktlr6ezBxqN57FiGsVD2nyvF29+lC2b/keVTMTU+lB0tUjKK6NrBEM8FjodxNNyIBSCJalu+fDnZiBO9wYCdp4p5tzFmw8PFASumJZDa/GhHBgY0WnYuw1gwa/Zn4utD2YLYlkok+OuDi+DF+YCipPZCJ1lBUHBwMHx8fKiWpgQQM1IB6ApgCsXVKY9/zxTXorlDxbuNMRu3zxkLewVdPmtNcye2nShkxzKMFfDmt8cFGxnn5eqIVx/mfECxcu48XWpaYiJpC6DkkQrAOQBG/S2nVCpx4403kr2Kg5llvMsYs6GU2+H2OSmkNj/elQGdnvtZMow1oDcY5wZXN3cIYn9iTDAeXjqFHS1CzhJOiElOTqZcWtJIBSDJ8e/06dPh7OxM9sE6mlPBu4wxG4smRcPNyZ7MXnOHCvvOlrBjGcaKUKkH8Ox7OwRrD/PwsincH1CEUFYCEwvAlJEKQJICEMrij+yyBrR1q3mXMWZj9WzSDyXWHsjiaTYMY4VUN3fgdx/vhl5PX7EolUjwyoOL4eqoZEeLiPrWLqiJOjkQC8DEkQjAIABxYhOAh7L4+JcxH9FB3kgmHPvWrR7AFp5mwzBWy6nCGry75YQgtn09nPHsbbPZySLCYAAqGttJbCUlJUEiIcv1DPmx5ruaACSJ/rm7u2PixIlkjj2Szce/jPm4hTj69+2RXKgHNOxYhrFivtx3TrAir+XT4rFwYjQ7WURQzYd2dnZGUBDZMb8cgO9wBeAMiivOmzcPMpmMZPVFNS1oaufqX8Y8OCjluHFqLJm9QY0O3xzJYccyjA3w+tdHUFzTIojt3941B95uTuxkkVDe0EZmKzg4mHJpwcMVgCQtxymPf08WVPPOYszG4skxcLJXkNnbfrIQ7ZzPyjA2wYBGixc+2o2ePvpJP+7ODnjpgYWQcGcYUVBWb9kC0AmXSRi8HhYuXEi28tPFNbyzGLOxehbd8a/eYOCZvwxjY9Rd6MLLXx0QxHZqQijpPYq5fhpau8lshYSEUC4tZDgCcBII+v8FBgYiKopmVmrfgAZ5FU28sxizEB/qi4QwXzJ7J/KrUdPSyY5lGBvjYGYZNgiU+vHMLTMR7OPGTjYzLZ09ZDOhiSOAQcMRgFMprjR16lSyVWeW1kOj1fHOYszCzTNJO7Lju+P57FSGsVH+szENRQLkAzoo5fj9PfP4KNjMaHV6dKj6xCgAh3UETNJinFIAniYcsswwI8FOJsUCwiq7lo4epOVXsmMZxkYZ1Orw/Ps70d3bT257SlwI+ZxyZuQ0d/SwAKQig/P/GDMxPTGcdPLHlvQCQRrDMgxjOTS2q/DSF/thEOBW8Oxts+HDVcFmpaWDpmNJQEAA5bI8ryUAA/CjRMHrQSqVkvX/61D1kZZVM8xIWDIlhsyWTq/HlnRu/MwwDHAstxKb0+jTQZwdFHjudm4QbVYB2EkTAXR1daVclsu1BCBJ9C8hIQEuLi4kK86vahLkKYlhroWDUo5ZyRFk9tLyqtBCdDTAMIzl8+9vj6GmuZPc7oKJ0Zgzbgw72Ex09dLMgCYWgG7XEoAkdeSUx7/5lVz9y5iHuePGwEEpJ7O36XgeO5VhmIv0D2rxh0/2CDIP/IW75sCFZwWbBap5wHK5HPb2ZClI14wAkmSPUgrAgqpm3k2MWVgymW7yR0NbN04VcC4rwzA/pKimBZ/vOUtu19vNCY+vnMYONgO9/XQNvwmjgHYw9nm+ogAk6Xcxbtw4ktUaDEAhC0DGDHi4OGBqAl0Tzl2nisl6QzEMY118tDNDkGDHLbOTkRDuxw42MZQTX4TKA/yxAJQBGHXGu0QiQXx8PMlKa1o60K0e4N3EmJxFk2Igk0rJ7O07W8JOZRjmsuj0evz5833oH9SS2pVKJHjhzjmQcnNAk0IZAaSqpxjC7UoCMArAqA+bw8LC4OzsTLJSzv9jzMX8CVFktoprWlDR2M5OZRjmilQ1deDdLenkdhPC/bB8Wjw72EIFoKkigCT5f4mJdFMTCqtbeCcxJsfNyR7jxgSS2dudcZ6dyjDMNdlwOBfZZQ3kdp9YNYMLQkyIekBDZkupJH3fnCxGAHL/P8YczE6JgFRKc2SiNxiw/2wpO5VhmGHdL17+6iAGNbSjTz1dHPDo8lR2sKneRz1dVbeE9vhediUBSKLcEhLoxtBUsABkzMANYyPJbJ0rqSdrCsowjPVT3dyBz/acIbd7+5wUxAR7s4NNAGW9n5QwFx2A5EoCkES5UQnArt5+tBMNVGaY4aKU22FqfCiZvT18/MswzAj5fO85lNXTBkCkUglPCDGZADQQvm+kAvCKEcBRhz0kEgni4uJIVsnHv4w5mBIXQtb8eVCrw6GsMnYqwzAjQqPV4ZU1B8nnhk+MCcbslEh2sMDoxSsALxsB9MSPukRfDyEhIWQly5VcNcmYgTnj6G6OGUW1UHEbI4ZhroP8yiasP5xDbvfpW2bATiZlB9umAJReTgCGUVgODw8nW2V5AwtAxrRIJRLS2b/HcivYqQzDXDfvbztJPj88zM8DK2cksnMFxEA42c9iBGBYWBjZKisa+QiYMS1JEf7wdHUkewI8llvJTmUY5rpRD2jwn01p5HYfXT4VjvYKdrBQAhCWFQEkyXoPDaVLnq9p6eRdxJiU1AS6/VtQ1YzWrl52KsMwo2Lf2RKcOV9HatPT1RH3L5zAzhUIhdyOzNbg4CDl0oQTgFQRQK1Oz1+ejMmhrP49ztE/hmGI+Mc3R6HV6Ult3rtwAnzcnNi5AmAvl5HZ6usj7Yaiu5wADBeTAGzp6CGvfmKYq+For0Ai4dD0I9nl7FSGYUioaGjDN8QFIfYKOzy0dAo7VwgBqJCT2SIWgOrLCUBRRQAb27t5BzEmZXJsMFllXN2FLp79yzAMKR/sOI0LnbQnYzfPTESgtys7lxgl4REwsQDsu5wAHLVyk0gkCAkJoRGAbSreQYxJmRofQmbraA5X/zIMQ4u6fxDvbE4ntWknk+JhjgLSC0AFnQBUq9Wk2+jHAlAJwGe0Vn18fODoSFNB2djOApAxtQCky/9LL6hihzIMQ87ujGIU1bSQ2lyeGo8wPw92LiH2CtFGAPt/LAB9cEl36OslKCiIbIVNLAAZE+Lr4Ux2AxzU6JBT1shOZRiGHIMB+M9G2rYwUqkEDy2dzM4lRMRHwD+JAHqRfIn6+pKtkHMAGVOSShj9yy5rwIBGy05lGEYQzpXUIS2vitTmksmxiPD3ZOcS4agUbRHIT3IAfSisenl5ka2wtZNbwDCmY1JsMJmtU0U17FCGYQTl7c3ppJ0ypFIJHl7GuYBUuDrZk9jR6/WC5wCSCEAfHx+yFXb09PEOYkzGuKhAMlunWQAyDCMwFQ1t2HqigNTmwonRCPFxZ+cS4O5MIwA7Ozuh0+kol/aTHECSuC9VBFBvMKCrt593EGMSfNycEOhF0wahQ9WH0rpWdirDMILzwfbT6B+kSzeRSiW4bxFPB6HAjSgC2NZGOhJXDUD/YwEoqgigSj3ATaAZk0EZ/TtzvhZ6A+9dhmGEp7WrFxuO5JLaXD4tnqeDEODu5EBip72dtJ/sD6IT3wtAbwrL3t4kZtCh4uNfxnSkjAkgs5VRXMsOZRjGZHy57xzU/XSzYhV2Mtw1fxw7dpS4OilJ7BBHANtFLwA7Of+PMSHjCSOAmSX17FCGYUxGZ08f1hOPiLt1djJcHZXs3FHg5kwTASQWgG0sABlmCEelHNHBNPu2XdWH2gud7FSGYUzKmv2ZUKkH6O6L9gqsnp3Mjh2NABRnDuBlI4AkRSCenjQ9hLgAhDEVSZH+kElp5v/mlDeA0/8YhjE13eoBrDuYRWrz9jkpZLPRbQ2FXEbWB5A4B/CyEUCSjE8nJ5rEURaAjKlIiaTL/8st5+kfDMOYh3UHs0mjgL7uzpg3Poode52+I1NstBHAyxaBkAzwpZoDrB7Q8A5iTEJCmB+ZreyyBnYowzBmobd/EN8epa0I5mIQ8wvAlhbSuc+XPQIedbaiXC6HXE4T8qTsa8QwVyM+lGZ84YBGi+LaC+xQhmHMxtoDWegjDKAkR/gjKcKfHTtC/DzoBGBtLWlnicsKwFGH7qiifwAwwAKQMQFero7wcadJWyisboFGq2OnMgxjNrp6+7HtRCGpzbvmjWPHjhAfwghgfT1pZ4mf5ABKAYy6XIVSAPYP8hEwIzzxYb5ktjj/j2EYMbBmfya0Oj2ZvXnjx8DDxYEdOwKojoB1Oh2ampool1b/YwHoAEAiLgHIEUDGBAIwlE4AFtW0sEMZhjE7je0q7D1znsye3E6G5anx7NiRCECiI+CmpiZotaR66LICcNSwAGQsTgASFoAUVjWzQxmGEQVf7sskbUm1amYSJBL267AFIFFqUV1dHeWyBgFc+LEAJFkpHwEzlkYC0RFwd28/Gtu72aEMw4iC8oY2nCuhEw+hfu4YHx3Ejh22AKSJADY0kHaWqAdg+LEA5AggY3N4ujrCm2jgeVFNCzeAZhhGVHx9KJvU3uqZSezUYaCwk5F9txBXAP/kiYBMACoUCrJVDnA1JSMwUUFeZLaKqjn/j2EYcXE8rxL1rV1k9uaNj4Kzg4Idew0CvV0hldKclxNXADdcTgDKKCxLCBMEDHoOpzDCMiaAUAByAQjDMCJDrzfgm8M5ZPYUchnmT4hmx16DYB83MlumiACKLrXTABaAjMACMJAFIMMw1s32k0WkKVVLp8ayU69BiI87ma2ysjLBBSAJEi4RYixJABIdAav7B9HYxgUgDMOID5V6AAczS8nsjY8Ogp+HCzv2KlBGAC1GADKMpSCRAJEBniS2yhvbuQCEYRjR8t3xfDJbUokES6bEsFNNIAA7OjrQ0dEhuAAU3xEwf6EyAuLn4QIne5pk5vL6NnYowzCiJae8ERUNdPepBRM5D/BqUB0BE0f/AKD8cgKQBD4CZiyFyEBPMlsVje3sUIZhRM2W9AIyW3Ehvgjw5GPgyyGVShDgReMbYgHYjR81gf5eAIqwCIRhhCPCn04AljdwBJBhGHGz50wJdHqa+cASCTBn3Bh26mXw93CB3I6ksQrKy8spl3ZZNckRQMbmCPPzYAHIMIzN0N6txulCupYic1kAXpZwf7rvFuIIYPmVBCArN8amoErS7VYPoLWrlx3KMIzo2Z1RTGZrXFQgXB2V7NQfQdlezBQRQDsq6zod3fQOOxkXJzPCEerrTmKnqonz/xiGGT5SiQSero7wcXOCj7sTvN2MP16ujnBQyuGolMNRqYCLkxKOSvkVvwsNBkDVNwCtTo++fg36NVoMarTo6RtEu0qNrt5+dPb0o6u3D109/WhX9eFEQTXUAxo4KuWjfx1SCSbFhuBQVhm/qZcQEUCYXkQrAMuvJABJEgP6+/vJVqokOkNnmB+jkMvg60EzqLu2pZMdyjDMT5BIgFBfD0QFeSEiwBORAZ4I9/dEuL8HFGb8ftMTtthITQhlAfgjoogigB0dHWhsbDSJABygsN7X10cnABV2vJMYQQj2cYeUKF+1hgUgwzAA7BV2SIkMQHKkv/HXCH+4OtmLbp1Swlz91PhQfuN/JPqpcgALCgqol3fFI2AS5UYZAVTIOQLICAPV8S8A1LZ0Wdzrl9vJ4OfhfPHoydvNEV6uTnBzsoezgwJSiQRODgrIJFI4OSjQ2zcInUGP3r5BaHV6qAc06OzpQ2ObCk3txp+Gtm4MaLS8uRibIsDTBdMSwzAlLgTTk8JJjlYtiUBvV/h5uKC5Q8WbAUCApyscifrLEgvAfgANVxKAJMqNMgJoL+cIICMMIYRjesQcAXRQyhEb4oPIAE+E+rojIsATYX4eCPRyhVRKX/fV0tGDgupm5Fc2Ib+yGUU1LVD3D/KGY6wKT1dHLJ0ah6VT4xAT7G3z/kgM92UBOARlf1liAViOK6T6kUUAKQWgggUgIxD+hA1MxZIDKJVKEB3kjaQIfySG+yEhzA+RAZ6CCL0r4evhDF8P54vtIfR6A8rqW3E4uxwHs8pJJxEwjKk/X7OSI7ByRgKmJ4ZzkeIPBKA/DmWVsyMARAbQVQATC8ArGiOLAJIWgbAAZEQuANu71eg1U4RLKpEgKtgbk2KCMCk2GOOjguAispYMUqkEMSE+iAnxwaMrUlHV1IFDWWXYf7YUpfWtvBEZ0aOwk2FZajzuXzyBbLyXtREb4sNOGGKMeCOAVxWAoosAsgBkxC4A69u6TbpuV0clUhPCMDslAtMSw+AmwgTzqxHu74Gf3TgZP7txMs6V1OGr/ZlIz6/iud+M+ISfXIbbbkjBPQvGw9fdmR1yFQK9XNkJQ0QF0aQEtLW1obm52WQCUDv0MyrVRSsAuQiEEQaqGZZN7cLnvQR6uWL+hCjMTA7HuKhAyKTWcfQ0MSYYE2OCUdHYjjX7M7En4zwGtTrenIzZmZ0Sgedun40gbzd2xjAfqCUS2PyDnNxOhkiiHoACVABfVQACgBrAqKS8TqfD4OAgFIrRV8FwGxhGCByUcrLWDEIJQD8PF8yfEIVFk6KRGO4Pa56wGBngiRfvX4BHV0zFP785hsPZnEvEmGkvBnrhN3fcgMmxweyMEaCQy+DioES3esCm/RAd5EU2A5hYAA7gCi1gLhWAZL0AKQQgj5hhhCCAsACEsvLN0V6BhROjsWJaPFLGBJD26rIE/Dxc8I/HliEtrwpvfHMEDa3dvFkZkyCRAHfPH49f3jzdrA2aLZnefo3N+yCGMBcyPz+fcmnnYTzhvaoAVFNcqbOzE25uow+dW1p+E2MZ+BDm8zS194zaRnyoL1bNSsKSKbE210PscsxMDsfkuHvxxd5z+HzPWT4WZoS9H7g54aX/txBTuaHxdaPR6qDT623eD/GhvmS2MjMzKZdWeLU//F4AkiTwtba2IiwsbNR23J0d+JPFkOPpQrevrvcI2FEpx7LUeNw5byzC/Dz4TfkRSrkdfr58KmYmR+CFj3ZxNJARhIkxwXj95zfyd80o0epY/AFAHJEA1Ol0yM3NpVxawXAEIMlU+7Y2ml5f/KFkhMDDxZHMVssIj4ADPF1w25yxWDUzUXQtW8RIQpgv1vz+Lrz0+T4cy61khzBkLEuNxx/vnUeWs2XLcJQekEmliAqi6QFYVFQEtVpNubxhCUAS5dbaStPfy4MFICMAXq40AlCvN6Czd3h9L+NDfXHX/HFYPDnGaqp4TYWroxL/+sUKfLTzND7ccZodwowKiQR4dHkqHlo6BTaWZisYKhsv/gCMxWxUreuIj3+HLQBJlBtVBNDH3QlSiQR6bhLGEOJBdATc2dMHvf7Ke1NuJ8PCidG4c944JIT5suNH+aX98+VT4eygwJsbj3PfQOa6eeaWWbhnwXh2BCE87hGIC6UrAMnKyqJcWg+uUgF8qQAkUW4tLS0kq5bbyeDp6ojWrl7+hDFkeBIdAberLp8yK5VIMG9CFH558zSeHEDM3fPHw0Epx9/XHuYHQ2bEPLYilcWfUE9oNg5lBTCxAMzCFWYACyIAa2tryVbu5+HMApAhFoA0EcB2lfonwm/R5Bj8fNlUhPqx8BOKVTOToNHq8cb6I+wMZtjcv2giHl42hR0hBPwwhuQIfyJXGpCdnU25tGueJ5MeAVMKQH9PFxRUNfMHjKETgEQ5gO3d/ycAp8SH4JnVM0mfApkrc/ucFLR29eLT3WfYGcw1mTtuDJ5cNUP061T3D6Klsxd9gxqoegegHhhE36AWfQOX77FnJ5PCUSmHQm4He7kd7JV2cHZQwt3JHu7ODpBKOTJnChR2MrJ7f2lpKbq6uiiXd81w4vcCkERp1dTUkApAhiEVgIRHwDOTw/HYilSy8n9m+PzipmlobOvG7ozz7AzmikT4e+Iv/2+haE4pG9tVqGxsR2VjO6qaOlDT0om27l40d/RcUehdL65O9nB3NopBb1dH+Hm4wN/TBT7uTvDzcEFsiA/sCSZu2Xr8Ly7Ul6yBOPHxLzCCCCCJcqurq4PBYICE4BPn58ECkKHDyV4BBdGM6ZnJ4bh7/jh2qpmQSIA/3bcAFY3tOF97gR3C/ARnBwX++YtlcLRXmOX6Or0euRVNyC5rQF5FI/Iqm9Ch6jPZ9bt7+9Hd24+a5s7L/vlrj9yIBROjRy8AbfwIOIno+BcgrwDuB1BsUgHY39+PlpYW+Pn5jdpWkLcrGIYKqhYwABDq6251/mnvVqNd1QeNTmds7WAAutX9cHZQQiqVwMVRCYWdDH4eLnB2UJh9vQq5DH9/5Ebc9+p69HIlIvMjfnXrLJM3Wu8b0OBoTgWO5VbiVGG1qOfjOhF9htUDtj0GLiWSTgCeOnWKcmk5AK755nwvADsAqACMOuxWU1NDIgBDfNzAMFR4uNh2b8lBrQ5Vje2oau5AdXMnqpraUXehCxc6e9GuUo+oo7+zgwL+ni4I9fVAUoQfksL9ERfma/JxdqG+7vjtXXPw4mf7eIMzF5kSH4Kbpiea7Ho55Y3Yml6AA5llFtMWxUlJJAD7bV0ABpDY0Wq1OHfuHOXShhVOvDQJoBZAwmivWl1djcmTJ4969cE+7twLkCHDluZLGwxAZWMb8quaUVjdjMKqZpTUtZKNberpG0RZfRvK6ttwKMvYZkomlWJibBDmj4/CnHFjSCOuV2Pp1DgczCzD0ZwK3uQM7BV2+P3d80yS95dRVIv3d5xCbnmjxfmJ6mhcPWC70XcfNyf4etDMl8/JyUFvL2nXk2yzCMCysjKS1SvkMvi4O6O5QwWGGS0OJo5OmZrKpnacPV+HcyX1yCypu2KvQqHQ6fXIKKpFRlEtXv/6CGaPjcR9Cydg7JgAwa/9+3vmIau0XtRHboxp+NmNkxEs8OlRXmUT/vnNUYvuUkF1BNzTZ7sCMIXw3nby5Enq5Q0rnHipACTJAywvLyd7BSG+biwAGZobnr3Cql7PoFaHcyV1OJ5bhbS8SjS0dYtmbXqDAUeyy3EkuxwpkQF4+paZggpBL1dHPLJ8Kv614RhvdBvGy9URd80bJ5j93v5B/GvDMWw/WWjx7e+ciB6IbXkSCNXxL0Ce/zcAIN8sApAqAggAIT7uOHu+ju9szKixhgjggEaL9Pwq7D9bivT8KotIwM6taMTD//wWK2ck4qlVM+Aq0FH8bTekYNOxPFQ1dfBmt1EeWjpFsM95bkUj/vjpXjS0dluFr6j8ZMtFIJQVwMQCMGtIBI5IAJIk0VAKwGAuBGGIcLRQAajT63GioBp7z5TgWG6lRT5xGwzAlrQCHM+txN8eWoJJscHk17CTSfHU6pl49r3tvNltkABPF6yaKUzhx67TxXj5q4PQaHWjsuPp6oioIC/4uTvD18MZXq6OsJPJILeTwU4mNbZuUQ+gqV2F0vpWVDS0oX9QS/56FHLjNSmw1Qp8pdwO8URz3ltaWkhPTgGcGPZ981LtRnHl+vp6qNVqODqOPgk8xArbbTBmEoAWdgRc3dyBvWdKsO1EIZrarSMNoq1bjcff2oxf3z4bt88ZS25/dkoEEsL9UMgThGyO2+aMJRM1l/Llvky8szltxEe+EgkQHeyDqXEhmBwbgvgw3xF3IhjU6HDmfC32ninBnjPnodfTnDt7uzmR+cdWBWBKpD9ZA2gB8v+GHU68VACW0jztG1BRUYGkpKRR2wr39wDDkAhAC4gA6vR6HMoqx/pD2cixwMrC4aDXG/DG+qNQqQfx0NLJ5PYfXjoZz763gze8DaGU22HljARyu98czsHb36WN6N+E+rpjWWo8bpwSi8BR9rJVyGWYkRSOGUnhePDGSfjrFweQV9k06tflQygAu3tts/BqQgzdKQbx8S8ADFtRXioAOwC0AfAa7dXLyspIBGCorzvsZFKy9hWMDQtAEUcAu3v7sSW9AN8czrWZoqf/bTsJpVyGexdOILU7KzkSkYFeqGho401vIyyeHEPe5ulYbuWIioqig7zxs6WTMX9CFKQC9KCJ8PfEf59Zhaff2YqssoZR2aKcstXS2WObAjA6UKwCsAHAsAsnfjwMsIxCAJaUlJC8EjuZFCE+7qhsaue7HDM6ASjCCGBVUwe+PpSNXaeLyWeBWgJvf5eOQG9XzBsfRWZTIgHumJOCv687zJveRlg5gzb3r6alEy9+tndYPWjtFXZ4dEUq7pk/HlKpsM0HHZVyPHPrLDzw2jejskPVu85WBaDCTobkCJoK4MHBQWRkZFAuL31EGusyAnDqaFdQXFxM9moiAjxYADKjhmLwORVnz9fhi73ncKqoWjTtJLzdnDA9MQxxob6ICvRCgLcrXB2VP2ifo9Xp0a5So6WjB61dvahq6kBZQxtK61pR2dg+4qbteoMBf/niAKICvRHq5072Wm6cGod3t5wwjrRjrBpfD2ckE47j0hsMePnLA8Pqb+fu7IB3n1qJuFBfk73exHA/hPi4o/ZC5/X7zJ3mCFivN6CtS21zey4pwp9srvyZM2egVpP6cEThxMsJwFFTVFRE9mrC/T0BlINhRoOdTGr2NeSUN+J/206KprWRRALMHTcG9y2aiMRwv2seXdnJpPB1d4av+08jCN29/ThbUofTRbU4lFU27MH3vf2DePHzffj0N7eRRVAclXIsmRyLb4/m8sa3cuaPpz1y3ZJWMKwjVrmdDO89swoxwd4mf81a3eiqkX3caSKAbd1q6PS2l541ISaIzNbRo0eplzcqAUiitAoLC2EwGCAh+GBGBHjyXY4ZNTKp+QRgYXUL3t9+Eifyq0XjDx83J7zx2DIkE/WycnWyx7zxUZg3Pgq/ueMGnCysxpa0AhzLrbhmlDO/sgnrD2fj7vnjyV7fjVNZANqEAJxAlz7QN6DBB9uH9/1517xxZhF//YNatHWPLmLkRyQAL9hs/p9oBeAghjkD+EoC8DzFKrq7u9HY2IjAwNEnSkZwJTBDIQDNEAEsq2/D+9tP4WhOuagmB/h7uuB/v1qFEB93QezbyaSYlRyBWckRKKtvw0c7T+Ng5tUPFz7ccRpLpsTBc4StMq5EckQAgrzdUN/axZvfSnG0V5Ae/357NHfY4mrx5BizvOb950oxOMp+hP5eNEUgzTYoAO1kUrKHZq1WS90CJhtA/0j+wY+/FYsBkHxVUR0Dh/t7ClJVxdgWpswB7FD14a9fHsDdr6zDkexy0Y2N+uO98wUTfz8mKsgLr/98Kd785YqrJp/39A3is91nyK4rkQCLJkXzxrdixo0JIIvs6/UGbDyaN+y/T3WMOqI1GgzYcDhnVDaUcjv4uHEE8HpJCPMjm6KSmZkJlYq060PaSP/Bjz893TCWEY+awsJCsi/uAC9XMMxocDZBGxi93oBvj+bilj9/iW0nCkdcFGEKAr1dMSU+xOTXnZUcgTW/v+uqx2bfHc9Ha1cv6TUZ64XyKC4tf2TztM3RZmjz8XwU1bSMykawjxuo4inNHbYnACnvnQLk/43Y4OUen0hCd5SVwGMCvcAwo0EhFzYCWFTTgp/941u8/vURdIu4+pQ6aX4keLo44P1frUaE/+Xzegc0WtK8vaRIf7IjZUZ8jCcUgHvPjKx12a7TxSZ9rY3tKry75cSo7YQSTteqbbG99Iqp8aFiFYB6jLAFjKACkLISOCqIBSAzOuQC5QCq+wfxtzWH8MDfv0E+QZd+oRlt/tBocXWyx2/vmnPFP9+cVjDqmasXb24SCVITwnjzWyESCRBN9L0wqNHheF7ViP7NjpNFyDXRtB71gAbPvbedpK1RiK8b2brqRtGKxhJxtFeQ5f/pdDqkp6dTLi8PxkEe4hCAVEfALAAZEgEowJzQwqpm3PO39dicli/K497L0dnTZ/Y1TIoNxszk8Mv+WXu3Gmn5VWTXmkjYsoERDwGermTTfbLLGqAe4UxbvcGAP3++H+0qYT9PWp0ef/xkL0rqWknsBRPm/ta1dtvUnpsUE0TWTiwnJwednaQC+rrCiZd7NSTKrbm5GS0tLSSvLCrIGwwzGjSEkS+DAVh/KAcP/XPjqBqymoO8iiZRiNWEML8r/tmejPNk16E8JmTEA2VQ4Fzp9fXlrL3QiSfe3iJYw/G+AQ2efW87juVWkNkM9qGJALZ29Y5YNFs6U+JEe/xLKgDJzm7z8/NJ7IT5uUMhQASHsR1UfTQ36QGNFk++swX/3HCUVFSaioa2bpwuqjH7OvyuUhGclleF/kEtyXVCfd3h4+bEHwArI9yfrj/saI5yS2ov4KF/bkRNM+2DYEtnDx7/z2acKKDtHUqVA1h3wfby/1IT6ATggQMHKJdmwHVUAF9JALbgOs6SL/vByqVJ6JZJpQjnfoDMKGhup6lYK6lrxanCGov2xZr9WWZfg1anv6rIziiuJbtWcmQAfwCsDH9PujYsZaOs6K1oaMP9r60fcSHJldh7pgR3/nUt8ohziu0VdmRzgGtaOm1qv/l6OJNpkMHBQRw7doxyeUVDuo1EAH5vcNTk5eWRvUI+BmZGQ7uKZt6iNUSiTxfVYN/ZErOu4WDW1RtDnyioIrtWYrgffwCsDMpxZh0EeXw9fYP4wyd78Mg/N153q5bCqmY8+952/OGTPYJ0Egj18yDrAGBrEcBUwurfEydOoKeHtIXOdZ8nX6k3Rh6AmeISgFwIwlw/VEeKTiboJ2gK/v3tcUyJC4G7s+nbpDS0dl9zHnJmST3Z9eLDfPkDYGX4EglAaiGTVdaA+15dj7FjArBiWgIWToq+6j2jf1CLU4XV+OZwDs4IPCM83I/uFK3WxiKAlMe/+/fvp16eIAJw1BQUFECv10NK0K09KpAjgMz100uUsOzsYB0CsLWrF89/sAv/ffpmQSqkr4TBALyy9iD0+qsXolQ2taND1QcPgj5+8aG+kEgACynUZoaBp6sjiZ0WgaZZ5JQ3Iqe8Ea+uO4QQH3dEB3sjMsATSrkdBjRatKvUKK1rRXHNBQxotCbxGWUaVVVTh83sNalEgsmxdA2g9+3bR73E49QCkKR6Q61Wo7y8HNHRox/JFBXMEUDG/ALQWiKAAJBZWo+/rzuMP923AKbqDf31oWxkFF07v89gAPKrmkimebg4KhHi425zeUvWDNXn8EJnr6Dr1OsNqG7uQHWz+QVTGFEEUG8wWFz3g9EQG+JD8iAKAG1tbcjMzKRcXhFGMb3tSqG5XBDNBKY6BvZ1d+au/sx100NUBSy3k0Eht56K9G0nCvHKmmtH5CjYeaoI/9k4/IfVouoWsmvzMbC1CUCaeawqdb/N+CzMz53ETlO7iiylxhKYlUI3UvLgwYPQ6/WUyxtVOPFKArALAElCAmUeYHSwD9/5mOsUgHQ9q5wdlFblm63pBfjth7swqBGurc13x/Pxly8PjKgHYUFVM9n1r9Z3kLEs7BV2kElpGvL29mtswmcSibEIhAIxRDNNycykcDJbAuT/jcrg1T5FJMqNqhcgYAzFMoz5BaDC6vxzOLsc9/59PYprWkjtDmp1+NuaQ3h17aERRxkLqwkFIFcCWw2Ulfh9A7YhAH3cnOGopImaVjd12sxe83RxQBzh6cHBgwdJb68YRQGISQRgVhZdz7G4UBaAzPUKQLq2CtYWAfyeioY2PPjGt/h09xmSmcHH8ypx18vrsDnt+h4CO1R9aGpXkT08Sk2V6MhYDHobqQwKJpwBXNXcbjP7Y0ZSONl9o6SkBJWVlZTLOwlgVFVMdkILwIqKCnR1dcHNbfQbkCOAzHULQMKxRU5ET9JiRKPV4b2tJ7HhSC7unj8Ot8xOHlHCvd5gwOmiGqzZn0UycaSwugX+ni6jtuOolCPI282mkteZa2MrzwTB3nQCkHrqidgFIBUCVP+O+jxZcAFoMBiQk5OD2bNnj9pWiK87HJVyqG0kbM/QQTm30tFeYfX+au3qxdvfpeOzPWcxf0IUZiVHIDnC/7LtN1q7elFW34ZzJXXYeboYLR10rTUKq5sxb/wYElvRwd4sAK0AypidrUSFQ4hGwAFAtY0IQDuZFFMJG0Dv2LHDogRgMYxnzKP+tsvKyiIRgFKJBFHB3qOa3cjYJr2EOYBONiAAv0elHsCWtAJsSSsAAHi5OsLTxRFKhR10Oj2aOlQkkxSuJgCpiAn2xqFrTCBhxA/lDG57hdwmfBbiQxMBHNTqcEGg3oliY1xUIFwcadJ9ent7cfToUcrldQA4J6QAHARwHkAyhQCkIi7EhwUgM/IPIGHU2JYE4I9p61ajrVttsuudr7lAJwBDuJm8NdA/qIVOryepBKZqJyN6AUgUAay70GUzeZOU1b8HDx5Efz9py6GDAEb9JHStTxCJcqMUgJwHyFwPtEfAcnaoiejq7Seb1sBtpKzp86wh+izbxsNcEFEOYJ0NpVDMTKbr/7dz507q5ZH0kzGJACwsLCRTvywAmetBq9OT9bmz5QigOSitayWxE+DpAldHJTvUCqBq3+LhbP3DBTxdHMhaV9W2dNnE/gr0diUbnWcwGLBr1y7bFYBarRYFBQUkrzoy0Muks0sZ64HHwVkmJUQCEACigvkY2Bro7KUJKHi5OVq9rwIJK4DrLtiGAJwzdgyZrZycHNTV1VEurxQAST+Z4QhAkgP/7OxskleusJMhKpDnAjMsAG2FUkoByPcOq6Ctm2aGr7ebk9X7ys/DmcyWrVTRzx1PJwAFOP4lKye+lgDsplKalHmAPNeTuR6o8gAdlJwDaKkCMNzfkx1qDQKwi6YQKdDL1ep95eNOJ3JtIQLo7uyAsZEBYhaAZAaHU0YlukIQnuvJXA9UA8yVcjt2pgmpbukge+8iAlgAWoUAJKpEd7JXwMvVuo+B/TxcSOwYDCDt8SlW5oyLhFRK0x+ytbUVGRkZlMvrAZBmcQIwOzsbWi3NTTyBI4CMOQWgggWgKdHrDahsohk/FUGU2M2YF6oRgQAQZuV7wted5gi4o6ePZESk2Jk7ju74d/fu3dDpSH22FwDZXFOTCUC1Wo2ioiKSRY8J8uIoDDNiBrRUEUAuQjI1lY00AtDbzYkrga2A6uYOMlvhflYuAIlyAFs6VFa/rxztFZgcF0JmT8zHvyYVgABw9uxZEjsyqRQxXM3HjFQA8hGwxVLVRPeFH+bHUUCL3w/NvB+Gix9RBLCls9fq99XMpHAoiLqMDAwMYPfu3ZTLMwAgNTgcAdgIoIniYufOnSNbeDznATIj/UBqWABaKlQRQIDzAK2BC509ZDPhrVkASiSAN1ERiK3k/1Fx4MABdHd3Uy7vHJUWG4kABIiigGfOnCFbOOcBMiMXgDS5GJwDaAYB2EQnALkS2PIxGIAaoihguBXnAHo4O5BFtFqsfAawwk6GGYTj3zZv3ky9RPLz5OEKQJLQXU5ODgYHaVpxsABkRgpXAVsudRe6oCFKQA/xdWOHWgE1LZ0kdoK83eDmZG+VPnJ3oatwtnYBOCU+hKzHq16vFyL/j3ycyHAFIEny3sDAAPLz82me2gI8bWaOI0PDINERsD0XgZgcrU6PulaaHmTBPiwArQGqvFCJBEiMsM6UIqoRcABwwcpzACmnf6Snp6OpifS0toVKh5lNAAJ0hSBSiQRxPBeYGQH9Gm4DY8lUNtJ84Qd5u0EiYX9aOpSVwMkRAVbpI0oB2E00fk+MyKRS3DCWLv/vu+++o17iLgB6cwnAegANYhKAAJAQzoUgzPChigDKpFLIpFJ2qImhmkLgqJTDw8WRHWrhlNa3EQpAf+sUgPZ0LY96+gatdi9NjQ+Bh4sDmb2tW7dSL3GzEK97JN9iJMqNUgAmsQBkRgBVEQgAyO1YAJpeAHaS2QrhY2CLp6qxnUyUJEX4Q2qFYWHKCGBP/4DV7qUFE6PJbGVlZaGyspJyeWoAB8wtAEkKQfLz89HX10fz1BbpD4YZLgaDgcyWhM8QTS8AW+nmkAZ5swC0dPQGAwqqaPKsnB0UVlkN7OxAFwHstdIIoJ1MijmEx78CVP/uHhKBZhWAJKE7jUaD3NxcksX7ebiQjblhbOMLg+yDwwLQ9AKQcBA9F4JYB/mVzWS2kiOtLw+QKgI4qNFZ7Ri4aQlhcCWsAhdAAG4W6rWbXAACIB2OnBTBx8DMMAWgnjICyP40NU3tKrJWMAFeruxQKyCvspHM1qTYYCsUgDQRwJ4+az7+jSKzVVZWRtbpZAgNBGj/cj0CsAVADcVFT58+TSgA+RiYMT0cATSPgG8imkfq58EnB1YhACuaQBXYn5YQanWfa6oIoLUWgCjsZLiBsP3LN998Q73EwwA6hHr9I81kJxnlcerUKRaAjMnR6TkH0NKpv0AzWokFoHXQ1duPWqLiIHdnB8RYWWsxqsbG1hoBnJ4UTloos2HDBuolbhby9Y9UAJIUgpSXl6OlpYXkBSSE+XFLDmZYcBGI5dNMFgF0YWdaCXkVdMfAqQmhVuUbqZTmPkU1RUlsLCSs/j1//jxZfcMQegDbxCQAyYb5UuUB2ivsEBXkxXdBxqQCUMr6z0wCkGYclb3CjjTxmzEfOeV0AnCalQlACWhuVAYYrG7f2CvsMCslgsze+vXrqZeYAaL+y1QC8CyIulFT5gFyOxhmWI9ThPcwjgCaB8p5pP58DGwVnCqsIbOVEhkAR6WcnfqTh2fre03TE8NJ32tLO/69HgHYCaCY5ENLmQcYzgKQGYYA1NNN0uEiEPPQ3E4nAH1ZAFoFDW3dqGnuJLElt5NhYoz1VAPzberK3Dg1lsxWXl4eCgsLqZe4RWwCEABIQnenT5+GTkfT0oEjgMywnmIpb6x8BmweAUgYAfR2c2KHWgknC6vJbFEeC/K9U5y4OioxIymczJ4A1b95AErEKABJQncqlQrFxSTBRIT6enA+D3NNKPsAcgTQPLQQFYEAgCfPA7YaKI+B54yNJCueMDdkOYBWdga8cFIMFHYyMnsCHP9+Ywo/mC0CCNAdA0skQApHARmT3lgZc9DTN4gBDU1FIgtA6+FsSR3ZpApPV0eMiwpkp1rxA++yqXFktrKyslBaWkq9xA0meV+v49/kAyBpxkVZCDJ2DH9gmasjJ3zi0+j07FAz0a6imSXu6erAzrQS+gY0yCWsBp4/Psoq/KLV04hiBysqjAn0ciUd+yfA8W8mgFJT+OJ6BKAORP0AKQtBxo6xvjmODLUApOsXaa1zMS2Bjm6auegeHAG0KijzABdMjLaKqFdvv4bEjqO99QjA5dPiSYtjNm7cSL3EDabyxfV+I5Iot8LCQqhUNDk9ieF+pBEexvqgzPnQsgA0G20qGgHo5cIRQKsSgAV0AtDL1RFJVpBWpO6nGeHmpFRYzT5ZPDmGzNapU6dQXl5OvcSNpvLF9QpAkrNbnU5HdgyslNsh1srG+DC02Mn4CNga6CA6AnbnCKBVUVLXSjYWDrCOY2C6CKB1CMDkCH+E+XmQ2fvqq6+ol5gBoNxU/rheAXiSagHp6elkLyYlko+BmStDdQRsMABaHUcAzUU70RGwi4OCnWllHM6i++6cNyHK4vvoqQdoIoCOSrlV9BRcmkpX/KHRaCy2+ne0ArAFQJXYBOC4KBaAzJWhOgLW6HRW2RnfUuhW9xM9EMiglNuxQ62Ig5llZLYCPF0wzsKLC6mOgKVSCewVlp0HaCeTks7+3bVrF1pbWymXaACwyRIEIECUB3jy5ElotTRtHcZxJTBzjS98EgHI+X9mpadvkMyWi6OSHWpFFFY3o7GdrlfkstR4/qxYyWdlRlI43J3p8n7XrFlDvcQTAKpN6ROzC8Cenh7k5+eTvBhPV0cEebvxXZBhAWjFqNQDZLac+RjYqjAYgMNZdFHAhZOiYa+w3Chxbz+dALT0vpnLp9GJ+a6uLuzcuZN6iRtM7ZPRCMATVIugPAbmdjDMFQUgUREIt4AxL5RRDWcHjgBaG5THwE72CsxOibRYX3T09JHZ8rTgqnlPFwfMSqYb8bdhwwb09fVRLlEPE1b/UgjALAAkgzlp8wD5GJi5PAo5jQDUarkC2LwCkC4C6MIC0OrIq2jChc5eMnvLLfgYmKpgCjCesFkqy1LjYSej6wMrQPXvEQANliQAtQDOik0AcgSQuRJUNwANVwCbWQDSRQAdlFwEYm3oDQYczqarBk5NCIW3m5NlCkAVZQTQcgXgiukJZLaqq6uRlpZGvcSvzOGX0X4jkii3mpoa1NbWkrygiABPuHJiN3MZqKqA+QjYvPQNauj2BFcBWyV7Ms7TfUlKJVgyJdYi/aBS95PlLFvqEXBKZAAiAzzplNpXX8FA2waiH8BmmxWAAHDiBE1KoVQi4bnAzBW+7KmKQPgI2JwMarRktrgNjHWSW9GImuZOMns3TbPMY2CDgS4P0FKPgG8ijP4BwNq1a6mXuAVAlyUKwJMwJi+OGspj4PHRQXwHZH6CI9E4I0oBwlzH47KGLgLLAtB62Xm6iMxWZKAXxltofjnV5BxvV8s7BndQyrFoEl3vv4yMDBQXF1Mv8ytz+We0ArATQKHYBODEGBaAzE9xImr5QZmDxphXgCvlPD/cWtl1qhh6wqO61bOTLdIP7USzs/08nS3utS+cGE06xu7TTz+lXmILgP2WKgABomPg3NxcqFQ0DTzjQn3gqLTsruUMPVQ93yh7azEjR6vTQ6enOYZXsAC0WhrbVcgqrSezt2BClEXmwVFVRPu6W54ApDz+7evrwzffkE9q+xqAxlz+EY0A1Gq1OHWKpLc0ZFIpUrgamPkRTkoWgNbCINExMFVvSEac7DxFd1wnt5Nh+bQEi/NBcwdJtzY4KOUWVWAZ6udOWg+wceNGdHZ2Ui9zjTl9JBoBCADHjh0je2ETOA+Q+RHOfARsNfAoZmY4HDhXCvUAXYDlltlJkEokFuWDC509ZLZ8PSwnCrhyeiIo3yoBjn+LQdRKz5wCsAJAI8Vijh49ygKQEWajSyRwIIsADrBDza4AaSSgxMK+zJmRoR7Q4AhhT8AgbzdMiQ+xKB80ddDNRvbzcLGI12wnk2JZahyZvfLyclJ9MsRX5vYTVWtskh4uGRkZ6O/vJ1lQYrifRc9wZGhxtJeTPQ3yEbD50ROFAFn/WT9b0gtI7d1iYcUgLR10EUA/C4kAzhk3hrR592effUbd+88AY/6fVQhAkmPggYEBnD59mmRBcjsZEsP9+e7HAADcnOiSt3v5CNjsEN+MGSsms6QeFQ1tZPZuSIlEkLebxbz+ZkIBaCmFIJQiXa/X48svv6Re4nEAldYiAMnmolCGWbkdDPM97s72ZLa6evkI2OwCkMgOHwHbBpvT6KKAUqkEt89JsZjXrlIPQE10auHnKf4j4BAfd0yKCSazt2fPHrJJZZfwmRh8RSUAswCQJBpQFoJwQ2jm/wQgXQSws6ePHWpmqOY663Q81cUW2HGqCP2DdP0jV81MhBNhfzmhaSFqBRNgAQLwtjnJYi/+6AGw0ZoEoBZEx8AnT57E4CDN00pKpD/Z/FeGBeBFAdjLAtDcyIkEoFbPAtAWUKkHsO9sCZk9R3sFVky3nPFwTe00hSD+IheASrkdlqfSvS9tbW3YsWMH9TLXD4lAqxGAgPFMe9So1WqcO3eObDPEh/ny3Y+BmxPdEXBnTz871IxIJIAdUf++QcKxcoy42XQsj9Te3fPGQyq1jBQCKgHo5+Es6jY4iyZFw5XwXv/FF19gYIA85ecTsfiLUgCSJe/R5gEGg2GocgD1egN61JwDaE7kMhnZEY9WxwLQViioakZRTQuZvUBvV8xKjrCI195M1ApGbieDp6ujaF8n9bi+Tz4h12rnAZwSi78oBeAZACRDBynzACfFsgBk6CKA3ep+0vmizMixI0zr0Gj5CNiW+O5YPqm9u+ePs4jXTRUBBMR7DBwT7I3kCLrOH0ePHkVhYSH1Mj8Sk88oBeAgAJIeLmlpadBqaRJ2x40JhFLO/QBtHS+ip9auXj7+NTcOhP09B7UcAbQl9pw5j27Cz/DEmGDEhYo/zcgWBOCtN9BWZr///vvUS9QCWGutAhAASEJ3KpUK2dnZJAtSyGVIjuR+gLaOD1H/qg4VF4CYGycHuurLvgENO9SG6BvQkLaEAYD7F02wAAFIV3MgRgHoaK/AkskxZPYuXLiAzZs3Uy9zO4AmaxaAoswDnBJnWaN7GCEEIE1X+AtdvexMM+PsQDeQvqeP8zltjW8O50BL2P5nwYRohPq6i/o1N3eoqKYninIayLKpcXAkbMvzySefWHXxh1AC8BQAEq8dOXKEbFGTuBDEppFKJGRHwBc6WQCaXQAS3uh5rJ/t0dLZg0NZZXT3F6kE9y4UdxRwUKtDu4okRV90EUCJBLh9Lt3xr16vx4cffki9zCYAe61dAPYBOEth6OjRo9BoaI5nEiP8LKppJ0OLu4sDZFKard7WzQLQ3DixAGRGyZr9maT2lk+LJ509KwTW2gswNT4MEf6eZPb27t2LykryKW2fwZgDaNUCECA6BlapVGT9AGVSKcZFBfJdz0ahnF/JEUARCHpnnuvMjI7C6hbkVdKlYynsZLhz7ljbEIAe4hKAd86j9bsAxR8GiGT0mykEIFkPl4MHD5ItitvB2C4+hE/mrZwDaHY8XOgEYBf3dLRZvj6YTWrvtjkpcHFUivb1UglADxcH2CvE0VkjxMcd0xLDyOzV1tZi586d1Ms8DKDUVgRgOohCnYcPHyZbFBeC2LAAdGcBaE1QRQAHNTqo+QjYZjmUVUbWIBkwpiasnpUk2tdL+Vr9RBIFvHPeWNLJJB999BF09M3h3xfrnhBCAPaAKA8wPT0d/f00PZuig71Jj44YyyHQy5XMVktnDzvUzFAV9FAlxTOWiVanx9eHckht3rdwAmk1KiWUvQDFUAnsaK/A8ml0c3+1Wi0+/fRTcrcD2GJLAhAADlEY6e/vx8mTJ2leqESCCdFBfNezRQHoTSMA1QMa9HDOmNmhGkXV0cM9HW2dTcfySJu7uzs74FbicWRiFIBiKHi5aXo8aUHY1q1bUV9fT73MjwGIttmoUAKQ7OyW8hiY8wBtkwCiCGBjWzc7UwQEEb2f7d0cAbR1+gY02Hg0j9TmA4snijIK2NxBd3rh7WbeecASCXD7DbTFH++88w71MvVDAlC0CCUA0wCQPFZRFoJwHqBtEkgmAFXsTDMjk0rh50lz/NTGApABsO5gFulEGDcne9x2g/iigB2qPuj0NA2wzR0BnJkUgVA/dzJ7+fn5OHbsGPUydwKotkUB2A9jU+hRk5GRge5umshLuL+HaJJXGdOglNvB04XmabWhrYsdamb8PV3IejrWXeD3kzHO995+spDU5v2LxBcF1BsMaO+mSXswtwCkbv3y5ptvwkA1KuX/eF/se18qoG2Ss1utVou0tDSyRU2N5yigLRHg5QKqIjGOAJqfIB+6gp4GPtJnhlizP4ssOgYYo4C3z0kR3etsJWpk7+1qPgEY4e+JKXGhdD5pbcXXX39NvcwaiHDyhykFINnZLWUeYGpCKBgbEoCeLBisSgB6uZHZqucIIHPJZ3vfWdpWbWKsCKZqY2XOCODdC8aBsPMLPvjgA/T1kReEvQ9AJ/Z9L6QAPA2AJGRy6NAhskVNjQ8l7RvEiBvKsUVcBGJ+qCq6AaCe30/mEr7YexaUp4BuTva4Q2RRQCoB6GWmIhBPFwcsnRpHZk+r1Qox+WMQwKeWsOeFFIBaGItBRk12djba2trIPpRxYb58t2MBeB1RAj4CNjdBhC19uAqYuZSy+jYczi4ntXmvyKKArV00e97JXgGFnczk679z3jgo5XRTSDZu3Ii6ujrqZX4HoNnWBSBA1A9Qr9eTVgOnxvMxsK3gS9SwtG9Ag07uGycCAUhzBNzQytE/5qd8sP0U9IRhQDcne1HNCKZ86DH12Dt7hR1uIe6x+PbbbwuyjSxlv1uEAASA/fv3swBkRgxVBLCpg6N/Zr9ZSSSI8PcgsVXfyvl/zE8pb2jDkewKUpv3LBgvmiggZdNrV0d7k6795pmJcHOiu2ZmZibZoIlLyANwhAWgkWwAJGe3e/bsIVtUypgA0g7ijHihGlnU3M4j4MxNiK872RcpC0DmSrxvxVFAlXqATgA6mS4CKJVKcOfccaQ233zzTSGW+rYl7XWhBaAeAEl3xbq6OhQXF5Msyk4mxcQYHgtnC1DNjeUZwOYnNsSHzFY9HwEzV6CioQ1HqHMBF4wXRdChS22ZEcAFE6IR7EPXAaClpQXffvst9TI7AKxjAfhDyI6B9+3bR7Yobgdj/UglEjgqaW66lHM0mesjLpROAFY0tLFDmSvy4Y7TpFFAVyd78ubF14Oqd4D0NZmKexeMJ7X33nvvYWBggHzbALCoyjJTCECy6g1SARgfxnc5K8fJQUHWL6qzp58danYBSFO9bzAA5+ta2aHMFSmrb8PhLNoo4H0LJ5LmsF0PtBFA0xwBT4oNRkK4H5k9tVqN9957j3qZWgDvWdo+N4UALIKxK/aoOXLkCJlqD/VzJ+0pxohQABIeufT2D7JDzUxMsDeJnYa2LnT3sqBnrs4HxFFAZwcFHlwyyayvqadvgOw1maoK+P6FE0ntff7557hw4QL1MjdT6RxrE4AAQFLC29vbixMnTpAtiquBrRtnBzoB2NM3wA41I4FernB3diCxdb72AjuUuSYVDfRRwNvnjCXtTTpS9HoDevtoHmbtFXaCrzfc3wPTEulO63Q6HRd/WKoABDgPkBk+jhwBtBooC0CKa1gAMsODOgqokMvw8+VTzfqaBrU0E8rsZMI3gn5g8STSsW9btmxBWVkZ9TKzQDT0wloF4D4QzcWj7Ac4NT4UdjIpGOuE8r3tG9CwQ83I+OhAMlscAWSGS0VDGw5l0gqG5anxiAz0sngBKPQkED8PFyyZHENq85///KcQS33LUve3qdRPB4BMEqmdlYWWlhaSRTnZK5AyJoDvclaKBHSPjgbKIaHMiJkcF0Jmq7imhR3KDJsPd2aQRgGlUgl+uXKa2V6PRkMjAOV2wsqH/7dkIuSEIvPYsWM4deoU9TIvAPiGBeC1ITm7pR4LNzMpnO9w1ioACY8OWP+ZDzcne4whiphc6OxFG88AZkZARUMbDhJHAW8YG4mxZgo+aHRUAlC4CKCnqyNump5AalOg6N/7ACy2osziBCBAmwc4gwUgw4iayXEhkBKpeT7+Za6Hj4hzAQHgyVUzzPJaLOEI+L6FE6CU0xWZnD9/Hjt37iTX0kMC0GIxpQA8AYCk/f6+ffvIjuTGBHohwIxVWYxwSNgF1iEAY4PJbGWV1bNDmRFT0diOfWdKSG2OiwrErOQIk78WuiNgYQSgq5M9bpmVRGrzH//4B/R6PfVSvwbQwAJweGhBNCS5oaEBubm5ZAubkRzOdzgrREf4xK40QcsD5koCkC7/7+z5OnYoc128t+0kWfTse55YNR1SqWkfValeg1AC8K5540g7ODQ3N2Pt2rVCLPVNS9/Tpi6BJSvh3bVrF9mipieyALRG1P10lbtimONpi/h6OCPUz53EVk/fIIq4AIS53sBDaze2pOWT2hwT6IUbp8SZ9kufSHDq9fSJ0U72Ctwxl3Zk3ltvvYX+fvI0vb0AslkAjgyy5D1KATg1PoQ034ARiwCk693HAtA8UB6RnSupE+RLi7EdPtqZQXpfAYDHbkoVvKXKpVBdizoaCgC33pBMOmJOpVLh/fcFSdP7hzXsZ1MLwBIAFRSGTp48ibY2moHuSrkdJsYE8d3NyuhhAWjxzB03hswWH/8yo6VD1Ye1B7NJbQZ4uuDWG1IsTgBqiAWgQi7DXfPGkdp877330NHRQe3CHACHWABeHyTHwDqdjrQpNB8DWx9UI48AwNVJyQ41MS6OStIHszPna9mpzKj5at85tBO3Enp42RS4OdmbZP1yuTgjgKtnJcHbzYnMXn9/P956S5AezW8AsIqjBHMIQFEeA89KYQFobQxotGRPqb7uzuxQEzMjKZws0bxd1YfyhjZ2KjNq1AMafLbnLKlNV0clHlwyySTrF2MEUG4nw30LJ5C+zo8++giNjY3U7qsGsMFa9rI5BOABGPvnjJrdu3eTlXYHebshzM+D725WBlXTXx8WgCZn3njK499abubNkLHxWB7qLnSR2rxj7liE+LgLvnaqh6pBDZ0AXDkjAX4edO3YNBoN/vWvfwnhvjdh7GjCAvA66QaQTmGotbUVZ86cIY04MNZFS0cPiR1fdyd2pglRyGVIjQ8ls5eeX81OZegEhlaHD3ecJhdmv1iZKvxnS2RFIHI7GR5YTBv9/PLLL1FdTf6Z7wDwiTXtY6mZrkt2dkvZ3ZvHwlmhAOykEYCUT6fMtZmeGE7WC0yn1yMtr5KdypCyJ+M8+WSZhRNjBJ1PL5HQFbRRHQGvmplEOoxBp9PhjTfeEMJ97wPosaY9bC4BSKbaKPMAJ8QEwcWRk/1ZAP4UbzcnODtwJbCpWJZK1xvtXEk9unr72akMKXqDAe9tPUku0J65ZSbpHPNLcXG0JzsC7u0fGLUNhVyG/7d4Iulr3LBhA0pKSqhdNwDgHWvbw+YSgIUAqigMZWZmoqGBZhqLnUyKaQlhfGezKgHYS3ZjjvD3ZIeaAFcne9J0jCPZ5exURhDS86twhri9UEpkAGn7ox8/yFLR2jX6/OpbZyfD14Muv9pgMODvf/+7EK5bA6DR2vav1IzX3kX1hu/du5dsUXPGRfJdzYqoJ0zUjghgAWgKlkyOIctTMhiAIzkV7FRGMN7dnE5eYPT0LTMFGbXm7epIZmu0BXYKuQz3LaSN/m3btg15eXnUbtMD+Kc17l2LF4AA7TEwZesJxvxUNrWT2YpkAWgSlqfGk9kqqm4mKwRimMtRUNWMw8RR5iBvN9wyO4l8rV6kAnB0pyu3zxkLH+Liutdff12It3gTgGIWgLQcAkDSo2Pfvn3QaGjmvjrZK3gqiBVR29JFVq2WEObHDhWYCH9PJITT+fkQH/8yJuCtTWnkkzF+vjwVrsTNob0Ij4BH0wzbQSnH/cR9//bv34+TJ08K8fa+bq371pwCsA/AUQpD3d3dOH78ONnCbhjLx8DWgk6vR21LJ4mt+DBfyKRSdqqArJgeT2rvUFYZO5URnPrWLmw6lk9q09VRSV4g4elCEwHU6fXo7Ln+wqrb56TAkzAaCQB/+9vfhHhrdwA4xwJQGMjObrdu3UoqAIWqwmJMT2UjzTGwg1KOqCAvdqhAyO1kWD4tgcxefmUTapo72bGMSfhwxyl0E1eb3zl3HGmLFH9PmoKLDlUf9NeZ+OiolOOeBfTRv6NHjwrxtr5qzXvW3AKQrB3M1q1bYSDKxPV1d0Z8qC/f0ayE0vpWMlvJkf7sUIGYPyEKni4OdDeXU8XsVMZkdKsH8Ple2mCRQi7DL1ZOI7NHNe2qtev68//unDeO9HMOAC+//LIQb+khACetec+aWwBWgii5srq6Gjk5OWQLu2HsGDDWQV5lE5mtiTHB7FCBuO2GFDJbGq0O+86WsFMZk/L1oWzyEXE3TokjCUhIJECIrzvJmq63AtjFUYl7F4wn9c+ePXtIU8Au4W/Wvl/FkNBEGgWkE4CcB2gt5Fc2Q6+niQ5PjQ+FVMr5AdREBnhiLOEEhGO5ldz8mTE5Gq0O728/RWpTIgGeuXXmqO34uDvDUSknWVPNdeZV379oInlhy0svvSTEW3kKxgggC0CBEWUeYFSQl0kGczPCo+4fJGsH4+qoRCJXA5Nz+5yxtE+Vp4rYqYxZ2HvmPHIraHsGT4wJHnVz9Jhgb7L1VDd3jPjfeLs54c65tJ/zHTt24PTp00K8jX+zhb0qBgGYBoAkZp6VlYXKSrqZn7NSIvhuZiXkVdAdA09L5GkxlDjZK3Dj1Fgye+2qPpwoqGbHMmbBYADe3XyC3O4zt84cVReCmGAfsrVcT3HVI8umwIEoAvk9f/3rX4V4C3NAeDLJAvDqDALYTflEQMUcPga2GnLKG3hfiJSVMxLJBtQDwO7TxdDq9OxYxmxkltbjKPEEmgh/z1G1SYoNoROA1SMUgIHerrhpegKpP7Zs2YIzZ84I8fa9CsBgC/tULE3NyM5uKY+Bx0YFwI04X4ExD6eLasnGNcWE+CDc34OdSnEDkkpwx1y64g+DAdh0PI8dy5idt79LJ38QefymaXC8zoel+DCazhbdvf1o7lCN6N88cfN00glbBoMBf/nLX4R428pgnPxhG/dfkaxjN4yRwFFz7NgxdHR0kCxKJpVyMYiV0NLZg4rGNjJ788ZHsVMJmD8+CkHebmT2MopruPcfIwqqmzuwOY22ObSnqyNuuyF5xP/O18MZgV6uJGsorr0wsgfmYG8smBhN6odNmzYhOztbiLftZQA6W9mjYhGAXSCaCqLRaEhnAy+YEA3GOqDMC1s4ifcFBXfNH0f7xXCMo3+MePhwx2n09g+S2rxv4YQRV/NOiKYbb3p+hALwqdUzISWcrKDX64Xq+1cKYJ0t7U8xzbUS5THwlPgQ8rJ1xjycKqwhsxUd5E2aU2OLpIwJQEokXeuXC529OJZbyY5lREOHqg9fEDeHdnd2wC2zRxYFHB8VSKeS6obfWH9iTDBSE0JJX/+3336L3NxcId6ulwBoWQCahy0gSrzcvXs3+vtpeoDZyaS4gauBrYKs0nqoCZ/GV81MYqeOgrvnjSO1tzktn4s/GNGx9kDWiHPmrsV9CyfAXmE37L9PKcLyq4bfUeGXN08jfd06nU6ovn8lAL6xtb0pJgFYDyCTwlBPTw+OHDlCtrD5fAxsFQxqdaQRoiVTYsnbGtgKgV6upHmUWp0em4/ns2MZ0TGg0eKD7bS96jxdHbF61vAeQMP8PMjybNu71cPOsZ03fgxphB8APv74YxQXCzLi8UXYUO6fGAUgQHgMvGXLFrJFTY0PgYujku9kVsD+c6VktpwdFFg4kR8Oroc7540lnaiy/1wpLoxiPinDCMmOk0Ujzp27Fg8sngSl/NpRwOmEfUuzyobXTksmlZLOMAaAvr4+oXL/CgB8a4v70moF4KZNm6DV0hzny+1kmJ3C1cDWwMmCavT00R0D3z1/PCQ8GW5EONkrcNP0RFKbXx/KZscyokVvMJA3h/ZydcTKGdf+HM1Kpkthyh6mAFw9KwkR/p6kr/ett95CfX29EG/PnwHYZO6I2ARgLgCS7pmtra2kA6LnT+C2H9aA8RiYrkFrVJAXpiXwZJCRsGpWEpwd6Bo/Z5bUo7CqmR3LiPvhs7CatBANAO5dMP6qkXQPFwdMjKWrAD5XUnfNv+Nor8Ajy6aQvs7Ozk784x//EOJtyQew2Vb3pFSEa9pGZWjjxo1ki0pNCCX90mLMx97tgfjqAABlD0lEQVQzJaT27l80kZ063BuOVII7iOeBruPoH2MhvP1dGvQGuiETgd6uV43wzZ8QNarxcZfS2tWL0vprVwA/vHQyPF0dSf322muvob29XYi35E+w0eifWAUg6TGwTkeT16ngY2CrehJvaqerypsUG4zEcD927DCYM3YMAjxdyOzVXujEMeKRWwwjFCV1rTiUWUZq8+6r9NKkLGA8UVB9zWlKgd6uuHPuONLX19jYiHfeeUeItyOTUm+wAKThOIBWCkPNzc1IS0sjWxgfA1sHer0B204Uktp8nDjh2Vq5Z8F4UntfH8whjagwjNB8tDODdM9OjAlGXOhPx7wFerliYgzd8W96ftU1/86Tq2ZAIZeR+uull16CWq0W4q34M2xk5q8lCUAdALJRHpTHwNMSw0iH1jPmY0t6AfR6us/+1PhQTI4NZsdehbhQX4wdQ9cWols9gB0nC9mxjEVR3tBGHgX82Y2Tf/J7K6YnkE3g0Or0yCiuverfSY7wJ5+cVVpais8++0yIt+EMgJ22vhelIl0XWVLmxo0bodfTHPEr7GSYxU2hrYKWjh6kF1SR2nxy1QyuCL4KdxOPffvuWB7UAxp2LGNxfLjjNGkUcO64MYgJ9v6/L3aJBCumxZPZzyiqhUo9cMU/l0iAZ26dRX7/++Mf/wiNRpDP+J9g49E/MQvAPQC6KQw1NTXhxAm68vsFfAxsNXxzOIfUXkK4H8+OvgJero6kPRO1Oj02HM1lxzIWSUVjO2kUUCIBHl429eL/z0wOhz9hru2BzKv3T100KYY0ug8A586dw7ffCtKe7xiAvbwLxSsA+0EYnqXcRNOTwrkptJVwqrCGvDnrr26dNeJB7bbAyhmJkNvR5QbtP1eKlo4edixjsaw9kEVqb+64MRfnk1Pm2mp1ehy5SqGVQi7DL2+eTu6fF154AQZh8ntf4N0nbgEIAGTJe5s2bSI9BqYcYcWYlzX7M0nt+Xo4XzYfx6ZvMhIJbp5B3Pj5YBY7lrFo8iqbkFvRSGZPIgGevW0WYkN8MDGGLh85o7gW3b39V/zze+aPR6CXK6lvdu7ciQMHDgjh9k0ATvLuE78A3A2A5BG/vr4ep06dIlvYkimxvHOshH1nS9HYTjuo/Z4F4xHm58HOHWJKfAgCvem+ILLLGlBY3cKOZSyerw9mk9qbGBOMZ2+bRftFfPrKs3c9XRzw/5ZMIr2eVqvF888/L4S7dTDO/GUsQAD2gfAYmLIaeGJMEHw9nHn3WAE6vR5rD9BGAeV2Mvz5gQWks24tmVUzk0jt8dg3xlo4lFVO2pMUACYQRv9U6gEczi6/4p8/sWoGeWeMDz74AIWFglT3fwaA2wZYiAAECI+Bv/32W7J8AqlEgkWTYnj3WAnfHc9HcwftTTglMgD3Eve8s0Q8XR1xw1i6BuqN7SocyebGz4z1PIBSP9BQPnbuzihG/6D2sn8WH+qL5YSVxgCgUqnw8ssvC+HqfgB/5R1nWQJwNwCSDpB1dXWkx8A38jGw1TCo0eGjnRnkdh9bMY18ILqlsTw1DnYyutvMt0dyoNPredMyVvUA2q7qE+XatqZfPmAmlUjw27vmkPUZ/J6XX34Zzc2CzPV+F0At7zbLEoC9IGwKvX79erKFxYb4IDLQi3eQlbDtRCGqmjpIbSrkMvz9kRuhlNvZrF+XpdJFCPoHtdiSzic4jHXRN6DBmv3nRLeugqrmK3ZJWDE9AUkR/qTXq6ysxNtvvy3ES+kC8BrvNMsTgADhMfD69euh1WrJFraYj4GtBr3egA93nCa3GxXkhedun22TPk0I88UYwoek3RnFV61GZBhL5dujeegQWRTwSm1qnOwVgoy+/O1vf4uBgQEhXsobANp4l1mmANwOYyRw1LS0tODgwYNkC1uaGseTH6yI/edKkFfZRG539awkLJ5sew8LlNE/ANicVsCblLFK+gY0+Iq4JdWovis7enAo6/KNqn9x0zR4uTqSXu/kyZOkhZqX0AjgLd5hlisA1SDs2r127VqyhQV4uiA5IoB3kZVgMABvfH2EdETT9/zh3vk/GNVk7cjtZKSi93ztBRRWNfMmZayWbw7nkBejXS/rDmVDq/tprm1koBduvSGZ+L5rwK9//Wuhmj7/FUQBJBaA5oPs0eC7775Dby/dfuCegNZFUU0LtggQaXJUyvGfJ26Cr7tttA+akRQOd2cHMnvfHc/nzclYNQMaLT7Yftrs6+jpG8SWtMt/3p6/4wbSoi4AWLduHem41ksoAfAJ7yzLF4A7YCzjHjW9vb3Yvn072cIWTowm/0Aw5uW/W06gS4BcM193Z7z+6FIo5DKr9+Gy1DgyW30DGuzJOM8bk7F6dpwsQlGNeZucf30oGz19gz/5/UWTYjApNpj0Wv39/fjDH/4g1Et5HoCGd5XlC0AVgD1UxiiPgT1cHDAlPoR3khXR1duPdzanC2I7OcIfr/xssVU3iXZzssfMpHAye4ezy9HbP8gbk7F69AYD3tqUZrbr9/QNXnbMor3CDk+unkF+vX/84x+orq4W4qUcBrCVd5R1CEAAWEdlaO/evWhtbSVb2HLiZHfG/GxNL8CJAkFuTJg3Pgp/vn+B1RYQLZ4cC7kdXZRzx8ki3pCMzXD2fB2O5Zqn2fm6g1noVv+0EvehpVMQ4OlCeq2amhq89pog3Vn0AJ7jnWRdAnA7jP18Ro1GoyGtOJo7bgzcnOx5N1kRBgPwylcHL3szpGBZajx+ffsNVuk7yukALZ09OFtSxxuSsSneWH8UfQOmPb3sVg9g3WWif6F+7rhHgKlGzz33HNRqtRAv5QsAWbyLrEsA9gPYTGWM8hiYuuKREQctnT34z8bjgtm/Y+5YPLlqhlX5LMLfEwlhvmT2dp4qhl5v4M3I2BRN7Sp8svuMSa/5+Z4zP8n9k0iA3909Dwo72rzlQ4cOCdX2pRfAn3gHWZ8ABAAy1Zaeno7Kykqyha2YnsC7yQrZdqIQaXlVgtl/YPFE/Pr2G6zmOJiy+MMoAPn4l7FN1h7IQkVju0muVd/ahfWHcn76vTYtAZOJCz+0Wi2eeeYZoV7KPwDU8+6xTgF4GMbGjqPGYDCQjoaLD/VFTIgP7ygr5C9f7kdLZ49g9u+cNxa/v2eexReGSKUSLJ1KJwDzK5vIx/MxjKWg0erwypqDJomAv7UpDYNa3Q9+z83JXpATinfeeQd5eXmC6FgA/+SdY70CUAeATLV99dVXpItbMY2LQayRDlUf/vDxHuj0esGusWpmEv752DI4KOUW66fJsSHw9aDrc7jzVDFvPsamyS1vxJf7hJ0TnFlSj0NZ5T/5/V/dOgseLg6k12ppacFf//pXoV7KH8BNn61aAAKEx8BFRUXIyqLLFV06NY48V4IRB1llDfjftlOCXmN2SiQ+ff42+Hm4WKSPbiRsiq7R6rDvbAlvPMbmeX/7KUF7A64/nP2T35sQHUQ+yhEwzvvt7OwURMcC+Ip3i/ULwHMAyLrCfv7552QLc3Oyx6yUCN5VVsoXe88Kmg8IANFB3vj0+VuREO5nUb5R2MkwZ9wYMnvH8yoFacbNMJaGVqfHnz/bh0GNThD7v7x5OpwdFBf/X24nw+/umUuel3z27Fl8+eWXQrnpORjbvzBWLgABwp6Aa9euxcAAXauPm7gYxGoxGIDff7IHZfVtgl7Hz8MFH//6Vtw1b5zF+GZGUvgPvkRGC/f+Y5j/o6KxHR/uFGZMXJifB/764CJIhxTf/1s8ERH+nqTX0Ov1+OUvfwm9MGk0WwAc4V1iOwJwLQCSzNi2tjZs27aNbGHTEsMs9giPuTbq/kE8978d6OzpE/Q6CjsZnrt9Nl7+2WI42itE75eFk6LJbHWo+gRrws0wlsqXe88hs1SYAtfZKZF4aOlkhPq648Elk8ntf/LJJ8jIyBBi6QMwjnxjbEgAlgMgexz67LPP6BwqkZC3wmDERX1rF379/s6fVM0JwY1TYvHNi/eQz+CkxF5hh1nJdKkPe86ch1bHpzkMcyl6gwEvf3lQsAbRjyyfir8/ciP5rPL29nYh5/3+G0CpGG6DAMYCuAPAXwB8DWNUMh9AEwAtjEGrS3/6ANQAOAtgJ4BPADwBIBWAgykWbcl9J54E8DaFIZlMhqqqKgQH03zJ1l7oxOoXv4SB+9daNUunxuEv/2+RSXr46Q0GfH0wG+9tPYkBjVZUflg0KQavPryEzN69r65HsYBJ7wxjySyeHIO/PbTEYtb7yCOP4OOPPxbCdB2AeAA9Jnw5cgAJAMYPXTt+6P/DAVAqZy2AQgDHh8TkCRCdev5A+1jw56AKwK9AEMU0GAzw8vLC7NmzSRbm5mSPs+fr0Niu4ruVFVNa34qevgFMTwwT/klNIkFKZACWTIlB3YUu1LR0isYPj65IRUQATc5QZVM7/rf1JG8uhrkC5Q1t8HZzQjzhxB2hSEtLw1NPPSXYrQfG6l+hcAIwAcAKAD8H8CKA/8AYpbsZwAwAsQA8QX+aKgXgB2AKgJ8BuA+AF4y9Dsm6g1uyAOwFMA0ASfJRTU0NnnzySUiIwjkymRSHs8v5bmXl5Fc2AQAmxpjmiNbV0R5LpsQiJtgb+ZXNUPUNmPX1K+Qy/P6eeZATtT/acDhHsDwnhrEWThfVYHpSOHzcnES7Rq1Wi5tvvhlNTU1CmD8K4DdEthwAJAKYC+BuAE8B+BuA1wE8AmA5gIkAAgHYmcmdHgBugPHkcwmATgCjbpQqtfDPwedUhsrKynD8ON3c1wUTo8mbaDLi5MMdp7Fmf6ZJrzln3Bhs+st9+P098+Dp6mi21z45NgSOhM2r93LvP4a5JoNaHV74cDe61QOiXeMbb7yBnJwcQbTlkBAayZGoJ4BxAFbCeHL4PwAHAFTDGEzKhvGo9XcAbgIQKWJ9lApgI4zHwqMa1WLpXYvLADwOooRJg8GAm2++mWRhMqkU3eoBZJc18N3KFp7Ii2vg7myPxHB/k11TJpUiPswXt8xKgtxOhtK6VgxodCZ93ffMH0/Ws7C4pgWf7TnLm4lhhoFKPYCKhnYsnhwrulniVVVVuOuuu6DRCFKw8sWQAPIHEAwgBsYCjKkA5gO4BcYj00cB/BbGSN6fADwG4E4AiwFMGhJ5brDcWohgAA/CGL1MBzDinDNrGEH/Doxn8qPGyckJjY2NcHGhaePS0NaNm//0hUlmOTLi4LEVqXh42RSzXFs9oMG29EKsPZBpkvxTiQTY+erPyMa/vf1dGr7cl8mbiGFGwJOrZuCBxRNFtably5dj586d/OaYjo4hwfvtiIIIVvDCm4Ze+KjRaDSIjIzEhAkTSBbm4qhEYVWLqBL2GWE5W1IHwHQ5gZcit5MhKcIfd8wdizGBXujtH0RDazeEevyIC/XFfYtoPisGA/C3NQfR0zfIm4hhRnjPGRsZiCAfN1Gs5+uvv8Zrr73Gb4xpcQBwG4w5ikdsTQDeDGM4eNS0tbXhoYceIlucq6M9dmec5+1pQ5wrqUdv/yCmxoeSFRWNBKlEgjGBXlg6NQ4rpifA2UGJtm41OntoR6utmplI1p+wsLoZX+3n6B/DXM/DU1p+FRZOioaLo9Ksa+nu7sbKlSuhUnEHDDMxG8bWNLsBXPP8XWYlL1oB4EYKQ7W1tbjzzjvh7e1NsrAgHzfszjgv6mRdhp68iiaUN7Rj9tgI2MnMl0vs7KDExJhg3D5nLBZMjIaPuxN6+wfR1q0edWTwFyunIcCTJl1i07E8ZJVyvizDXA8DGi3OldZjWWq8We83zzzzDA4fPsxviHlJBDAPwHcA+m1BAJYDeBpEJdoKhQKLFy8mWZhEIoFGp8fpohreljZGVXM74sN8EU48V/N68XBxwPjoIKyalYQ75o1DcoQ/PF0dodUZ0NXbP6JcVaXcDr+58wbIpDRfNv/ecBztKjVvGoa5Ttq61Whs68a88VFmuX5GRgYef/xxGHgCghgIhrHY5VsYJ45cXp9Y0QveAOMZ+Oi/KD08UFdXB0dHmvYaXb39WPrCp6Kb4MAIyy9vno4Hl0yyiLVqdXpUNLThfF0rqpra0dimQkNbNxrbutGh6oP+Rzf1iTHB+ODZ1STXbmxXYcXvP+MNwzAEPHf7bNw1b5xJr6nRaDBp0iTk5ubyGyAujgNYhCtEAu2s6IV+SiUAOzo68PXXX5PlAro52WPRpGhsP1nE29FGuGfBeIsRfwBgJ5MiJsQHMSE+l/3z3v5BdKsHoFIPQKfXw92ZrsflsZwK3jAMQ8Rbm9KQFOGP5AjTtaR64403WPyJk1kA/gvgsmLGmiKAMhjHw5FkpU+YMAHnzp0jW1xBVTMeeO0b3o42wPJp8fjz/QtF15tLrDzx9hacKuQUCYahws/DBWv/cCfpg9qVKC4uxvjx49Hf38+OFy+LAOz/8W9KregF6mBsEElCZmYmTp06Rba4xHA/soa5jHiZnRKBP903n8XfMNFodVz8wTDENHeo8OfP90PodDydTocHH3yQxZ/4WQMgwJoFIGAcDUe25f/3v/+RLu62G1J4G1oxE2KC8NojS8kKI2yBgqrmH+TGOtoryOYKM4wtk1/ZhCyB52q/9dZbpIESRjB8Abz/49+0xjjFURh74Ywae3t71NbWkrWEGdTqsPIPn+NCVy9vRysjNsQHHzx7C5wdFOyMkXxYcyrQ1duPMYFeCPFxg6uT/U/+TmtXL0pqW1FSdwHnay8gu6yBP0MMcxk8XR2xcGI05owbgwnRgYI+jJaVlWHs2LFQq7l634K4GcBWaxaA94PwKPj111/H888/T7a4z/ecxbtbTvA2tCJCfd3x8a9vhaerIzvDBBgMQH5VEw5nleNgZhnqW7vYKYzNIpVIMCU+BKtmJuGGsZEm6QNoMBhw4403Yu/evfwGXAY7OzuMGTMGERER8Pb2hre3N5TK/2vSrVar0draitraWuTm5qK7u9tUS6sAEIehJtHWKAAdANQC8KIwFhYWhvLycshkNMdSvf2DWPrCp+jt55FX1oCPmxM+ef42BHq5sjPMJAbPltRh8/F8HM4uh0arY6cwNoFMKsWy1Dg8tHQygrxNPwauvLwcP//5z3Ho0CGbFnoJCQkXf+Lj4xEfH4/o6GgoFMM7DTIYDCgtLcXevXuxZs0aZGRkCL3shwF8Yq0CEAD+CeA5KmM7duzAsmXLyBb372+PYd3BbL6DWTgujkp88OwtiAn2ZmeIgOYOFT7fcw5b0wswyEKQsVIkEmDBhGg8dlMqwvw8zL6e/fv345VXXsGxY8es2u/29vZITk7G+PHjMWHCBEyYMAHJycmwt7cnvU5xcTFeeOEFbN26VaiXUgogFoDBWgXgGAAlICpyWbZsGXbs2EH6RbXyj19Aq9Pz3cxSbwYKO/z36VUYOyZAsGsYDAZotVrI5XJ2+Aho6ejBx7sysDktHzyUgLEmIgM88ZcHFyE+1Fd0azt79izWrVuHDRs2oL6+3mJ9LJVKERkZieTkZCQmJiIpKQlJSUmIiYkx6b14165deOKJJ1BZWSmE+UUA9ltzs4rdAJZQbYiysjJERESQLe4Pn+zB3jMlfEezQOxkUvz7FyswPSlMUPH36KOPYu/evXjppZdw//33k6Uh2Ao55Y34y5f7UdPcyc5gLJ7Vs5Lw7G2zYa8Q9/wGvV6P48eP4+DBg0hLS0NGRgZ6e8VXtOXl5YXo6GjExMQgJiYG0dHRiI6ORmxsLNkUsNHS3NyM+fPno6CggNr0hwAetWYBuALANipjzz//PF5//XWyxRXVtOC+V9fzXc3Sng4lErzy0GIsmhQj6HWeffZZvPnmmxf/Py4uDr/5zW9wzz33/CCZmLk6fQMavP1dOr49ylMKGMvE1VGJP9w7H/MnRFnk+rVaLTIzM3H27FmUlZWhvLz84o9Q/QPd3NwQEBAAX19fBAQEICQkBKGhoQgPD0d4eDhCQ0Ph5uZmEf5raWnBwoULqSetNAIItmYBKANQBiCcwpiHhwdqamrg7OxMtsDH3vwOZ8/X8R3Ognj2ttm4e/44Qa/xyiuv4E9/+tNl/ywgIABPPfUUHnvsMbi7u/MbMky2phfg7+sOc9oFY1GE+3vg7SdXWmWRmcFgQENDAxoaGtDW1oa2tjaoVCp0dXVhcHDwilFDd3d3SCQSuLm5wcHBAe7u7hd/PDw84OvrS56XZ26ampoQGxtLXS2cau3zCl4A8HcqY2+99RaeeuopssWl51fh6Xe3gbEM7l80EU+tniHoNT744AM89thj1/x7Li4uuP/++/HQQw9h/Pjx/OYMgzPn6/DbD3aiWz3AzmBET3yoL95+ciU8XBzYGQz+8Y9/kLakA/CKtQtAHxhbwpCcmYWHh6O0tBR2djQ5GAYDcM/f1qGkrpV3t8hZNCkGrzy0GFIBZ7xt2bIFt956K3S6kVWwjh8/Hj/72c9wzz33wMPDg9+sq1BW34ZH/70JXb08uooRL1FBXvj417dxY3nmIoODg0hKSkJpaSmVycPWnlWuhrHpIckMts7OzotVQRRIJIDcToajORW8u0XMxJhgvPHoUkEbrB46dAirVq2CRqMZ8b9tamrC7t278dZbbyEjIwP9/f0IDQ0VTSKzmPB0dcS0hFDsP1eKAQ23imHEh7+nC95/djVH/pgfIJPJ4ODggO3bt1OZ9LaFkfXTAaRTGZs0aRLOnDlDp+q1Oqz605do7lDxDhchMSE++Oi5W+BkL9yTeEZGBubPn4+enh4ym3Z2drjhhhuwcuVKzJs3DwkJCZBIJPyGDpFT3ojH/7P5B3OIGcbcKOV2+Oy3t3NvUeayVFVVkXYjsZVvhCwA46iMHT58GHPmzCFb3MajeXjt68O8u0WGr4czPn/+dvh6OAt2jdLSUsycORMtLS3CvhZfX8yZMwdz5szBzJkzER8fT5bKYKnsyTiPP37Ko6wY8fD7e+Zh9awkdgRzRSIiIlBVVUViy1Yai+lhbAtDQmtrK+6++26yxcWE+GDX6WKo+jg5XSy4Odnjw2dvQZCPcK0C6urqMHfuXDQ0NAj+enp7e1FQUICdO3fif//7H/7xj39g27ZtOHv2LOrr66FWqyGRSODs7AypVGoT73FUkDe61f3Ir2zmDc+YnbnjxuDpW2ayI5ircvbsWeTl5ZHYspUIoBOAOgDuJE6TSJCXl4fExESyBX53PB+vrj3Eu1sEKOV2+O/TN2NcVKBg12htbcWsWbNQXFwsqtcul8sREhKC8PBwBAQE/KDFgru7O6ZMmYKUlBSrea+1Oj1+/u9NyC1v5I3PmA1HpRwbX7pP0NMGxjp49NFH8eGHH5LYspUzoF4AnwJ4lsKYwWDAm2++iY8//phsgTdNT8Dne8+iobWbd7gZkUolePlniwUVfyqVCkuWLBGd+AMAjUaDiooKVFRcvjDpb3/7m1UJQDuZFC/dvxB3vbKO8wEZs/HwsqlmFX/tqj442yugkPO0IfF/R9Gd0EhtyG9vAtBQGVuzZg0aG+miBnYyKR5cMol3t5l57rbZmDd+jGD2BwcHceutt+LcuXMW55ugoCA8+uijVveeh/q549EVU3nzM2YhwNMFd80ba9JrGgzA+doL+GTXGTzw2jf/v737Do+qStw4/s2kkoT0QEjo0kGKCihE6YIIIhZEUdC1oP7AuuradXXXrqurqKyKi7rKAq6KIrCIgCBIkUgvoaQCISGN9GTm98dEFxuQ5NzJlPfzPPNgYc49c8+dmXfOueccRt37Fje/9DEHj2oyoruz280tZu9Lcb8I6IyhJWFqamoIDg5m2LBhxirYMSmOhet2UqyFahvF9aP7cq2FIbympoZJkyaZnMbvMhERESxbtoy2bdt6Zdv3aJfAqi0HyC0s0RtBXGr6+IH0aJdg+XGqqmv4bkcG7/33e57+8GveW/I9G3ZlcqSgBAdwOP8Yn67aRliTILq2aa5VA9zU888/T1pampGyfK2Fe+OcEWyEFdvDfbJqG0++/5Wuche7oF9n/nzdSKz6zHM4HNx0001GbxtwlYCAABYsWMCoUaMs/4Ja8cM+1u/KpLCknMTYpnRr05wB3dsQGmL9grjrd2Vyy0sf680gLtMsOpxPnphCUIB1fTHbDhzmP6u28t8Neygprzy1L8oOiTx8zTDaNNfC8u7E4XAQHR1NYWGhmc92Hzt/KcBSYLiJwvLz85k5cyZ33XWXsQqOOacrsxZtICu3UFe7iwzo3oZHp4zAyh+8Dz74oEeGP3BuQWR1+Fvxwz5e+PdKsvN+fQ9sUKA/g3udxsXJ3enbuZVl7dS3c0vO7taatdvT9aYQlxif3MOy8Pf9nixmfLqGlNS6rzKQkprNxCf+xej+Xbh21Jm0io9SY7mBzZs3Gwt/4FtDwD/KAa42VdimTZu45ZZbCAoy00Nhs/kRFhKk3UFcpFubZvxt2jiCA637LfTmm2/ypz/9ySPPz6RJk3j22WctK7+6xs5zc1bw0rxvfncZpBq7g73ZeXyxdicrfthLUlwkLS1anqd9ixj+s2qr3hhiOZufH49NGUF4k2Cj5ZaUV/LE7KW8NO8bDjXgnj673cGujCPMXbGZ9MMFtE2I0e4kJ+FwwLGyCsu+T1555RVWrVqlANgA+4DxQHMThZWWlhIbG8uAAQOMVbBjUhyLN+zWfqUWS4qL5I07LyEiLMSyYyxYsIDJkyfjcDg87vz07t2bTz75hMDAQEvKL62o4u7XP2fJht2n/Jy8olK+XLeTvKJSzu7aGn/DaxbGRYaxed9BMo+oB16s1b9bayYMNjv5I/NIITc+P5+Ne7KMhprUrDzmr9zClgOHcDggKS6CwADfnjFcY7ez/+BR1mxL4/M1O5i1aAMff7OVQb3aGw/1ANXV1UydOpWCggJTRab76l2ek4F/miqsWbNm7Nu3j7CwMGMVXPjdTh6ZtUSfkhaJbtqEd+693NKhjVWrVnH++edTVlbmcecnJiaGDRs2GN126HjlldXc9vdP+b4BX1R9O7fkxVvH0iTYbEBduXk/d81YoDeJWOqhq4dxcbK5tWRz8o9x3bNzXbKtaHBgAOf2bMfIvp0Y2L2t1y8fk1dUyt6sPFKz89h3MI89mbmkZuX9bOmonu1b8NL/jSXSog6Ff/zjH9x0001G+yd8NQAG4ewJTDJV4LPPPss999xjrIJ2h4MpT81hR3oOYlZIUAAz7hhPz/YtLDvG9u3bOffcczl69KjHnR9/f38WLlzI+eefb9kv5ztnLODbrQ2fyda3c0tenjbO6BeQ3eFg/MOzdR+uWMbPDxY+dT3xUWHG3lM3vtA4C5qHhgTRq30Lep3Wgj4dE+neNoGQIM+bXlBdYyc7t4j0nALSc/JJzylg38Gj7M3KO+lo3NhzunL/VUMtC8IlJSV06tTJ9K5RT/ryPO97AGM3N8XFxbFv3z6aNm1qrIIbdmVys2YlGmWz+fHc1AsZ1Ku9ZcfIzs5mwIABxqbqu9pTTz1l6T2Lf/1gGR9/Y+4+u4sGdOORycON1nHWog289sm3esOIJbq2bsZ7D0w0Vt5Hy37g+X+vcIvXFuBvo0vrZvQ6rQUdkuJoGR9Jq/hI4iLDGrVeDgfkFZWQnVfEoaPFHMwr5tDRYrLzisjIKSArt4iaOq6xFxjgz52XncuEwdYujv+Xv/yFhx56yHSxE3w5AEYC6UCEqQKffvpp7rvvPqOVnP7Kp6zZnoaY+dX98DXDuWhAN8uOUVRUxKBBg0hJSfHIc3T55ZczZ84cy9YA+2DpJl6a943xch+dMoKx53Q1Vl7a4XwuffQ9vWnEEpPPP5PbLhlopKzSiiouevBdCo65960mIUEBtIyPpGV8FC3jI0mIbkpkeAiRYf97BAbYaBIcREhgwO/2ppWWV1Jtd1BWUUl1jZ2SskqKyyooKq2guPZRVFrOkYIS8ovLyCsqIbewlPxjZVRV1xh7PXGRYTxz02h6ndbC0vOWk5NDx44dKSoyukuYHWgV4MPvwULgLQxtDwfOBRpvvfVWo72A0y8ZyHc70rF74CQCd3Pjhf0tDX+VlZWMHz/eY8Nfnz59mDVrlmXhb/XWA7z88SpLyn7h3yvo36WVse202jSPpn2LGPYdPKo3jhhncuHnz1Zvd/vwB877flOz8kjNyvP49juvZ3seumYYMRbPirbb7UyZMsV0+ANYCWTbfPx9+DcMbg+Xm5vLq6++arSCnVrGMcZgz4avuvDsrtx4YX/L36jLli3zyPOTmJjIggULjE5kOt7O9Bz+9I8vsdut+SFzrKySVw0P2Q7ufZreOGKJ7m2bmQuA327TCXWR0OBAHrx6KC/eOsby8AfOod9FixZZUfRH4Ft7Af+WDOADoz0RL7xAcbHZWVjTxg8kvEmQ3n31dEbHJB68eqilCz3fc889fPTRR575oRYayqeffkpSUpIl5ecUHOOuGZ9TVlFl6etYtG6X0d6Fvl1a6c0jxsVGhNI82swoUcaRAnZn5uqkukCPdgm8/+CVjE/u4ZLjLV26lMcff9yKoquAeQqATk9isBcwLy+Pv//970YrGNO0CdeP7qeWqod2CTE8f8sYS7damjFjBi+++KJHnh+bzca7777LWWdZswdyaUUVd762gJyCY5a/FrvDwewlG42V171tc2w27Ycqhj+TWsQYK2v1Ft0fbrUmwYHcedm5vH3PZbRuFuWSY6anpzNp0iRqamqsKP5LIE8B0GkvYPRu7xdeeMH4mP3EIb20L2Ndg3NEKC9Pu4iI0GDLjjFnzhymT5/ukefHz8+PGTNmcPnll1sWyB56ezG7Mo647DUt3biH/GIz90OFBgfSLiFGbyQxymSISNmbrRNqoYE92vLvR69m0vA+xhed/z1Hjhxh5MiR5ORYsgScHXjspw4ANTFguBfw6NGjPPfcc0YrGBjgz70TB6mlTlFwYADP33whiXERlh1jxYoVTJkyBXsdlw5wBzabjVdffZWpU6dadow3F6xl5WbXbmlYWV3D1yl7jZWXfHpbvZnEKJPbGG4/cFgn1AJxkWE8deMFvDztIlrENHXZcfPz8xk+fDg7d+606hAfAZsUAH9uPwZ3BgF48cUXTS/aSP+urXVj+qmEGz8/nrx+pKULPW/ZsoVx48ZRUVHhcecnNDSUuXPncuutt1p2jOUpe3nny/WN8vqW/2AwAPZopzeUGJUYa+ZHaVlFFQePFumEGhQU6M+1o85i/uPXMOLMji499rFjxxg9ejSbN2+27Pcx8PDPvivV5D/5S+0JMqK0tJRHH33UeCXvueI8QoMD1VoncMdlyQyxMChnZWVx4YUXUljoeTtF9OjRg7Vr13LJJZdYdoz0wwU89s//0lgrF6WkHjS2bFKbhCi9ocSoaEOzRzOOFKLVwczw84ORfTsx//HJTLt4AGEhrp10WVRUxJgxY1i7dq2Vh3kT5w5oCoC/4QDwrskCZ82axdatW41Wsnl0U6aOPVut9TsuObcHVw3rY1n5hYWFjB49moyMDI86L1FRUbz00kt8//33nH766ZYdp7S8krtf/5xjZZWN9lpLyyvJLy41UlZEaIjeVGJUZJiZAHgwT71/JvTukMi7913BX64f5dLh3h8dOnSIwYMHs2KFpTu5FANP/PI/KgD+3F8x2AtYU1PD/fffb7ySVw7tTZfWzdRavzCgRxvuu3KwZeWXl5czduxYK7voLQl+Dz74IHv27OGOO+4gMNC63mOHAx5997/sP9T4iyebCqD+mgUshpnqATxq6EeOr+rUKp6nb7yAf9x9Gd3bNm+UOuzbt4/zzjuPTZs2WX2o54FfzcYL0GXwM2nAO8DNpgr8/PPPWbZsGUOHDjVWSZvNjweuGsK1z/7bsoV1PU2X1s14+sbRls3UstvtTJo0iW+++cYjzkfPnj25/vrrue6664zuTHMisxatNzoBo0FhvbLaTKjVW0sMM7Wma1FJhU5mfT4b27fgxjH9OKdbm0atx4YNG7jwwgutmu17vEPAb65TpgD4a38FrgOMrR1yxx138P333xMQYO50d2vbnKuHn2F03TNP1Ty6KS/dOtbSeyNvu+02Pv74Y7c+D0lJSYwfP54pU6ZYtq7f71nxwz7e+Gyt911cSoBiWIC/mR+px8oUAOvijE5JXH9BX/p3bd3odZkzZw7XX389JSUlVh/KDvwBOKYAeGoygLcBY1Mkt2zZwhtvvMG0adOMVvTmsWezast+n96vNDQ4kJf+byzxUWGWHeOZZ57htddec8vX36VLF8aNG8f48ePp16+fZfv4nsjuzFwefmexW+1XHWho4W+HEqAY5OeHsVGK6hq7TujJvh9CghjVtxOXDepJp5ZxjV6fmpoaHnzwQZ599lkcrvm8fArnws8oANbtpF2PwV7ARx55hIkTJxIXZ+4iDAr058/Xnc+1z/zbJz8MbH5+PPGHkZa+sefOncsDDzzgNq85NjaWYcOGMWLECM4//3xat27cX7N5RaXcNWMBpRZv81ZXTZuYeetqlqWYFOBvbkciBcDf171tc8YN7M6ofp3dZtWM3NxcJk6cyFdffeWqQ34NnHApEgXA35YJzASMbfGQn5/PI488wowZM4xWtEvrZlwz4gxmLdrgc4102yUDGdSrvWXlr169msmTJzfqQs/Nmzdn4MCBnHfeeSQnJ9OnTx9sNveYu1VZVcPdr3/OoaPFbnVdBPjbjN1ory9ZMf2j1RS7fp38xM8PerRNYNgZHRh6Rgdjay2asnHjRi699FLS0ly2dd9B4CqgRgGwfp4ApgDGrqSZM2cydepUevXqZbSiN43pz9rt6exIz/GZxrk4uTtXjzjDsvJTU1O5+OKLKS8vd92Xg81G165d6devHwMHDiQ5OZnOnTu75fl3OODx2f9l6/5Dble3MzomGbvPqqq6BhFTqgzu7WpqMomnCgkKoHeHRAZ0b8uwM06jeXRTt6tjTU0Nzz33HI8++iiVlS5bGqsauBLn5A8UAOvnCPAszm3ijF0MN910E2vWrDHaixMY4M9fbxzFpL98RGl5pdc3zBkdk7hv4mDLys/Ly2PMmDHk5uZa+jqaN29Ov3796N+/P2effTZ9+/YlIiLCI9rg1U9Ws3j9bres24TBPY2VVakAKAbZ7Q4cDoeRe3Xb+tje8DabH51bxtOvayv6d2lN7w6JBAX6u21909LSmDJlitXr+/2WB4BTOqgC4Im9hHMySKKpAtetW8fMmTO5+eabjVa0VXwUf5xwHn+evdSrGyQpLpJnp442dpP/r77wKyu5/PLL2bVrl/GyO3bsSHJy8k/DuR06dPDINpj5+Xf8c7F7zj4/o1MSg3qZ2wXG1HIyIj9yACYGgs/s1JK2CdEcOJTvlecpMiyE7u2a06NtAt3bNqdn+xY0DQ32iLrPnj2b6dOnU1Tk8sW6nweeO9W/rFVOT+4G4B8mC4yKimLHjh0kJCSYj/5vLWLJht1e2RARYSG8e+8EWjePsuaD2eHgqquu4qOPPjJSXo8ePRgyZAjnnnsuycnJtGjRwuPb4J0v1zPj0zVuWbemocF88MCVJMaZ60XdmX6Eq//6oT4FxZj1r083NlvfbnfwdcpePl29je92ZFBj98x7VuMjw2iXGEOHxFi6tWlO93bNaRUf5XGv4+DBg0yfPp358+c3ym9znGsYn/LNoeoBPLlZwB1Ad1MFFhQUcOedd/Lhh+a/WB66Zhip2Xnsy87zqkYI8Lfx9I0XWBb+AB588MEGh7/u3btz+eWXc8UVV9ClSxfv6bVwOId93bXnz88PHr5muNHwB1BZrR5AMSckKMDoUk02mx/DzujAsDM6UHCsjO/3ZLNpTxYb92SRmpXrVhsFBAX60yImgsTYCNq1iKZdixjat4ilXYsYIjykZ+/3g7idmTNncv/991NQUNAYVfgQuIU6rlyqHsBTMxr4wnShX375JaNGjTJe2bTD+Ux+ag4lXnQ/4ENXD+Pi5O6Wlf/2229zww031Ou5ycnJXHbZZYwfP77Rl2WxQkVVNQ+/s4Rlm1Ldto5XDevNXZefZ7zc73dncdOL8xExoWV8JJ88McUlxzpWVsmBQ0dJzylwPg47/8wrLKGwtJzKKjP3twb424gKb0JUeAhR4U2IaRpKVHgTEmLCSYhpSovYCFrENCUuMswr23Tr1q1MnTqVb7/9trGqsAC4FKjzWlzqATw1C2sfo00WesMNN7Blyxaio83ezNumeTRP/OF87n79c69Yx+zqEWdYGv6WL1/OrbfWbd3voKAgrrjiCu666y569+7ttRd+Vm4hD7y1iG0HDrttHXt3SGT6+IGWlK1lYMSk2IhQlx0rvEkQPdol0KPdb99qVFZRRVFpOYXHyiksrcBhd1BZXUN55f9yxI/3K9psNsJDggjwt9EkJJCgAH9CggKIDGvis7ORy8rKeOKJJ3j++eepqmq0dVAXAxPqE/4UAOvmdmAYBheHzsrK4p577uGtt94yXtnzerbn+tH9eOuLdR590s/r2Y7bLPpyB+cuLePGjTvlKfoRERFcd9113H333bRq1cqrL/ilG/fwlw+WUVzqvltOJcZG8OzUCy2bFKQAKGYDoPv0gjUJDqRJcKBbLp/izhwOB//617944IEHSE9Pb8yqzAcmAfX+gLapOU9ZKvCK6ULfeecdFi1aZEmFp445m1H9OnvsCe/UMo4nrx+FzWbNnQoHDx5kzJgxpzRTKyQkhIcffpisrCz+9re/eXX4yysq5cG3F/Gnf3zp1uEvNCSIl/5vLDGGFn3+zQBo1zIwYk5cZKhOggf77rvvSE5O5uqrr27s8PcScHlDwh+oB7CungSuAYxN33U4HNx4441s2bKFqKgoo5X184NHJg8nJ/8Y3+/J8qgTHR8Zxou3jrVsG5/S0lIuuuiiU3oTjxw5khkzZtC+fXuvvrirqmv46OsfeOuLdW5//2iAv42nbhjFaYmxFp8T9QCKOTFNFQA9UXp6Og8//DDvvfeeq/bw/d3IANxHHZZ6ORH1ANZNEXC/6UIzMzO5/fbbLalwUIA/z998IW0TPGfR0LCQIF6ePo6EGGuGJhwOB1OmTGHDhhNvnxcUFMTzzz/Pl19+6dXhz+5wsGxTKhOf+Bcvz1/l9uHP5ufHI5OHM7BHW8uPpSFgMSlWPYAeJSsri+nTp9OxY0dmz57d2OGvCufuZM+ZKlA9gHU3G7gRGGC00NmzGTlyJFdddZXxCkeEhTDjjvHc9MJ8Mo8UuvXJDfC38ezU0XRqGWfZMR566CHmzZt3wr8TGRnJZ599xnnnnee1F3JVdQ1frtvFPxdvJO2w5ywme/eE8xjd3zVL7FTXaAhYDAbACAVAT5CRkcELL7zAzJkzKSsrc4cqHQGuAL42+n2rpq4zOzAV+B4wOj556623cs4559CuXTvjlW4WFc6bd13CjS/MJzu3yC1P7I9D1v27WreUypw5c3jqqadO+HeaN2/Ol19+SZ8+fbzyAs7JP8aCNTuYv3ILOQXHPKrut447hyuG9HLZ8dQDKKY/h8X9g9+bb77p0n3gT2IDzmVejN90qABYP1uBF4A/mSy0sLCQSZMmsXLlSgICzDdN8+imzLh9PDe9OJ+cfPf64rf5+fGnq4ZY2rOzevVqpkyZcsJu/CZNmvD55597XfirrK5h5Q/7+Ozb7azdke5WC8SeqtsuGcjk88906TEVAMWkeAVAt7Rt2zZeeeUV3n333VNeEcJF3sW5wLMlaVQBsP6ewNkla7S7bs2aNTz22GM8+eSTllS6ZXwkb99zOdNf+cRt9pC02fx46OphXDSgm2XHOHDgAJdccgkVFSeeNDVz5kzOOussr7hAyyur+XZbGstT9vLNlv1uPaP3RPz84M7LzuWqYa4P5ZoEIqYEBvgTbeGMdanjj+LKSj799FNmzpzJV1991dj39/2qesCdwAwrD6IAWH+lwP/hXCDaqKeeeork5GRLdgkBaBHTlLf+eBm3v/pZoy/w62+z8fi1IyxdrqawsJAxY8aQk5Nzwr93+eWXc/XVV3v0RZmTf4y1O9JZuXk/a7alUVHl2VuZBQb489DVQ7nw7K6NcnzdAyimxEeGYfPT5luNLTs7m/fee49XX32VzMxMd6xiGs71/VZbfSAFwIb5EpiDsyfQGLvdzqRJk1i/fr1ls0+jwpvw+p2X8Ni7S1i2aW+jnLywkCD+cv0okk9va90XeHU1EydOZNu2bSf8eyEhITz77LMedwGWV1azee9BvtuZzrodGezMyPGK3V8AQoMDefqm0Qzo3qbR6qAhYDGlWbSGfxsz9H388cfMmzePVatWUeO+P+zeB6YBLpmtqQDYcNOBIUAzk4UePXqU8ePH8+233xIWZs3q8aHBgTxz04XM+foHXpr3DTV2133ZtYyP5MVbxtDe4nXc7rzzzlNaaPuWW26hbdu2bn+xFZVW8MPebFJSs9mUms2OtByqqr2vl6plfCQv3DLG8nX+FADFZQFQ9/+5VGZmJh9//DELFixg+fLlVFe79WhIPs57/ea48qAKgA13BLgVmGe64M2bNzN16lTef/99yyrv5wcTh/aifYsYHpv9X5dMDhnQow1PXjeSiLAQS4/z2muv8eqrr57S373mmmvc8uLKOFLA1v2H2bLvIN/vyWJf9lHs3tLF9zsG9mjLE38YSURocKPXpdquACiGAqB6AC1VVVXFmjVr+Oqrr1i8eDHr1q1zt/v6fs9XwLWAy8ejFQDNmA98BEw0XfAHH3xA7969+eMf/2jpC+jXtRVzHp7ES/O+4bNvt1tyjNCQIO64NJnxyT2w+laYJUuWcMcdd5zS3+3UqZNbzPotLq1g64FDbN1/mG21fxYcK/OZN5G/zcb1o/tyw4X93OZeKfUAirEAGBWmk2CQw+Fgy5YtLF26lK+++ooVK1ZQUlLiSS+hDHgI+BvO5eVcTgHQnGk4h4Kbmy74vvvuo23btlx22WWWvoCmocE8Mnk4o/p15uX5q9iVccRY2YN6tefuCeeRGBtheUNs376dCRMmnHKX/4gRIxrlgsnOKyIlNfunx/5DR/Hyzr3flRgXwZPXjaTnaS3cq1ehWpNAxFQAVA9gQxQWFrJ+/Xq+++471q1bx9q1a086sc+NLcE5cri3MSuhAGhOHnAz8B/TBdvtdiZPnkxiYiIDBgyw/IX069KK9x6YyKJ1u5i9ZCOpWXn1Lqtv55bcevEATm+X4JJGOHz4MGPHjqWw8NTvoXXVNm95RaWs+GEfG3dnsik12+3WYmwMfn4wbmB37rzsXMJCgtyufjUaAhY3C4AHDx4kLy+P7t274+els4qLi4vZsWMHGzduZN26dXz33Xfs2rULu+e/H3OAu4AP3KEyCoBmfQK8A/zBdMFlZWWMGzeONWvW0KFDB8tfiM3Pj9H9uzC6fxc2pWbz6eptrN56gPzikw9JxkWGcf5ZHbl4YHfLJ3kc79ixY1x44YXs27evTs+zcvLHwaPFfL0plWWb9rJ570Gvv3+vLlo3j+KhScM4o1OS29axpkbtJYYCoKF7ANetW8fFF19MREQE/fr1Y/jw4QwfPpw+ffpgs9k86pwUFRWxZ88etm/fzrZt237688CBA94Q9o7nwDnD9y4g110qpQBo3m3AQMD4wna5ublccMEFrFy5khYtXDdU1qdDIn06JGJ3ONiZfoRdGTmkHS7gaFEpldU1BAX40zw6nKS4SHp3SKRtQrTLT3pVVRWXXXYZGzdurPNzTc+ytjscfLN5P//6KoWNuzP1jviF0JAgrht1FpOG9SEo0N/NP7UVAMXMD+q4SDOfMz+uXVdUVMTSpUtZunQpANHR0fTt25eOHTvSuXNnOnXqRMeOHWnTpg3+/o3zPsvPzyc9PZ20tDQOHDjwsz/T0tLIzc31hebfjnO4d4W7VUwB0LwS4EpgDWB8GmNqaiqDBw9mxYoVJCQkuPSF2fz86NamGd3aNHOrE+5wOLjppptYvHhxvZ6fl5dnvD5ph/PZkXZY74bjP2z8bVw0oBs3jz2bmIhQz/jZrvwnBsREhBLgb6Z3Lisr63fD1pIlS1iyZMnP/ntQUBDt27enRYsWxMTEEBcXR0xMDLGxsT/9GRr6v/djRETErwKj3W6nsLCQ6upqiouLqayspKSkhPLyco4ePUpubi65ubnk5OT89M95eXnutq2aq+UAjwH/ANxyDRoFQGtsAu4HXrSi8N27dzNy5EiWLVtGbGysz5/sBx98kHfffbfezzf9K9TfZmPy+Wcyqm9nXv9sDQu/2+XT95IF+NsY3b8L14/uS1JcpEfV3aEEKAaYnAH8ewHw91RWVrJz50527typhnCNcpwze58Citz6s1ltZZm/AUOBMVYUvnnzZoYPH85XX31FTEyMz57kZ555hqeeeqpBZaSkpFjzoR8dzqNTRnD96H7MWrSBL9ftpLLKd2aVhjcJ4qIB3Zk4pBeJcRH6RBCflRDT1FhZbrp9mTjv85sH3Afs94gf52ozSy+GPwAbgVZWHCAlJYVBgwaxaNEikpKSfO4EP/LIIzzxxBMNLufHe2is0jI+koevGcZtlwzk09Xb+HT1dtIO53ttu3RqGcfFyd0Zc3ZXQt1wZm+d3sTqABQ3C4B17QEUl1iGc9RvnSdVWgHQWkeAS4GVgCXbXmzdupVzzz2XxYsX07FjR99I1g4Hd999Ny+99JKR8jIyMti8eTM9e/a0tN6RYSFMPv9MJp9/JjvSc1iyfjcrN+/3ijDYLCqcIX1OY8w5XenaupnXXGuatS3uFgAzMjJ0Qt3HUuDPwDeeWHkFQOutB/4PeNuqA+zfv5/zzjuPhQsXusWOFpZ+IdvtTJ8+nRkzZhgt95VXXuGtt95y2evo2roZXVs34/ZLk8nKLWT9zkxS9mbzQ+pBMo4UeERbdEyK45zubRjcqz092ie4xe4d1dXV3HPPPcZ+HOgeQDETAM3cAnHkyBFKS0t1Qhvfktrgt9qTX4Sf2tFlXse5ULRlIiIi+PDDDxk9erRXnsDi4mKuueYaPv30U+Nlh4SEsHfvXhITExv9deYVlbI97TA70nLYmZ7DzvQj5BQ07qLRQYH+dGnVjO5tm9OjXQJndEwi3s22tjp27BgTJkxg/fr1HDliZhebP89eatnWiOI7Zt8/0cjqCRs3buSss87SCW08i2qD3xpveDHqAXSd24FewDlWHaCoqIgxY8Zw77338te//tXjFgU9kYyMDC6++GK+//57S8ovLy/nxhtv5PPPP2/01fVjI0I59/R2nHt6u/+F39IKDhzOZ//Boxw4lE9GTgGHC45x+GgxeUXmegRCggJIioskKS6CpLhI2jSPplubZnRqFW9sGQurr4/4+Hhj5aoHUEwwNQSclpamk+l6lcC/gZeBDd70whQAXXsRXQKsBdpYdRCHw8EzzzzDli1beP/994mOjvb4E7dq1SouvfRSy/d9XLhwIW+88Qa33HKL252DpqHBnN4u4Te31KusruFwfjEFx8opLq3gWFkFx8oqKS6tAKC6xk5pxf/W4woODCC8SRDhTYKdf4YEExEWTLOocI9Zn+94y5cvZ8KECT/1+pn84aP4Jw0VFOhPdHgTI2Wlp6frhLrOIeBN4I3af/Y6CoCuv6BG47xvIMrqMNO/f39mz57N2Wef7ZEny26388ILL/Dggw9SVVXlkmP+8Y9/ZOjQoXTu3NljzlNQgD+t4qNoFe97b6iZM2cybdq0n10fJntw1QEoDZUQ0xRTl6QmgFiuBvgSeBdYgLPjxmvZ1N4utx1nT6DlF9aePXsYOHAgU6dOpaSkxKNO0v79+xk6dCj33nuvy8IfQGlpKRMnTiQ/P19Xqhs7evQol19+OVOnTv3V9WE2ACoBSsO0iDG3BqaGgC2TgnP9vlbAWGC+t4c/BcDG8zVwAy4YYbLb7cycOZNevXqxcuVKtz8xDoeDmTNn0rNnT1asaJytE1NSUhg6dKixiQRi+M3z9df06tWLefPm/eb/VwAUd2JyCRgNAZv7agRWAXcD7YE+wLPAQV86CQqAjec94FFXHWzv3r0MGTKEKVOmuO2HyHfffcfgwYOZOnUqx4417qzXH0Pg4cPaz9ddlJeXc8899zB8+PAT7oZgNADqtEsDNY8OVwB0D5U4Z/FOBRKBc3Fu17rfV0+IAmDjegJ4zmU/eex2Zs+eTceOHZk6darlkypO1Y4dO5gwYQLnnHOOW/VSbt26leTkZDZt2qQrtZGtWLGCXr168fzzz2M/yb7K6gEUd9Ii1swQcEVFhdt8ZnuQA8A/gauAZsAFwExAv+wVAN3CvcArLv0ZVFnJzJkz6dKlC/fddx/79zfOD6AdO3YwZcoUTj/9dObOneuWX7apqakMGDCAV199VVdqI8jPz+fGG29kyJAh7N69+5Seo0kg4k5MDQGnp6frB8nJ7QXeAaYAbYF2wLXAh0ChTo8CoDu6A+d0c5d/uT777LN06NCBESNGMHfuXGpqaiw9ZllZGXPnzmXEiBF0796d2bNnW37MhiovL2f69OlceumlGhJ2kerqal5//XU6d+7MW2+9VacvPm9a/1K8IQCaGQLWBJBfqQG2Af8ArsE5gaMDcD0wG9AJOwktA+MeHMCtQHDtrxWXstvtLF26lKVLl5KQkMAFF1zABRdcwIgRI4iKimpw+QcPHmT58uUsWbKEefPmNfr9ffX18ccf89VXX/HnP/+ZW2+9lYAAvX2ssHTpUu6++242b95cr+eb7AHUXsDSEH5+0DzKXA+gDysHtgCbgO9xztrdDJTpKlMA9AZ2nDODK4GbGqsShw4dYtasWcyaNYuAgADOPvtsevbsSdeuXencuTOdO3emdevWv/nckpIS0tPTyczMJD09nbVr17Jy5cpTHrrzBIWFhdx+++3MmjWLl156icGDB+vKNWTFihU89thjLF++vIFfuroHUNxDTNNQggL9jZTlI2sAVuCclJEK7AJ+qA19O4FqXVEKgN6sBucMpRzgocauTHV1NatWrWLVqlW/+n+hoaEEBwcDEB0dzdGjRykoKPCZhkpJSWHIkCEMHjyYxx57jEGDBunqraevv/6axx9/3NiyP7oHUNyFqQkg4FVDwMXHhby9v/gzo7YzRBQAfdbDOGcpvYyb3qdZWlpKaalzD1pfXjR5+fLlDB48mMGDB3PnnXcyZswY3YN2CiorK5k7dy5/+9vf2LDB7PaaZvdyVgKU+nOzNQC/BfJxzoZNAOKBkAaWWYZzeLYA5+jV0doOjEO1jxwg+xf/rVRXhgKgnNirwBGcN7MG6XS4fxBcvnw57dq145ZbbuEPf/gDsbGxOjG/kJmZyaxZs3jjjTfIzs625BjqARQFwN/0FPD5L/5b0+NyQNNfZIJg4PjNwStqw1tRbdgrUgsrAIp15tSGwDlAnE6H+9u/fz/33nsvDz30EKNGjeLKK6/koosuIjQ01GfPSUVFBZ999hnvvPMO//3vfy2f9W2yB1b5TxoUAKPNBECHw3HCxc9P0W/dRFh83D9r/0sFQHEzy4CzcO5NeKZOR52+u/+Dc99ll6usrOSzzz7js88+Izw8nJEjR3LBBRcwatQokpKSvP7kl5WVsWjRIubNm8fnn39OUZHrOguMzgK2KwJKAwKgoSVgcnJyKCtr8IRXbSMiCoAeKA1IBl6nEZaJ8UAlOBcCnQ+8hHOdxUZz7Ngx5s+fz/z58wE4/fTTGTRoEAMGDCA5OZlWrVp5xUnfv38/ixcvZtGiRSxdupSSkpJGqYfuART3CYBmegANTAApRj18ogDoscqB64A1wN/RfYG/JxO4GNhY++931X6L3+kuFdyyZQtbtmz5aXeRVq1a0bdvX8466yzOPPNMzjzzTLe/f7CyspKUlBS+++471q1bx9q1a0lNTdXVJ2JBADSwBIwWRRYFQC8wE+e6SO8C3XQ6fmYO8H9A3nH/zVEbAiuB+9yx0hkZGWRkZPDxxx//9N/atGlDly5d6NatG126dKFLly507tyZ5s2bu7x+OTk57Nu3j9TUVNavX8+6devYtGkTFRUVbnkRnGyv4Low25soviQkKICo8CZGyjLQA5ihFhEFQO+wHuf9gI8BfwT8ffx8HKkNfnNP8Hf+hHMW2yOe8ILS0tJIS0tj8eLFP/9SCQmhdevWtGzZklatWtGmTRsSEhKIiooiKiqKyMjIn/65SZOff/kEBQURFhaG3W6nsLCQ/Px8CgsLf/YoKChg//797Nu376c/G2sot75MTjLxtykASv20iDG3BqCBGcC6/08UAL1IeW2o+QiYBfT20fPwBc6dU05lTZFHcd4f+IzHNnp5Obt37/aq3VXcOQBqTUepLzdbAkYBUH79+aZT4PFSgHOAp3EOc/qKo8AkYMwphr8fPYtzt5VyXToKgCejHkDxkgB4UC0iCoDeqRy4H+gC/AvvnrpYjnNm74+vtT5m1oZmdaMpAJ4kAOojUrwiAJapRUQB0Lvtx9krdhaw1MteWzXwNtAJ56SOIw0sL6X2PH2gy0YB8Hc/INUDKPUOgGbWACwtLSU3N1cBUBQA5ZR8D4wARgIbPPy1OHBO7ugB3IDZ2WzFwNW15ZboslEA/NUHpGYBS70DoJkewPT0dBwN35NQt7yIAqCPWQL0BQbi7Omq8KC6lwHv4eylmwDssvBYbwPdce4cIh6uurraWFkaApb6MjUL2MDw74+fpyIKgD7oW5w9XQk4d8U44MZ13Y5zdnMrYDLO3kxXSMO5bdwwYKcuGc+lIWBp9C9WPz/io8LcKQCqB1AUAH1cAfAy0AHn7Nl/4Nw5o7Hl1darJ86euGf4+WLOrrQM6INzyZhjumR8OwCqB1DqIy4yjMAAM8uzKgCKVbQOoI9+R+JcP++L2n9vD4ytDYXnYf02c8eAtTgnqqwG1uFeS9iUA38GZgDTcG4jF6HLxhcDoHoApe7cbAYwaAhYFADld+zD2QP3MhCJc4mUrjiXWulc+8/N6ll2DpBVe4xvgJXAD4DdA85LLs7dVl4D7gFuBcJ0ufhOANQQsHhJAFQPoCgAykkVAotqH8eLrg2ELWv/PRLnLQQBwI+fdnbgEM5V57NwDi97wwfPEeBenItI3wDcDLTRpWKpAzh7qk9rzACoHkBp7ABoYB9gUA+gKABKA+QDa3z8HOTi3HHlOZxD5tOAoYBSghl24CvgTeAT4J36BECHw4HdbjeyjZvuAZTGDIB2u52srCwTRakHUBQARQyoqQ0on+CcUHNV7aOzTk29HADerX0c391R714LUwHQT+sASj20jIs0Us6hQ4eoqGjw6l0OoFStIr+kn7ciDZOKc8JIF5xrFr4I7NVpOfl3G85JNkNw9vI9/ovw16AAaGotwAB/fURK3bWIM7cItAEleMY91+Ji6gEUMWdj7eNunFvWXVD7GASE6PRwAFgAzANWncKXUr0DoKn7ANUDKHW/ZswtAr1//34TxRSrVUQBUMR1dtc+Xgaa4NyRJRnnriwDgCgfOAelOGd+LwK+pO67udT7viVTAVCTQKSuYiPCCAky89WqACgKgCKerQzn8jcra//dxv+GjM+sffTGs5eYsdcGvHXAd7WPLUBVA8p0gwCoIWCpm8Q4c0uGKgCKAqCId7Hj3PJuOzD7x6xRGwq71f55/DqMoW5W/yqcS/1sPy7wrcO5hJBJjR4AtQ6g1FVSrAKgKACKSB0yC7Ct9vGzDIJzX+TWONcebFn7aF37SMC5JqPJewxLasNcOrAf5yLex/+ZUVtfq2kIWDwvAMZHGitr3759CoCiACjio+w4Z8em4byf7veE4Lyv8PjHyaYiVtUGvUKc+0QX1P5zjZu89sbvAfTTELDUTaKhHsDq6moyM41s1a4AKAqAIl6sHOfSKoe86DXVewE0DQFLY0kydA9gZmYmVVVVJopSAJTf/nzTKRARNw61jRoAtQ6g1FWioUWgDd3/pwAoCoAi4nHq3QNoaiFom9YBlDr+YGgWZWYyvwKgKACKiK+q90LQhobOCAzQR6ScuubRTY0tHWQwABapZUQBUEQ8Sb17AA3snwpAUKBuk5ZTlxRvbgkYQzOAAY6qZUQBUEQ8Sb3vASwvLzdSgeBAf7WCnHoAjDW3BIzBHkAFQFEAFBHfCIBlZWVGKhAUoB5AOXVuuAuIAqAoAIqI7wRAUz2AQeoBlDowtQRMWVkZhw8fVgAUBUARUQBsjAAYrHsApQ5MLQK9f/9+HA6HqWrlqWVEAVBEFADrQD2AUqcA6H5rADpw7vAjogAoIgqApypY9wDKKWoSHEh0eBN3C4BFOLd8FFEAFBGPUYGzB6PRAqB6AOVUJcZGYGrdcE0AEQVAEfFlDuq5FqDuARRXS4rTGoCiACgiYkq9AqCpZWC0DqCcKi0BIwqAIiLm1CvJaScQcXkANLgI9IEDBxQARQFQRHxavcZyTQ0BB/jbsNn81ApyUqaGgI8ePUphYaGpah1Sy4gCoIgoANaD7gOUU2FqCNjg/X8Ah9UyogAoIp6oXkPAJgNgUIDuA5STSzK4CLRB6gEUBUAR8UjH6pUaDU0CAfUAyslFhTchNCTIHQOgegBFAVBEfCcAGu0B1ExgOQk3nQEMcFCtIwqAIuKJihs/AKoHUE7M1PCvBQFQPYCiACgiCoD1Eax7AOUkEt1zEWgHcEStIwqAIqIAWJ8AGKQeQDmxpDgzawDa7XbS09NNVSsX7QMsCoAiogBYP7oHUE4eAM30AGZnZxtbxBzNABYFQBFRAKy/4AD1AMqJmRoC1v1/ogAoIuLU6MvAqAdQTvgl6udH8+imRsoyvAh0ulpHFABFxFM1fg+gZgHLCcRHhRtbLNzgHsAAGWodUQAUEZ8KgKWlpcYqEGZogV/xTknuuwagAqAoAIqIx6rXEPCxY8eMVaBJcKBaQVwSAA0PAaepdUQBUEQ8Vb16ACsrK6msrDRSgVAFQDmBRENLwIDxHkDdAygKgCLiWwEQoKioyEwA1BCwnICpHsCKigqys7NNVi1TrSMKgCLicwGwpKTETABUD6CcQKtmUUbKSUtLw263m6rWEaBUrSMKgCLicwGwuLjYSAVCQxQA5QQBMN7MELCGf0UBUETkf+o9m8PURJDQYA0By29rGhpMVHgTI2WlpqYqAIoCoIhIrRrqOZSlHkCxmqnhXwVAUQAUEfm1Rl0KRvcAyu8GwHhzM4ANB8BUtY4oAIqIp6tXV565HkANActva+2+PYB71DqiACgiCoANEK4AKL/D1BBwTU2N6Ukg6gEUBUAR8Xj1WtDP1DqATUOD1QLym1oaGgLOyMigoqLCVLWq0C4gogAoIl4grz5PKigoMHLwwAB/QoIC1AryK6aGgPfsMTpiux+oVuuIAqCIeLqjjRkAAZo2US+g/Fx4kyBjS8AYDoC6/08UAEXEKzRqDyBoGFh+zeQEkL1795qsmu7/EwVAEfHdAJifn2+sAuEKgPILJtcANNwDqAAoCoAi4hUafQg4QgFQLAyAWgJGFABFRH6t8YeAdQ+g/DIAGpoBbLfbTS8Bs02tIwqAIuKzAdDkELDuAZRfBUBDPYAZGRmUl5ebqlYBkKXWEQVAEfEG9R4CdjgcRioQrh5A+WUAjDcTAA3f/7cFcKh1RAFQRLxBvXoAq6urKSkpMVKByLAQtYL8JCI0mOimZpaAMTwDeKtaRxQARcRbHKWevRqmhoGjwhUA5X/aJsQYK8twD6Du/xMFQBHxGhU4722qs9zcXCMViA4PVSvIcQEw2lhZhmcAb1HriAKgiHiTg/V50pEjR4wcPMrQcJ8oAP7Szp07TVZNPYCiACgiCoCmegA1BCw/D4BmhoCrqqrYt2+fqWplU8/7ZUUBUETEqwKgqR7A6HD1AMrxAdBMD2BqaipVVVWmqqXhX1EAFBGvc6g+TzLVA9gkOJDgwAC1ghAY4E9SXISRsnbs2GGyauvVOqIAKCLeplGHgAGi1AsoQOtmUfjbzHx1Gr7/b6NaRxQARUQB0HAAjNZEEMGtJ4CoB1AUAEXE69RrCNjUPYAAMQqA4r4B8BDaAk4UAEXECzV6D2BcZJhaQYzNAHY4HCYDoHr/RAFQRBQAf3To0CFjFWgWHa5WENoZ6gHMysqiuLjYVLV0/58oAIqIVyqkHruB5OXlUVZWZqQCcRHqAfR1fn7QurmZAKj7/0QBUETk1Oyvz5MOHjxo5ODNohUAfV2LmAhCgwPdMQCqB1AUAEXEax2oz5Oys7ONHDwuUkPAvq5zq3hjZRkMgHuAw2odUQAUEW9Vrx5AUwEwXpNAFAANBkCDi0CvVMuIAqCIeLMDjRkAYyNCsdn81Ao+rEvrZsbK2r59u6mivlHLiAKgiHizRu0BtNn8NBHE5wOgmR7AgwcPmpyhrh5AUQAUEa92oDEDIECL2KZqBR8VExFqbC3IjRuNzdnIrO8PIxEFQBHxFPX6osvMzDRWgaS4SLWCj+pqcPg3JSXFVFEr1DKiACgi3q4EqPPebgcOHDAYACPUCj6qe9vmxsr6/vvvTRWl+/9EAVBEfMKeuj4hMzOTqqoqIwdPVA+gz+rTMckdA6Du/xMFQBHxCdvq+oSamhoyMjKMHDwpVj2AvigwwJ/T2yUYKSsvL4+0tDQTRWUAO9Q6ogAoIgqAv2Pfvn1GDp6oIWCf1K1NM0KCAoyUZbD3b5FaRhQARcRXbK3Pk/bvNzNRsllUOEEB/moFH2Ny+Hf9emPb9ioAigKgiPiMevUAmgqANpsfrZtHqRV8zBkdzAXAlSuN3LZXDXyllhEFQBHxFYeA3Lo+ydQQMMBpibFqBR8S4G+jV4cWRsqqrq7m22+/NVHUGqBQrSMKgCLiS+o8DJyamqoAKPXSp0MiYSFBRsratGkTxcXFJorS8K8oAIqIAuDJ7NixA7vdbuTg7VrEqAV8yHm92hsra8UKY+s2KwCKAqCI+Jw63wdYWlpqbEFo9QD6luTT2xor65tvjKzbnA1sUsuIAqCI+JrN9XnS1q1bjRy8ZVyksSVBxL21T4ylVXyUkbLsdjurVq0yUdTHgEOtIwqAIuJrNgLldX3Stm3bjBzcZvOjm8FtwcR9DerZzlhZP/zwA0ePHjVR1Fy1jCgAiogvqgDqvJquqQAI0Kt9C7WCDxjS+zRjZX3++ecmijkMrFbLiAKgiPiqOn8JmgyApysAer32LWKM9vR+9tlnJoqZD9SodUQBUEQUAOsQAEtLS40cvNdpLfDzUyN4s7EDuhkrKzs7m40bN5oKgCIKgCLis76ljjfCV1VVGduHNTIshI4t49UKXsrfZmN0/y7GyluwYAEOR4PnbeQCK9U6ogAoIr7sCLCnrk9avdrc7VMm7w8T9zKgextiI0KNlWdw+LdarSMKgCLi6+qc5tasWWPs4EP7KAB6K5PDvyUlJSxbtsxEUf9Uy4gCoIhIIwfA0xJj6dxKw8DeplV8FIMN7v6xcOFCysvLG1rMLpz7/4ooAIqIz6vztgo5OTlG9wW+YkgvtYKXueb8M7DZzM3weffdd40Uo5YRBUAREafdwN66PmnhwoXGKjCybyciw0LUEl4iNiKUMWd3NVbeoUOHWLJkSUOLsQPvq3VEAVBE5Lg8V9cnzJ9vbiWN4MAAxg3srlbwEpOG9yEo0N9YebNnz6a6usHzNhYDmWodUQAUEfmfL+v6hNWrV3P48GFjFbhs0OlGhwylcUQ3bcKl551utEwN/4oCoIiINZYDdVrduaamhv/85z/GKpAYG0Fyj3ZqCQ9367hzCAsJMlbe2rVr2bFjR0OLyQE+VeuIAqCIyM+VAV/U9Ukmh4EBrhjSUy3hwTq1imfcALND+bNmzTJRzOs4974WUQAUEfmFOXV9wtdff82BAweMVaBfl9Z0TIpTS3iouy8/1+gwfm5uLu+/3+B5GxXAG2odUQAUEfltC4HiujyhpqaG119/3VgF/PzgugvOUkt4oOFnduTMTi2Nlvn3v//dxL7Tc4BDaiGxiu5cFhFv8D4wqS5PiI6OJjMzk9BQM1t+2e0OLn/8fdIO56s1PERM0yZ89PAkYgxu+1ZSUkKbNm3Iy8traFFnAt+rlcQq6gEUEW/w77o+IT8/nzlz5hirgM3mx7Wj1AvoKfz84LEp5xsNfwBvvPGGifC3UuFPFABFRE5uMVBY1ye98sorRitxYf8utE+MVWt4gCuG9GJAjzZGy6yqqjJ1Tf1NLSQKgCIiJ1cBLKjrk1JSUvj222/NfaDa/Jh28QC1hpvr1DKO28YnGy939uzZpKenN7SYrWjpF3EBf50CEfESNcCVdX1SWVkZl156qbFKtGkezaY9WWTnFalF3FBcZBiv33kJkeFmt/ArKytjwoQJFBYWNrSo6bUhUMRS6gEUEW+xGKhz6po/fz4HDx40WpHp4wdi89McO3cTGhzIy9MuIiGmqfGyn3vuOdLS0hpazDZgnlpKXEE9gCLiLWqA7kCdVmWuqanBZrMxYsQIYxWJjwonr7iU7Wk5ahU3YbP58fRNFxhf8gUgMzOTK6+8kqqqqgb/dkC9f+Kq94ROgYh4kX/X50mvv/66iZmbPzPt4oHER4apRdyAv83G49eez3k921tS/n333UdJSUlDi1Hvn7j2faFTICJeJA2YBtTpBq/KykpCQkIYMmSIsYoEBfqTENOUpd+nqlUaUVCAP3+94QLOP6ujJeWvWbOGO++800RR6v0Tl9JNKiLibd4FptT1SdHR0Rw4cICIiAijlfnTP75k6cY9apVGEBoSxAu3jKFv55aWlF9TU8PZZ5/Nhg0bGlrUWmAA4FCriauoB1BEvE0FddwVBKC8vJwmTZowaNAgo5Xp37U1/924h+LSCrWMCzWLDueVaRfRu0OiZcf4y1/+wgcffNDQYhw4Z6+nq9XEldQDKCLeJhDIBuLq+sTw8HD27NlDQkKC0QptP3CY65+fR1V1jVrHBc7s1JK/3jCKWMO7fBxvw4YNDBgwwMTEj/eBa9Rq4mrqARQRb2MHWgH96/rEyspKysrKuPDCC41WKD4qnODAAL7boU4eK9n8/PjD6L48OnkEYSFBlh2nuLiYESNGkJub29CiyoBLqMcuNiIKgCIiv5YD3FSfJ6akpHDFFVcQG2t2S7dep7Xg0NFidmUcUetYICGmKX+9cRTjk3vgZ/EajDfffDNff/21iaKeoB472IiYoCFgEfFWm4HT6/PESy65hPnz5xuvUHWNnTtfW8Ca7WlqHUNsNj+uGNyLW8adQ2hwoOXHmzt3LhMmTDBR1AGgG85eQBGXUw+giHirUOD8+jxxx44dnHXWWXTq1Ml4WBncqz2rt6WRV1SqFmqgjklxvHDLGC5O7k5ggPVfZ9u2bWP8+PGUl5ebKG4isFOtKI1FPYAi4q2a45xZWa+bwdq1a8fWrVsJDTU/keBoUSnTXvmE3Zm5aqV6aBYdzg2j+zFuYDf8ba7ZzyA7O5uzzz6bjIwME8W9A1yvlpTGpB5AEfFWJUBX6jkMXFBQQE1NDcOHDzdesSbBgZx/VidSUrM5nH9MLXWKosKbcOOF/XnyDyM5vV2Cy/ZbPnbsGCNGjGDXrl0mijsIXAyUq0WlMakHUES82dnAmvo+OTAwkA0bNtCzZ09LKldWUcUf3/hCs4NPIfhdNaw3E4f2dsl9fserrq5m3LhxLFy40FSR44FP1KqiACgiYq3vgH71fXL//v1ZtWoVAQEBllSusrqGZz5czqert6mlfqFL62ZMGNyTUX07ExTYOANWt9xyC2+88Yap4v5FPRYpF7GChoBFxNtV4Ox1qZesrCxqamoYNmyYNR/CNhuDerUnLjKM73amU2P37d3AAvxtDD+zIw9OGsot486hc6t4/P1tLq+Hw+Hgjjvu4LXXXjNVZAbOoV/N+hW3oB5AEfF2QUAaUO/tPWw2G4sXL7bkfsDj7cvO48G3F7Mny7cmh/j5wentWjCybydGnNmRGAt38DgVNTU13HDDDbz77rumiqwCBgPf6u0oCoAiIq7zMPDnhhTQrFkzfvjhB+PbxP1SdY2deSu2MOPTbymtqPLqRmnfIobhZ3ZkVL/OtG4W5RZ1qqysZNKkScybN89ksXcCf9PbUBQARURcKwLYD8Q0pJCRI0eycOFCbC5YeiQ7t4hXP/mW/27cjcNLRoVtNj9Ob5fAwB5tOa9nezokxbpV/UpKSrjkkktYsmSJyWI/By4CHHobijvRPYAi4gsqgACgQTfy7d27Fz8/PwYPHmx5hZuGBjPsjA6c27MdBcVlpB8u8MgEEdO0CUPP6Mh1o87igauGMmFwL/p0TGr0Yd5fOnToEGPHjmX58uUmi00HRqH7/sQNqQdQRHxFOLAPiG/Qh6afH++88w7XXnutSyufdjiffy/fzJfrdlFU4r5LyEWFN6HXaS04o2MSfTom0aV1vMvW66uvb775hokTJ5KdnW2y2GPAuUCK3nqiACgi0rjuAZ5taCGBgYF88cUXjBgxwuUvoLKqhpWb9/HV96ms3pZGaXllo57QxNgIendIpHeHRPp0TKRt8xj8POSbxeFw8OKLL/KnP/2J6upqk0XXAJcCn+otJwqAIiKNrwmQCiQ2tKCIiAhWrlxJr169Gu3FVFbVkJKazYbdmWzcncmujCOUV1ZbcqwAfxtJcZF0ahlH51bxdGoVT5dW8W43lHuqioqKuO666/j444+tKP424O96u4kCoIiI+5hm6ss5KSmJNWvW0KpVK7d4YXa7g/ScAnZnHiErt4iDeUUcyi8mv6iMotIKikvLKSqt+NlzggMDCA4KoGmTYJoEBxAfGU5MRCixEaE0jw6nVbMoWjWLJDE2wmX77lpt3bp1XH311ezZs8eK4l8BbtfbTERExL34Axtxzsps8KNt27aOPXv2OMT9lZSUOO677z6Hv7+/w1T7/+LxKZpcKSIi4rbOAqpNffEnJCQ4Nm/erITlxhYsWOBo3bq1VcHPAfwX5y0GIiIi4sZeNRkAoqOjHWvWrFHScjMHDx50TJ482crg5wBWAmF6S4mIiLi/CCDTZBBo2rSpY9myZUpdbqC4uNjx5JNPOiIjI60Of6twLjEkIiIiHuIK04EgJCTE8eGHHyqBNZKysjLHiy++6IiPj7c6+DmA1UBTvY1EREQ8z5dWhIObbrrJUVlZqUTmIpWVlY7Zs2c72rVr54rg9+M9fwp/IiIiHqo5kGVFSBgyZIgjMzNT6cxCx44dc7z55puO0047zVXBzwG8BwTprSMiIuLZBgFVVoSFmJgYx9y5c5XUDNu7d6/j7rvvdkRHR7sy+DmAlwGb3jIiIiLe4T4rg8M111zjyMnJUXJrALvd7liyZIlj7NixDpvN5urgZwf+qLeJiIiId/EDPrEyRMTGxjrefvtth91uV5qrgwMHDjiefvppR5cuXVwd+n585ANj9RYRERHxTk2BnVYHinPOOcexatUqJbsTyMnJcbz22muO5ORkh5+fX2MFPweQApymt4aIiIh36wmUuCJcjBs3zrFt2zalvVoFBQWO2bNnOy644AJHQEBAY4a+4yd7hOotISIi4huuAmpcETJsNptj7NixPtsjuHfvXsfLL7/sGD58uCMoKMgdQp8DKANu1ttARETE99zq6uCRnJzs+OCDDxxlZWVevUPHJ5984pg6darVe/PW9/ED0EuXv4iIiO/6c2OEkOjoaMf06dMd69ev94ph3S+++MJx//33O5KTkx3BwcHuGPocOJcBehqt7yciIiLA3xszmLRp08Zx++23O5YvX+6oqqpy+8CXlZXl+OijjxzTpk1z9OrVqzGWa6nPYytwpi518SV+OgUiIif1Z+Dhxq5E06ZNSU5OZsiQIQwaNIjevXsTFNR4HVbp6els2rSJlJQUUlJS2LRpE2lpaZ7UrqXAc8BTQIUuc1EAFBGRX7oP5xCh2wgMDKRbt2706tWLnj170qlTJ9q2bUubNm2IiIhocPlVVVXk5OSQmZnJvn372LNnz0+P3bt3k5+f78nt+TkwDUjTpS0KgCIiciJ34ewxcvutwGJiYkhISCA6OpqYmBiio6MJCQkhNDSU4ODgn/5eZWUlJSUlFBUVUV5eTmFhITk5OeTk5HDkyBFvbMMtwG3Acl3OIiIicqpGA4W4/31tevz8kQbcBPjrEhYREZH6OB3Yr1DlEY/DOIfvg3XZioiISEM1wzmMqJDlno8DwO1AE12qIiIiYpJfbcioUOBym8cmYDIQoMtTRERErNQfSFX4arRHNfApMFSXooiIiLhSU+A1XLSHsB44gHTgESBJl5+IiIg0prOA9Qpnlj1KgbnAGDSjV0RERNyIDbgVOKrAZmyIdzEwBYjQ5SUiIiLuLAp4HK0bWJ9HObAQ59p9zXUpiYiIiKeJxbnf7DEFu5Ou2fcvYCLq6RMREREvEQ88gHNXCgU+KAEWAX8EeqPtSUVERMSL2YDhwALA7kOBrwbYADxd+/pDdCmINA792hIRaVztgctrH2d62WsrwTkjejXwLbAGyFeTiygAiojI/7QDLgMuBvrhebtZZB4X9r4FUnDO4BURBUARETkF4cBAYDAwCOjrRoHQAezHue3aD7VBb1NtABQRBUARETGkCdAN6AF0B3rW/nsrC49ZAOz9xWM3sBnn0jYiogAoIiKNIAhIAFoCLXBui9a89r9H1P4ZBoTWfuaX1D6vCOekjAogFziCcxmW3NrHIZwLWYuIF/p/5U+ZpreCdW8AAAAldEVYdGRhdGU6Y3JlYXRlADIwMjQtMDYtMTZUMTg6NTM6MDQrMDA6MDCw9V0PAAAAJXRFWHRkYXRlOm1vZGlmeQAyMDI0LTA2LTE2VDE4OjUzOjA0KzAwOjAwwajlswAAAABJRU5ErkJggg==;" parent="1" vertex="1">
                    <mxGeometry x="653" y="237" width="48.46" height="50" as="geometry"/>
                </mxCell>
                <mxCell id="51" value="" style="shape=image;imageAspect=0;aspect=fixed;verticalLabelPosition=bottom;verticalAlign=top;strokeColor=#1d1921;fillColor=#ffffff;image=data:image/png,iVBORw0KGgoAAAANSUhEUgAAAlgAAAE7CAYAAAAB7v+1AAAAAXNSR0IArs4c6QAAIABJREFUeF7s3Xl4VNX5B/Dve+6dycImikBdECu1KtVaU4SELGpb6zaBgIkLLlgxQDJRK9XWrcYutrWtbU3CVltRQWuQJZn+1FZrycKmpaVa7OIC7oAgO1lm7nl/fwQUMcmZzNyZuYH38zz0seR7E2Yyc+e9557zHkAIIYQQQgghhBBCCCGEEEIIIYQQQgghhBBCCCGEEEIIIYQQQgghhBBCCCGEEEIIIYQQQgghhBBCCCGEEEIIIYQQQgghhBBCCCGEEEIIIYQQQgghhBBCCCGEEEIIIYQQQgghhBBCCCGEEEIIIYQQQgghhBBCCCGEEEIIIYQQQgghhBBCCCGEEEIIIYQQQgghhBBCCCGEEEIIIYQQQgghhBBCCCGEEEIIIYQQQgghhBBCCCGEEEIIIYQQQgghhBBCCNElMgWEEEKIZCgNZWXayDjLgroc4C8CNAzAuwD+zRp/bm/b0zC3ZM0O0/cRwgukwBJCCJFy05fkZtk+dTeYxnUT+yvD+UF1oHlZNxkhPEEKLCGEEClVHsotIqjZBBpsygK8VzNNqylseMyUFCKVpMASQgiRMsH6/POgsJiYBpiyB4gw68urC5sWmYJCpIoUWEIIIVJi+oLcgXZ/eg5QWabswZjwemtb67kPTVz9rikrRCooU0AIIYRIBKu/ujCW4goAiDEiw59+hSknRKpIgSWEECLpimthAXSpKWcwyRQQIlWkwBJCCJF0R2NkBoFHm3LdYeLhZbWjhppyQqSCFFhCCCGSjsMDfQAdY8p1h0CW8ttHm3JCpIIUWEIIIZKuJXM3A9xmypkQbMeUESIVpMASQgiRfNu3twL8L1OsW4zWXbzrfVNMiFSQAksIIUTSzbtuQxuI/mbKdYfBa+YVrd1uygmRClJgCSGESAVm8BKA47jFx7NNCSFSRQosIYQQKdHOe5sA/MGU6wyD/7SpJfInU06IVJFO7kIIIVKmrHbUUCsz4y9gOs2UPcB6zZFATeHydaagEKkiI1hCCCFSZmbJSxt1uy5i8NOmbAdeoaEvleJKeJ2MYAkhhEi50lBWph+Z1xDUtwCMOvjrDF5LzI+07d47f+6Va7Z08i2E8BQpsIQQQnjG9AW5A9GXjrcIXwAjg4nataPfUNy+oWbCi1tNxwshhBBCCCGEEEIIIYQQQgghhBBCCCGEEEIIIYQQQgghhBBCCCGEEEIIIYQQQgghhBBCCCGEEEIIIYQQwqtkqxx0bM1g9XeGOA7n2sp3PINHMFMfYsWmY0V0mDQR8R4Cvc6gt0Hh5c5Oa9OsSc3bTMeK6BXXjvQD/S1/u/Z19nVfeFP7nj599MKSdWEAnnl9l4ayMvfssG0AGODfrSPb0tvmTl0TNh0Xj3MqYR//+TPS0gZk9E1j33AmzlTKHg5GXybWSvMGR/EOYt7GrdvfWr+xLfzMja+3mb5vKl344Ii0I488Kg3oeB4T9W8urh3pH5iRbu//nQFAu1+FF5asbOnuuGgV1470Hw34d7T3VQl7PVRCFZ+WneZv174B/t36Q6B9Ycm6dtNh8SiuhbV74wh70BGZtlYZ1oFf2//7Oj5tgHb9sXrFvud8YKS9j53Z52RSdBIBRzCxPjhKGu844A1O2963sA17E/mcnFMJe8RXRh+VpqzPRzR8CDsfcFrkvbmBNXtNx3bnsC2wzqmEfcpXsk8HU55N9kSyaBTAaWBSpmNFnIg1QG1aO6sdrZeAuOk//1j5yrJKREyHik+UhrIyLZ05wiJ1LIhHE/EJYHUKEwYR8/Hc6fub3iDwNgDvAHiXQesAZ324LfzeR1q969YHZJQoWF9wASkeB6bzAT6GASKgFcA/mGlROzl1cwPNb5u+UbSC9fknktYnQdG5IPoqiE4HMAhgixlEoE89ZwxmAjSANgD/BfE/mbGaHf5HeG/LG17ZdLg8lHeWAhcBdCFIncbMFgERgP8NVvWa9B9rAk1/N32f7kx9avQX/Gm+UwArD8Q5TDQMmocAAAHMRO+A+Xkw1VcXNjyLGAr4iqV5p8GiCQAuBPAlBtKJsAtML4PxvEakrqZw+TrT9+lO6eNZg/z9+pwP0KUgnA7mYQTaC+A1sH5Oa66vGd+82vR9ojF9Qe5A1QcnK2V9HtBfYqIzCTwEUEMYPPjAbMfrnl8DaAcIr7Gmv2uOvKa1s3520aoNXfwIzyt9PGuQr1/aFxRbo0FqLBPOJOAEgC3z5y07TNhNjLVgbnBYL0Nb+79nlry0sfvjotMxuGKNJ/BVIMo74DzgsMIHpPEHdtofqx6/8hXT9+rMYVdgFdfCGpSWcwUB4yzLNw6MTq/0RfIwuF3rSD2zWjJrbfMfUInPXM2IT5Qtzc+xFH8ThBwQnQWmI03HmOm3APovgFfAtIY50lA9bvn7pqNiNa02+1g73f9TIlxliP4XjHurChueMOS6VgkVzMorBFQhCHnEGGE6xIwdgP4O8MoI8+JZhU0NpiMSobh2pH9o+qDvacJ3FNCvm+h2gH9ZFWj8MXpY+JTV5V5gWXQZGOcC6gRTvgM/6bS03NyTD8LyUMEtCrgVwNBuYls08EBNoOEn3WS6FKzPP4+IfgpgVFcZJrRC86Mcab0j1s2lK5bmfh2WdT6IcwA6O57PGSa8TsxrmOmF9t27F3ulqDfpOE+hEETnMfirB1+8xOGfADc40AtnBpqbTeGuTF+Sm2Xb1q8B5HYbJHygGb+oCTQ80G2uE2494F4hWJ83UWs9w7Z82dyzc4xIAgIh4oRXKkvdXx1oWmrKH06Ka7MzBmdYFyhSM8A0EsARpmNixw4rep8cvY4ZC1rR/txD41ZvMh0VrbLaUUOtjMwlAMaYsvtEGCitDjQ8bAoeqLg2O2Nwuv9SRagA+AyA0kzHxIZ3AvRP1nqubvto6cySdbtNR7iEgqGC3xFwnSn4Cf5lVaDxO6YUKqEqzsw9D5a6F8CZAGWaDulEc9uu3UXRFATB+vyHiOh6U+4T/MuqQOOt6EGxWFGXd7FW6glDIXoA/nNkp7482mkMxbXZGUMyfEUEuhmEU8HoazomBuvB+rG23Xuronlek23yw8PT+x457HxSXAGoryKB5ykm3kGM1e068uM541Y0mvIHKluan2NZ9CSA40zZjzHuqSps+IEpdqDDosAK1uefCOgfgdQVLlbRIkEYzGD9BKDuqi5sXG/KH9L2jb4Q1AyYrrQSZyODl5KjF7VZLSvimZcw+eHh6f0GDZsH0GWm7KcQdrNGSXVhwzOmKLB/BEHdC1COKesq4leZ8eMd27bXPXbNy3tM8XhUhApuBXC/KfcZjDurChvu6+rLwVD2KQRfZY9/R53imtfXvz+ju3lg5aH8cgWq7urrXWHo71YHmn6OKIqs4NLs08nyPQfQEFP2IKHX179XbJrHFqzPP48UfgCmsd3l3MObAPrlRzta5yy4avVOUzoZykI551vw3QUgz5R1WYSZH+GIvr9mQvP/TOHSx7MGpfXr+zyAL5uyn8Zt0DyxalzT/5mS+x3yxcYNi796eZov40cEdZIpK7yFod9oi7Te8duil2pN2UNR6ZKck9Js+16AJpmyyaOfB2NB1d+bHo3lVm55KLdIQT0R02gS8fI23nN+dwXe9AW5A+3+6k4GKgjk7yqXePp5Def7NYEVK03JWOwrgv4C0DGm7GcQdkfanC/Pmtj85sFfqqjPmwyl7gFjeCdHxoD3anBeV/O/SkO5w9LIaojp5xF/FGnTozp7HAfaN7L0CIGKu8t1hsEM0PVdjZ5Omj+6/5ED0r7PROXESO8sk2B/jUScW2cVNa8xBRNl+qLcz1s+614iLo7pfe2e9ZpxT01hw2PdhYKhvNsI6mfdZbrGL3y0o60o2qL2kJ3QXVwLqyKU+8M0X+YjUlz1TgR1Upqd8VhFKPeHqDx0X6udCdbnTfTZdoO3iisAUF9not9XZBWsC9YXlJbVjoz6NkjpnCwfwbo65pMw01gbaV2O4pWH8s6y+6s/AjQjtcUVAKivK9jPVtQXfL80lBXL7bVuEfsnxFRcAQCjr+23ph34V8W1I/0VoYL7oeh3MRU7XaJMQH2zq6/62RoX889jOtL2WaY5fBiUZn+BiMabcp0hEBEwvbgWn1rxBwDli3NPPnJA+p8AmpGi4goAzrVt67ny+oKrTcFEKK8vuNr2Ww0dcyljfF+750SleF4wlD+ry/dcJRRI3dDp16LAwLkDB/jOMuX2OyQ/tC58cETa4PS82YB1V+pPtCIeHb8/665gVt7sjhYEh75gKO82UuoJBTrWlE2FfbfZTyHCHCtj0NPTl+RmmY4BAKtvRl8Qn2fKdUfBLurs78vqci9QoFDSbwl2i/qDcG8aMuumPjX6C6Z0tIprR/pBUc9f6xSDvzH54eHpQMcozNCMQQsA3Gpe1dVzBM49pxI2DnJOJWwQX9zZMdFiwuWmjEWqIJ5J5gC+MjAj91PvxWB9/nnkt/4P0c8jTKSBivjh8lDB7aagWyYvOfOIilD+bxThUfRkHlOiMSkCTfOjz8Jg3djPXICUnZk/hpiP7+zQaHQU3FaXCyQO5vqbKdVK52RlnnTi56oUqSmmrOg9COqGwf6BD5bOcX80wEs6hq/pvjg/EJIpz7bV/1Uszf26KWj1d4YQ0wBTzmDYwX8RrC8otZT1eMwjOgmnvu5LT386mucoGkfZA45AJ89DjxD19acd1RcABg5IexDApYYjYkagY0/OyvrMxdHJWVl+4vguIgj4XOnjWYO6zRB/sbuvmzDY8rH6uJDatxLxSXdWo7qFLAXcFwzl3WZKxqv08axB/ax+TwB0oymbKgS6iJS9tHxx7skH/r2l6ARQfOdWho76YumQK7DSjulbSYh9CFB4l7Ksqb4h6Xeacr1VMJQ3rWNuAH3mdoS30RDY1m+nL8gd2F1Kg+IrCgCA6FMnzGAobxqIZwPo9menGjFGaMtaXFGXF9eIDQDYtt0HhE/1UOopYhyRlpk5OFhfUEqga035eDBgt2wLf2a+77YWP4PgdHZMtDRg+fqm93Tieo8QiIj4SAAoC+XmEtEiAN0WdalCUD8ur88vMeViVb449+S0fn1fAKkLTFkPGKV89Pi0JWOG7/8LDXYQZwsBYhX1tIhDqsCasmTUVejooyIOUcqy77hhyaiEnUBSpWJp7tcJ9EtTzrMYw+3+uKW7iCIr/kU1hI/neQTr8guJ1AO9ZWWwAvpBqfnB+oILTVkjjnuBUqu2kEOEu03BeBF4h+XsjKuQ6o7Sydhxg3aWhnKHWbB+iwS2HnCBrYh+WV4/dqQp2FPBUPYpyq+WADjdlPUOleWz/fNMF3890knX+a4cMgXWlEWjj8uwM39lyoneL82f+Ytptdlx3Vrwkmm12cfCsn6B2HoNeQepCZ1NBnYTaa0BoDyUk00dE7IzTMd4zBFEWOBKkRUnBXU9kjB/hhn/mnfdBte360miCDEPTiP1IIBTTGEPOI7IcvVirfTxrEEEfy2YTjNlvYcK7AGqYxUo6YRtt9OZQ6bASvel3Q2PDtsKd5HG8XaG7y5TrrfwZfhvQo97sngQU/+DJwO7T7VOqRs9RME3B733/T4QxPOm1+WdYQomCoOPRRImaHf0tOMmRNGryrMIDFLTwDTOFPUKAn0zWF9QaspFozSUlZnWL/MJ9KqRq4MwjasI5d9FbLWCKOoRqHgdEgXWtMVnn0eKrjTlxKGDQZPK6saea8p5Xfni3JM18Kkl870WcYYVwdGmWFwI/TNUejV688keAIEG20rNL6sd1d22MAmTrNuqBPqbs5ujbszoSR0LTuKaKJ8KpPgm0wKAKFAa+lYCypUFGqlFM4jwLTAnbRTrM0tne5vi2uwMy7a+naBtCYRHKaCfQ/Tt4trsVUneoNhV5LemEUe7dYdRRIM3KdBKJrwDjfX7d6lXzMeA6ASATkLHtjF+uPz+14xWDjtR7z0XE8bnkMAVb0l2upWZ/hP0aKub3oT3MvHd0W41I9zFjFP9ffteAaDKlO1KeX1+MYNvorin/HnCEQAuZYCT9WhcPcGmwpA0eyIpuqgXD0CLGFmkLhrkRxGAx01ZL5q+IHcgM5fEffIi/og1lmiN33/YvvVvC0vWtXcVLa6F1cd3Zr9Mu++XLLbyQfpcVuqLpBFzb5j9CHh3dsnK90y5VGLwZgK9BeL3wXgLzLs11H9AOFoBQ8E4DoqHgekYACeavl/cWE0ury94wdR9uhfarsG31lzS9CdTUCQGgQiEG6YvyJ0fS5E7rTb7WBAeSEYvyX0bWr8N4B8aWE+gT3ZrYFbU0RPwFJA+ed+G4zGPzCVr9Bbo5QXWpPmj+5NFtyeiOZ7oDciylXV7We3I+iRusOsaq7+6kIgGx3VxQLzcieC2meMbV5iiALCwBA6wdjuA5n1/7utYcWSPJcI3GFwY+wmV55kSqcBgJtAfAf1nzc7q9Rs2v2zaW650Sc5JaZbvbCbOBzCBQHG1ReiOIv7plLrRf3ZzQ+3U4ifbdWRmTzfgPaR07Em5jkAbGHrLJ3+tbCgexozjCXQGEr/I4HS7P3IBhEzBg/ky7R8hzj5lBttAXAtNDe1wls8NNL9tOqC4NjtjsN86QynKBtF4gApMx6RSry6w+vZVM8DqtN48f1LEiehLjr//LQB6tMu5N/A5YIqj6R2viOzQgViuTg9UU7h8HYB1pXOyHraGZp5qE18GUt8C0IP5QfznTS2RR0ypZGJCKzEvYkdXvfH2xrWmoupAc4tWvAHgDQBPBOvz72fgEli41Y2Rvs+iYzKstHvRK+fi8V4GvQXwiwx6mSPhFz4Mr3ilo5A/vLDCO6TxB43wEt4bXv/qqy9tWVaJSGfZ4trsjIEZ1tF+tkaC+DoiujBx01zUZehhgVVWl3sBM12ZiKEeDexSwOz2ttbfzrl09Wum/IH2TQdZDWB1We3Ih5A2MNdS1h1I/gbTUem1BdaUxWNO9Vv+UimuDncM2/KVTlk8ZuFDE1b925T2iknzR/cnqDiWfPNOJxIpnzVpRVzF1YHmTl0TBvAygJcnLznz533sAd9SwGQYJpQz+E+RlvD1HpsL16TZuWNmoLnZFDSpLmxcD6BqyqLRS9L9/u8Tqclud9pn4PKyUO58N/69CUeswbQCcJax49RWj1/5iumQQxrhA2aeG2mLzJw9YcVmUxz4uFB4e9+fZ6Yvyc2yferuRKxUZOAbVz96Rp/Hrnl5jykLdGw1Zyl1K2Ieye4ag59mjlRWFa54yZQ12XfX4lkAz5aH8ssV6HtI/Ihgj/TWW2uUpuyb0KMrbHGoUqBj970eEnHBlRBHZPqGsopxk1sAAP15ZtGKtaZUrOYVrd1eE2h4wGnZez5DT0fH7cRPI34VjDudnfoKz8y9ItZg/YPt27Zd6Hax8tDE1e9WB5pKtearQPjAlO8JYhpgsVXm9f02GVgC1uM3tmz5WlWg+W4prnh52Gm/uDrQWBltcdWZWUXNa6ouaRzP4JsB/mT+kQsIOGrAEQPzTbn9TjrhmG8CcPXWG4PbwfoH7e/vGT/TheLqYDWBxhrNkQsA/bwpm0y9ssAKhnILlKWuMOXE4UNZ6oqpdTmeHCbuDNt6AGk+ypTrEuukLH2fWfLSxupA0+yPdrReDEePZM3jNJwJ7W2tJ7ft3FNQVdhwX7y3KF1D/JHWNLmqsOmeaK/WY1FT2FgbCTsBQK8xZXuCFYqG+o/00P52n/JPZly0qWXL5VWB5lB3CykOFwx+JLJDB2aPW/kPUzZa1YHG3zDzNSC4OBpMFkHnmlIfUyiDq9t1scPg8qrCpnv2jZInRE3h8nXbt+0Yz+DfmLLJ0htvERIYd4CovykoDifU36fsOwD0iom1Cr5BAOLo3K6ink/khgVXrd4J4NV9f7yHeCsi+vKa8c1JuYKdVdS8pnRJzmVpNp4EVJYpHw1ipMOiMgBBUzZpiDUYs5yWrd/rjQtJEii0e8vb0+Zdt6HVFOyp6sKmRcH6/COIMMe1Qofoq+gY4e92Tk1Zfc4oInzDtZk3hBataWpNYWNSVsk+ds3Le4prMWNIZoEmxrdN+UTrdSNYU5dmX01kf8OUE4cfgvrm9Lqcq0w5L2A47pw4BQBEWNPVVUkqrvabW7TiDTi4xs3bhQwUly8+O/aRTVfxXmYurwo0BqW4OgDjX07L3tJEFFf7bWptnMdMT5hy0eOjSmuzjIMSCvZUN1flM+tbkt2CZGEJnE17t3yPwSlfdOPaE5kM0xbnDLaVfZspJw5fSqnbpi3OSdiSeq/Y1z7gsMdgZsYt1YUNz5iyiVA1vulVOPoGBrtyy4xAg+FLKzLlEo/fZ+iLqwNNs03Jwws7DNw2s+SlhDbUXVgCp90JVwJ415SNBis12Jee3u0E8GDd2GOg3Gx7wA+m6vWzsGRdu27ZGgQ4qvY1idKrCiyyaYoiNVJWDorOMRSs04ms603J3o5Al5cvzj3ZlDvUEVC7qXXLHFMukarGNf0fgVyb96GgvmnKJNi2dh25ojrQvMwUPNwwMD9ZxfzcohVvgHmBKRcN0jxAQ3XbnJMVjSbghO4y0dNrWnTbfaZUIs0sWbc7onk6g2NefBCvXlNgBUPZp9hkTzflhLD8avphUHwcoXzW/NIlOSeZgoewLW3Qt3lhwnVkp/MTMP5lykVHj0rh7zUC1rcc1k1Cu8CEVh2J/NqUcxMDc1xZVUjoaxN3d4uQFNTX3Go/opkrvdA4d9a4ppeJqcaUS5ReU2Ax2zPgsR4XwptI43jlV7eYcqnE0JtAiHdey6g02/dEeSgn2xQ8FDHjB9F0f06GWZOat2ngflMuOuoEn2W7MnG+5/g3VYVN80ypwxGB//TqP1e4VERHp7qwcT0Iz5lyRkxKs3VEV18uX3z2kQBFv9Kwe0/VFDb/0RRKFqd1ywMA/8+US4ReUWBNrcvJJ6JrTDkh9mPQtdcvGjPWlEsViqgdTHCjvcEowPenYCi/ckrd6CGm8KGCCa+3t+5+1JRLpjc3vFcLsCtL9hX4y6ZMAqza2BK+2xQ6HHXM9eNnu+rMnkis6WlTJhqK9ICuvqattGMZfGpXX48aIew4/CtTLJlmlqzbrZl+ZMolgucLrAsfHJGmQPcQlKcb8AlvIaZ0n23d49XGjZsjzjuk9X9NuWgooB+B7klX6X8NhvIrpywafciP9JLWNXNL1uww5ZLpmRtfbwPzg6ZcVAhnF9dmZ5hiLopox7nZY934veRDHXFWmUKJwNr5pxuLKDSoy8nLNqmRse9BegDWDR+2h125yHBTePfuZ1IxiuX5AmvYsKMvsy07Tya2i55h2MoqGJQ2oMSUTIWODzL6pynXEwScSqB7MtLS/x2sL3isYmnu18tqRx2Kux28qyPsylW928JOeBkIG0w5EwadMSRNDTTl3MLgh2rGN6825Q5XBLy3/p3NKdmKi5TaDKLE3gonjn+0n1gDqPNikT73yjVbAF1ryrnN0wVW6eNZg/yWfaNbE+/E4YVAfltZN5c+ntXt6plUYcbTTHC/lw6jLxGugmU9Z2VkPF0Ryv9FWV3uBZPmjzb2weklVq17uflNUygVZhetegvQy0w5EwINZqWSUhwzeDM5XGXKHc4YtKEnm4W7qb11z0fEnOCtqOg0U8KI8SE7kQZTLFUczS+4smCgBzxdYPkz+0x1q0uyOFypLCsj8wZTKhU2tTY2EONvplx86CsAzbCUWnTkgPQXg/X5c4L1+edd/egZfUxHetG+vlfPpWIuTJSYNTUzOO4hd2KcaMq4gYDnqsY3ebNDv0cw67dMmUSZ++qaXQz6yJSLCyGOjef3o7c3ta/07Oso0tb6d4DWmXJu8myBVbok5yRYuNGUOzzpNY7jzGTwvQy+V7OuAtizVw6pZtt00/RFuZ835ZJtYQkczc7PTDl3UCaALxJRKRH95YiBA1+pCOX/ojyUWxSsz0/KB7kbCLSDEVluyqWSRuRlAm035UwI6oumTLwYzBqRlC1j7y0U4Q1TJmEqwWAkbG/NabXZx2pGX1POjBsXlsAxpVJlbsmaHQxOagHo2b0IlaK7CWqwzL36hIbzigLuDIf16oN3bp+85Mwj+vr6jYbmGUSWbCX0KWoI2873AUw2JZNtc2vzM0My8p8m0EWmrMtOBGiGgjUDxP8L1uc3gVHfrvY8PzewJqnD6D2hwXs2ty7/jymXSnu3vv9Kv0EnbAYQ1xwqBrvU9LE79OrmlhUvmlKHO2ZK5bwiJvB7AJlyMSGfNVSBrXi/v2Z4/nVE4L8BdK0p5xZPjmBNW3z2eT7LnijF1QFIz9sT2Z1fFWgOHVxcAcC8orXbqy9p+lP135svcLT+fkLm9vRaDJ+yiqYtGXOOKZlsC0vgwAl/TyPRcyy6QycT0fWkUJuGvmsqQrk/LF2ScxIqvXd+UMyvePkqGQA69qjT75hyRkTHmCLxIkat159PL2Di+KqPeJF7+wMezLJoOIA0Q6xbDGbo1N1GjZaj+XUQwqacWxL2S4tV6ZysTMtOmwFXhiwPDaydRzfujZTNK1prvu1QCT1zXNMPtaPv27eqQwAAqL+y7FuSvPQ9KtXjV75CzDclewLmZ1EagFMA6y6/bb9acVbB/LK6seeajkomDXh69Opj5MYecpzQ8zOD2dGc1A2yhfcQlB8U3/AVAZrbtyV1flMsiPgdzckbfEjoGzgW/qGZE5SiC0y5w4VmvU63bSvv6dLXD9s++lnEcZaZcocTi9RFg/yWBzbS/azqwqZFmmkawClZqXQwAvlBuEIp69mKUP4fgvX555mOSQYF7DRlvICZXLiap4TOjSPQhnanLbHL/4XnaXD8I5gET/Wk68oeZ897iuLvKRYtTxVYk+aP7k8W3Q5O3HBob6OAX8wsWdfjLVUWlqxrJ+BHgGdXW6UAWbaybi+rHenJ0dGawobHNNMNqR/J+kRH80G6jAihYCh/Xgr3yAMAMKkNpowXMCjuQpDR7d5xbljz+itzJgHiAAAgAElEQVSrN5pC4tBGoCFxf+Yy3lq/sS1pt95iNa9o7XZw8j4T43tSXda3r5oBVvH34zhEMPT/mPWfTbmuzBy3/K8AUtJ92LOIvuT4+3t2n8KawobHGPpiBq81ZZOLMgl0rd/v+2uwPv96UzpRGI75NrkHKMAyZUxIUaJv8a/3cLsLkSREzmBTxqz3TEfheGfz94BnCqwpi8ec6rf8pTKx/QAaL1aPW/6BKdYdR8deoB2aGLblK52yeEz8+24lSHWgeRm0czGI55iyyUYaxxPRQ8FQ/iyvjgSK6DC0J5u1iiRjNwp55cL3OPR4pcCiNGXfBCApnYt7AwKhncNvIc6KUzFvNWUONwp07L7XW9KuZHqqetzy96suaZzGzF/b1+PMUyMNBJpmZQx6Jtn7HhJbSf15MWMd9+0S0hz3KFg3ImB8aAqJQx8T/TfuBVHEfYb0i3j2fPqxSihCnLdDeyBpP6g7ZXVjz4FlXWnKHW5s8sU94VlzYlci9VbKUldMr8/LN+VSrbqw8YWqQOM5mnkSg592Y9NXF+Vm+NMXJ7OJK0F7ctujTsTVAwsAwAnt3r2dNbuw0lH0duzGnCTGFzP79PFsX839SrNyj2PipG2954UPX1JEtyugnyl4OGEwLFLevyLotai/RXS7KeUVNYWNtZtathYxIucA/CCALaZjkmSUnaYeKA1lZZqCbmDC50wZL2CiuJuEMnHiVvgREyzthfO/SDEFcmGklFjbA5JyDoiHFcHRlMS9jVP+Bpu6NPtqIrtXdh6Ps3VI70VoAbC94z9773NAUN+cXpdzlSnnFQtL1rXXBFasrAo03hQOh0cy8C0GP80K8Te1jAfTuDTu831TzA2E5OzPFy8CjjdlTCiJDRHF4cuh8NZ4R7EYbNk+7y9Qsy3rZMTZVLUnUlpgTVucM9hW9m2mnBcx8Q6HnYci4fAMBk9i5ilhHb4f0GtMx/ZKhDCDFzqRSAVrTGzX4XERx5nU6rT+igmvmw73KqXUbdMW57iwiia5Zk9Ysbk60PBwdaDx4vb28LnMmMrQv03Z74LwnbJQbq4pFj/1pWSNlsXq6kfP6MNEw0w5E2ZsMGWEiBcxvUdxzvEkEBHTmaZc6ukvwZURu+ik9J4p2TRFkRoZ5zzupGOt5zPpn9YULv9M59opdaOHpCl/QBH9FExHdXZ8b6PhvMKsv/Nhy4q/dLKtxuPTlox50GenlQG4tbPjvYuhYJ2uia4H8BNT2qvmFq14A8AbAOaWhnKH+YHPA+ocIhSDcRI6OrQnGFkW1L0AvmZKxoczrUjGqQA8eyHTf+CALxL4yHjXUBDTZ7bEEsJtYWpdn4a+bQDiu3BR+LIpknKkTjdF3JSyEaxgKPsUm+zpppyXMPFuJxKpqB7XdHVnxRUAPDRu9aaaQNNDzOFchv5fZ5leppk0XzAzsOLPXe1ZNrto1YaqQMNtOhK5DIQPetttQ8uvppcvzj3ZlOsN5gaa364ONC+rDjRWvvK3xi9HNJ+tgTsANCVhv8OxZXW5Cd6Fgfor2yowpVKJmL4CpiNNOSNyXjFFhIjXvs3d4y/mWWVNfnh4uimWKtOWjBnOhKS250lZgQX2fQdA71hyDYAV3tEcmTizaHm1KQsA1YGV/2E4kwHeZMp6FuEDRvsN1eOWv2+KAkBN0fLaXeEdF2nWL8Z79Z5MpHE82WqGKdfbLKtEZNa4ppdrAg0/qQo05GvNFzH0dLB+FnHeEugcpSlFExK9SbQizi+dk5W0iao9UglFil25VcpwXjNlhHBH/I2NNTC876DjxphyqeKz0rKJOalzOBN6IuzK1LqcfBCuNuU8pJmdyIUzAyt61LSzJrBiZZvT/nhvG9HZz4lEHqgOrOzR5rrzitaujUQiAc3O06aspyi65vpFY8aaYr3ZrHFNL1cHmmZvbI1McCLhUQB+7vYFABGNnXZadqJX+uX6jslM6lB/tEqzco8DKxdG2Ph93RLpFV3rxSGA6WVTxEQB/SjhUwRiVAkFwoRkzr8CUlBgXfjgiDQFuoeg/KasR/y1Dc6krm4JRuFJJt3rmn0y8Q60t8835Toze8KKzZtbI5cy9G9NWa8gpnSfbd1TXDuyt7wuY7awZGXLzKIVa6sCDbftiuw8Bazvc6/Qoi+odDrGlIoL01GK1SWmWCr4oXLhxkpHwksfYm8i+2AJ8TFW7izOYqhLpi/Ijb8HnMvKzxp7KgjjTDm3Jb3AGjbs6Mtsy87rDRPbHdZP7orsmDA30BxzP5p33t6yFswbTDmvYca6mSUvxfyhu7BkZUv7+3tv1nB+b8p6A8NWVsGgtAElpuShZF7R2u1VhU13avBFAL9gyhsxfBaskaZY3Eh/y4MnciJCmSkUFdavLCxZ56WmsuIQFgmH/wuKf9cPAp2p+uMcUy7ZiNRNSGL/q/2SWmCVPp41yG/ZN6bigfaUw/rJD1sj180rWhvXMP0zN77eBqi9ppz36P8gzip47tQ1e/dsebe8txRZBPLbyrq59PGs3tIt3DU1gaa/74rsnMjAH01ZM5XYESwAgDrB7kc3m1LJVB7KHQ+muG8zM5g18HdTTgi3aDu8GZpfMuWioWDdfk5lajsUHKh8ae5oInWFKZcISS2w/Jl9pgIqy5RLNWbnub1b35m8sGRliyl7qCKGK6tB5l23oXVzy7bpved2ocqyMjJvMKUORfOK1m7fHdlxNRj/MmW7pfQXTBFXEN1cHso7yxRLhtLarAEKdKcpFw0C/c9pcV405YRwy9zAmr2aVKMpF6VRp5+VFzSFkmHyw8PTlaJKMFKyMX3SCqzSJTknwcKNppwHrIo4kdJ5121oNQWjceGDI9IAHV9/kVQg+ipcWgq4sGRde/v7e29m8EJT1gtsm25K5v56XjKvaO12DdxvynWHWcU18hk96q9APymrHZmSk+eB0jL6VIDoK6ZcdHjt7JKViW6pIcSnOc4LALaZYtFgotuDS7NTvhCl36DjpzDReaZcoiStwFKK7iYoT3fMZsLrOuxcO7to1QZTNlrHDxt0JoiGm3JeQ6ROLKvP+aopF625U9fs3R3ZWQqgyZRNPTWEbU7K1i9eFGlvXQXwTlOua8ncYJzOtzIGfteUSqSKpblfZ+BuMLnyuBmoN2WEcFvN+OYXAcS6mOtTCDQYlu+nHQMMqRGszz8PpO4nUMoWLrlyQjCZtvjs83yWPTHOKT0JxcQ7Iu0tU2smNLvdHPQyYtX7OrozfIqVq8O884rWbm9va70+CQ0v48TwKato2pIx55iS8Zi+JDcrWF9QGqwvqAjWF1RU1OdNLq8fm/gJ4gaKfA5A8cwbTPKtdeuuYChvmimVCBVL806DZc118SS+flNLeIkpJEQCsAZce+0R6KIRJx7zy+JaJLU1AgAEl2afDkVzwMgwZRMp4QVW6ZysTMtOm5Gqe6DRIBCcSPt3Zk94Mf5VVAcoq8u9IM32X8seLiy7w8oqKg/lFplyPTHn0tWvOZH2q+IbIUkG6q8s+5bi2mzX36DTlowZHgwV/N6y1dNEmEOEB4nwIEg9rMh+Nhgq+H2wbmwSJop3zvIpBjjm28MMinnVbawI9MuK+oKkTmSdXpd3Biy1GG60ZdiPufZwnvspUiu8a/ej7rVsAQAqH5JZ8HNTyk3T6rK/Qpa/jhgjTNlES3iBZQ3JGK8UJXj7jPg47Px61vhVD5lyPREM5Z6jlHrElS0zUkQB/RSs35Utznb19ze7aNUyDbrXpSleCWORumiQ33K1wJy+KPfzPjttKQHXEaizW+bHEXAdKbWiPJQ3JREFnonW+BwDMd/OJ0bcy717jjKZeEFFqODWRHeSB4DyUN5ZtkVPAPiiKRstJt7R5kR6yWIQcSiae+WaLQBi6n/YFWJ8uyKU/5tJ80f3N2XjVVGXd7FP+RfBzYueOCT0RDRp/uj+lmXd4dbchERwnMjKPc6ue025nqioz5tMsBZ38QHa2wy0/L7/m14/9g43h3prAg0POOw8acqlFlm2sm53axL19AW5A22/9QgQzaao6gQF9dshGb6nKkK5AVPaTcrC1QSKufrV5LxqyiTCvn/z/cGzCh6ZtmTMcFM+VsFQ/pWK1B/BdJop2xPENHffxt1CpIwO67kAtphyPUM3Hjkgrb5sSc6ZpmQsimtH+itCBbfCUn+AR4orIMEFVt++agaBUj6npBvb2xzn1nh7Xe1XOicrs3TpmB+BrIcBeK0JYuyYlE32j4dk5P/OzeaOEeLbGNrbHyhEX3L8/W8xxaJh97MuANCjfeoIdBGgFlbU5z0T/GPeN90scjszvS7vDAKuNOW6RLyVmF1ZiRQrIlzls9NeKK8vuNrNPQunLBp9XDCUP48Ij4Hh8nZAvElz5BFTSohEq5nQ/BpYzzXleo4KLNv3TEV9wR2ujcxXQgVDuecMzTzqBQD3e20qUsIKrCmLx5zqt/ylXp7YHono+383cdVyUy4axbXZGf7PZfw23Uq/08uPOR4Eulb1o/nB+nxXrhDmBprfJsaPTLnUYtiWrzQYyj7FlDRhQrEp0zlKA6kLwPTM0Iz8p4P1eROnLc5xfXR02pIxw22lHgIo9qF85n9w6/a3TLEkOFERHk07pu/y8vr8klibxxbXwppel3dGRX3B9zP86f8g0LUJGZFn/l0c23EJ4SZuCbfPAtjtBV8AMBSEHw/J9L8crC8oLV+ce7LpgM6UPp41qGJp7teDWQV1ROovbjT4TYREdVulNGXfBGCoKZgqzPzilnBTXP1+9iuuzc44Ot1+mEhd1lsntEdLkbqIwYuD9fkTqgsb15vyJlWFTfPK6nIutpX/Uq8+dwp0rONYFQCCiKN6JiCu4fF9t8DOJ6LzfT71UkWoYBmT/ssbb36wrGPHgNgF6/MmElQlgC+Zst1iWjOzZN1uUyyJRimiJ9P69X2pIlSwTDP/LUx6VXfbXxXXZmcM8lmnWbbKBagAxOeBMaCrvAteieziX5hCQiTLQxNXv1teX/AjRXjUlI0FMUaAMId96r2KP+Y9B41/MujlSCTyr9kTVmw+OF86J8vn+1z6yYB9Fil8Bcw5AI0mIJ71OAmXkAIrGMotYFix32ZIMCa0gnH7whI4pqxJWe3IvirD93sCxTg60fsQ6EwQlkx9anTxnEtXv2bKmzhh5w4rjc8BENMoQzJYlrpqen1e7azCpgZTtkuEobGXZ58xCsAoYio/6cRj3wrWH7MChBfaoZvR0rJjG1pbFpasC6OLgvDCB0ekHT9oQL+0vpmXgDAJpAri3sKKsNtxPNvDaRQ6iq2IX1kfVIQKPmLgTTB/RIotZsVg+Ij48wAdBeJBYOpor5LIEzixZvCtsyY1p/S2qhAHqylsmB8MFRQR4OpCnwMp0LFgmgwCGNjl8/m2VIQKdgMcOTDHoHQCHwlgSMcZLYHvSbOo66aogz1ABHU7Af1MwVRhrefX/L1pmSlnUjonKxPpmQ8dTsXVAb5s2fYjk+aPvmDBVavjarkw59LVrwVDeT8nqJ+ZsqlD/S3C7QBiL7AYG+H6BEzKJOBUEJ0K4Po0WEBGn01DkflKMJT/HoANBHxysmJSTBhOwAiAswDq2GXAjcKP+eWZaxtXmWIpZpPG8QCOJ+DLIAKYOk7Xn/xPYouqAzH9sjrQ+CdTTIgU4HY4N/vJOj0ZLQ9UR82wr2749PuPOvm7VOEedLt3fS7B1KXZVwPqfFMuVRh6c1sk/AAqoU3Z7hTXwvIPzZxjkbrMlD1U2ZYv+4j+vgVuTFiMhJ15DF5ryqUSQX1zel3OVaZc1zhJ+8vREEB9nUDXEugegH748R/CvQRcByDv4+LKNfqn8b6vohABwUu3IOPAf94V2XGfKSVEqswNNL8NzVMBjqfxsJdswYEXnDEg0JumzH6uFljTFucMtpV9mymXKgRCuxNe8NCEVf82ZU0GpY/9LikVx4dt78dgKLIuGZxu/yze1VqzJ6zYTMy/YXC7KZtKSqnbYp9grheYEr0XN7S93/KsKRUvJmzQzN8z5XqB/7ZB3+DWCmYhEqW6sPEFZvq2Ked1DH4E4CcZHNdKbIaOeijN1QKLbJqiSI10536D+5j4A5/WPzblTMpDuUW2sitNucMFEQV9x2Rea8qZvL7hgyfAWEseGQr+LIaCdTqRdb0p2Znt23a+AOI6U64X2qYd/d25U9eETcF4EcOqCTTWMPg3pqyHbXQ4fHV3E+2F8JLqwoa5YN2bR1tf2h3ZeTOAQfH0+AMAYvWOKbOfawVW+eLck22yp5tyqRTRkeqaCS/G1WW6dEnOSYrp13FPCD6EEIjA9EB5KO8sU7Y7z9z4elub0/JLUy7VLL+aHsvy4seueXlPG+sbAXZ1S6aUY/yiZnzzalPMHVoBgG7ZelfHFWlvw5scOMUzC1e8ZEomGLFjx/VBIw4vG1s/upcJvzLlPIewoS0SvqJjtJji3oLMoXDUNYRrBRZsuhXAcaZYCm0MR5y4NrKcNH90f9tSvwJZw0zZw40i6qegfh1vI9Lt4b1LNfHrplwqkcbxZKsZplxn5gaa397YEr5EA3cw8Q5T3vv4yY2tDUlfnDCzZN3uTS1bSxl42JT1Cg1+L8J82cxAc7MpaxbnLHwmDRVJ+IhjoikCMSJx3fKJBrFy77MyRVScr5mFJevaqy9pmAHGnQDHvQI/GZjwuubwlXOLVrwRDGWfwgrDTcd0j3dyRCW3wJpal5OviK425VKFQHAcZ/FDE1b9x5TtzpH9/RNssgNevQXqAXnIpGmmUHcWlqxrd7ST1M1BY6LomusXjYmpud3CkpUtNYGGn3BEf5PBT5vyHvaU07J1ihvtTmKxsGRdezt2B3tJkfUSwvq8uNp87NPKbXvB9KEp1x0mbNet/L4plwRxfQYx2NHtkW6fC0Z8ux8wmBmc4rlyHNfzBADMyo35rVxV2HAfa54M4qgLjRR5iSJ6XE1gxUoAYFinEvOxpoO6w0SbHeioXwtx/9IufHBEmgLdA6g0UzZVGHpnmxN5HHFURqWh3GFQ6j6vNsP0CsvGzfF2PbegntPg90y5VCKmdJ9t3VNcO9JvynalZnzz6k0tW4tY66sB/NeU9xTGEx/taL0+1U1F5wbW7N3U0l7O4HtN2VRh4GGnZW9hzYRmVzpjRz7atIOJ45q/RYw9W7EzriItXgO3tUcAvcmU6w4xNs0seWljt5kerPrqDBFYM8d1cR435ndNkW4RwsTatXNq9bim+Y6OXOjZld/EdU7L3sKq8U0f74uqYGXHuwsDsd6wLRz9hUlcPwwAhg07+jLbsvPiqF0Sjlmv/t3EVStMue7YDr4L1/cfO/QQ1GCwdbcp151NrY1vExAy5VKLYSurYFDagBJTsjsLS9a1V49rmv/Rjtazwfrb8HihxcQ7wLiz6u8NV8Xb/8wtC0tWtlQHGivBuNJLhTkrvMPAt6oDDd8yFQE9Me+6Da0ErDTlusPQLy4sWefGiEbM5k5dEwarv5py3dFsHgEO6/bnQRxz+xAGvbnhrQ9S+r6MMF4AOOb3GzNed9pa15hyPTGzcMVLuyM7zwX4QRBaTPnk4L1g3Llxb+PEA99zpbVZAxi4qLsjo0J4d2HJyqgfa1wFVunjWYP8ln2j1yd8O8BTiKMCLA/lZCtbTTLlRAci68qpdTn5plxXFpbAAVM9PN57hUB+W1k3x7rP3YEWXLV6Z1Vh068jO51sDcwAsSt7ZLqLGxzN46oKG+5LQr+rHqsqbHgCYX0ewKlth0EIM/iR9vbwudWBhoTcvmTGAiD6K+lP473M2hOrMHXEeYrBn9kaJSqEFu3wfFNMte18jRkxtxBhxqx4t6KK16xxTS8zqNGU6wox17tZ5O83r2jt9qpA402sMRHguG9/x4cbHK0nVhU23HfwtIU0f8YoAkZ2dWS0mNGjFk9xFVj+zD5TAZVlyqXYNqe15UlTqCvFtbBIq2nEKpF7kR1ybLK+W1wb+9yHTa3tyxhw5ZZKYqksKyPzBlMqWrMmNW+rCTQ8ENmhA4BT2FEscEpP7gD+w8C32lr2jHNjDlEi1Uxo/l/VmsZrmPWlAF4x5d3FDoOfZs0XVAcaJ88tWvGG6YhYdewDSr825TrF9DOvbCxdM6H5fxzr49D84Kx/Nv/DFJtZsm63hv4JgKjnzhygKdyy+3emUDIwR74HcCy3VP/bwm0JXf1XXdjwzEc72goZPAnJf9+9z4ypbS17xs0c19xpIc2WcqGPF+91GD1aLR1zgVW6JOckWLjRlEs50nVzS9bEvFproH/MV0mp8XEMgB2WCCg4OiPna6ZcVxaWrGxh5iZTzgtsm26avij386ZcT8ya1LytKtAcqgo0XtUGfTKgKwD9PKDfMh3rCuKPADQz9PQ27M6qDjQ8HM/7KKkqoasLmxZtbNnyVYaezuDViRwNZYV3AF7A0F+vXtMYqC5sTEobjqpAw88BftCUOxADD+/a+pYrm9y7pSbQ8BOAa0y5AzHwcNsHe+6OdiR1ZqC5mYFbmNBqyh7gJWa+1iuv+5rC5euYuRw9KxS3MJxpD41bHUth1iMLrlq9szrQ+Hjb+7uzmPWl+xbwbDEdF5OOW74vMfjmyE79perChrld/Z6CdfmFBHJjd5l3N2z4oEdbgcW8F6FSdDdBDfZy4UEg7Am3xdXY0W/5rwCovyknPo1I9VEaV6MSz0d7EjxYWIcXpNn+8ngnJiaeGsK2830Ak03JWOxrSFkNoLp0Sc5JfptGE+hMQH8FoNMBGmL6HlHayMDfiLHScbBs5viGuOYtptq+OUazAcwpC+V8Q8G+iEDnAPhy90dGgfABmF9gcHO4pf0vbmx6Hou29/d8x3dM340KuBVAdy1Stmng52+uf++BZ27ckOoR0c/Y2NJ40+CMgvcU+Hvdn295L5h/vXvrOz+cN3VDj9pMVAcaHq4I5W4BrB8DON0Qf4qZb+sYKfSO6sKmRcFQ7laC9UMAud2n9fPa4buS16Ouw76Gw4sALCqrzxmlyDoXoK8SkB/XuYpYg/kfAK1izX99Y8P7fzTdup22OGcwKf4+QDHXOvsxsNL08w4WU1+MaYvPPs/nz6gDo68pm2Jb2ttac2I9+ZU+njXI37/P68SUmtuDjHuqCht+YIp1p2zJ2KBl21WmXCIw8Y7W9vbsWLcmKp2T5fMfk/lvgjrJlE093hmOtI+bXbRqmSnplrLakX0jvgFDfDYGK1hZgBoG4EQQfw6MEwHqeo9IxnsgvZFBr4PpVQf6ZYT5nZad774/77oNPbnKj1rwj3nfJFYxz4XpoN+qCjQNN6W6MqVu9JA05T+WgLMBGkOg0wCMAMGHzpbzMzNAbQDeBfGb0PxPh/UyjtBbsyY2r4dHrjDLF+eerGz1LRBdhAP6ETL4LQIW6bCudWsVYyKV148dqYguZ1gTCRj6yVf0m2C1OMztz8wet9J4W7A7ZbWjhqr0zEIQTyDgTID8AMCErdBYBaXn/+tvTX9ZVhnfnnWJNHnJmUf0sfqfrxSuBJAH7uhOzuAwAc9pRj23bn061at89zunEvbJX845wbKs4yyiM8E4jQhfBHg4oLoqqN8FsAHg9ZqxXDP/x9mz9/25V66JelSsIpT/C4Bi6ln4GY7zjarxzc+bYgfqcYFVXJudMTjdfkqRin9GfuI91fb+7itj3cKjbMnYoG37qlLWmqGXF1gA4DiRW2eOX/4LU64rZUtzayzLKjPlvMBhJ/Rhq3NZT1aZJEwlVPFpXb+/F5ZAI8nFgRcKrM4U18I6CtlDlY+OZmV9arRVkXY2ty7/TyqerxhRce0nUz9S1aPMBcl5HAe8T3rR7/hTDpzruvBVcKx3DLoyfUHuQOqjTiWljwQAJmznnVg3a1LzNtOxRt2cp+L9fQTr868nhbnu3AHRbzktH32ppwVrj4fNBqf7L1WKL4j9YSePo/XLsRZXAEAWTTRlRPcsZV9bXItfxXqCbOP25/ogsyxlRW4PWKQuGuRHEYDHTdmEq4ReaMoIAPs/vFe+B8AzLR7iwLG+1zwmOY/jEHifJPB5oor6vJug6FJmjCJY+3v+RdAfqypCeU9ubIn8Lq4LygQ9/8FQwXUErnGnuALA9IeeFldADye5T5o/uj+Rvse1f3QCMaGViGMeSi6vHzuSiE7rDR/snqb4tIH+MV81xbqSbvleS30X5WiRZdnWvWW1I71+61wIIbpUvvjso4KhgnqQ+hWYxtK+26j72AByAVU1NMP/j/JQ3pTS2qzUTKM5yDmVsCtC+XcRYQ5AbjU/3+I4kT+YQp3pUaHUr591p4LVC+bDAMT4wHEi/zLluuJo/pqCNdiUEwZMyqd8l5tiXdm+M/IOgJgL5WRTTCMi/n7fM+WEEMKLimuzM5SdNp+AS0xZAF9UUL/1Z/RdHqwvKK1Ymnea6YBEmV6Xd8bpWQVPAPRDN3tzMvipmUUrYupYH3WBNWXxmFNtZU3uPSM6/MHsf66KaTuJcyphK2Xl9J7H6m0EykEM8/2AjqW/2nH+F+PhScdg+C3fDVMWjznVlBVCCK8ZkuG/HKQuMOUORMBIIsxhn3q24o95D1fUF1wxaf7opKy+D9bnn1gRyv2hbalnAVxqyvcM7+WwjrmHWHRzsCqh0i37ewTL020ZDsSMf8U62W/E6aOHWqTONOVEdEjR8VMWjzkl1tWEDH69t7zuAIBgDc7w4zZU4vpYX4NCCJFspXOyfATE3JSTNI4H1GQQX33kgPQPgvUFyxgcCpNehZaWHW71FJu2OGcw2dapFqlrCQgA1qAEfUTMimf1bVQF1tQvZ59LllUMTswjSAQCx/RhDgB+n/U5gEf0llETz2Mc7bNUFtCzbQb2U2T9D+A2F++pJxgDTCVlXxn76Ews/6spLYQQXuA/xn8SABdG38kCcBwRriLQVWlQbcjo+3KwPv8fILxKTJvbOfyeTbSVW9u37mpt29Uv3fnMB+6uVosz+vUdals4UrH9OSg+BiEfFQAAACAASURBVFBnE3AOgBM/82NdxITX23fu+akp1x1zgVUJ5VO+74PRdU8dryHW0Iip9xUAKNhn7HuBCBcQyHZYn2LKdYVV5EMiezcYvaTAAgDKVLAqASxDbxp+E0IcttixBsBiTa4PLlAagFFENKrj/wI2+XaRwnaVYW8/IiNzD4M/80OPyCBmwiBiHAHCoGQNejChFQ7P6EnPrc4Y52BNPTP7KlIU88a9qcCMiCa9wZTrCoPj7/QsPsZg2Mo3ApXm11tnwrvaXmPmraac15Ci/GBdnmwSLoToFTQjQkRJqWIU0K/jliJOBzCGQKMP/gNgDDFGABjU/XdzF2n9QPW4xnpTzqTbD7zS2qwBfssf7C7jSUR6c+v22EawKqEU8AVTTPSMReqE8jPO7m4rj67twg4CdplinkRUkazJnkIIEZe9eBPMMfeOPEQ81UZ7f2wKRaPbAsvyZ1wM8FndZbyI2Xntw1fXxTS5uPRzWRYrDDPlRM9o8PFhso8w5TrT0SxWJWyz3kQiQtYRfewercgRQohUmDWpeRt3TGs4THFDZKdTOjewxpXPmy4LrOJaWBbRhb1xLhJB7T36tNjmvbzTtkMR03BTTvQMEfr6LEo35brC4DdNGW8iixRdHOvtUSGESCaH+X4QDsNRLG4It4QnubIF0D5dnvSP8o05nhTyuvq6l7HmjQtfja3AOmHo0YPQ2aavIi7ENICJYrtFCEA7eo8p41X/3969h1dVnfkD/75775OIEgjWWu1YidXOpY41Dm0NSGJq61w6DSRR6dT60zjTCmJQZjq/W/trDfbiM87PDpoAAXWM1doK1RNIq73MtAnBBHWYxlZ7sWpBq+OFVkJiIOfsvd75I6AUc7LOZZ+cfU6+n+fheXzId0fO4pD9nrXWfpc4bu2Ks2tm/KyoCd66iTVT6jgsVInyaMOS/j41+AwQ3cOuw6f3qQku7Vw2GOpxWSl/WCnkdIE7P9XXo0xVX8i2/5Ap01OQztOVRGkSyGlQ825brtS5mvsPbDHmFVuGiHLTsaSvXYGrDDTUgiN6NICaG57+9YtXdCx9+EVbOlMpCyxXnHOKtZO54zhZF0gxl5+Q8yUIgqyLDDXmGVsmqhQKgTfjG9cGifEnIJrVB5/DFE5WpzMQUWY6GvruDA4kz4WaGwD8wpYvOqI/U4Pm9iX91z907dPjtng2UhdYjld0m9vDkAxMTjcASi0GN/tDkD0n45PMo8T1nAW2TOkbG4VK1l2RAUDU/NSWIaJwdC4bfKF9Sf/1yQOJjxhoK4B+2zVFYB8QfCkYO/DhMFoxTCX1EqHqH6T6Gk2PQE3OU4iOCAvGKFDnFFuk1K1f9uTrUN1qy6WiUE2q323LEVG4OpcNvrCuYfu63w0f/BiC4EIovgHR39mui5jXAL3VTwQL2ht2fH79ssdesl2Qq5RLaSJyfKqv0fQQwamYaF2bdaFloMeWxI59VWeamvjmhTom6w3+JUQTifE7YuXlVwrkRFv4LRS3/XZ88Ce2GBHlx9cve2Q/gH8D8G8r4jVVMTfWqOJ8WKB/Bsg7bdcXhtkFlX/zk2bThot2TOvT6Kn3Kom+Z7ra0kdJlPZgOSLvveaBDx6/rvnRrLuYO677QVtmuqiDrPfPOIp32TJRJuKyeS2AjRc/8qtremo/B2CTIKOO0b+ABmu2LENgCxJR/nU27dwNYC2AtSvji6rFc98vkMVw5IJDHdoL6ReA/ruq/igxOtaX65E32ZpqM3jR/iBTaNZFkjHu644rBlr4Vg0KvP+gOn8M4GFbdjKtW897p0A+YstNGzFZF4qAvM2WiDLR3DZ3l5J1Df23t247fxYcfAUK6748hT4CJFs6lg6G/pQPEeVufdPAEIAhAHeseGDR20WcdzmeU+NA6gF9H4C5EJkT/pnGOg7BKFReBfRxVXnYBMl+HXP2hNnPKltZP20XaSLvvWQz3Gw+7Y4ODz8zd16lhn/YZeYEUjarrOw6ZFlgwfX+EYpoLE0Jkmqyf0xfi7jgp7fqWNLXfvW22p94wP+B4yxOUWj9EmruSxwc++qmZbuGJ/k6EUWLdjYPvALgFQC7AKwDJj7sG8j7HHFPFQnepeqcDJHjBaYCkBiAkwFJsRVGRYHXBBhWwAfkZQH2KvQFgXnWJPDLdc07cnp4Jl+mKrAKPoNTCHv3jfmVx8/7LRQn27LTwRG56Orumk9taNx5uy17pJU9i/5cFZ8qfJl4iGJYfCfrm6TjukXdqFNFsp5VLVUblvT3XbVxwYD3juM+4Lj6PsHEgzUKGVGV3QI81rGk/9e270NE0Xaox9RbZqD/6tYzyk87qTym7rwT3ZgzaYEVJI04khh+2X99ZMvPnvSz7XFZCKkLLJVfQfCnKb8eYQ7kD4EzXeDJjGc9Dvzu6QCn/cEeIBoFlioczy275dMPvH/0tub/+KYtDwDL4ws/7Kp7GwQVtux0UTGvjGsy6/OdZJpPUw+bGDxty8xEE+dMYuDQLyKaQQ71nxoHUNRteFJJWWCp6u8koz2oUaIVJyTnHQcgYUserbcN/p9u05+ISI0tO33k2GNix33jmu7zzjKB3JHqSYhPbT33HeVO+cVQ3AiRyBRXAACV5529flaP9f6Pr73vOIPgOKeIJ1UVwX/ZMkREVDqmatNQxC3yxdXZQRWArDa5Bb7/Sy8Ws8WmneN6n3Ucc9k122ofcIDHjQS/1MAT0eAUdeRPXEcaAFkQge1jv0cgCILgmU3LszuhfPZxc97hiFuRfbOKwhOnmP89ERFRplIWWIHx/9N1vU+k+nqUKdQVdf8EwI9t2ckY0cdtmYIR51QHWA0ADpy98NQB3EpodPf4KJDTUTduGU5V6LwoPHiQLT8RsAM5EdEMkvKmHKj5cbHe0AQinos/seVSCsxzEBTDks4JUDk+ysUVABjoSG5Fq3uaqMy1paJKIFD4Q7YcERGVjpQ3ZoE+owj2pPp61BkjZ9kyqfzOOL9R1axmv+itHOBFZ8z9T1suFQ38M4q56a1Cfw1xprWDMBERFVbKAuu3yZ3Pqynegx0dcU6/avOCrGY9tiwbPGCMedSWo/QEGjyVbdO3+jZ46jin53BaUMGpCfo7H9+ZdRd7IiIqPikLrC3LEASqDwGacauDSBCc5B1T/oe2WCou5D8AHbflyE6Nn/WJ5Wecde5JrjjVtlx0aaBGv1NMvVuIiCh3U+7dCRIHvgNI1ks7haTQtymcc2y5VEbMyMMG5qli3YcWIfuCsWS3LZSKQuaLoGjP8VPFrn2v+9+15YiIqLRMWWBtWrZrOBEkOqbKRJVARAzOtuVS6Woa2hcY81DxLkxFgwbozeWgzZjrLFCd+n0aaarth06gJyKiGcR649o4NHiPGt1uy0WR67p/ds0DH8z6kGBP9R6I4dJODpI4eJstMxXHcaJzWHWG1Oj2jqX9X7fliIio9FgLLLTBJE3yBhUctEWjR89JOs4ZtlQqHY2DPzXGPGjLUSr6Y8/oI7ZUKis3f+AkV5zzbblIEhwwCNpQzLvziYgoa/YCC8DGxwd/pMbcY8tFj5SXubGcbtC+SW6wZWhyQRDcu6750d/acqlIrKwOkDm2XBQZP/ja+h8/3GfLERFRaUqrwEIbzLif/CqAl2zRyFG5CDk0URodxQ6jQa8tR79PYZ5JBH5ah1OnIp57sS0TTfqiuMFaPjlIRDRzZVR4LO9euKbMLf9Csa16aJB4X0fjYNZHlXwq/oHLjvFm3SGQMluWJgTGfGH90v4v2nKpLP/Wue8pKy/vBeSdtmy0CBLB+PUbGwdvsCVTWRGvqYq5sXoVqTr8e6K6Oxkkezubdu5OeSEREUVGyrMIJzM6am6eN1cvEuBMWzZKxI19CsB1tlwqLzz/2pbTTi1b6bmxhVpkxWUhKMwzwyOJW2y5qTgx78MKnJzRJ4AoUH3CTez/qi02mZZ4deVsb85agVwBHPXpRwQxrxytPXV3+X6ijYUWEVG0ZXz/at1ae5m4clfUz787ksI84yeDRZ3NA6/Ysqlcva32fM9xfgBFzJad2QRG9fJ1S/rutiVTuWrjgmPL33nsVqDYniDUwA/M5Rsad9xrSx5tZXxRtRPzetM5c1FFh03Sr1/fNMDzDWnGm/hgUlEPyBENiXVo1B/p7Woa2pfyQqI8y7hISrw09oAxWlSNEx1xThPHLLHlprJhSX9f4Ac5tRwodQKBUf/benBv3JadSnBC7ByF1NlyUROoeXBvIsj4tbfEqytdL9aVTnEFAKIy14l5vSviNVW2LFGpaolXV7b21HVVeHNfEzhxgVz/5i8nPjs2Z3drT93alnh1pe17EeVDxgXWpuW7xgJ//GYIRm3ZqFCFA3E/8cl7zs3piTTfxT8p8HNbbqZS6GtJ439p/bInc3pvzPJiK4pvv5vuN4H/1S3LBg/Ykkeb7c1ZDWTWFFdU5npeWZstR1SKVsYXVc+Ozdl9eDl9MqIyVyDXVXgVQyvji4r4uC0qVhkXWADQ2fzoD5OBf38WK4wF4zneBXMrvAW23FQ2Nex4Dmo+X7TnM+abmhs2Ne7Muu8VAFx9/+J3iyOfsOWiRZA0QbyzaWevLTkZgbbYMpMRyBX8dE4zzYp4TVW6y+kTnPlOzOtlkUXTLasCCwCM0S8qTNZ7mgpBRP7BlrHpWNJ/P4C1ttxMowG62/+z/1ZbzkZcfEbguLZctJiXxZesnhqc+KHvzLflUqlwKxptGaJSEvPK0l5OP0xU5rqex5/bNK2yLrA2NQ08gwA531Cnk4jz11dvq82p8SgAvHQg+XlA2UTyDWaXSYxdnWvfp2u2nXem48rFxfakpu/rLRsu2vGsLTcZ13XrbZmpHNnKgajUTXwgkSx/hsv5rT2L620porBkXWABQGLs9Y2A2WXLRYUDR8SYG//q1jPKbdmpbFk2eCAxPv5phXnGlp0BXhsPktesX/ZYbk1o2+AAzmqBc6ItGi1mV3BgLOuHH1QkpyU+AeptGaJS4XhejjO2TostQRSWnAqsTZfu2psI/FshSNqyUaBQOK674NRT3/5xW9Zm48WP/GrUH7lYoUW1TBomUbx+0B9bkeu+KwBYuWDxIoiT89/LdFJowjfB2k2X7tpry6YiAu4LIUpTrh8oBKiyZYjCklOBBQDPPffqfX7g9xfLhneBlHmO979Wbv7ASbasTVfT0JBJJq8wqiO2bOnRsQPB2N/e1vTYZlsyDeLA+X8OUGELRofAN0Hf3vHh3F6/IqcZLKKZJbcZX+UHGppGORdYD1379LiBrgHMuC0bFY44Z0pZ2SpbLh3rmwe/q35ymYoO27KlQ8cO+geuDKm4wtXdNX8ncP7ClosSFT2Y9IM1W5Y9mbBliSg0GbUzOVqmm+OJcpFzgQUAG5cObDeqWXfuLgTxvH/4u/trzrPl0rG+efC7SX/8Uqh5zpYtdhPLguEVV8u/de57HLesrTjmP49g9Gt3XLTzYVuMiIhmplAKLACAr/8M4De2WFSI4phjy8r/f67NRw/b2PjIgyPByFKFecqWLWK/eT04cFlYxRUAxMqO+YID+YNienJQHTyvvrnZliMiopkrtAJrXfOOp3z1N9hy0SI1FRXu52ypdHU1DQ35B/wLFPi2LVt8zK5Ak813ND3abUuma3n3wstFcJktFzVBwmxY17yjlAtpIiLKUWgFFgCor7cbNU8Wy4Z3QBFzYytXba39a1syXZ3LBl8Y3bvnEhP4X4Eg42NTosgg+NdkMvjo+iUDj9my6VoZX1Rd5sX+xZaLFoFB8FPV4A5bkoiIZrZQC6zO5oFXfOPfZMtFimK2OrildVvdabZourqu3H1wXePDn0v4By+G6M9s+QjbCzVXrtu149OdzQOhtaO4avOCua4X2wCV423ZqDHG3BTmWBARUWkKtcACgI2Ng3cD5vu2XJQI3NMV5l9Xbj5zti2biY2NjzyYTPgfAvRmA4xIkczsKTShwJ3jfrKmfUl/V64d2o90yWa4ZeWzbgVQY8tGjcJ8b8PSgXtsOSIiotALLACqMDcaoIh6QykcceudWSfcmmuX96N1Ng+80t6w/R99P9Hkm8S3orx8KhCoBj844B/8eEdD399uahoIvVP9Ccec97/FcS+35aJH9weqN9pSREREQH4KLHQ07OhDENxry0WNAFdWVb3jM7ZcNjY2Df77q+MDfxMkx//KaNALwLddM21EDaADr/tjTebga6FuZD/SNT21n/Icr82Wi6IgMPdsWNK/3ZYjIiICAM8WyJKOG/+WWa67FEDOHdOnkyfel1fGz9u/vunhDls2U1uWIQAGv4s2fP/vzqpZOKus7DqBLBTIKdPdpkAgUOheo8FOP0hu+OXQI9/vbctf0de6tW6JiPwLFDFbNmoM9AXHDdqBaf5LyoM3D7t16if7uqjuVtHdo/7oUFfT0L7JMsXG9pqBN1+37/u7O5t27k6VK3YcC6Lpk9f1quXdC9eUueVfKLr7kiBpVP9+XcP2dbZorq7Zdt6ZgdEPO4Ja1/UuEHWOz3Ox5asGP0qaYFChD4ZxjqBNa8/ieoF7N4BTbNnoESSC8es3Ng7eYEtmY1VPXS8g59tyqWlfe8P2+lRfXRlfVO14XotA6pFxF2yzRyG9gHZ3NPTnZVYzbC3x6soKt6JRReoFWg84823XHE1Fh0UxpECv8f3u9U0DQ7ZroqgUx2JVz/k5/3Bsb+jL632P6LC8vtE+ec+5c+bNPWZAgDNt2ag5tNH7H6ajyAImNn/P9Wr+EBIsKPfKPySQ8wVyCiBZ7wlTqIqIDzUvBoqdqqZXYR5xxvf/av2yJ0dt14ehdVvdBSJyH4ATbNlIUjwRHNy7MF/jla8Ca9W22haItOT2vd+kosNQdPl+Ym0UZzXCfr2/z+xRSHdUX/vRSmksWuLVlbO9inpAqgFAINdbLrFS6Jqjf09U9wVB0FvoApJKS14LLAC4unvxpZ7n3A2VvOz3yrfA91flY7nQ5pLNZ5bNmzXvpJivNQbO6a4rVSL6bkCOVdFKUcfRQ1ODAoiKMaLOfgBJNcGvDeRpcfQJqD71ysF9vyrEmXmtW+uWwNHbBM6Jtmw0aeAH5vINjTvytp8w7AJrZXxRtet5a3P7nlNT6C2j/v62Qi8hTtx856yGYPV0nTGn0Lt8P9E2HcVFJkptLFbEa6pisbK1UFlqy4bL7FFgdbHM2FK05b3AumrjgmNjJx+7xRHno7ZsJAmSftJcv+Hx/n8Ks11BLq7++uJ5gRxwj/w9V2cFGz6547VU10y31m3nXyWit+YyA1dogQY9rx4MPr5l2WDeGsaGWWC19tStFch1U+fDMTGjpS2FuhGt2la7Wh1pm65i4mgKvWvU37+60EUmUHpj0dqzuB7idBfq9QATr6mjYXuLLUc0lbwXWACw4oEPXhArm7UVilD7TE0no6Z9/77h/3v35T953Zad6a7qrvlSmVv2PwVSZstGl+5P+omlnU07e23JXIRRYCX9REvMK+9GxnuscqfQWzoatq+25cKyIl5TFfPKunIbs3AUusgsxbFYEa+p8mJlQ4Usrg5TmKZcXw/NbNOybNfZ/OgPk4F//zTVc3nhiLNqbuWc+Ip4TZUtO1Ndde+CE1q3Lr6r3C3/XHEXV4KkCeL5Lq7CoVVerGwIBSiuAEAg17X21HXZcmFo7altnHithS8oAEBU5gqceGtPXVdLvLrSlg9TqY6F55UVbCbuaAKstWWIpjItBRYAGKNfVJiiPmJExL3Qi8W+0/rt2r+wZWeald11i8orZvcUZxPRo5mXxZe8PDUYPmd+oW9IArki30XWqm21LQInXujXOhmBXFHhze3NpbDIREmPhaDRFpk+zvyV8UXVthRRKtNWYG1qGngGAW615aJO1HmvwPnWNd3nfTnsru9FSq7eet4K10MPivD4m8n4vt6y4aIdz9py9KZDRVZePvG39tR1QZw7bbkCOzunwiJNpT4WUSsaHc/J+DUQHTZtBRYAJMZe3wiYXbZc5ClmO6732dPnv/P7V3XXnGuLl6qr4otOb+05/37P8Yry4ObJmV3BgbHbbCl6q4nlwtpQZyAmZmvkClsuIrIuLNLBsSAqLtNaYG26dNfeRODfCkHSli0G4khdmVf2vZVbaz8/k36QXLL5zLKV8fNay8piPxKgyZYvFgpN+CZYu+nSXXttWUpBpCusfYqtPbWNRTBbc7SzK2JzumyhTM2UsVDRYVtmOhnfhPJkJM1M01pgAcBzz716nx/4/cW84f1IojLXdZwbKry5vdfEz1uGtukf0+m0PL7ww28vq+x1Pa9dDN5lyxcPgW+Cvr3jw5ttSUpNVObGYmU5LxWuiNdUQaTLlosklaWtPXVttli6ZtRYKCL01J7Zw8ajlItpLwYeuvbpcQNdozDT3vgyz852PO++VX9W+52VPYv+vNT2Z62ML6pu3br4rrJY7Puu6y205YuNih5M+sGaQjRkLTkqS9888y47Ma+sK2r7cTIhkOvD2iA9k8bC9xNtUZnFUmDa2o9QaZr2AgsANi4d2A7F3bZcURLnL13Evvfu+Sff17q1boktHnUrexYvbt1Wt1G82HZx3MuLtSO/ldGv3XHRzodtseKmfQq9RaFrJo4L0b583cwETpstk8qqbbUt+Ws/8NYxAMwe21XZcL1Yly1jM9PGorNp526otuTrfZk2NVeyBxblqmDrdK09C/9YUPYDFOUBwOnScUAGjOLOZ3e/sPmha58et10RBZdsPrPsHeVv+0s4WC6QhQDm2a4pZurgeR0PPrKuecdTtmzYcm80amP2QNE2Eox0p+q03dpT2yiQ1WH/ORTBhzoadvTackdqiVdXVngVQ9kcTJya9il07VQ3zBXxmirPK1sNQUuos0Vqrmxf0t9li01mJo/FdBz5dLRD52125+v4H5p5ClZgAcDV2877rCfel2250mD2BEbvhJgH/f8af3LT8l1jtium0yWbF856e0z+yAjqYk7s0yp6pkAK+v6YLr5vPruhqf9GWy4f8llgKXRNR8P2NlvusFXbaldDnH+x5dKVzXEjrT11bWEc6AtM3DDFaFv7kv6094SF3x3d7Glv6K+ypSbDsTj0Z3Bj9SpSBUwsN059hd1bD3vWIeMHu7nfisJW0BvoigcWneh67g8dcc/ExLnFpU+QNMb8QIwMwDUPP7Frx47eNvi2y/JlZXfdIiBYJI6c74hzIYr47MDMCQz8nwZJ85HO5oGCNMHNR4GVy7Elq7bVtoT5tNqIPzwvkzPqVvXU7g5jxkZFh03Sr8/2ptnaU9cVWkuEDGZujsSxeKtVPefnfKNob+gr6H2PZg7PFsinzuaBV5Z3L7ypzHXvsmVLhiLmiPNRuPioijN81oK6Z/90mzwJaG8yMb79uRd/+1y+lhIv2Xxm2bxZ806K+VoD11kskHPFwRlQr0R6WGXOGHNToYqrfBGjq9uXZF5cAUD7kv6uVdtqK8OayapwKxoBdNlywOH9RrkXFACQS0EBAB0N21tWfbuuEipLbVkrcVYjzTE4jGNBVPwKWmABwMbGwbtbty2+TMS90JYtNYf2N5wjgnMAuSxWXp44o+rkl1p73vmIKJ496I8NOW7Ziw7cfYEJXncUI+bguPG8gwfXL3ty9Mjv1XJn1TFl5W+bDQDOrNhs13WPU+POFQ1OUcf5I8eRs1T1vQJ5j3hHnBOY8+fB4qUw39uwdOAeW66YKPSWjhxmCACgfUn/2lU9dY2hzKw5knaBBUcaw3g/KnRNLgXFYSPJ/S2zY3N2h7AP6eyV8UXVGf2ZOBZERa/gBRYANao3iqDGASps4VImkDKInCrAqRBgVmw2FApV87pbFvudGLykMc9AZ+1v3Vr78ptXqoHjHg/VE0XEKMzbBc7b4KLyyL9imRlbqtKk+wPVguy7yh+zZ9QfabOl0pH0Ey0xr/zXtpyNAvW2DDCxoTuUGRKYPR0N/W22VDq6mob2TexLk5yXTB3Pa0Gaj/1zLIhKQyQeuV+/9OFeBMG9ttxMo4c+woo4xx1q6vkBgZwr4l4ojnPZm7/cywX4mIh8EECNwDkdQOVU33umM4H5xoYl/dttuaKiaMtkv9NUOpt27oboVlvORlTmptMD6dBSYu4UbbZIJib2C+XeukCgab8+jgVRaYhEgQVAx41/C4CXbEGiXBnoC4febyEswkSDig7nsnl4MqraZcukw3XdeltGRawZm3yMAYCQChVnfrpHCHEsiEpDVAos3N688+eJILGpwA82UskT+EFy0+3NO39uSxYVTXOfUwY6Gvq7w2j4ePgR+6kIxDrLZZWnY1ZGgpFQvq/nxdJ6jRwLotIQmQILAEZHzc0Q8zNbjihrqk+4if1ftcWKjwnlxnc0AXptGRsB0rmZnm0L2GlexmBi2VX7bDm7tAsnjgVRCYhUgfX1yx7Zr4HeCFFjyxJlTgPfBDce/QRmKci0Y3q6VBHC014y5X7AXM8tPGzUH+m1ZbKl4RSa9bYMx4KodESqwAKAxEtjDxij37XliDIVqHlwbyKI23LFJ4wZhVRMry2RBsuMzNQFWHrMnrA2+E9O815opp+xKZWxICpukSuwNi3fNRb44zdDUHKzDFRIut8E/le3LBs8YEsWGwV22zLZMr7J4436sDCWi2S3LZEbDWMc0lj641gQlYrIFVgA0Nn86A+TgX8/N7xTOARJE8Q7m3b22pJFarctkK1iaQipCGMpM7V8LcHmA8eCKBoiWWABgDH6RYUpqSNMqFDMy+LLDbYU5U9LvDrfS0JhzKqUCo4FUQREtsDa1DTwDALcassR2fi+3rLhoh3P2nLFSjSUJZu8mu3NTrn0JZLWU4YlwbaJnWNBVDoiW2ABQGLs9Y2A2WXLEaVmdgUHxm6zpYqZShibjgtIeerAGzgWRCUj0gXWpkt37U0E/q0QJG1ZoqMpNOGbYO2mS3fttWWLm1NvCRTclPt2hEtab+BYEJWMSBdYAPDcUlxd3wAACqFJREFUc6/e5wd+Pze8U2YEvgn69o4Pb7YlqbDC6bVVHEb90SlfK8eCqHREvsB66Nqnxw10jcIkbFmiw1T0YNIP1mxZ9iTfNzkoojPjimJpLb/9qd7AsSCKgMgXWACwcenAdlX9mi1HdJhA77rjop0P23KlIJ8boz3Pq7JloiDN43iyVkwbsjkWRNFQFAUWAIj4NwP4jS1HpA6eNwlTgucNpqBSZYtkSzSMxpe2TvNhbNLXKlsiN6F0Hn/cFuBYEJWOoimwOhoGf+Grv8GWIwoSZsO65h1P2XIlJH9dsR2pt0VyF0abCWd+fntthVJopvE608nYlMpYEBW3oimwAEB9vd2oeZIb3mlyAoPgp6rBHbZkqWntqW20ZbKhIRzKazscOKzO4LO9inpbJlthHE5sGweAY0FUSoqqwOpsHnjFN/5NthzNXMaYmzqbB2bgCQASeoHV2lPbKCpzbTkbUd1tyyCUJaPwxwA43IVezrfl7NJe/uNYEJWAoiqwAGBj4+Ddqv4PbDmaeRTmexuWDtxjy5UkQWPYy0Ii0mLLpCMZJHttGQ3jhivIS1FR4VaE8n19P5nWa+RYEJWGoiuwACgEXwF0vy1IM4nuTxr/K7ZUqRKVubO9OattuXStjC+qhspSW85GRYc7m3butuUA7bYlbERl7qpttS22XMYEbbZIGh5PbxwAjgVRaSjGAgsdDTv6TGC+YcvRzGEC842NSwf6bblSJpDrV8YXhbABGXC9WJctkxZFWsXCqD/Sa8ukJZwC4A0TRYoz35azUWivLXMYxyK/wp7pJUqlKAssADpu/FsAvGQLUukz0BcOvR/Uli11rhfryvUG0tpT14WQnkwUTe9m2tU0tA+iW205O2d+a09dmy2VjpZ4daU6staWS4fx/S5b5jCORX5NdfA4UZiKtcDC7c07f54IEpv4ROFMJ/CD5Kbbm3f+3JacIc6u8Ob2ZltktfbUdQnkClsuHSo6PBKMpDWDBQCq2mXLpCOsmbwKb053GJv8ATy+vmkgoz1HHAui4le0BRYAjI6amyHmZ7YclTDVJ9zE/pnTVDQ9Z1d4FUOZdNxuiVdXhllcAQAU3Zkch9LR0N8NmD22XDqcmNebS2ExMYsXxtNyANRkPPPDscgnp8WWIApD0U//tG6tvUxcuQsqRV0sUjY08ANz+YbGHffaklG1qqeuN7Sb1yQUehdgulL1V2qJV1dWuBWNE/t1ct9fcyRF8KFM+zqt2lbbAnHutOXSoaLDYrStfUl/2jf1FfGaqphX3o2QlkgBs6e9ob/KlpoMx+Ktwvj3oqLDo8n9VZMV/xMfSqQSkGpR3RcEQS9n3ChbRV9gXbJ54awTj3E3O+J+zJal0hJo0PPqweDjW5YNHrBloyqMG0Y6VHRYFEMKDAHYB6By4sy6fP2/ta+9YXu9LTWZVT21u8Mt9rRPoWsnZoUmtyJeU+V5ZashaAlpKWyCmivbl/R32WKpcCx+X3j/XswehXQD2CeC6kPHTaUoJLUv8P3VLLQoU0VfYAHAigc+eEEsdkwPIMfaslQaDDAS+ONLOpt29tqyURbeDSNaspm9Oqy1Z3G9wP2RLZepSYrMQ13JtSrcIuYNj7c39GW9NAdwLI4W+jJ2mlR02CT9ehZZlImSWFbrbH70hwbmmyVSL5KVAGruK/biqnRpX7bFFXDouJhQnqL7fROzMXK+QK4TyPUCuX6iuM1LQYHAT7bYMjYci7fYbQvkg6jMdT035awf0WRKosACgCSwBtC9thwVP3X0+eCg32bLUWEEvr/alrEZSe5vCWuTdyEodE1Ysx0ciyOF0OU+a878vDRvpZJVMgXWpoYdzx3wx/7elqPiN54Y+8fOZYMv2HI0/cK6mXY1De0L/KBRRYdt2ejRvo6G7W22VLo4Fm8q+BE7Tn7OeKTSVDIFFgDc3vTYPQD+2Zaj4mUC/yu3NT222ZajQgj3Zrq+aWBIjOY8GzbNHh/x94d+E+ZYTJg4YqeAs3mKSluE6LCSKrAAYPzF0TaFuc2Wo+JjgmBj8uWDX7blismhTcYlwOwJ+2YKAO1L+rug5kpbLiIeH/GH6zPp/ZUJjsUEhXTZMkRRUHIF1qblu8ae+fV/rTJqbrdlqXgozG2vJF67dtPyXWO2bJHJ9Qb0uC2Qbyo6HPhBYz5upsCbhUXEl8jyVlAciWMB+H6iy5bJG8n53yvNICVXYAHAQ9c+Pf7Kwf4VQPAlhSZseYquib+/4Esdu/pXbFn2ZAn+Xea2aVcRrC7krMZ0Pb7evqS/yyT9+igWFgq9K58FxdFm+lh0Nu3crdA1tlxeGOWThJS2ku9r8OkH3v835bFZXxI4p9uyFC0K88y4f/Czpb7nqvXbdfuyaeioosMdH9teCUx0/VZH1mbzfXKQ15mKybTEqysrYnO6oLLUls23bLqjh2mmj8WqnvOHEFqX+bSE0suLZo6SnME60m3N//FNqFyoGtyrULXlqfAUqqrBvVC5sNSLKwCAossWmZTijZvZ4VkNTNOSoUJvaW/oq57O4gqYeKKu/WPbGxWmqaCbnUW3+slE9XQWFEeb6WMx4g/XY7re76LDIfbyohmi5GewjtS6rfYiY8xnPDe2UMFaK2oEAj9IDjquc9NUR3mUmpZ4dWWFVzGUYZPHST9Nt8SrK2d7c1ZPNI7MB+1TmLZcGomGadW22tUQrM5w7HIQrdd/pJk4FtMzi2f2BH7QmO9lcCo9M6rAAoBLNsM9oXzRJwRY6rqxpVDEbNdQfik0YYy/TdWJbxja8U20wdiuKTUr44uqnZjXm+YSn3Vp7tB5cm3hHStS+JvpVFZtq22BI435udFOnFvn+4m1E20Com0mjsXEwdjhHliuosNQrB3196+d7plaKg0zrsA6rL4N3h+fs/AsqNR64l0krnwA0HKolPyyacGJGkDGjQkeCYyJQ7T/Fz8e/GlvG3zbpaXs0OzT2lRFUTY/8Fvi1ZUVbkUjHGlUoD7NAu4Q7YNqdzJIdkfpZjqVw69XReoFWp/NDfeIc/p6je93F+vMxUwci9ae2kZAGrN9vYcKyF5Au2fSLDrlx4wtsI509dcXz3PnBO8IAl3sObF3KfQMVTlO1OE6YkhUjIjo6wJ5WiHPQZIPB/vdlzd8csdrtmtnmhXxmqqYG6tXkao3f1eHRv2R3nQLq1QmZra8KsCpnzyhQ4Dui+pMVTZaexbXT/yXU58qI6q7VXS37/u7i6WYzMZMGovD73VRqfr9f0tHM73AoXMfiYiIiIiIiIiIiIiIiIiIiIiIiIiIiIiIiIiIiIiIiIiIiIiIiIiIiIiIiIiIiIiIiIiIiIiIiIiIiIiIiIiIiIiIiIiIiIiIiIiIiIiIiIiIiIiIiIiIiIiIiIiIiIiIiIiIiIiIiIiIiIiIiIiIiIiIiIiIiIiIiIiIiIiIiIiIiIiIiIiIiIiIiIiIiIiIiIiIiIiIiIiIiIiIiIiIiIiIiIiIiIiIiIiIiIiIiIiIiIiIiIiIiIiIiIiIiIiIiIiIiIiIiIiIiIiIiIiIiIiIiIiIiIiIiIiIiIiIiIiIiIiIiIiIiIiIiIiIiIiIiIiIiIiIiIiIiIiIiIiIiIiIiIiIiIiIiIiIiIiIiIiIiIiIiIiIiIrIfwPDKUCVaHBdMQAAAABJRU5ErkJggg==;" parent="1" vertex="1">
                    <mxGeometry x="342.57" y="206" width="142.86" height="75" as="geometry"/>
                </mxCell>
                <mxCell id="52" value="" style="shape=image;imageAspect=0;aspect=fixed;verticalLabelPosition=bottom;verticalAlign=top;strokeColor=#1d1921;fillColor=#ffffff;image=data:image/jpeg,/9j/4AAQSkZJRgABAQEASABIAAD/2wBDAAEBAQEBAQEBAQEBAQEBAQEBAQEBAQEBAQEBAQEBAQEBAQEBAQEBAQEBAQEBAQEBAQEBAQEBAQEBAQEBAQEBAQH/2wBDAQEBAQEBAQEBAQEBAQEBAQEBAQEBAQEBAQEBAQEBAQEBAQEBAQEBAQEBAQEBAQEBAQEBAQEBAQEBAQEBAQEBAQH/wAARCAGhAoQDASIAAhEBAxEB/8QAHwABAAIBBQEBAQAAAAAAAAAAAAoLCQECAwcIBgQF/8QAXhAAAQQBAwMCAgYFAw4JCQYHAQACAwQFBgcRCBIhCTETQQoUIlFhcRUyOYGReLG3FhcYI0JScnZ3obbB0fAZJDY4YqKys7UaJylDWIKStOEzNJSXuPE3REZVVoXW/8QAHgEBAAEEAwEBAAAAAAAAAAAAAAkBAgcIAwUGBAr/xABBEQABBAECBAIIBAQEBgEFAAABAAIDBAUGEQcSITEIExQiQVFhcYGxMpGhwRUj0fAJM0LxJCVSYrLhchY0Q4KS/9oADAMBAAIRAxEAPwCfwiIiIiIiIiIiIiIiIiIiIiIiIiIiIiIiIiIiIiIiIiIiIiIiIiIiIiIiIiIiIiIiIiIiIiIiIiIiIiIiIiIiIiIiIiIiIiIiIiIiIiIiIiIiIiIiIiIiIiIiIiIiIiIiIiIiIiIiIiIiIiIiIiIiIiIiIiIiIiIiIiIiIiIiIiIiIiIiIiIiIiIiIiIiIiIiIiIiIiIiIiIiIiIiIiIiIiIiIiIiIiIiIiIiIiIiIiIiIiIiIiIiIiIiIiIiIiIiIiIiIiIiIiIiIiIiIiIiIiIiIiIiIiIiIiIiIiIiIiIiIiIiIiIiIiIiIiIiIiIiIiIiIiIiIiIiIiIiIiIiIiIiIiIiIiIiIiIiIiIiIiIiIiIiIiIiIiIiIiIiIiIiIiIiIiIiIiIiIiey05HHPnj8j/NxyiLVFsL2D+6588eOXeeeOPAPz/ghkYDwXDnngj7j7efu/fx9/sioCD1BBHvHxOw/M9Pmt6L809ypVidNZswV4WAudLPLHDG1oBJcXyOa0AAEk88AAknhfGXt1NssWXNyW4mh8e5nPe27qvBVXt49+5k95jhx555Hjg8+y43zQx/5ksbP/nI1v/kQvohq2bB2r155z0G0MMkp3PYbMa49fYvvEXVrd8dl3O7W7t7audzx2jW+mi4kngAD9Jckk+ABySfZfS4vX2hs44MwustLZd7iA1uMz+KvOcXEBoaKtqUkkkAAcknx7ribcqPIay1We5x2a1s8TiT32ADiSduuwXPNjMlXYXz469Axu3M+apYjYN+27nxtA39m56r61Fx/Gi7e/vb2cE9/P2eAOSe724A9zzwFqZGAAl3gkAeD5JPAA8ckn5Ac8/JfSOvbr8uvft+a+H3/AA7/AA+fuW9Fs+Iz++HuB+8/7+fu+fC3p8fYex96IiIiIiIiIiIiIiIiIiIiIiIiIiIiIiIiIiIiIiIiIiIiIiIiIiIiIiIiIiIiIiIiIiIiIiIiIiIiIiIiIiIiIiIiIiIiIiIiIiIiIiIiIiIiIiIiIiIiIiIiIiIiIiIiIiIiIiITwCfu8oif7/f/ADLaXtbzyfYcn3J+Z9h5JPHgDyfHjyOdpkYAfP8AmPnz2+Dx83fZB9ifAPK899QvVBsv0xaSk1Vu3q+lgoZopjh8FC4W9T6ikjY5z4MJgo3tv3n9zSx1gCClWe5rrtyrD3TM+O9fpYyrNeyFqvSp1ozNYs2ZWQwwxDvJJI8ta1vXuTt7BuSF2GKxOUzuQq4nC4+3lcpelbXpY+hXmtW7M7uojhggZJLI7lBcWtYSGguPqgr0IZog0uL2hvDSXE8N7XcBp7j9ntJIHPPHlebd9urnp36c6Uku7e6GndNZI15Ja2mmTyZbVV1ojc9pqaZxDLeYmEgHbHK+tFW73NEliJhLxGt6rfWX3v3ZmyWltj4ZdldCvfNWGZpWRd3DzdYve0TT5yMQV9NwSxuJbVwNZl+IECbM2exsaw85TK5HO5O7mszk7+VymRnfbu5DJW5Llu7ZmcXzT2pZmPkmle4kiWSZzwfJ8rV/W3ifw2NfNR0XQ/jlpnO05W751fEse3cbwQt8u5d67cpJpxu/EyR7dt5AOFPgE1LnIK2X4p5p+k6MzWyjTuHbXvZ9zH8pay7dkMuNxr+UlxEMeVk68ksdd7XBsj/en138JUN/G7CbQW8u+MzV6mqdyr4oVCSHtjt19LYWWa7LC89r/h3NRUZHMHw5K8ZPjGDuV6q3W7uVLZjduvJoTGzuf8Oht1i6emzXifyPhsycfxc20tafsStyZnicBJFI2QNcMdfLjzz/AH38Rz7/AJ8E/wCxarWfUPGniRqN8gs6lu0azzv6FhyzFwNHsYX0hHZlA7c0tiR7/wD8jn9VvVo3wv8AA7RMUJx+gcRk7sRa45PUjDqK697QP5jRlDPVquJBP/B1qwG5DQ1uzR2Pqrd/dfXE8trWW5+4Oq553mSV+e1jnssXPJJP2chcnDQSTyGu9vZdeyT2JXF0ksjy4lznvmdK9xPuHmaORx59j2vbzz4LfdcSLHM1+7ce51u3ZtOO5LrM8s5J3G5PnPf1PcnvudwVnGnjMbjomwY7H0cfDG3ljho1IKsTG/8ASxkDGBrf+1uw+C0A4JI4BPzAbyPxHLXDn5+WuH4EeF+2tkchSd307tuq8+O6rakgJH3uDI2sP48xSDx5Y8fZP40XC10jHB0Ujo3D/U1xDhvsOjh6w6DqA4NPYj3c/o8Za5sjWStdsSHsaQeg6EEbEA+8fMld8aG6oeozbV0Z0NvfujpuGPs4oUNZ54437BBAOOnvy4x8fjh0LseIpG8sfG5ji0+89qvWd6xNBS1IdWZDSW62LhbHFPDqrAQ43KzRNcOezOadkoWTOWcgTWq9poeRI+CYAxuxKJ+fP7vf934r1eF15rbTz434jVWbptj5Q2H+I2p6mzfZ6HYkmqgHrvywg7dBtv0x7qfg9ws1kxzNTaA0plXvO7rUmGp18hue7mZKnHXyETj7XQ2oye++6lkbFet10668ko4jeDTmodmcvIIWS5ORjtVaLZO+RjXSSZLF148xQgL3GR8lnASV60fdJYvNY1zxl+0FuZt9uhgK2qNutY6b1ngLTWOjyum8tTy1NpeARFPLTlkFacNILq9gRTxk8PjaeQq7ggkc+S4H7HL3Nc37iJGeWke4c0Ej3AJA57Q2q3n3T2P1JDqrafXWodDZqvOJBPgrzq1WzG0h7oclQbGKWUhmLeyavepzRzxudFNzG9wOfdI+KLP0HRVtX4utmqvMGy5HGxsoZJjSdvNdW3FG2QNi5o9Ce47l0jid1p5xI8AGjctDYvcNNQXtLZANc+HDZp02Ywcz+/kNskDK48Eu6zvlyg2Aays4gkWFxkYD2lw5HHjz8zwPw8lb1Hb6SPW3xGbmxOjOq7B1dO3HitVZuvpeG4/BzSCWOJk2qtMsZauYlxcRLbv4aW/RawSTS1YGgtUgDSur9L62wGL1TpDPYjUenc3Vhu4vM4W9XyONvVZgHRy17lR8kEgIPBaH97JOY3tbI1zBtxo/XmltdUTd05lIbnI1rrNNxMN+nzbAC1UlDJoxzbtEoa6B5BEU0gHMY2+JPCPX/CbKfwzW+As40Svc2jk49rWGyTW7kOo5KHmryvLRzvrPMVuFpb59eMnZfSItgkYeOD4JAB4d2u7uOO1xHDgeR5aSB7Fb17BY2/2+vuRERERERERERERERERERERERERERERERERERERERERERERERERERERERERERERERERERERERERERERERERERERERERERERERERERERERERERERERERERERERERET2RFoTwCTzwASeASfHnwACSfuABJ9gCVwvliLXNLwC5ruByQ4jnsJb7HjuIaHDx3OYAeXsB1fLGGvBcPAI4IdwSfsgeGknuce1vaHFx8NDiOFgD9Tr1Pm7efprp96d8zHJrgxy47cHcXGSwSxaPjlrvik0zpW/FJLC3VJEkkeTyUAniwLH/Cr/EyVhwp+W1hrHCaHwljOZuwY4IvUgrxcrrV6yQTHUpxlzfMnk5XHckRxMa6SV7GN3OQuGPDHVfFrVdLSekqZnt2CJbl2UOZj8RQY9rLGRyNhoPkwRcwEbQPMsTBtaBr5pmAd89fXqn6J6Zzlds9pzi9fb1tElTINJfa0tt9Ylid8P8AqjmryiPJZuPllqLT0dhkjmt7LzqsUj3Mik7qbr7jb26wymvN0tW5nWOqMtMZZ8llrbpzXg+P8SDGY+HgV8ZjKQ4FWlj68FYtaGujjlJsr4SzYnuWZ7luaS3csOkfYtTl757E09k2bM008kks83xJHOe36zJPP8Y97p2x/wBqHCo4+IvFTUXEe6596V1LCwyudQwdaRzakDRu1j7IAZ6ZaDOVzp5mcrJHOFeOMDmfN1wQ8Pei+B+Kijw9WLJ6ls12R5nVtuBjcnee7kfNWrbPe6hi2SAtjoxODJA1s1h00uxZx9hHsflx59/y/H81vHgD8gtUWNNgOw2WfeY7cvcfr8kREXzqiIiK9nc/L9wiIiLlRP8AP+Xk/wAPmtOQCQSOR7+fn93Pt3H2Df1ifABK18HwfAPufw+fuQP84/ML3N0ddA29PWTlp5dKNq6T29xtqCrndxdRwWjh4LDuyR9PB42tNVn1BlIqzg816tqKpHPLVhyWRxjbcVhdrhcHl9R5GviMJj7OSyNp20Nas1pdyM2Mssj3vYyKKMObzSPcGNLmgn1gvO6r1dprQ+Duak1bmKeDwlFrTYvXXuawPe5rIoYmRtknsWLD3Njgr1oZ55JCGtjO+68M8H5AnkhoIBIJJ4ADhyCefuJ4+fC2tc13lrmkclpcCC0OHu1zhyA77mkhxPgAlSncR6DexNfCtrZ/dzdHJ541wyTKY2HS+Kx8M7mdswgxFvF5mV1YvJPZYy0z3M+y53nkY2esn0kt3em3BZPcXb7OSbv7Z4yF9zMPq42elrPTOPYHPNm9go5LtTI42vEx77t7ESsdWhjknkpxsaFkrO8C+JOn8W/L3MJHYqwxedZbjbsF2erHsC50sMW858sHeXyYJms2Jc7l3eMGaR8W/AvWWfg05jNVyVMhbnFfHvzWLu4inkZnO5WRV7dxkdeOSQ/5UdqaCafcNiic88ixEuDXjtLAfHH2ie0/g4NIcWn+6ALSRyA4Hgr2p0i9de9vSFqOObR2Ym1BoG7eZY1Dtpn7NuzprItL2fWbWLa6y92nMzNXEkMWXxEMMs0hZ+lK12s10T/Fnv8AMfePI+0OGu7m/wB83h7OXt5by9g55e0FyR5AJI8gNkdC4keQBMxr3RE+wkaxzmH7Qa4gA4zwmayunsjXy2DyFjHZCq5phs1ZfLcAQHGOTuySGVrgZYpWvilaW87XN2WddUaV07rXCXdO6qxFLOYa+0x2qV6FsrCdmubJE/l8yvZiBa+CxC5k8Di2WF7H8rlPK6T+sDaDq40S3Ve3OZZDmceyu3V2ici6GDUelbsjWt+r2qcYcLmMknLxQzNN0tO2CGNn+KXwt9Zh7CeAfPPHHB558fh+IP3cefZV72y29u5PT9r/AAu5m1eorGn9UYSwex8PIxuUpSPY+1jc3igRXyGJuRNNaWlM6U9kkkkTq8jg5szDob63tA9Zm38WYoOr6d3L0/FWbr7QUs8MlihZa1kRy2G7i2fKaZuzEmpdjaX0rbhUsj4jYw+QHhBxsoa+ZHhMz5OP1VDDzeUzeOtl44wGvsUWO/yrDQBJZpFzyA7ngklaXNjhq8S/hWy3B2xNqnS5tZnh1atCMWJWmbJaammcPKq5cxAtloOe/wAmllG7Ne5gr2mxTPrOt+9EWwSMJABPJIHHa7xyOR3ePs/m7gclo93NB3rPi083B7H3H6HqD9R1HvREREREREREREREREREREREREREREREREREREREREREREREREREREREREREREREREREREREREREREREREREREREREREREREREREREREREREREREREREREQngEn2A5Pz9vwHk/uXEZGOa4NPLu13ALTyfDvHae0n9U+OR+Y5BW9/6j+fbtdz/A/d5/gvJ/WH1Oad6UNj9TbrZmODIZOKOTEaO05NOIJdQ6tyEc/6Kp+OZhTh+ryWck6JhkrUIJnvLD8MH4slkaWIx9zKZGZlajQrT27c8hPJFBAznkc4Bri7du+zQOpGy7TB4XKakzWL0/hKkt/L5m9Xx2OpwgGSe3bkEUEYLiGtDnuDnPceVkbJHuHK0lvgr1WPUAHTxpb+sftPlmx7ya0xPxMnmabo55dvNIXYrEBvxOcCyLVWa7TXw7Jpga+MdbyrP+MOx/xIlUs89ixPZsyyTz2LElixLK4yPsTWGyyTSzTSOdNZmjtSFzLlgi1aY9z7IbIyMH7DcTX+q909c6o3C11mLWe1Zq/K383m8naPd8e5bsNlMcYJLoasLZDFjqTAK2OpVa9eHgvkaPi1GHxQ4h5LiLqOfIyvlgxFV8sGExxeS2rT3DPOla17mOu3PLZNalHK4hsUABhYXTT4cAOCWF4I6Jq4SqyG1qPIsgu6rzbWHzsjkjG3mrxyOLntxlFxmrUKvMAITJaljbZuTucREWNmjYbfHf8AQLOiIn8B+JIAH5k8AD7yTwPmny7jyG8OPcQQ0Bv6xLjw0AAE8k8ceR4VyJ/m/PwP3n5LXhw8lrgDxwXNc1rueOO1zgA7nkcdpPK0P2SOfBLnAexB7Pidzh9iQFnMMjA/skjdIwxtD3kRnIX01+mL1S9SdHE6nw2lKuhNBZWOK1V1vr6RuIgyFKf4T47eGxVOvYzGUryQSiarM7GxULbf/wCabF3vb2WC07nNTXW47AYu5lbjm85iqQmURx9f5k7+ZrIIgGuPmyvaz1XDfcFeX1brXSWhMW/M6x1Di9O41hc0Wclahg86RjQ4wVoXvbPasOaQWQVIrNggEiAt9YY9ePy55A7eR3Hn7mc9xH4gED5laDySBwSPcAjkfmPcAfMnwPmVKa2q9CLZHBx07W7m5mtdeX42RutYvTcON0jp50hIM8ImdXyueswuHLDIL2PLmuJbBGfI9taa9LboY0xXjgh2IwWZfG1rTb1LltSZ2zJx/dObezL6YJ4BPw6kfz4HngZ0xHhj4h3WCW9Ng8M1zQRFavT2bHXlIDmUac8bHdTuDKeUjlPtI1L1D49+C2ImkgxNTVuqHMPK2zjcXBRoyOBIJZLmbePtcnucaYBHVpd2UIseTwPf+f8AI+x/Djnn5LQFp5+00EHgguaC38XAkFoHzcQAB5J4U6eT07OiaSL4TunHbgsAI4bjLDHccccCRtzuBI/uh5afLfIXTmtvSJ6HdZQziDbLI6NtSNf8O3ozVmoKDonOa4NcylkbmXxhdG4h7WGiYnOaGvjewlh7iz4WNZxROfWzmnbL2jcQukyNdzz7g91B7G7f9TyBv03A6roMd/iFcLZ5hHktI63x0RcAZ4osNea1u+xLmNycEg27+q1/Tfueihr6bwVzU2o8DpukGtu6gzmLwNN0zSIvrmWvwY6uHF3a1zTPYaCA77TQ7g8AkT+thtntL7D7VaC2r0fSFLDaPwNDGF3axtjI5FkMb8rmMh2NaybIZjIS3Mjdm73H487gwljY4o4hXWx0uY7oD6mtvotJZPUOpdFCHS+4umstqYUW5KSbEZ2WTNYexbowU61qOtLSrsdLLXjETstWa8gu8TItutdaf3K0PpHXumchFkMFq7A4rUeOvQiRkM9bI1I5WgRzRxTRSxuL4bFaaKKzVmjdDaghmBjHuvDhp5unM5xBxOYiig1RibGNx8zA5km2PkbPMX15AWufXnmFeRxDWjdkLz1bG4Yd8cutna40lwY1Dpu1Zs6B1DBncrBKY5K0U2YiOOigbdgcT5V2lTN9kcEjjJHz3PKLgXub9s/n7XABPngHwCfPAJ4PA+/wfyK/LdoV8hWtVLlaC5VuV5atmvaijlr2alhj47FaxE5xZNBKx7mSxzMcwsc4FjySv0ue3ye4cEngjzz5+XHv/ufZHTNi8OIHPJAPgHzwB3H7I7jwG8n7Xjt55W2pDZG8rg17XDq0gOaRt6wLSCCCOhBBGyjkB2Ic0kFpDmlpI2c07tcCD3aerT7D1HXYiCl1+7HYrp56rd2Nu9PV31tMty8Op9M1XlpdSwWra9POVcVAGkkV8ZPkrFMlwaBFjqreAW8LxqvfvqcbtYXeHrM3b1DpuzBc0/gbmO0VjshA4vjvf1JUIMFkbNaUtaJalnM1r8sUrAYpWBhge9kkJf4BDgfY/wA6ia1xFja+s9VQ4jk/hkWoMqym2Mt8tkTbku7IuUkGFjy5kbhu0tGwJAX6MuEcmdt8MOHlzUjpjnJ9FackynpHP6Q63LjK8kj7PmbPNt7nF9ku9fzXHzBz7k7gSPb/AH/iu4Nit7td9O+52nt1ttsvLitSYO2XyxtDvqecxs74/r2BzMbP/vOHydZkle9XDHvq2ZRcx4kkYCunlqOOR3DlvI7h5HI+Y5Hkcjx48/cuhpXbWOuVb9GeWrcpTxWqtiF5ZLBYhdzRyxnqA9h32JBGxIIIJB9vlcVjs5jL+Gy9ODIYrJ1paWQo2Y2y17VWZvJLDKxwIcx7C5pH/dzfjbG5k+DpO6mdEdVu0Ond0dHTRQz2oW0dUadfM2TIaW1NWZA7JYm21riXxDvZaoXAHwXaVmrPWnmikY4enu4cgA88kjwCQCByeSAQ3/3iOfYeVCA9OjrGyfSLvhjshlbU8212u5qGntx8UHS/V61Wa00VdW1YIRIXZTBWbEluYNi5tY036zA6SetDBNqxOUo5rH4/L4u3DfxuTq1btG7Wmjnr26NytHbp24pYi6OSOaOWJ0UjXEPY9r2lzXNcZLeD/EmHiLppliwYos/jAyrmqsfRrpR6kOQhZvuyveawuDXAFs7JmDdgje+CDxLcDrXBLXclKqyafR+oDNkNK5CQPcRBzg3MRPK4fzLmJnkETiXF81OSncdsbBA/rIiLLK11RERERERERERERERERERERERERERERERERERERERERERERERERERERERERERERERERERERERERERERERERERERERERERERERERERERERERERERPZFo48NcfuBPj39k/T59vqnzW0vaQ4cn9U8+D7eR45AB9vb7vJ8eVDW9Wfquf1EdQ13Q+nMkbW2ey1i/pnBNrTfFoZfUrHth1RqRoZwJZ3ZGNuIqTOZ2sw9J0kbi2897pIvqEdQp6aulrcPXVS4amq8xRborRBY8Cy3U+qWS0oLdZvBBdhan1zMl7yyP/iIjEnfLFHLBlmsSTSzTzvdLNNLLNLKeQ+aa1KZpJZHeXPm5bE2w9x4kd3lhcDyNRvFBrl9KpjdDUp+SXIsjyuZDHND/RIbDG0Kztnc3JLYZNO8bet6KGgtDJg6SbwAcKI8hks5xbytVskeGdNp3SzZWtez+Iz1mTZrIxn1muMFKeHG1pNuQuu32kh0QZJq8jvB+R8D39/s/wCwotAeQD/v4Wq0oUqSJ+4n8ACSfwAHJJ+4AEn5InJHkAkjyAOeSR8hxyefyHP3Inf4fH3fZOW8FxILGk95HDw0AcuLu3nhoHPcTwB5BI8ru/YLp43W6l9fUdvdqtNS5rMWHh+TyM5lgwWm6TJWRS381km8V6FSAO7nt+I65YePqtGtauvirv8A39NPTluD1R7s6f2p29pj65dmklzWclicMZpHTlWaAXs3k3t4ELoBO0Rw2P7fYsyVqcEMtm1XhlmvdLvSxtn0n7aYzb3bnEtEghq2NT6jssijzerM02Nos5LJ2ozJII45O5uNx7JDVoViKzHSOc6wc28IOD93iJdGQyUk1DS1KYttWYm/8RkZW8vPSoyOb5ccjQWunmPmeS1waIXSOBbqd4mfE3iuCWNZhMKyvmOIeVqtmoYyVznU8LTl35cpmmsMcjmPLHNp0IXNltvDi6aKGN7nRT+uz059UdGGD241ONSnXumdWVDidU5yHHOx1XB69jNi0cfVERkfNhsrQaLeMnusrzS2Mbli1nxgYjlr9FbqyGutAZPpn1nkXS6q2wpjMaEmvyc2cjoOezJXnxcM008kkzdJXXtqwtLI3Mxl2mxoJryhmXTqG2N0x1EbQ632l1lCDitU4meCnfEcclrA5qAfHwmfxod3BlzFZCOvaj8Avjjlpk/Atzl0JzAZfdLoN6pK9q3W/Rmv9kNazVMnjWGaLHZ7EVu2verRukcJ7On9VYO53RteHCWDKUMlGDNFEVlbUmGZwF4kYLVeDrzQ6I1AIsVl6kcsk7KoLYRZikdLzEvaYxlqXM50r/Qr0QmiY4uWu+g9Tv8AGDwS1Xw51hbrWeLOkTLn9OZSaKvWkvyOnccXZjZDHFDWY8un03lnV2tjigt4+2IeeYiOeaZGDnl3t3/I/wDq3BjyPHkMcQHEchvIJ4BC1a5rhy08jz54I9vc+QPHjwfn8uV5bg6wenWttHo3ejUu6WlNJaR1rp2ln8Qc3mYG5a1FYhjM9Gvi4HT5XJZKlZbJStV8XUtTPsV3EB0bHFviHXXrYdHWmLstPTcW5O4DonvjZkNPaUhxWPmfFyH/AAbWqchiLUrSR9lzqbQ/5c8rZ/Ka90ZhYILGV1NhqLLMMViAT3oGyywTsbJDIyuHmcte12+4YQOrebcELQXT3CHijqyzbqad0FqjKzULM9O46DEWxVrW6r/KtV57z4204ZoJd4pInz84e0ghu4CzCfjwePxBH8OR5/ctrgHNIPID2kDj7LuCCPHPBB+7njg8fgsGdf13unaWdzbO0+71aAuAE8cej7Ejm8gEvgGcYD48lrZO48cNPJ5HpHa/1dOijcu9SxdnX2U24ytx8bYKu4mnrmIouc97WBpzlH9IYWtw48OkuX4I428yPd8MOI6uhxX4dZGZteprLBPncQGRvuR1i4nbblfZfA0nc7ANJdv1AXoMv4euN2CrOu5HhpqtlaPYyTVMa/JeSOh5pI8a65JG0dd3vaGt/wBW3VfW+o10XRdYGy8dHTrKVHdnb+a7ndvMjam+r1bj5YQzKaWu2i17oKefijhfFO8GOnk6lGzJw2N7hgd6NfUN3Z6CMxkth9+9FanzG3eGy0lezpe9Gcbrjbq/3TSZBmAZlZIKeSxV6eY3rGIs3IKfxXWb+LyUz7Ms1+WrgNT6c1biKue0rnsPqPC34hJRy+DyVTKY60xzeWur3aUlivL4I5DHOLT4c3kcLzt1AdHXTz1PVIhu7t5jM3l60IrY3VmNfPgNYUIWg/Cr19R4SWhkn0q7z8WPGW7NrHCZglFcPBK85rXh1kcjmquu9AZmHA6viqtrTSSM87FagxwALKt9sYe31WFnlzeXM0xxQDlaa8EsXuOFfGzAYDSl/g/xj0pZ1dw1sXpLtOCq9tTUmjsq9z/OtYd8phc2ISvmlkpixTfHYsWXsfI2zZrTeasX6vPQrlMUMnY3RyuGsivHM/DZXRGrIsuyV7A8xtZSxlqnIYz9h0le1JA4jujmLeCcafWb60EGr9MZnbLpixuew0GaqWMdm909SVocZk207JMFuDSWCjfJPWmt1JJmtyuZZRyEAe18OHpysZeHqXIehD0zWcgZ6O5m82Ox7pXyDGtyGkLbYQ93Pw4rlvSstmRrAeGuui5KeAXSnjk9b9T/AKKe2uP2TuXum2TVR3P0lDbzL6ups+zLO3Bx1WtLPLgHxCtSx9TMwmL4mBmrQVWT33RVrMzISHjwWp2eI7I6fylY1NMY9kVKUzSYOxI/MX4mtAmix7pZrIimlZu/lb6NM47xx8xIYsucP2+BzCa0wNsZDX+dfaycDKkGsadePTODneeeC1nDWq0RarV5i2EiUZWpzyMmtxOrwzWI4x80hlDpJHGSV8hmke5z5HGWUMfMXOd9tzC7lzi7km2HTc9jg47I/J5+XH8/C/fksVbxV+9jchBPTyWMuWcfdqTRuimrWak761qGzC8B8EkNiOSu9sgaRNHJEP7Y1zR+NrQ3960ODJGveJA8SB8jZPNLjIJA7eTzOYl3OXOLnc3rEncqYFr4pIY3wuY6J7GvidHtyPjf/MY5pBIcOR4DXklz2Bpe57vWO5D7Hj3+SIr1atO1rx2vaC132XtPsWnwQePkR+9SuPRY6r7O6G1OS6fNaZVtrWG0MLLml7FicmzltBX7HDKbe7kznS2RmdQiYHuliw9zCtfGBFJ2xSD3cHtIDv7knyA75Ej7gfdemuj7frIdNXUVtruvj5pmY7D52LGaprsHJyGiM0+PHZ+jJGzuE04xn/GGksfzkKmPlj5+HIW5N4R62fobWuMyUkr2Yq7IzGZuMEcj6Fl4IsPDjyl1CdkduN34mljowdpyHYF8SPCqHi3wr1Bgoa7Zc/jIH57S8vJvMzM46CeVtaNwaXluUqixjHx7+WX24XuBkZE5s+MPa4kNPJHIPAJAI7SQTxwDw9p4J54PPHAJG9fxsRlKWZxuNy2MnZZx+Vp0snStREGGzTvQxz1ZY5GktkbJXe2SNzfsvaWO54c1f2VKE1zXgOad2kAtPsILQ4EHsQQ4H4dioAnNcxzmPBa5pLXNP4muHQtcBuAQeo2JBBB9qIiKqoiIiIiIiIiIiIiIiIiIiIiIiIiIiIiIiIiIiIiIiIiIiIiIiIiIiIiIiIiIiIiIiIiIiIiIiIiIiIiIiIiIiIiIiIiIiIiIiIiIiIiIiIi0d7Hxz4Pj7/Ht+9ara5zWse4uDQxri5x8BoaCSTz44A8/cn6/Dbff6Dv8k7dd9tvb7vj9FFr9dje52e3T212Fx9wvx2hNOza21DA2RpjOo9TWHUcWJ428cyU8JC50LeHlgzDJPDY5CzAi/jwPmP5v9wvVXW1ucd4eq7fbXjLDbVK5uBmsNipWckSYHTc7tO6eMQkAeyEYvEVppIy1r2vke57GuJXlR/uPy/1lRS8Us/JqnX+pswZXTQOyc9Ok4HmY2ljyaNZsfVwEZigbIC08r3SOkH4yv0LeH7RbNA8IdBad8sQWosDVyOVYWlj/AOL5nfK5HzOYBxdHPcdX2cOYNhA35OQDez9Ufv8A5yty2t/VH+/zW794/eQP4c+/5BeIaDsBt12HT6LMjiOY9fd9ghPAJ+7z4BJ/gPJ/IeVz1alm/arUKVaS5dvWI6dOnDHJNNbtTzNrQVoYYQ6aWWed7YooomukmLv7UHe64Ce0EjwR5H7vKyz+j703xb1dTcWutRY11rReydSlqyx9YhaadjV9iWxT0dj5DL4dNWtw38yGdjmOGLDHlrpq7ZfSaR03c1dqPEado7ifKW2weYNv+Hga10tq07mBaWVKzJbDg7YPEYj5mukaV4fiPrjG8N9Dam1xlQJKmnsXNebW5g112yNoqVBh33L8hemq0o3N3Mbpw8tcAGnP16bfRxiuk3ZHGNy9OtNu1r+CjqHcXMtEb5q77EbreO0pBYAlMlTTsVh0Vp8Mnwchl7eRvGSZjoGw5Hh28cgD+H/05X5AzyD9r5ePs+CSC4Egnkcj3HJ5JIB55W8v4a7y7gNcTwD4HPB8kcA8nxyQfc+wJEqeBwVDTmHx2ExkTYKWLqw1oGAAOLWNHNLI4El8k0xlmke573ukkcXO5nEr88Gr9W5vXOpszqzUVp1zNZ69NfuTOOzOeQMayCBmw8mrUiaypVga1sUFaCGOJjYmsA4rN+pTrWbl2zBUpVYJbNm1Ze2CvXrwx/GlnnmlLI4oooeZZZJHNZHGC95a0EiHV6tHUFsJvxvxichsvTtZDM6Rxt7TmtdwoHivgNbOqPgZiYsXXj4nyEGALLuPfn7ElY25pK1ak+WCjWcfYvq/9fOUdlct0l7SZeTH42g2CDeLUmLtGOzkZ5oTai0DTuQls9arWrOitaktwF0j7wbhoXv+HcYyO0XAt/Wb3cdziyIQ8zF3LyyGPmGKu9v/AKhruPik2CPiFadeIfi5Uyclrh/hoK9qtUssGayb42zbXasgd6JjXkbsNeeN0Ny00NJLZqzHcvml0mvgp8OOQwQxvGbVNm7Qu5LHzt0xgIXurh2GykQj/imcaDzysvVnefQxxY+NjfR70+83ksr80kssrI4pZZZYYGuiijkke9scBLn/AA2h7nCTiV0soaRXZ8S1Y7/itI52/ZBb2gNbx9kMHAZ2jw0xn7A7z4JjLuPflbGnkefcLctTi4ycrnbucABzOPM4AdAA87v226AE7AdgB0Uj/ltjHI1rQ1pJAb+EE9SeXct79dtuUewDoVuDjyOXcDnye0Hj8eDwDx9xI59uVxuJcwtLAe7khjnNdXA+50UkMva5/sSzkDz+/citLWnoWtPzAIHbrsQRv077b7IABtsNiDuCCQd+2+4O/b6e3bfqvQmwfVNvp0z6ibqDaDX2U0+ySdkmT09ee/I6Sz8UZa4w6gwVmxLQyUcoaYRakrxX6sT3Op2qkrWSNld9B/qTbb9XtSLSWdhg0DvVQowz5DSNmzGaOpYImtZPldJXXmN15vc18trESMZkaEb+74EkQ+IoYHn5cc/Luc5refly5rXOaOfdzWucB5DSeAv7ultSZ7RuocPqjS2Vu4PUOAyEGWw+Wx8hpXKeQimjl+sxyQP7hbe6NrZHGUVpowGys8lqy5w34v6k4f3II/SJ8npwyAW8JPMXRRxOcDJLjTIXGnZZ+JojLYZhuydkjQ3k1w46eGjQ3GfF2531K2B1syFz8bqynAxliWxG0CKtnGxhr8pQlG7HCTntVwC+pNC9oisWLodE7jtPPcAQQHcEO8jzxx5HkefYg+xBW57G9j+B57Xcfac35H5g8j8x5HuPKx1+nJ1pVOsHaCO7nJatTdjQv1TC7jYqBorC5ZkaDQ1XQpMa1lfG5+KFz568fP1DMx5Ok6KGCKFz8ixII8c+W8jwfIPge4//AGHk+FI/gc3jdR4mhm8XYZZx+SrssV5WH1uVw2kjlZuTFPFIHxzQu3dC9pjcS5pKg61dpTOaG1LmdJ6kpOo5rBXZKV2uTzNLmBrmTQSDZs1W1G5tipYb6k9aWKVnquBMYj1oeiyrpPJwdVu3OIjrYLUOQq4bdXF4+oI4cdqG0HNxusIoIAPhwZ0wjHZp74xC3Jtp2u5lm88Oj8c/q/Pu9uPPsHEg8ezm9ru9p4cwghwB8Kwz3Y2x05u/txrPbHV9MXNN620/kdPZOMiN74ob9Z8bLsXxOCyzj7DK9+lIwmSLIQQyA9oc9QE93dtM/s5ubrjazUzHszehdTZjA3XfD7PrQoWHQV7rA1zmkXa8kGQL2ucyWC417HPaCRo34ktBxad1BU1Xj4WQ43Usj47kcY5Y6+YjAmmc0ABrW3YTYtiNvKDNHZla3YSky0eBrjLZ1tou5w+1Bafaz+hYqoxtqZ5fYu6WmaIKbJHP9aV2GnifQZ6zj6PNjIS5oJkb1wiItZ+ce4/p/Vb2otzSASSCeATwPDjx8m/LkjnhbVqOQRwASD4BJAJ+QJHkA/Mgc8Jzg/8AV9Nt/p36+7oqg7b9uo2O/u/MfcKaZ6Tm9U+8fR1oeHKW/reotsshkdssy4Stklkg08+vPp+08cl4Y/Td3EwOe49sklaQtLnte0ZM1GF9BPdCWhuFvXs5ZsSOq5/Sen9f4mF/DYYr+Av/AKEygg7e4l9nG5nFum7+xzhR8glp7ZPSlF4OahfqfhxpnJTPMlmOkcZbeSS51jEyPoPc4lziTI2Bs3MTzPEgf+BzFAD4ndGR6E44a9w9aEQULeV/+oMdE0BrI6moImZQwsaDyhtWzYs1DyAM5q7gxrWgNBERZOWBERERERERERERERERERERERERERERERERERERERERERERERERERERERERERERERERERERERERERERERERERERERERERERERERERERERERE9l1pvDq6PQ+025mszN8EaU0HqzUHxSxzgyTE4HIX4ndoa4uPxYGjhrXEkjnxyV2UeeDx78Hj8/kvG3qAZh+C6LOpPIwvMLxtXqGmx4JBLsnFHi2tBHJ5lNz4YPsO/7Ra0OI6rOXHUMLl7zduali79sEnYD0epPNuTuCA0xtJPTYb7kbgr0Gksc3Mar0xiHAFuV1Dhcc9p/1MvZOpUcACCD6sxB3B7jcHsYJ1qw67btXZnyS2bdqS7NLIW9xs3DI+dzizkSGYtlk5BIDncOIJHPFwD78fv4AH7z4H5ngD5kBbz2BoDB29p7R7cuY0Oa13z9w93gkEfcPC2Hng8c8/Ljs55+XHxHNj5+7vc1n984N5KiEL3vL5JSOdzi55c4dS4CVznOJAPrSODj0ALSDsWkr9JlfljYyJjWshjj5GNG45WRlzY27bnlDYRGCNu4dt02A1aHPdG1rS4yPhYwAEl7px3QsYPd8krOXxMaC6RgL2gsBK9gaF6BOsTcjDQag0psFruzhbcLbNK7kqFPT/wBcrvaHRT1ItQ3cVYnilBBglihcyXkFjnchZnPR56ENJHR+O6rN0cFWzmoNQWr39afE5SATUMFh6tqWg7V81KYH4moL1qvPVx75Y2Nx+NjN6v22MrM2tIREHDewN7WNYIw0ODAAw8NAa0kBjWgdgEngHhzDwtreG/hwZqPB1M9qvJ3cezJ122qOMx7IG2WVZdnQWLs9lk7Y3zM3cKsUEj2RmN75Q97oYo9uOnjmm0Nq3J6N4cYDEZyfAW5KGZz+dkuvoOyFfdlyjQo0LFOeQVJwYZLklvZ8zJo2VS2Nsz6/Ldvp73t2LtwUt3NtdW6FddEn1C5ncVYixd4xAmQ0svVFrG2xFxzL9UtTOjHJc3xwpH3oYZvaqDY3XWmcNm67t2rGt7Wo9a6eswMqZangnV6uL00+tI8l2YxddkNyOe1CZPqWTt3K1gV7MrIn5ntwtuNE7p6UzOiNwdL4nVmls3DLDfxWZqVbkEgkhfA2xELEMpq3qzHl9PIQuFynI1k1WaCeKJ7Yhu7uitZ+ll114PM6HvXZtHV7dDVelTJI1p1HthnMjJjs3pLNTOlItXKcVG3iohOA2J9SpmyRYtCSTuX6CHAHV2H1vWkfntJ2Zjg8i61GyPI4NuUdFEy6HQH0eZnO0tExZAeUvgdEJJ4nN8xW4xP8ZPDjU3Ce9FFo7iTTrs1Rgq+OnkkwWrpcLzSHFuFrzLFUPdJG6SsLVhzJhVutnkgp267plYe0+Qfb5+R8g4cE8e4PIPt7/cePMfWFv1B02dOm5e7L/gPy2BwstLTFewSIruq8w44nTbHsaHOmhGQtVbM8bQ4CCKcvLBE5zO/NM56hqvT2n9T4iVs+L1HhsbncbM3nh+PylRl+rKA5rO0vhnhBY5jHt7yDGwtcG4LPXl3BsYrafZbbaGR0cer9b53U10c8NkqaNxlWtDC4M92Ouaijmja8+JKrHAHjkbHcRtTnTOgdQakpyfza+Ke7HStG+9q+IYKMoP4eUS2IpOv+kPAII3WjXBLQo1/xf0Rou/C/0bIahibl67mNLzjcUybJ5WvI1+7GPdVo24HFxcI5A1z43MJYYxWWyuRzuUy+dzV6xk8vm7tzK5TJ3ZHz5DIZDIWhbs2L0zyfiW3zulfNI1zoy58gjc5pav5K5Xfqn8z/ANpcSinllknkfLK90ksj3SSSPc573ved3Oe5xJc5zt3Ek7lziSSSv0Q1YooIIoII2QwwxxxQxRtDI4oo42RxxsaOzGMa1jB/pY1rRs1oA5I/n+7/AFrkXHH8/wB3+tcivb2HyH2Vz/xH6fYIiIqq1FoQSCBxyQQO7nt5+Xd28u4+/tBPHt5WqJ8xuPaD2PwKf37vt1/Je3PT16jrvTR1QaB1c+3LDpHUl6roTXtZ8kgq2NK5+zVqx3rjYQ+Sezpy3JWyMEoie/tx9gs5delDpzEMjJPhvae5jyHRkEPYWPiDg5r2lzHNJ8BzXOHtw4tLSa4wPdGQ9h7XsIe1x54a5p5aT2/a8EA/Z8/d5U93o93G/rndMWw2uLs4dks7tlpWbLukkHxG5Whi6mLyxf3lr2/GyNeedwPPIe0/aD2uO5vhY1LNLX1DpWxI50NIwZigHfghFqZtW9GCCA0SSiGwwDZrXGw4Dl2DItP8QzQleve0NxEpVuWxkxb0rmpmRgGV9GFt7DPmLdi+V0BycIe5jnmGtDDzCOKJrPULuS13HAPaeCfYHjxz7eFEg9b/AGkq6K6ndO7lY6D4VTd7RVSxkS0FodqfSMrMHcnZ2+AJsJFg45g/tMsjHSDvLipaj8hQaCH3arOR/dTxg/wLgsAvrzYPHZXaLY7WlaWrYtYDcXMadkFeWGWX6pqjTlq+ZHfDc55hhsaXrHvHMfNgcuBcVlbxA4yHLcL9QPdymTEvoZWs8HdzJILccMjhsd+lazN22bsSZOZo2Ou/g31Da07x/wBHxsL2VdRR5bTl5pBDJY7uPmtVGP5tm7jKUqEjd9z6ha0bv3UYVERRq7H3H8ip00T9/H4/d+KJ4+fkfP8AJOV3sB39mwO/0QgkEDuRsPb1+SyS+kvrCTR3XVtIwWPgVtUwan0deBc7tsMymn7k9WFwaD3dmRxtXs5HaHhruQ0Byms9zT8/8x/2KA90U5iTAdW3TZlGOcHQbz7fwyFru3mDJanxuNuxuPjkGrena737gSByTwZ7rD3EOI45I5Hza7tHLTx78Ec8jkeSeSt+fCtcfLonNUn7ctLUcr4mh25bHax9B3TqQI3vY+RpDQDI+U7kbBsQH+ITio63FPSmYjDWvzGjBHPs0AvlxucyrGvc4Ac7xWtV45P+jy2tIaei5kRFs8tBkRERERERERERERERERERERERERERERERERERERERERERERERERERERERERERERERERERERERERERERERERERERERERERERERERERERERFo79V35H+ZeDPUzDndC/UX2Bx7dGVXO7eQQxuocN3k+3LeGu7uPcfIjyveZ9j+RXjvr6w7s50Y9SWPbEZHO2n1PcaxvHd34ylJlAffj7L6XcPPnt4by4+fPaujdLpTUsTAS+XT+aiaGglxMmOsNAaADu5ziGtAB3LuXYkhe14azR1+I+gLExa2KDWml5ZHvIDGRx57HOe57iQ1rWtBeXEgANc53RpIgiE8Eg+445/f7efb/fynv44B/AjkH8CPmPvCA+HDgHteQSCCPDiG88ex5afHuP3rQ+x8A+D4PPB/A9vLuPv4HP3eVEd1c31dvWb6pO/c77HoCeU9CNgTsdwD03/R1XB85oHQg7dfYehG4IPbcHYg9D2Knp9EtvE2Okrpulwz4XUJNndAtAhAIbfbgaoyzSGgFkzcmLAsMeGyRy94lAfyvVDgeT+J5H8VGh9I31C9G6C0/D0x736jp6ZxtPK25trtZZq2yriYIcha+s2tF5q3LzFQdDbsy3sZfsvgqyyWbtWadsUVIuks1r1K9BFap2a9utNGyaCxXlZNBNFKOYpYpoy6OSOYeYpGOLJR5Y5w8qVDhnqzD6t0jhr2MsxOlgx1OpepCRvpFCzWhjrPinhJ54w58RfFJy+XKH7se8h2358OPHDjUnDniVqjF52lZjrXsxfyuFykkb/RcxisjYkt07decl7JJBDMI7kXmGSvbZLDIN2c7zyOx5Hya72aXHkA+zQCXfkASfYAlRn/XznxU2sOnGBpgfl4dP7gzW4+5nxjjLGS02ygyY89wiFmK/9U7j9ozzPjBaHuEgnejfTajYPROT11urq/E6UwNCCaRn12w39I5WwyNzo8dg8ZGXXsvkrbw2CpToQzSTWJI4/sl3IiYZfJbh+q1120pcdi7uO0jZu0Mc2tK574dE7O4K3HJanyVqAy16+TycU8+Qlha417mo8ozH0rEtT4D3eA4/5mta05X0DQc25qXV2SxlOjjoOWWxFGy9WmdbnjaS+GMBvLE93IHuc95cI4ZN8xeDrSmQpa5t8Xcv52H0Dw5wOocnmNQWGPgoz2LGHvY+HG1ZX7NuWQLM1mSKFspi9HjjeBYtVGPlKdHDL8HSj04xZNspyEWy23It/GDmzCd2lsXyJQ/h3cftd7SO5nH2gCQDgv8AX7bZdrDpsc74jaTNN7jRxNId2OtNyGlHzu+7vERrB3PB4eAOS14bJTwuGqYHEYzCY2AVsfiMdWxtGuzsDIKtSvHXrwtDTwBFHEyNvHgBvg8ALBf68O3lrN7I7Tbm1q0kw0LrrIYO+8Mcfq1DXGLBbNKfdrG3tO0YGeCPjzxxkBzmg9txlxM7uDecx0XM+TGYnEvl67mSPG26AsuBA9YCCtLLuAAPVedmgg9H4X9S0x4odK56zFHVr53P6ohihLmtZWsalxecrY6FhJDXFlq/XgjA35i4MbvI5qizv/VP7v5wuFczwQ08+PIA58ck954HPueIn8geWkAHguaDwqNJTrxgBoA+v5Aj8xsfiCD2IXJH8/3f61yLjj+f7v8AWuRc7ew+Q+ysf+I/T7BERFVWoiIiJ/8ACPxc1r2j/CY/7Dm/e1/2XDw7wSvROktqOqfP6XxGU0RoPfPJaOtQTHC2tOYHWljBSU4pHteaBxlb9HugFiOQH4JcxpDg4cAheeGRPnkZBG3vlmkEMUfb3mR7+AA2PtcZWdxDC5rHsLyIjzIQwz7ulTb2fazpx2P27txMjvaW220fRyrWsYGnNPxNe3mXMb8Nojc/L2bkkrgDwefhl/e1wzPwZ4Zs4j5DMx2MrkMPTxVKCX0zGtjMstm1IfKge542LPR4Z5Wt325uR2xG4Ornih48u4G4TStmrp7E6lyOoMrchix+WmmhZBUo02Ge9CYGPkErH3a1du5jaY7b3FzgwhQp7Gx/VwCfj7XdQryByTJpXXzW8DknuezHuLGj5uaHFo8gE+F1trfbneDSdOrf3H0fuLgMdJe+q072s8FqHGUJMp8Gw36vWmztIVZrRqMssifC+OzIx8zq7u6KRzLClzfsv8DkMdwQeSDweCAWtB49/wBYDnwSOVgE9eXVsNXarYjQ8b2tkzevs1qiWDvLHiHTOnpcZWkMbwXOY6XVlv7DT+vG15LhC8w5N4g8AMZpDR+d1JHq7M3Diq0UsVK9DA6C1JNYgqsikIf0D3ysYxoike6Qsa1rXEOOA+DHjKznEniXpPQ7uG2m8UzPXpa9jI0r9t89SCGjZuSTRRvqbSFrarm+W+SNr3vbyzQu3L4wjgAeB/8At+C2rc/9Y/u/mC2rUodhv7lI+i0I5BH3gj/fhap5+Xv8vIHn5eTwB5+ZICqOhB9yqO4+Y79vqu8umQO/skNgzGSHN3p2xLO3kOcyTWWEPIA8jkdxIPkfMfI2AzOeR2/Ph3B8+PHJ9z7tcOPu/ioF3RDg36i6u+m7FwxunZLvNoW9MC3u76mKzmLydhxdwGtbHVrzSkOPIax3ALh2qeowfqnjjkAjz8u0A/M/MN/n/LeXwpRubprVEp/yzmqsLBt3MeOqkk9ev4zvsO3y6xKf4iMzXa44dVtx5kGlMlK8b7u5LGbm5HEb7hrjXIa7YA7PHUg8vKiItq1HiiIiIiIiIiIiIiIiIiIiIiIiIiIiIiIiIiIiIiIiIiIiIiIiIiIiIiIiIiIiIiIiIiIiIiIiIiIiIiIiIiIiIiIiIiIiIiIiIiIiIiIiItD7H8iuvN19Kf1cbY7i6OdGJBqrROqtPCNwa4OdlsLeoxctJAP27HPBPvwD947EW1/6j/HP2XePv8Hx7H+Y/kuKaKOeGWCUB0c0b4pGkbgskaWuG3X2E+xc9WxLTtV7cDi2erPDYhO+3LLBI2WM7+zZ7R139nQhVxmQqTY6/fx9pvwbFG7Zp2IC0skFqC0Y5GvYRy0scyUOBHDS1zee4r8nj5hrh82u57XD5h3BB7T7Hgg8ex5Xrzry2tOzvVxvto5tUVaP9XmS1DiGsY4AYfWDXaqohpd9kQhuZjrsAPcGtDS0dpA8hqIbN46TC5nKYedvlz4rIXMdIw7t3dTtTRc7N9ncjwGlncgdN91+krSecran0/gNR1H+ZVz2DxeYruDtw+DJ0YL0bt2noQLBhIB5gYjud08kDuLnlvJJc8cSvH93JD2OYHEDsjljlbMzw7uaR3DvPQ/U11D7aYluE0FvhuhpXERNmhixWE1hmqeNgY6ZsgfQottCvTMje5rnObPYHvHLA4Bw6MRcFLIX8dK6fG3rmPmc0NdNRtT1JHNaeZoc+tJE52x6jc79T1XZZTB4jN1/RMzjMblqe5camVx9TI1uc7AvZBbhliik2A3kiYx526uO5B+y1juBr3cjMjObg6z1RrXK9z4f0lqTO5LPX4qxbyGVbWVszWImSPJD4BKyI88fD7QpPXoX5HQF3YHXVTD4XE4/cXDa/kr60zVUNlyeoMPkqjclpmeeeSP4kWOqhuWx9SrE8RTSU7OScwz2XMrxVGuc0gtJaeQQRxyD8iOfHI9xz45+ayf+k31KQ7AdUeGw2dyDKOgN4atfQGonTuMVGhkjbqnReYl8ODPqOYlfjXT9obXoZTIzWnw1wZhlHgpqtmA4mYXIZuX0iHJGxibN64/zZazsgzyobL5pQ9/+eY2yTGRvkwGYvdySPJ168UvDuxqzgNqfCaciNazgmVdRUcZjWipDcjwrnT2aApVRDXnbJQ9LdVqsj2N+KlyxPle18cz5w7mke4LSOPbnkfu9/wBy87dUmxuO6jNhdytn8oI4n6u03ahxNqT7TMdqWkYslpzInjlwZRzVatNJ2DvdAJIxz3cL0NHLG8N7Xc8taQeDwQeQCCRwfII9/fgHyRzpI132iBz4PHseeB9xLefyJH5j3UlN+lVydG3jrkbZal6tPUsxnYiSCxE+GRh3BH4XuIOx2cAeu2ygvxmUv4TJY/MYud9XJYq9UyFGyzfnr26czbFeZoHfklYx/KQQ4ADYgkGui1bpbO6H1LqHR+qcfLidR6YzOSweZxtlj4p6eUo3bFa9G+KX7QLZoJ42uZ3RuBL2Pc37S+a91Jq9XX0+8jrB17qm2cwpt6iqY+GPd7SuOY1s2Yx2OqN+q63xlWH7Ut7HVMfWxmVqtb9ZyFGtTnEUk9aaSWM4HNJ7Q5vf9r7BcBJywAuHwyQ/lrSXEdvPbHM7jthmLIsuImgMjoDUlzD3GSvpuklmxF07mK5j3P5oi1+7medAJGw2Y2u5opA0OBa6OST9B3BHjBgeMmhcfqjEy14si1or6jwzXjz8JmWNb6XWMfRxpTSc1nH2Q3knryhu4lilYzawEc8j7v8AWt6IvDjoAPcsuk7ndEREVEWo4JAIJBI5DQXOI+Ya1oLnEj2DQST4A5W0kB3aXNDvH2S4A8H58E/qj3c79Vo8uIAK+z2+281luvrHBbfaAwVzUWrdT3YMdh8VUZ9qaa0/sZPPM50cVShC3untX55Yatasx9iWeOId65q8E9qeGtWhlsWJ5WQwwQsMk0ssjuWOOONpBfI93RjQQXH2jqR81y5Ux9Sxev2oKNGpDNZt3LMrIK9WvXjdNPPNNIRHFHBE10skjyGsY0ucQBuvZ/po9M93qW6ndG0L9B8+g9vLNTXW4Vj4YfVkp4W7DaxunW2S4RMOezlRkRrtLppq0d2VsZrU7ksE3JjCOCGsZwQA0eA3sc9vc3gkBr2iFzWEnsAIJ5Xh7oK6OcL0ebN09KNdVymu9UTV9Q7jakiiMLbeYfFHHWxNFjw2ZmKwlbmnSZIO4yi1YcO+3IR7leeAeASPPPAJPb554A8k8ewAJPsBypKuCnD+XQWkIK99jW5zLSR5HLbOEphkdC2OvS8zbZ3ocBML+UuY6V0zmOLHNDYJPFNxni4zcSZ7uJle7Sem4ZMHprdj4m24fN8/IZYRyNZIBlLZDohK1szKdeoyVkczZQdwPhxPjlrh58+fxA5J/dzz8lEQ9areGtrzquo7e42y+fGbOaOx2DsESCaJupdQPdqHNOhc37HdFQtYfHTtZy6CetejlEcgLBKV3z3f0zsVtNr/AHZ1XYhiw+itPX8t8KR5Yb92CB7cbiaxDHF13LZF1bHVI2tc76xZi7u1ju4QEdwtdZ7c3XWrdw9USmbUOtNQ5XUWWla8vayxlrL8g6GMkkhteSZ1M8Hs+HGOwmPtKxz4odWQ0dN4zScM7fTMzcZetxNJ3bjqBZJHz8u/L6RcdAYi7oRBI4AhpLc4eAHh7PlddZviNbrv/hulsbNiMXM5paH5zNRBlgxOdytf6JhxYishh54jlKkm3Zrvj3EEkj/fwtERaKqXRE8jyPce3t7/AC9/H8fCJ+Yc4fNrPLz+DR/fH2H48J+f07/T4+5P1+A7n5LJl6Reinav65dr5/q/xaujqWrtXWXfbIi/RuDv42nK9rQWtBu5Ks0c+GyiHv7Q5pM03jjj8PA/Lx/sUZn0FtrZbOrt6957VQmvjcLhNvMNe92OtZS6zPZ9rS0kCR1fHYR0n2QGxzBpP23dsmdSK+G/DuxfDOnZlYWy5vJZHK+s0tJgMjaNfbdoJYY6Rkjdu7mbIHA8rmqEnxyalZnePGSx8MjZItK4DB4ElhBZ6S6GXMWtgHOAe2TKCGTbl9eIgtDg4kiIs9rT1ERERERERERERERERERERERERERERERERERERERERERERERERERERERERERERERERERERERERERERERERERERERERERERERERERERERERFo7jtdzzxweeOSeOPPAHnn7uPK1Wh9j+R9vdUOxB37bdfkijD+u7sa3G6z2t3/xVV8dTVWKn271ZLHG50f6Z0/zltMWbD2A8TWcLZy9Jj3DsezDQRl4MPaI/BjMfg8jwSO4EEhrxG4tB8u7XuAcW93APcT2gkTveuXp7b1LdMu5e2UNaN+oH4c6j0VK74RNbWOmS7JYVrXuczsGQMc+Ie4Oa36nk7bJC0PHEE7IUbmMv28dfry072Os2qd2rIHiWC7BNJXvRvEgBijbK0B0b+1wkcIgDKQ0x4eJbST8Fr0Z2CLkx+qq4tF7R6gylRoiyDSQNg6eNtayXb7CScsI3HWaHwNcRW6u4TR6Wt2TLmeH1t+IfHI4mV2DuyOuYWZu+4ELN8hioQ5zRGKMB2eHEO/GiItfm9h8h9luunn5EA/IkcgH5Ej5gfML9EMj45PixF8b2SRzRPY8slhmicHtfXewgseHNDo3ct7XgHkcL861a5zSC1xaeRw4DktI9iAfmPcK4Etc1wJBaQ4bdwQdwRtsd+nsIVCA5pa4AtcC1wcAQQfYeYOG3xLT8QeymX+l31sUuqHZ6rpTVuRhZvFtdTp4fVUE0rIp9S4OEQ08HrWjC/t761yD4VDMFrnTV83FI+0yL9I0TYyl/Fje0hrgSQ4D3H2ge0tPtw5ruGuaeHNcQCASOa+TYre7X3TzuZpjdjbXKDCai01YBMLiX4zJ4qaERX8Fl4nkNu4q3WaKk0M4LIZI62Uh5t128TT+jnrG2y6vdu6uptI3ocXqzF1qtXXGgbdtrs1pjJNjj+I74B4mvYCzI7vxecjbNDaZIYZLDbUboY5CeBfFmtq/EVtN5qy2PVeLrCPeeTc5qnXYyOO5DI4nzLkbABkIYw/1m+mB3l2d2ws+Lbw33+F+oLmuNK0X2eHmfuvsSNrRPDdKZO450smNstZzGHGzzPe/F2C1kbd341zmyw1XWfYkzIpmOa9neyWNzDG4EOdG5ji6Jzfm1w7uWvA48g8+QofXrAbadPG2vUNQx2zNN2H1xqDFWNR7uabw81duk8ZlcnLUmwjsbioIwKGYykDJ8lk6EBbWq1HYm1Sx8AuW7LJP/VT1D6Z6Ytj9b7vaklgl/QmNkh0/iJpfhS6g1XeisRYHCQBvMz3WbUJfZEbC6rRguW7BZXqzyRwuto9A7nddnVTRwdy1Zymrd19ZXM/rfUhgEsWGxEkpyepc88vljigx9DHgV8XUfLH8Bxo4WuwiejHN0fiNzdK9TwmgKFGpltT5/IU31Q5jHz4uuJo/LlhcA6SKW9Y8mEOIaw1mWXl24a5vqPA7pbJ4vKat4xZXM3cBoHSGIvwZR7J316Oftsq+fZiuxgshs1cJVkZkXcznyG87HNj2jdYJ843dN6hxlHF5TI4PLUMbnIX2MJkLmPtVqWYrxmZsljFWpomQZGvG6tYEk9N80TDXnDnj4Mnb/I+G/wAfZd554BBDjxzyQ0/aI8HyAQfkrA+jsFtRV2005tBf0FpfPbfaWwNDTuL03qDCYzMUY6FCtBXie+rcryVPrhEDZHWooo5DK+abv+JNID451p6SfQ7rS5PebtRNpK1afLJK7Rmps7hqnxJOeJI8e65Yx1dzXHvYyCiIAQAYXMBacd5Twrajjjikw+ocVbe6CF01bIRWaLmWHRtMzI54I70ckbJC5jHOZG8hoc5oB6Zw0/8A4hmiZ7FmLVOiNR4uBtu02ldw1jH5gT0xYeKb7dS1Pi31JnVuQ2RBPeYyYPDAYy16hZjkkAAknngAEnx7+AOR+8BacgEA8hzuSGhvdJ49yIjwXcfIEAOPjnhTAYPRM6L4JxJNBuddj5JFSfXJjr+fJZ8Svio7Ha7ntPbJG7jntkYeHD0ptn6bvRltJZhyWmNjdL5LLQBhiyWs/rutrQkjc1zJWR6juZGlFK14D2ugqREEAtHPhdXR8Luupp4m38pp2jXLv5r2WLl2Xl6f5cTacDST29eQD37L0GY/xBOEVSs9+H07rfMXA0mKtPRxWNrPcOXlbNbflLUkTCSS50dOydhsIyVEv6aehPqO6pMnVj2+0TfxOkpZGfW9wtVx3cJoegz4jWTSVr1io5+dmijLpZa2Fhyv6hjdC4n4Zld9FvQBtH0b4FtnBQf1WbnZKq2vqbcjM1I2X5g4Rxy47TVN7rA05g5Owl9SK1av3Gv+Nk79uZ3EHuarUq0a0FOjXgp06sbYIatevHXrQwxO+G2GKKvHHVijYGOaxkTQxo7e6FzSA7xd1P8AqC9NnSq92J17q12Z1qYmzR6A0jDFmNUxwyAmOfJtfYio4KKdvcazsxdxzrLGSyV2yRRSSR7AaQ4VaA4R1nakzWQr2MjWZyP1BnJYq0FPn6OZi63NK2CSQeoHs8y5I31WOYCWHS/ib4iuMviSuM0TprD3aOCtuLotHaVZZv3cnFE6Mxvz2SjYye9Wh5mufFK2jiofMa90BkbE9nuYPazgOIHJDe4u5LyTwPL+DwCfkT4BA8+Dw/FjcDw7nhpdwA4u7eS0OAALuHEH4bgCHgF0Zc3yo8uS9fjSEN58WK6ctTXMQJnsjv5DcPG4+9JADw2WXGVdLZKtE7tPd2szEvB8dxAJPX3U/wCtfjtfbM3dJ7CaR1hoXcXU8NrG6gzWqP0VKdIYCeB1e9LgJ6Fy39azmRdK+CnddBSixtKSSzH2XGwti7a1x64WV6d6zBqetelqV3zNp14LrLFws2a2Cp6VVrwySyOIDf5gbtu71g0hecxfhC4/3slh8fa0JYxdfK3IKj8rYyOGsY/GxSgPku5H0LJ2bNaCCLnleJIRJI6M14mvsyRRP6y9Y7rXqbpaurdNO3OXbd0Nt9kocnuBmaU7H0dU65g+JBWw0MsPFexR0yJZbMr2vfFYzUzH1nzR0Yi3BmPz4/39vHK3ySOlkmmmlmnmlsSyT2piJJ7Essj5HWJ+4uMk1yeR0007j8RgHHh3AWxR8a41bkdc6lvajyh/n2iGV4ASY6VGMuFWnEC538uKM8znuPmSzPlleN3gmZ3hVw1wfCfRGF0Vgm88GMhc+5fcxrJ8rlLR87IZKyGk7y2ZneqN3CCuyCmx746rXkiIvMt7D5D7LIqe608OHu4dwbwQ4Ru4kaxzSxzi0A8SM+1yAxx4cWlpA19vPPHHzPsPxK9bdDvTvb6m+pTbjbMVp36cblY9R65nDO9tTRmEkgyWVgfISGROyDo6+Ghd3FzbF6Jhb4fx2eGxVvOZbHYehGZrmTu16VeMBx5pZ3hgJ5fW5WjckDYnsCCQuk1LqDGaU09m9S5qcVsXg8Zcyl6Zx25KtGCSebl9VxdLIRFXrxgby2LETG7ucGulZ+lxso/ZPo822o36X1LUev8A63ubqNvYYnNsareyxh4JY3Dvjkp6ZgwtCWGXtkjmhl72sf3NGRdfgp0YaMNWtViZDWqQxVoII2tZFDXggbDDFFGzhrGRtjjaxrRwGjxx8/3qWfT+HrafweIwlTf0fFY6pQjLvxO9FgZA6R3QbumdGZnkABz5HOaA1wA/OLrDU17Weq9SatyX/wB9qTNZHNWW9/LkyNqSz5IO52ZAyRsDG7kNbGA3ZuwBERduvOIiIiIiIiIiIiIiIiIiIiIiIiIiIiIiIiIiIiIiIiIiIiIiIiIiIiIiIiIiIiIiIiIiIiIiIiIiIiIiIiIiIiIiIiIiIiIiIiIiIiIiIiIiIiLa7jtdyeB2nk/cOPJUQn1guk1+ye+Um8OlsS+Hbrem3czdj6vA5tHB6/Z2nU2NIj5FevmDM7UWJhexkck8+VbA54pRtEvZ/d2O7QC7td2g+xdweAffxz7+D4Xnfqf6edMdTuy+r9n9WNMVbOU/rGEzHDH2dO6moB02Dz9Qnvf8ana5ZOxvHx8fZuVi4fF4WM+LOg4uIOj7uIYGMylXe/hbDtwYshCxwbCXAbiG7G59OxudmslEu7TECs7eHXi/Y4M8SsXqKV00mnb4/g2qqcW7jNhbcsbn2ooxvz3MTZigyVQbB0j67qzXtbYkKgFP7WucOR9ktDuCD29zS9riQT/a3fqNk/8AszKRAHGYhh0912RvLtHrTY7cvVW124GMkxWptI5W9jrMTo/hw26zpTPRyOJkDnxXsJmKhr5arYjkkjMfM0DnMLSutm+zR78t5HHkcNHnkjwD+BIJ+QKjBtVbNC1Zo3YX1rlKaStarytcyWCxBI6KaORrg1wLZGkDdo3BB26qfjH36GWx1HK4y3BeoZGtBbp260jZq9mvYYJYJYZWEtkZLE6OZjh0LJWEbggnVERcK+pagn2BLefHIcWEfiHhrywj3DgxxafIa4+D2btFvHuNsXrbG7ibXaoyOldUYuVssVmk9nwLjXS99qnk8e4Op38XZikfC7GWnT13BhIdAZAV1ii5qtmzSswXKdiapbqysnr2a0jobEEsZ3Y+KeMtljcNz1Y9p2J96+LI42hl6NrGZSnWyGOvQPrXKVyFk9azBJsHxTQyBzJGO2G7XAjcA7bgL3r1m9fm5PWjQ22xOscNi9J4fQmL77+GwlizbxWd1rZ+I27rBsdvslpRuoiPFVsTI6d2PjntWWZK6yxNUOdL0Zuk+DafaCbf3U9H4eut5KtZ2BbYa1tnCbe1ZHGgyMMdIIxqmy39OWO7sk+q1cPHKI3QTMZE5aeHNJ9gQf7r5H/oOY7/AOF7Xfc5p4I9jbAdevU/01fUKW3W5WRsaWqOZEdDauEmqNJmtE8OjirUMhK6xiGSjukm/qet4R9d/ENaSSJzpW5g4e8SMfjuIDtbcQG5PO3TUEFXIQiCWSlZbGK8Vh9QmESshqmWKJkPL5Zmlk5XSEOGs3GngPl85wYbwp4LvwOjsXHkHW7mJsm5DBlaBtSZKTFRZCMW56xsZJ8dmV9iKZk0daCo6aGswxPnZBzR9p5IB8gkHgge/J4Py+R4QuaSOwj7/Ht9/ufH7vwUcXaz17qjoatTenY65HOBCy1nNt9QV7bZSwgSTjT2o/0eIO4dzvgx56cHwwv/ALoe29Mes50RZ+CKTJao1tpOw8B0tXP6GzEz4XH3a+fT4zVUhp57ntncwAck8e27eI4y8Ms1Gx9bV2Mrvc1rjBknuxc7CeXdrmX212FzSSP5csgO3T4xS6i8MHHrS0skV7hrqK8yJxYLWBrx6hrykEAPjOGluSiNw6t54mvAI8xsZBaMr/J9yfbz5+Xz/wB/ktj3Aggu4JB48E+4PHAHPJPyA91jam9W3oPhg+ON47Ex7XOEMOiNbOmdwCe1rTp9gL3ezR3t5dwO4A8jpfWvredIOAgmZpnHbma8t/abHDjNMwYWs4/3Dpbeo8hjnRwuPAe+OnalY09za0zh8J3aW+KHDqlGZp9Z6dMbRzHy8lWneSCPVbFBJLM4n3Mjd7B3C6LH8A+NuUnFarwq11zuA9azpzI0IW9ty+zkYatVg6nrJM3t2K7J9UTrUtdJmzlHE6Ftw1t3dzjksRo2xyJptOYmpBAM5rBlV72Rz2ce65WqYpjpWF9218aNxhpXZq2IXoF9MPO9WNX+yD6jNQajx2g9Q5SXIYnHQ5Cw/Wu48ksj7OQzGV1FaZFax+Cs3+1sd1tZuUzokszUjQr/AFeeTyJ1VdTlvr76n9AZ12mpdDaevzaO20w+n7mZbmZq1C9nnR2MheyMFLHB1i3byhfLBXrCGJjI2mSZkfImnaP0zidGaW0to/TtKLHYHS+DxGn8NQgj+HDWxmKx9WjQhjYeziOOpWY0l4Mhn5kcA4knCuCr4rjfxDzmays5y2h9GurUNO4pxkZQyN6dp8zJz1nOikdGfItScskcRfHLVc4ugjkZLtFq65qDwocFtHaX0/XOneK/E8X8trXUcRhkyuHxdKSEw4TH3IXTxQSV2244GPryyPgmhyFyEx2LUc8PkrFem10UYjDx4aLp70Pdrtrsilt5aLIZbJWSwdpms5K/fmtOnkb9pzowwBxPaW+FjV60/Rj0Ra0vntweliO3p7UuIq2svZ2tyF839O6gZGDatx6au5R1q/iMq2CF5x2Ou3bVG5adDXjuYsESskJj2A458e37vZcDmuAc4j2BI9vskA+QByTwfPgE/LgrM2f4Y6F1Di5cZc01iYYnRFkFihQqUrlN/KGsnq2YIWyMljA3aXF7T1D2vaSDrDo/j7xd0VqOrqTG651HesiwJb9POZbIZjGZSJzuaevkad+xPHJHN2MjRHYgID600LxzGuSuV7NKxap3a8lS9RtT0LteaGSCavYrSGGWCeGVrJIZo5WujfHI1r2va9pALXAfkWQ/1T9t8Ltj1sbsYzTtaGlidSnA63ZRqxOZFWu6mxFe/kmuBAa0S5QZK+Ph8sY24yMkOHaseCjB1LhptO6hzWBnkEs2IyVqg+UNDWzejyFjZmN5nFrJWgPa1xLmbmNxLmEqe/Quqq+udG6X1hVhdXh1JgsXl213HmdWfdpQTTVnO2aXurzvki8zkY2RrWva3lcCSe3kkAfMk8AfiSfAH4lPJ8AEk+wAJJP3ADkkn5AeT8lqAHcgdrgCQ4cgjx+sHcH2A/W58Ac88Lqgdmj/AOO/u7Dc/kO/uHUr1Y+JAG43cd9hudtzsCdvkCfcCVoQSHDx4JY/n2jeO0FkvHmN4728xv7ZOHNIb5HMuX0cOk6XZXZSxvLq3Fvpbgb1Mq36Ve9B8O/gtAwymXD0JGu5kryZyUDOWoZPhzEPoRzxRywPjZhM9MXoryHVTvPRz+qcfOdm9tLdPLaxtTQFsGfyLSy9iNHVpHFptTZcmvYzc5Y41sPWcS+M2Kwlme06EGPgrVKUEdWrVhgrQQxNa2GCtWa2OvBFGDwyOGFjYY2gcNaPA8Djcbw0cOZDK/iDlIC2JrZ6WnY5WuBe5zjBdyTWOb1ZyCStXkb6pJldu4saY4y/HhxvgbUh4Madtc9maSpktbzQShwrwtEVnF4GR8ZBE8kkjclkInczq8VfHt6ut2Iq/wDRREW5ii6RERERERERERERERERERERERERERERERERERERERERERERERERERERERERERERERERERERERERERERERERERERERERERERERERERERERERERERERERbX8lrg39YtdxxxzzweOOfHv9/j7/AAtyIg6EH3LE56nPQBF1X6FZr3QFCtW3x0Fjpzi3sELHa509H8W5Y0jamkfA034ZviWdOW53xtjuzSUZZG0r83wIeWWxeSwWTu4XM0LOJyuOu3Mdkcbery07lS5j5ZYZ4LFew2OWGaOWGWOSF7RI17HMLe7kKxvdz2u4454PHPtzx458jxz7+R+Y91hL9Sv0xIeoKrld7tksbTxO9FGkLGpNN13w1MfuhVx8Ha2Ts/tFWrrKrVh+DRvukiZn2mtSyr4X1mTT6vcdOC7tSifWGlq/NqCKFpyuPZt/zeCFgjbYgBG78lFG1rXMJPpcMY9Zs8bBYkB8Inikj0K6pww4hXnM0fYmczTedsPc9mmbc7gPQLznElmBsTOD4pWkDFTPlJYaMr30Imn8f3An+PHsPxPj8UX781iMtp/LZPB5vHXsTm8Pdnx+Txd+rPTv0bVaw6rPDcpWI47FaSOYFpbNGw9p+IOY3Nef5jHtdyC5vc0NJHcASHEBpA55d5PB7QePnx7rRJ7HxySRSNcyWJ5jkicC18cjCWvY9p2Ic1wILSAQQQeoKl1ie2eGOxC+OSCWNksUsb2vjljexsjJGPa4tcx8b2vY4EtcxzXBxBG/IiIrVci2uBIAH3/7VuRFUHY7ri+GfvA/Ec8j8R491qIz/wBHn++PJP8AMQfyI4+8LkRWljT3aN/fsN/oe4+iu53b7gkfAdj8wdwVxfDPn28gg8hvB8eR4ZyOfvB5+fPPlb2At8ENA5/uefHPzPPv+PHn5ALcipyN9m//APRPu9hJHs9yoXEgtPYjY7er0/8A12923Xfp0X9PC5a7gMzic7jZPhZHC5OhlqEvn+13cbaiuVZPHn7E8MbvHnx48qfN0x766U6kNltC7u6VuVrEGosRTky9OvOJn4PUUFWCPO4OwQB2TY7JCWB4AMcrQ2SGSSJ8b3QBwe0h32vBB+x29/jz9nv+x3f3vf8AZ547vHK9W9LXWZvf0iahtZfa3PQSYbKPgdqPROejsZXSuo/qo+DHNch+JUs17zYXPdVyND6nkGP4hlt/o/vxs2buCnFKDhxl7sWVisT4HMsgjums0yT054DIIbccIc3z2csr2WI92vDAx0Re4OYdTfFR4ebPG7TOKn03PVqay0tLakxIvSCGnlKd8VxdxM9khwqPldVhsVbTh5Mc8IgsGOC06xWnm/Gb49uD45B5H5DgHk/9Eeflwv5uYzmJweIymby2Sq43E4ijcyGTyVmVkVXH06Vd9m3asyyf2uKKrXjfPK6ThscbC9/DQSo62H9fSgcOz+qLpzuP1B8BrZDiNcwjDPna37cjGXsE6/WhkeBxWM9xrWfZdM7y444urf1Pd/8AqqxtzRbxj9tNrrLmmfRulrdyS3mmCRx+FqbUNgC3l4HMc5slKvXxeMc1zmtoB5+MdqM/4jOHWLxU1rE5CbOZIxO9Cx1elcgL5iwFnpU9uvDBBExx/m8rpJTsWxxPdvtHrpLwTcbszqCDH6jwlXSWFjnaMjnbuUxF6NlcOAcaFXGZG5YuzyDcQMEccO5DrM9Zg9bozrg34qdSPVBunujie92nL2a/Qmk5JXO/tumNNQV8DibTGhrXAZKti3ZRvxY43MFkxzNjl5YPJ/7ifwAJJ/AAckn7gASfktgHaxjAPsxRxta0N7QxrOY2xRBnJIDHOee7y725Ljwt5BHPuAOAXDkNDnfqt+IPsh5PHDee7n5cqPbMZS1nMtkszeLXXcpet37PKTyCWzO+Z0cZcOYxRh4YxzgTyjqXd1M5pXT+P0rpzB6YxEZhxeAxlHDUGvIc/wBFx1aKlWc9zQ1rpJK8EMkpaOQzvlDHEDZuoDieGgucCQPhkk9zR3EBzOeHAfjyD+PhegumPpt3C6qN1sDtbt1SbJYtSunzOoLcEhwmltM15om2c9k7DO1hh7pCysHPL8ha+FQpMs3J4a8nD059NG6fVPuJQ252twhu3Z3x2svmr0c8OmtI4maZlWTLZ6/COK8A73Ohby61ekYauOr27j4675o/R70fbc9H22lfRWja36R1BlHVslrjWd6GBmV1NmxEGyvcYy808TRf3x4jDwyPqUInF7XTWp7lqzmXg7wfyGv78OTyMc1TSdOZjrdwAxyZJ8LuuOoFwIc4vIFqwPVrsAILpHNY3W3xMeJfD8GsHPhMJNVyXEjJ1dsZiyWzxYKG00cubzEZaAwRxgupUiRLdkc3Z0cDJpW9idPHT9oXpp2q0rtNt5RdBhtPV2m9krIZ+lNQ5ectmymdzE8Tx8fJZC66SY+HRV6/bRhDa8MLV3wiKRilTq46pWoUYI6tKnBFWq1oWhkUFeCNsUUUbR0axjGNa0fD3qEXJ5K/mcjey+Vtz38nkrU92/etPMli1asyvnnnmeernySyPcT0A32AAAAIiL6V8KIiIiIiIiIiIiIiIiIiIiIiIiIiIiIiIiIiIiIiIiIiIiIiIiIiIiIiIiIiIiIiIiIiIiIiIiIiIiIiIiIiIiIiIiIiIiIiIiIiIiIiIiIiIiIiIiIiIiLa8EtcAOSWkAePJIPA88D+J4W5ET9PiO4+SxhddXpp7bdXGPuawwZpbfb20qjjjdZQQ84jUL44XMjx+tqNaJsuQiEYbBWzcAbmMfG7ta+1RZJjZ4km+nTxu70260t6H3b0hlNL34JJYsbetNJwOfqRykMyeAzEfxqGQrTsAeYobj5a4PbZZCWkCwXcOQR78gjg8cHkfPnkfxBC6k3b2P2v310rc0XuvovD6y0/bbL218pCTZoTSRujFvE34nx3sXdYHB8NqjYgkjkZG8k9gAwJxQ4D4HXb5cti3Q4LUpaS60yIihkjtygZGCJv+b03FyJrpy7YzNlG223/AAA8XWruELaum9Qx2NXaDZtFHj5JgMxgYebm/wCRW5iI3VWOJP8AB7b2UiHONeSo8lz69rkfiDwHdpBDw1x4a4sIDw1x9nEAH3B4K19//r4/nWfLqt9EbXmkxkNXdMGdfr7BsdYtv261Lbp0NXUI+5831XAZkux+Dz1eFg7IIcg3E5MuDI2OyMxDX4Odb6E1ptrqG5pTcDSmoNHakx8j47eF1FirmJyEJYSPifV7sMT5K7yOYrMQfXnbw6CWRrmk6P6u4fas0RYfDqDEWa0AfyQ5FjfNx1gknlMNyLzIHcwG4jfJHO3f+bDG71VLVw34ycOeLFCO5orUlPIzmETWsNO8U89j9g3nZexU5FmMse4t8+FtinIBvDalBJb8mifNw8ctHJHIJ7fcuA9yxo8ueOWsHJcQASh5HHII58jkEAj5EEgA8/Lj3Xiu43HUdOvs69uvx9iyeOp2HUjuB3Ht7d+3VETj/b/m5RERERERPZPccjn3444PPP5e/wDmQ+OfB8Ak+Cfb5eB7/gPJ+QQ9Bueg956Dtv3Pw6/JP67fX3fNbu933/5v9g5/h5+5ad3PP2x4BJBcR4A8+/H8FoeWkgeXNPHaOCSQO7wB+sAPLnDlrfPcRwV6G2G6Ut++pXMtxOzu3uV1JD3xttahmjbj9KY8ySNjc/Iakvy1cXFHBz3zwwWprpja8QVZZeyM/dQxeRy1qGhjKFzI3Z3BsVSnWmszv7EuEcTHv5QNiTy7AdSduq6rN5zCadxtjL6hyuOw2Kqt8yxfyluvTqRN3AHNPZkiiBJ6NBfu49ACvPIcAeeeCHlgHs8vYO9zWtPBcWt+07gENHkkBZEeiv04N5urjL0M0+ta2/2hrz/Dye4eWpPEeQAlabeP0XTnlglzFqWD4jPrnwjVrTuYX2oWjvGaXpJ9FvbLa6fF626hclX3Z1nV+DaraQrNkh27w1hpZOyO5HZaMlq2WvM0AMvfUMJyC2PFPY4yuzaY/F1cVUqY3GU6uPxtFkNenRpxRVqlOpXaxsNerVgY2KKKNje1rIxEGcccPbyHbV8OPDPZnlgy/EI+j1mFk0em6k3NNMAeZn8TtwPayONwPr1a7nTb+rM+DYh0dXHLx146pXt6a4Mx/wAQuuaa8+tb1eSPHVifVkdg8dahZPclBHLFdyFdtaIgyxVrTHMlHSPTr007V9MGgqW3u1Wmq+HxzPq9rM5iVzZ9Q6pzEYYyfMagyYZHLbtS9p+DXa1lGrCTXqV6sRdG/wBCIi3Mo0aeMqQUMfWhp06sbYa9avGyKGGJgAayONga1oAG52G5JLiSSSYwMrlclnMldzGYv28nlMjYktXr96eSzatWJXFz5Zp5XOkkeSe7nEgbAdAACIi+tfAiIiIiIiIiIiIiIiIiIiIiIiIiIiIiIiIiIiIiIiIiIiIiIiIiIiIiIiIiIiIiIiIiIiIiIiIiIiIiIiIiIiIiIiIiIiIiIiIiIiIiIiIiIiIiIiIiIiIiIiIiIiIifkiIi2OBLXNHguafPJA7iOPcfaH5jyPcHldS7p7GbUb2YR2nd1dvtKa5xXLvgRZ7FxW7NHvBa+TFZEOhyOImcCXGbGW6sgee8OMnDm9uouCzWrXIZK9uvBZglbyyQWIYp4ZGnu2SKVj2SNPta9rmn2jqd/qpXruNtwX8bctY+9WeJK9ylYlq2oJGncPhsQOZLG8EdHMeHNPVpB6rBTvZ6Fux+qzcyOyuutUbXZCWWWxXwWabX1lpSCWQFxjqNtshzdCPvIa14yFx8TftNY5wAOMXcr0WusbREliTSmP0RuhjWPd8B2k9TVsPfmibyRLNjNR18A7625v6leO/ahdKQxxc0lTED7H/AFcc/wCfx/HwuNzSeR2g+OQee08/9LgHkc+/uD9xWHs9wB4Z5175v4NJiLDwd5sLZdSAJJJLazmT1IwSfWbFWY07dG7k77O6P8ZXHjSMMNV+pa2qqUHRtbVuPiykrmgAASZOJ9PLy8oA5DNkJC3qB06KAxrHo16qtAvsR6s6ft18eys9wfch0fl8pjmtZyXyfpPEQX8c6JrQXOlbadG1oLi7tBK6SyGh9a4p748po/VOOewkObe0/lqhBHv4nqR88fMjkKxRcx54HAIBB/W4+fng8Ej93afxB8r802PqWG9tilUna7nuE0EU/PPg8iZjweRz8/I8ErGlzwoYV7nOoauyVZh/DHax9a25g37GSOWlz9PaIm9fYB0Wd8Z/iLamijjZmOGeDvSho8ybG57IYxjj03Ir26OVLPft6TJsfae6roW4XMOd2txOTc727W4+25wP3FohLh58eR7+F9VidrNztQPZFgdu9c5iWUtbCzF6Tz150j3kNjZGK1CXvke4hrGN5c5xAaCSArCcabwUbjJFhMNHKPtMkjxdGOUOHkOEjYQ5pB4Ic0hwP2gQQF/RZVZG0fDghY4fcyNpPy4Jaw+OPcfP5kr44vCdTBBm1pZezcbthwsTHkdN9nPyMgHtAJaQO5HsPY2f8Rq+WEVOFNSOTb8VjVs8rAfZ6ken4CQPbtID7huoLOhvTy60dwpYm4Lp71/UrTMa4XdVY+HR9ItfwPiPsaot4YmIA90hh75QzuLGl3APvjan0LOoLU8le5upuHojbTHSNjc+pjDe1tqZgJHxK3wawwuDq8t5a2YZjI/Ddw/4UvHa6VmGOPPIaPmAPHn5jkEe/nyGg+T5+a5eD4PsRxzwSeR+Z4/f/rK9nhvDJw9x72y5GTNZp7f9Nm82nCT0/wBOOhqz7f8Ab6U5vsO+5AxZqfx78aM1HJDgq2l9Ixv2DJqGMmyd5jdwdnS5qxbpyfEnGR7Ec4aDsRih2N9HXpK2ilo5jUuGy+8WqKTmSxX9e24v0HDO3sc6SrpfDRY7GEfEaSG5MZUlvDZXSguByg4PTuG0zjqeF07hsZgcNRjZBUxeHqV8fQrQxlga2KpWiigaO1jf1Yw7weSXEuP99Fm3BaW07pmA1sBhsdioSNnCnVhikk7EmecM8+w4kAufYlle4gEuK1S1fr/Wuvrpv6x1Tm9RWeZzmfxK9NPBAXd21ahcKlSPbcCOrBDGAduXYDbQ8+OBz58/gFqiLv15BERERERERERERERERERERERERERERERERERERERERERERERERERERERERERERERERERERERERERERERERERERERERERERERERERERERERERERERERERaH2PHvwfmR/nHkfmPKItpkYDwXBvPaB3cjku8NaCeAXn5M/WPjx5CfEZ9r7Tfsc9/n9QDny7+9Hgnk8Agcg8eVjN9YfqW3Y6O/TZ6q+pXZDK47BbrbVaJxGe0blMvh6OfxtTIW9aaWxE77+Gvtko5ADH37sEcVhksLnlhkBZy5VcG730hL1gd6n3mam63dztOUbo+E7FbZ19P7bY9sZqvqH4LdG4jC3IyWuMve+6+QSvMgPeOCRXKQe08/rDhwae5rmjkta4cFwAcPtAct5AfzGT3tc0blhN+jua51tuZ6PnR9r3cPVmotd601Pid0MnqLVurMxezuoczfdvXuHEbOTymSnnu3pHQsAifPO4wwsiibGPhtYM2SIiIiIiIiIiIiIiIiIiIiIiIiIiIiIiIiIiIiIiIiIiIiIiISACSeAPJJ9gPvKc/5vv8f7/miIi07hzx55548tcAT293gkcEce5BIB+zz3eFqiIiIiIiIiIiIiIiIiIiIiIiIiIiIiIiIiIiIiIiIiIiIiIiIiIiIiIiIiIiIiIiIiIiIiIiIiIiIiIiIiIiIiIiIiIiIiIiIiIiIiIiIiLCd9Iu/Yu9eX+TDAf0j6NVNy33H5j+dXIv0i39i515f5McD/SRo5U3TfcfmP50RXDv0aL9ib0Q/wCLe5v9Ne4yztLBJ9Gi/YndEP8Ai1ud/TXuKs7aIiIiIiIiIiIiIiIiIiIiIiIiIiIiIiIiIiIiIiIiIiIiItD4BPHPAPj7/wAPAJ8/kfyWFXqc+kG+k70n6v1vt1uf1PVbu5e3edyumNX7f6E0NrvV2osbncJc+oZXFTWqGm24EWalzmsAM5HFNJw+Cd8AdM3NUeSCB78Hj39/3EH+BB+4qk19Ygt/4Uz1AmtDWgdVe8wa1rOz7J1jkmhna0gENMbXd73uPPDg0kcIqgb7/Ab/AG+BVo76bfro9JPqn757nbLdMem912P2q28h3DzusNe6dxOmMRep2NWUdMwY3E0o81ksw+aaS2zIOfbp1mCMOhe5ko4Oa5Vs/wBCVAHWj1i8eOembA+T5JDt08A5vy+bWk+T4/PwbJhEI2O3y+3yH2RERFRERERERERERERERERERERERERERERERERERERERERERERERERERERERERERERERERERERERERERERERERERfL64sT1NFawtVZ5atmtpbUFivZgklhnrzw4m3JFPDNA+OaKWGRrZI5IZGSse0Oje14DgRfSh7Hc9ru7tPa4DklruA7tcAOWu4IJa7ggFvIHcOde9p+fuAR9xBPA4Pt5Pt58/LkKk6/4ZL1VgC0+ob1dFvHYD/Xw12CwCH4TXQtOXe2BwjDI5GwGIudHG5sxI+I2wc+iX9TXUP1TdD2+Ou+o7ejczfDV+L6k8lg8ZqPc7WOY1flsdhm6B0haGKpXcxatTwYuOeaWxDUaT22ZpCSGEOaRSq0RERFt7m+PI8gOH4g+AR+Z8D71qeeDx5PB4H4/vIH+cfmFU2+st6o3qLbNeqF1t7X7V9bnU5oDb7R++OocVpbR2ld39Z4PAafxrKFBzMfh8XTy76dGhGJny1IoWxurTPEjGxyMa5pFbI97eeOfPjxweftc8fL58E/gASeACRuVfD9Es67+szqt6699tH9SPVHvlvlpbTvS/mdSYXTW5O5Gp9S6cxef/rnbbY4Zuphcjcmx/wCkxjblurUuGs2xBDayLXPjdOz4lg8iLCb9It/YudeX+THA/wBJGjlTdDwR+YVyL9It/YudeX+THA/0kaOVN0ASQAO4kgADkkknwAB5PPt48/ciK4c+jRkN9E7oiaSO5um9ze5oILmn+vXuMOHNBLmu5/uXAO8g8cEc5wM1qbTem4PrOoc/hcDXIJ+PmcpRxcPgEn+23Z4GeACT9r5FVGe1f0jnrn6begzY7oW6V2aU2Rwm0+A1hh8tu9TpDU242qJdU601drGexim5qvNp7SbKTdTspwOpYzIXGPoid9qJzw44cd2eqjqT35z+R1TvPv5u9ufqDLzTWbt7Wu4Gqc6ZJJnOeY4697Jvq1IQDxBUqQirE0tjgjgaAARXktPe/ZjIWW0qG7e2ly493a2rV11pieyXc9vYYYsm6QOLiAGlocSQACSF2RXt1bcTJ6liC1BIxr45a8rJo3se3vY5r4y5rmub9ppBPcPblUFFXN5mlZFqrlsnWsDl31itetRzE8FxcJWThziOOTyeORw4A+3vvpU9VP1BejHUeLzmwXVHuxp6pjbUM79GZnVWV1ft3lI3RkOp5XRepLWSwLonxt+GX0KVW38NzxDbhfw4lUDf9Pf7fl8ASruIuaOASByQ0c/e7ngfvI4H3nwPPhblEU9F/wClE7S9ceo9N9N/WJh9LbCdSWXMVHR+sMZZlpbR7rXGGu2ni4H3X2JdFayuyWLJq4DJ3J8NkLEbIsRk23bENJS6g4H2PPgHkc8efbz7e3n39iD7EElRaraHtPHB55HPgHwOQPPj7J8+zuD4ceOGu4PBLXBp4cWuAPnwSCAfsuYfB+57D9zmnyI3n0pffze/po9MBu5vT7uzuJszuFW6idqcJDrPbbVmY0lqIYbLUtYnJYmXK4e7Uty4+98Cu+eo8yRyiuxr3NPBJO6kiFwAJ59vu8n9wHJJ+4AEn2C0D2n2cD545Hkc8kcE+wII4IJ5BIB8uANJ8PWT9VskD/hDuroc+OW746/a4c/MOZnmvafucxzXA+WuBAKt9vTx1NqTXHQh0a601fnMxqjVeqOmnZfP6k1Hn8jby2bzmay+3uBvZPK5jJ5Gxau3b+QtyyWrs8liZ012QS9xaHORVII7r2aiLQ+QR59j7e/7vx+5FRO4e/Pjjnng8Acc8u/vRx/fcfd7p3D7/u8/I8+3B9jz8uD933hePPUF1RqTRHQ11d6y0dnsxpTVmlunfdzP6b1Lp2/Pis9gM3idFZm3jc1iMlVkis0MljrMcF2jcrSx2atqGKaF7ZY28VAH/DJ+qzx59Qvq5I7SHRu3w146N3DmtawMObI4iHcB3jtcGkHuBBJVAJ7f32/r91dgh7HEgOB4IBI5IBJ47Sfbu+9vPcOQSACOdyjifRcd/d7upf0waO6HUFuzuFvTuJY333UwkutdydU5jVmof0PhjpyLF4tmTzV25cZSrtdM9tdsrYAZHgRDuIUjpw5aR94I/wA35t/nH5j3RUW3vbxzzwP+kC3x2h5P2gPAafJ9geWkhwIAyMHu4A/Z8HwftENaOD55LiGgcc8kDjkhRZvpNPq1dW3pb6G6YXdK9zQuJy++GT3Rx+qM5q/SUWrbONGkKei7GMkwda7koalSbuzuQPdNBbiDhH8SKVgDDAV3r9dL1Zt/n2Wa665t7sfjrbZmvwW3eohtfhe2xLWM0ElPQFXTUc0JNYTQ/WzcfG1zmGXlx4DqQPerg0n/AGP9P/fwVzhfz+CxcQnyeaxWOhLi0TXsjUqRFzfdvxJ5o2dw9i3nnnxwvk7G7m1NRxZa3N2+rPHvHPrLTkUg/Nj8k13P4cc8+PdUVmpd9d79ZWJLesN491tT25ZHzvn1HuJq7NTOklJL5XvyeWtPdJITzyGt9w4EAePhZNUannl+JNqLPTyc8l8mXyUryefZ7nWe/wA+xIIP3eVfyH3hV5D8Ovz/AKK+yxWqdM54NOD1FgsyHt72fovLUMh3MPs9v1SxLy3/AKQ8fiv7Xezjku4+XB5BB47uCCAQQ37RBA7W/aPA8qhm0fvTvPt9koMzoPdbcjR+TqSxTxX9L631LgrTH1pWSRPM+KytZ7mCYMDC97mvfw1gc7wpD/p6fSmPUN6Q85p3Tm/OrrXV9sdWtV6mXwW6Vp9rcvHYoTQsmtaV3LLpMvPk6NMyup0tSSZWhLIyCKSzAw94ch+Cpyn4dv6e7f3/ALnYEK17D2kkDnkEAjtcD554PBH6p4IDx9kkEA8g8bl4u6Feuvp49Q3YDSvUR04ariz+k80f0fm8HdFevqrQmqK8YOV0lq3EskL8TnKj5RKHD4lbJY74V6g+SKYOZ7RVitRUmXrDD/0p/X/956rd5h93/wDWeU+/wPdXZqpNPWFB/wCFQ6/v1fHVdvL+tx2+dZ5Iju/6PDhz+B8/NXs2JIIB6e3+/ir2dz8v3CkafQmPsdZ/WF38MLumbTwAcQ1x/wDOdp/j7J4dw74je08cP5+yTweLJdUSmwPVT1JdKOdzmqOmrfLdPYjUWpcOMBqDObXazzui8nnMGy/WyUGLydjB3aTrdaK7UhsCKZ8jfHAb2l7X+pz6yfqtEEH1D+r3ggj/APjnr35//wC7VzmbnpsP0+yOG5B7b+w/Qfv+m/uV2GSACSeAASSfYAeST+S0D2k8c+QeC3z3e/HPbxzx8+7jtLeHA9p5VJ6PWS9Vkdv/AKQ7q8+yQfG+evgTweRyRnAf/hLT+I91nm+ja+o318dR3qx7JbW779YPUVu3txkdGbsZTJaF15utq7UemMhexGgcnNj7t7B5HI3KE9inOGWo5pa4k7ow8zMP2hbyH3j9f6KgYT7vz+Xu+as3ieAT58DnwCT4+4Dkk/gASfktoe08kOHA9z8h4Dvf2/VIPP3Hn2WrueDwATweAfYnjwD4Pg/PwfyKqNfVK9VL1IdqvUc64tt9ueubqh0boPRHVHvLp3SOksJvLrWrhNNYHF68zEOLwmGq/pFzaWIpQxshq4+BkVZmMihpviHDoW0Dd+xH1/2VAN/aPl1369PcrckOafAPsS35jyByQOffx58fcfuK3KA79EY63+sHqu6oOqjAdSnUzvfvnhNJ7G6WymnMPuluHqTWmLw2Rsa4hp2chQrZrJ2Iq2TmrF0ElmODzAOwPceAZ8SoRsdun0VEQkAEk8AeST7AfeUWh54PABPB4BPAJ48AkBxAJ9zweB8j7KiJ3Dz7+Dx7H34B4Hjz4PPj5cn5Hjb8Rnd29w7uGu7T4cGu57XFp8hpILQSAC4FvPcOFXU/Sr+v3ra6XfUY0VoLp36rN+9lNEZHpw0Bnruk9t9zNTaUwFnLz6q1m2xlJ8XiL8NWTJ2GVoILNp7JGyVoWRmOT7TXeHvQG9TT1B9+PV66MNp95utDqQ3N2z1dqjcaDU2gtabsayz+k89Bidjd0c3ja+Swl7KuoWIqWXx9TJMa+D4Tr8EUr4pWM5NwYSN+3z3/AKKoBP8Afy/qD8ladIiK1URERERERERERERERERERERERERERERERERERERERERERERERERERERERERERERfIbg/8gdb/wCKGpf/AAW6vr18huD/AMgdb/4oal/8FuoioOHfP/Cd/qVm59Cy/Z4b/wD8qbK/0c6LVZG75/4Tv9Ss3PoWX7PDf/8AlTZX+jnRaIpjSIiIipePXi/bA9f/APKB1E3/AN4YzENI/j459vx4V0OqXn14/wBsF1//AMobUv8A8hiERZtPoVH7RDqR/kh5X+lfbBWaSrLfoVH7RDqR/kh5X+lfbBWaSIsJv0i39i515f5McD/SRo5U3TSA4EjkAgkDjkgHyByCP4gj7wR4VyL9It/YudeX+THA/wBJGjlTdNPDmnz4IPg9p9/keDwfuPB4PnhEUk/0h/o13VL6nWksDv3qzV+F6eOlfN3brMLuDk6P9U+s9xY8HkreHyo2/wBHVrlGuynBkaOQxrtR6jyVGnDcrzS0sZmY4JYHzTNhPonvpCbQYejX1xtTrvqB1HDUrxZDUW5+6GssdBdtgN+t2INPbfZPR2Lpwyv7nQ1ZRkHRN4Y60/8AWPf30aT4jvRR6HiSQ1mmtzouA5zmujbvduZIwtMkjnRRd0peY42sLp5JHOYGPcVneRFgG3H+jG+jDuHiLWOr9JNXbu5YgEEOd233I3NwGUpFlhlmKeBtrVuUxU0rXxsY91/FXDK0FsvxGEh0P/1kvosm6XRHorVXUr0c6p1Fv/0/6VrS5XWugs1jPi7ubY4GEyNt5dkmMd9S1xpeg3ukyd3H0MZl8TSilvT0rNeN8xs+DyAeByeDwPHk/IeSB/EgfiPdfzr+Oq5SjcxuSp1cjQyFWzRv0b8EVylfp24XQW6tqrMTDNTuwvfFYqzNkgkY5zJI3MJ5Ku5H9/L+gVBbUt3Mfaq3KduzTt07UFuncr2ZKc9azV4kqXK0kQE1a1CWslrWYZBPE9sUzC15icbVf6MV6uua9Qzpkyuxe+mpBnOqDpjqYujms9c+C3J7l7W5G1aoaS1lYijcWvzmFdWbp3VFlvIsP+oZQAPy0/wILP0gvoCw3p5+pLuxt3oehJjtot0oa+920tQwlkOJ05ri/lJMlpmpIGiGSppnU9TMYuk2NodBiq2Li+GCBz+b6PZ1eZXo89VXpj1MMi6novdfVlbYPcmvJZkgqWNK7nWq+ErXL5Yzum/qd1Q/TedY34UgMVCeNna17wiuI6A+/qB8Ty/31Pu7nfe48UV/6YQQPSGl5+fU7svx/wDgNbKU41wcGn++DHAAg8eOfccjtAbyHD7LvkTyFFh+mFfshpP5T2y//wAhrVFa3uPmPuqrJvuPzH86vCfTG/Z09DX8lHYX+jTTao9m+4/Mfzq8J9Mb9nT0NfyUdhf6NNNor5PZ9f2XuZERFxrw96l37Pbra/kvb2/0f5pUeBI8fiXcfvJeP+q4H9/HvyFeIepd49PbrZJ/9l7ew/u/qAzX+xUdxBAbz9/8zAw/wc1w/dz7EElczv8Al+pAVqz9D/8A2QeK/lFby/8AeafUphRZ/of/AOyDxX8oreX/ALzT6lMIqHv9G/YKBf8ATgiDov0+/wDGbfs/uOL214UDTYjQuN3Q3w2a2zzNm9Sw+4m623mhcrcxjoG5KpjdXauw+AvWce6yySs29BVyEstR1iN8AsMjMrHR9zTPK+nAgjRfp9/4y79D94xe2vKg29Hf/O46Wf5RuyH9JmmEXM3sPkPsrPHbb6JN6P2iWUH6l0Bu/unarscbR1lvDqPH0L8z4DE6WSlo2LTM0TWGV0sEIuyRscB3cnleho/oynopw031WdGOLkc6N8Ynn3V3nlsguYWhzbL9fF0bwTyJBG8sdw4McRws9DPZv+CP+yxcirufefzK4dz7z+ZURDrB+h6+n/uvpTOW+lDUG4HTFuV8Ka1p9lzUeV3N20nux13ur43NYTVVuzqWHGT2RGx9ylqKxdqtL5fg3GAVjXUdZfSLvP0LdRG4XTNv1gGYHcDb/Jsq2H1DZmw2oMJeghv4HUmnbs3a7J6dzWPkr3sbaDexz3yQF7315Qy9FPsfc+D4Hufy5IHP3ckfmoIn01npbwVjbDpP6ycXhKsGpsPrnN9P+tszXbGLV/DaiwWX11ouHIyHss2YsZe05qqHHTvjkZjjlRUaWRXmtjvY7rsT8t/f7lc07nYn5bk+8dO+3XZYBvozvqQap6IPUJ2+2zzWoJI9geqzOYrajcrCZC5JFi8ZqnKzSVdBa5rjtlZDksZqKxRx1+dtcS3MLlLFOzO2vVbJHbZNd3dpHsR7eCGkH5kcj8iDweORyFQV4TN5DTeZw+oMNdnoZfA5ShmcZerntmq5LFXIblC5WeSDHPXnhjmjeQ0tfG08gkkXsnTPuLLvB067B7sTuabO5ezm2mubYYWuYLWqdGYvOWYw6MubzHYvyNPnjlnA8+FR467+/wDbZUcNtu/X3/If2R029g2XeapNfWGcB6p/X+eAR/ZW7yeDzweNY3wQeCDwS0g8EHj2PsVdlKky9Yf9qd6gH8q3eb/TPKIzufl+4Ro3JHw/cLIp9HE9LXps9VPqK3+2u6l7m4NfTO2WzNDXWAG3+oaemsk/O3tbYTBTvyNyziMsbNQVLU7Yooyx4cS5xaSxzZgf/kdnpPf/AN16mP8A81sf/wD8msD30Jf/AJ6fWL/Jmwf9Ken1ZLo4nfbfbb3ISRsAdug7dO4Hfb8vkFFJ/wDI7PSfHluV6mO4eR/518ePI8jz/Un48/P5e69e9C30cfoG9PbqP0d1Q7C5TfB242isfqTFY2vrHXeNz2nLNHU+Cs4DIfXcWzTlKR9n6vakmgsRWozG9rSGNcPGflFbufefzKpufefzKeypNfWK8eqn6hgPv/Zeb4+P8HXmbaf4Hx/N4V2S72P5H+ZUm3rGftV/UM/leb7f0gZtXM7n5fuFczv9PsQVJD+hK+erfrK/Dp/0g79ztwY2g/vPj7/v8KyHVbv9CU8dW/WX+PT5o1v727iRuI/cPP3fd5VkQqP/ABH6fYK09/o37BERFaqKrq+mVefVF29A9/7Fjb7/AEs12f5ljy+jVgn1u+gzj5au3YP7v7Hvd5ZDvplHj1R9vv5LO33+lWu1jy+jVED1u+g3n56t3ZH7/wCx73dXO3sPkPsuVvcfL9mK4hREXAuJERERERERERERERERERERERERERERERERERERERERERERERERERERERERERERF8huD/yB1v8A4oal/wDBbq+vXyG4P/IHW/8AihqX/wAFuoioOD59v753+pWbn0LL9nh1ADz/AM6XKH2PHB260WOQfY+QR49vmqyZzXMd5A5a9x9wR4JHyJ+bHex8gcjwQTZhfQq8tDP0E9SeFaY/rGL6nZLEwbIS/syO3uljCXtH6of9TshoPB/tfLgA+MuIpmKIiIipefXj8esF1/8A8oTUj/8A3TRxIB/iD49/wV0MqXn14/tesB1/kef/AD/6iH7/AKnivv8AzCIs2n0Kj9of1In5f2ImVH7/AOuvtkOP+q7+H4hWaSrLfoU/7Q3qRHz/ALEbLH939djbU8/9Zv8AH8CrNJEWE36Rb+xc68v8mOB/pI0cqbpvuPzH86uRfpFv7Fzry/yY4H+kjRypum+4/MfzoiuHPo0X7E7og/xa3O/pr3FWdtYJPo0X7E7og/xa3O/pr3FWdtERaEEggHtJBAdwDwSPB4Pg8e/B8H5rVaHjg8+BweT+CIq/b6bztVRjyPQbvdWpvZk7FHeLavK5Fp7oZKFazpTVeApj24lrzXNRyc8drWWXsa4EgOgqbZ6nt6M3K2/1ljpfgX9La30pqalKSR8C9hs7QyMchLfdrZKrHuHnuA491YJ/Td9QY+HYvoT0o5zhlMhu1uzqCuz2jdQxGkcFjrbm8gcuZYzdLvIP6zoyAfJbXg4qu+3lcZUiLRLayFOtFy5oHxJrEcTOSSA0dzh9okNPyKLmG2wJ6dB1+nQ+78/h7gr6zb7OjVOg9E6lEjZhqLSWms78aMdrJP0piKV8mNoAc2Punae1wH2XkH2IUZL6YSCfSGk4+XU9svz/APgNaqSD0/Yi1gNi9mMFePNzDbU7e4q0e4OLrGP0jhKsp7wXMk7nwuL3xuewuJAcSCo4H0wg/wDohZv5Tuy3t545o63aOePbyCPP3IuJvcfMfdVV7fcfmP51eFemOCPTp6Guf/ZR2G/o002qPRXgnpgWIbHpydDE0MjJIn9KOw3a9jg5pI22040jkeOe7xweDz44RXyez6/svdiIiLjXh/1L/Pp69bIH/su72j9/9QGb/wBqo8Heezj73f8AWL3j+LXNP7+D5BAvD/Ut/Z7dbP8AJf3s/o/zSo7/AG7Of74f9VgYf4Oa4fu5Hggkrm9/y/8AJqtWPof/AOyExX8oreX/ALzT/wDsUphRZvof/wCyExX8oneT/vMB/tUplFQ9/o37BQL/AKcF/wAi/T7/AMZt+/8AwvbRQbOjz/ncdLP8o3ZD+kzTCnJfTgiP6jPT7HPvqbfsj8v0XtooNnR7/wA7fpa/lGbI/wBJmmEXM3sPkPsr2CPyG/4I/wCyxci4ov1Wf4Df+xGuVFwLQ+x8c+D4Hufw8kDz+JH5qMZ9Le0zFnvR219fkjhkl0pvRszn4JpGB0kMx1FPg5JoSfLJH1stNTcWnuLLbvHwmyObJzPPB49+Dx+fyUcj6Vc1p9GDf8ub3FuuNmns5+XO4uIBcPyL2eD5/gVVvcfMfdVb3HzH3VSP4+Y5HzH3j7v3q7U9IW3Zvel/0FWbcj5p5elvZ/4k0ji58jmaSoxtJcSXHiKOJo5/ueG/IgUlauzfR7/ZbdA38lzaL/ROir5PZ9f2V8ns+v7LJGqTL1h/2p3qAfyrd5v9M8ors1UmfrDAn1TvUAI48dVm8rvceztZ5Ig+/wA+4ePcc+R4Kozufl+4VGdz8v3Cka/Ql/8AnpdYp+R6ZsFwf8LdLAOH8QCf5/Ksl1W0fQlvHWh1htPv/Yy6fPH3hu6GBY4j7wHOA8fn7AkWS6o/8R+n2Co7oSPdt9giIitVq0d7H8j/ADKk19YsE+qt6hpHt/Ze76Hn8Dr3NOH8QCf/AKq7KPkH8iqTj1iAT6qfqFD5u6ut8S0fMj+rrNcfkT3N4B4J5HAV7O5+X7hXs7/T9wpIX0JUH+y36y/w2A0jz/8AmBGrIZVuP0JqzDH1g9YlZ0rGy2envSs0UZcA6RkW4Vdr3NHz7TPECOeQXgcc88WRyo/8R+n2CtPf6N+wRERWqiq6vplXj1Rtv/x6WNvv9Ktdj+dY8vo1n7bvoM/xu3Y//T3u8shv0yrz6ou334dLG33+leuz/Msef0awH/hu+gz/ABt3YP7h0+bvLnb2HyH2XK3uPl+zFcQoiLgXEiIiIiIiIiIiIiIiIiIiIiIiIiIiIiIiIiIiIiIiIiIiIiIiIiIiIiIiIiIiIi/g6px78tpjUeKjPEmTwOXx8Z4LuH3cfYrMPaOSeHSDwASfYL+8h9j7+3y55/dx55/Lz9yIqELcrSVzQu4mvtD34ZILujNZ6k0rdglYYZoLOnczfw88M0bvMc7X03iWMjuY9sncB2Sds+X6EPuvjn6Q66NjZrVZuXqak2o3Uo1DIfrkuOyOK1BpbLWWRkdrq9S1jcRWsSNJMU16sx4HxWcxlPpCPSlmOkv1W+qbTMmJkpaP3R1i/fHbm+yvLFTymlt0YxqK6abyO2Y43U8+oMDZliADjh3Scv8AjvJ+W9Db1H4vTH6/dvd9dUDK29o9V4+7tPvbjMdI+Sd+3+sb2Nktahbjw0HIz6RzNDGaogqsa+zNFjbFSEPktBryK5q7m8gc8E88Aggng8HjkDnj3/Lz7eVuXWm0+6+3G92gNK7q7Ta007uBt7rXE1M7pzVmmclVyOJylK5HE+CeGzUllZHO2NzoblWT4c1ezG+vYigkD412USACefb7vJ8+3gck8/LgeURaql59eDx6wHX+D7/2QGov/k8R/sKuhO5vJHcOW+SOR4/P7vx+5Uvnrxgj1guv/kFvHUBqIHuBb7U8YeQHAEg8HtcOWu/uSeQiLNn9Co/aIdSP8kPK/wBK+2Cs0lWW/QqP2h/Uifl/YiZUfv8A66+2Q4/6rv4fiFZpIiwm/SLf2LnXl/kxwP8ASRo5U3TfcfmP51ci/SLf2LnXl/kxwP8ASRo5U3bAXOa1oLnFwAa0EuJJAAAHJJJ8AAEk+AiK4b+jRfsTuiD/ABa3O/pr3FWdtYI/o0TgfRO6IfPj+pvc8c/Ikb3bkRng+zuHxvb4J8t/Ec52u9nnhwPb4dwQe3/C454/EngD5oi3f7/f/MtnxGHkdwPyI/MgNB54A7yR2c8B4PLeR5Rzmdrg7gtLSSDx2ubx59/slvB+0ee0A8uICwLetH65PT36XG0WosLhdTad3I6vtR4e1R2w2XxWTr5K9pzLZCrYio603PjqiaTSulMNI9l8466yDN6ksNp4zH0v0fNZu1yKHh9Mb6rMVvN6gG2HT1prLx5LE9Le1Bx+ooqtqOalX3E3Oyceos9A8B3bVyFDT+I0hRvRvd3Q8FrnBxewRzvT52KyvUr1v9KmxeFqG/Z3I3424wFiM1nzxswbdVYy3m71lnaA2hSw1XJXchI8tbFSqWHyFoZ56A3V3N11vRuZrvdrcvPW9WbgblamzWttYZ++6SW1mM/nr1rJ5K3I8vf/AGo2J3mJjeasDI4a8DfqEEblNJ+hz+nHm9Y7ya59RzcLBTQ6F2zx+d2t2Nu3Y3kag3GzULK2t9R40vjcyWnpfS9h+AntBwjbktRSRQymxFLHGV+/Qe8Ad/b1b+h29nfrvt7bFPH1I6NKlSgYyOGpVrVoGMaGxxx14msAiafLY+0Njaw8FrRxx2hRyfpXW3VrX3oyb45KjFJNPtxuLspuH2RgFxq0te0NNX5eC5p7Icfqy5M8Dl5bGe1hA4MkT8ePP3c+3+r9/uvHXqC9NsXV90T9T/TW6GKa3u9s5rXS2DEob2xanmxEtrS0zSXNDHw6hq4+Vkncz4bmh3c3juBWjuPmO/b6qjWHdz9kEuHB4b9pwPPgdo5PII8tI5HzAVzV6B+7lTef0iehvU9bINyFjBbOYrbnJSxiMOgyG2t+7oiepKyPmP4kLcHHHK4cuBJPcee9U2+q9Lag0PqfUWjNV4m3g9SaSzmWwOosJkIJqtrEZrD3n4zKULkUnFiGzWuVnV5oJGh8b/BDT7zdPoj/AKue3GxkuqvTq6iNZ0tG6d3F1nY1/wBPGr9TZCDG6bq62zFKlV1TtpYvWiKmNk1S+vRzmnGzzV6s+bZl6gl+v5alDOV59Ye8jtt2Pb2dT/fXYnZWLKLjZLHK0Pje17HDua9p5a5pAIc1w8Frmua5rgS1zHB7SWkFbu9nBPcCB7kHkD/CI57QOPJPAHzKLjXiD1Lv2e3W1/Je3t/o/wA0qPBxB7OPvd/nL3j+LXNP7+PcEC8P9Swh3p79bAHnu6X96+3wRyXaAzYaBzxy4lpAaPtE8DjyOaPANJA4HPbw53t4HDIvP3HvIaWnyOQ4jtIKK5vf8v8AyarVj6H/APsg8V/KK3l/7zT6lMKLP9D/AP2QmK/lFby/95p//YpTCKh7/Rv2CgWfTggf6jfT5PHtqXfsH8/0XtqoN3R7/wA7fpa/lGbI/wBJmmFOU+nBf8i/T7/xm37/APC9tFBr6PP+dv0tfyjNkf6TNMIuZvYfIfZXr8X6rP8AAb/2I1yrij8NZ/gD/ssXKi4EUcj6Vd+xg3//AA1psyD+Z3HwJ/mUjdRyPpVv7F/qB/x12Y/pGwKq3uPmPuqt7j5j7qpGV2d6Pf7LboG/kt7Rf6J0FSYq7N9Hv9lt0DfyXNov9E6Kvk9n1/ZXyez6/sskR4IIPsQefy+apTfWkx5xvqx+oTTaxzGx9Vm7vY1w45jk1NasRkc+/wARsjXsH921zC3kObzdZkAgg+xHB/Iqoi+lA7IZDZz1jupbJzY2Wphd5au327+CsNiMVK+NQ6KwmMzs9Zw7mulZqPCZaO6CGyw2nudMxrZ4Xy0Z3Py/cK1vf8vuP9lku+hSZqnS66OqjDzH/jed6YK8tL7XAa3E7oaUlttbz9mT7NyuHBh5HxG+OeeLK/8A3/3/AIqnE+j79dGlugT1NNld0dxMx+gdqdesyOzG6ObkkMNDBab3AdWpUtQ5YiN/w8Hp3UsGBzWZnZE+WvQoWrDQGtc4XFGMzGLzONx+YxGQp5PEZanVyGMydGzFcx1+lcZDLVtU71d8lWzBZinikqywyvZYa8Ohc9vJFH/iP9+wI4bH6AfkAD/7X9NFpyBxz45PA/P/AOvy+/5L+XczuEx1rGUcjl8bj7ubtPo4apeu16lnLXYq81uWljYLEkct65DVrzWZqtZss8UET5ZI2xtLlarV/VPsfmqYL13tA29tvV66+cDb73fpTf3UutKs72OjM9TXtahrWGSIEcmCN+eNdrhx3upv4HPvc9u4ILSSO4EcjwRyOPB9gfu/zeyrFPpjXSNm9quvTQPVXjqEp0D1NbZYrF3slFABUq7obWNdp/OY587eT8S3pSxpS+yORsZdO688Oe5sjY72d/p+4VzTse+3+4/v5br4L6HdvFj9AeqRntuchPHXO9/T/rnTWJ+IQPj5XSd7F65ipxEgl0r6GGyszXEhvZWlZ3fFdHHJaTtkY79VwI5LefkSCGkA+zuHENdxz2v5YeHAgUW/Rb1Qav6L+qrYnqh0M19jUWy24mF1g3HMndBHmcPUlfW1Fp2aZrh2UdRafu5bEW+4hnwbrnkjtJN0h0U9auwfXrsDojqH6fNb43VOlNW4yi/K4mK7Vk1HobU5pxWcxorWWKYW28HqfDymStcx1utWdMyF2QpNlqTxTyHjrv7/ANtkcNvn+w2A9g+v7dl67RaEge/j9x+f3ff7fL2+adzeeOQSPJA8kfmB7KxWqrr+mU+fVG2//ksbff6Va7WPX6NX+276Dfw1Xuz/APp83eWQr6ZQePVG2+JB4/sWNvOT2ngd2q9eAA+PDvsklh4c0drnANc0nHn9GrIHrd9B3P8A/lu7A/eenzd0D/OVzt7D5D7Llb7PkD+jP3CuIURFwLiRERERERERERERERERERERERERERERERERERERERERERERERERERERERERERERD7H5/n7fv9/5kREUc36RH6M8vqkdN2N1ds9j8bD1abB1srldsJLMlajHuPpmzELWe2pyF+zPVr1ZcpPDHe0hZu26+PxufiLbdmvTyduQVO24e3WuNp9b6m233K0rnNDa70Vl7uD1VpLUeLs4zN4HNY+06rdx93H3WRzsdGGCQCQfBkiex7HuikY999y8EscB7lrgPYeSCB7tePf72PH3tcPBxc9f3o79B3qT4qRvUpsxjreu4q7a+J3k0NPHo3dbDsiaWwNi1NQhd+l6sYd2OxGpamaxJjHxoq8FlrOCKpC6T/Uy67uhtr4elXqa3N2lwz736RtaSxmUgzOgrd4yCR1izojVFTNaSns2QDHbk/Q0Inh+JGWO7u45Vaf0rv1oauNjxz99Nvr87Y2xfpezshtycrM/t7WySPr4dmOfJ3efsY+Nrj4DQCWnPVvD9CL0BdyV25sL1vao09jpX2JKeF3R2yxmpX1muDjVqHNaczeDkkijIYyW1JipJgwOkZA94DHeXYvoRPUZ9Y4l639mG1e9/D27a6zM/Zz9kuYcm6MEjzw1z+D8vuIsI+v/AKSl60u4cLql/rY1Vpeu6OaMx7f6F2u0PK1k7HMIZkdP6NoZZkkTXH4Un1/48Lw18cjXta4YaNzd0Nf7z681Zujurq/Oa93E1zlbWf1drDUl6bJ53UGYuSNM13J3rTnySzEMZx2AcMa2MENaA2d5o36EA4T1X7gdfRfTMX/G6mkNlPgWI5vftht5fXU8NiHn5up1ZCD57T5bkH2h+hnemzo/6tPuvuh1Hbx2Y5WzWKg1VgNvsJYIA74DU07gbOXjgk4LZDFqBlsRuIhtxSBkjSLBF9CpBZ6h3Ui1xAP9iPl+PtNIIbu1to0uaQSHNLnsDXtJa8n7BdweLNEngE/d5WPDou9KvoN9PvI5HO9J3T1pna3VOawbtNZ3WUeS1DqPWGbwElmnefh8lqLVGXzWRlofXcfRt/V4Zq8LrVVr/hNbx3ZDiOQR48gjyOR5HzHI5H3jkcjxyERYTvpFf2/Re68msDnOG2WBBDWuJB/rk6LaAeB4Li9gYDwX9wLeR5VN20cOaSQByCTw1xA5/vSQHEf3riAfmQDyr6PePZjbHqC221Xs9vPobBbi7Za3oQ4zVejdTV/ruGz9CG1HbhrXYBJGe2G5Wq2g4FxJjADXHkCOvv39Ei9JHeC1kcrojSe7nT5l7zJHRR7W7kW7emalqXvIlj0zruhq2CGCORwf9SxlvFwSNaYWGBrg5pFXm9KvrR+pv0U6O03tv059WmvtF7Z6RORGmduMpR0trnQ+FZlbV2/kIcZp7XeA1FRx9azkMnkLzY6cdZzLVh0ocwgObkdwX0tb1lcXRjo29zNmtSTxt5dksxsdph+QmDRyXyswlzDUWHjkudBRh7fcdvA4zfbi/QhNHT2pJdp+u/U+LqufM5tTX+0OMzMzWnkwR/pHT+rcL3dp7Q95oDnjuDCQAvLF/wChHdUrLErcb1rbD2awe/6vNkNCa9rSuhBPZ8evE/INineAA4RTzRNdx9rgcoiw278/SWPWN3+xd7T+V6rL+2GAycEkNnG7JaR01tlNJFJEYZ44dT4zHS63jM0b3sfHHqeGPu+1H2P7HDB7qnV2ptc5/Kas1rqLM6t1Pmrk97N6h1Pl7uazmXuWXd0tq/kshNayFuZziS6WzasSNPmPsIHE5fbf6EPubNejl3c66NEY/HMsQCWtt1tRmcpdmq/EZ9ZEdrUWocRWhlMPeIpJKdhrJO1z68rQY3Zz+jD6Kb6Y3Spl8TrLXuA1h1Ua8xEle1Suby5KuNCUL1eaKzFap7bYCGjhbrmWImva7UtvPuY1pZEGNcQSuBA7/YEez2dPuPYoOnoyegz1HeqTuHp/VmpsLqPabo9xGQZc1vvZlsf9WbqyKnZiZa0dtjBbdDJqbPZKM/DOZrRPwWn68Ukli59ddHXktiun/p/2o6XtntvthtkNH47Q21+2WAq6d0pp3GMDIq1SuHS2LlyQcPu5nLX57eUzGTm77GSyNy7bsvMtqQu7MwGm8DpXDYvTumcLjNPYDB06+Nw2FwtKtjcVisfVAbBTxtCkyCtTrRs+wIoYo2kABzXjwf7iKhO/9evX57lFoQCCDxwQQefbgj5+R4/ePzWqf7/cioq6/wClD+hLrvTm5WsvUh6TtGXNTaB13LLnepXb/TNV1jLaE1TXqOfkN08Xjqvfavab1JFCLOrRTq2rONy7Z81ZjjqZG3PWg0s7oJGSN74ix7JGyMP9ua8kuj7GuDmumrOY8BzDEQ7+1OfFIeBft2KsViGeKeJk8diOSGaKSON7JoJGOY6GWOTuhmb2ucOJmPYWktLHAu5jr9d30YL0zetfPZXX+J0Xn+mPdLMT2rOR1TsPPicJpvL3rshnsZDObe5HH3NMWJ3SF73S4avgLUs8j3SzlrjKCuDhtsR2/qPef99/Z13rxemr16vVj6UsFjdI7V9YmvL2i8NTZRxuj9x6OA3XwFClG5r46tAbg4nPZLFwxNYGROxuSoTVxxHF8ONrXt9d5b6Vx60GUrfAr78beYN3a1huYrZDbh9kuaOBIP0xictTbKSO4Ohqjtdwe0+QczW4f0IbVbL1iXabrvwUuPNk/VKW4O0N6K3DWLvBlyGntVywvnDPHxI8bDw77TRz4XwOH+hE79TXIBqDro2mp0i7+3zYnavWOStNjLgHFsF3U2MikkDOSyMWYGvcA108IPxGlUFvuG3xA39nXt8z/YUdbfP13PVm6jtM6o0Vun1q7n5HRutMZkMFqnSenKWkNE4DN4PL0J6GTwl7HaK01p5trGXas81O3SsySw2IZnse18ZcDiQDj7kkeR3c8jvPLR5b5cXnsD/HI7vc8qwu29+hD7cVZGu3T66dZZmJr2OdBobaXB4AyMDgXxifPaj1HJAZG8sbK0ymIkP7JO3tOTfZD6It6Se1drGZLXGA3r36yNCJnxotxd0ruHwVi01zXfGbhduKGiX/AAu4Eur3snkIpGcxyMka4gk5gO2/6D3ddhsPf8+2+3b8H0QAdvpDYscg8dRe8zT2kPHLZdPB3DmFwI5cOHAlrhyWkhriJTC6A6cOl3YLpF20obO9N21ultottMdesZWrpPSdQ1sc3KXBXbdyMxndNZuX7v1WGS1euTzWpZG9zpSV3+isPX9P0GygXfTgXNOjPT68jzqbf338cduK2zJDieA0kH7IdwXEODQSx4bBs6PC0dW/S0S9jQOozZElznsDQBuZpgkklwAAHkkkADyTwrfr1QvRy6ZPVqobP4zqT1Nu7p2nstb1df0rHtbqPTmnX2LGtY8FDlP0u/O6W1Y206vHp6oITCyueZrHbM0ydzMXW3v0QP0ztstfaH3I01uV1YnUe32sNNa3wAyO4mg58ec3pPNUs9ihegrbX0rM1M36EAtRV7lSeSDvZFZgkc2VhXh+w293QdP/AGFKpiexwaWuDhwAHA8scSAOGPH2Xnlrgewu4I4PC5lwtYQGA9xLGhve4gvI555cfALnBrficNHJce1x4XMisRRyPpVv7F/qB/x22ZHHHnxuPggfHvwCDyfYDzzx5UjY+x8E+D4B4J8ewPI4J+R5HB+Y914r6+uhjan1FumvVvSxvfmda4HbvWmX0xl8vf29yeJxWpmT6TzcGdx8VbIZvC56jDXsWK8cdloxD5+OSyw0gONR0IPuIVR0IPuKo5ACTwAST4AA5JJ9gAPJJ+QHurs70e/Hpa9AvPI7ulraIjkEeDpOgRyD7ePkeCsIH/kZfpaDydy+r4geSG7lbc9xHzDe/aNzOT7DvBbz+sCOQpOHTdsNpTpf2G2i6eNB3c1ktFbNaD07t9pi9qKxStZ6xiNN0IcdTlylrH0MVSnsvgjJkdBjq7PuaHdquc4O2236b9/oqudvt8Pht7vif7967wJ4BPjwCfJ4H7zweB954PH3KIv9Kw9JPWXWzsRozq06f9MXdT78dM+My+N1VpfFRMmymvNlbsljL5BmOg74BZz+h8wybNUq8PxrV/DX8xUZFLbix0Ekug+x9/Y+3HP7ufHP3c+PvX5/g88BzQP1+7sL2u7pD3vcyUSNe1jiAHM7fLg08cNVoOxB/P5KgOx3/P5f3+qoIZK9itO+CeCSKxFI6OWKWNwkiljk7JIp4XtLmyRyAxywyMD2uBjkYHchZauk310PVI6LdK47bzY3qs1hX25w0bauG2/19i9N7l6Zw1Vsncytha+tcLmb+Ega3mJ1bCX8dA5pDWwHtaBYseoN9GZ9Ofr11Pn9z4tNZ/pu3n1FJPczGu9lJ6GOw2ocpO6F0uU1Rt/kq1nTF2/O2IxWLWIhwl6fvdNbyFt4DHYAtwPoQ+uY7U8m1vXdpa3SNg/VamvdoMpUsRVS4+LFzT+qrEM0/Zxy6GhWaXeWlvgjk52nuPzA/wDau5h7Rvt232+G/ff3fE/FYWdXfSnPWj1djJ8dX6kNM6RbahfUnv6Q2a2ypZEMljdE58VzJaeyzqtksc50U1KKpYZLxJXkjka1w8p9KfqjdVM/qQ9JHVV1H9RG6O7eS29320Rls1e11q/MZfH1dM5rJVtO6vrU8P8AFZicZUs6XymTo2YMfjI444C4wRntYpKm330InXM1yCXdjrv0xWots82q+gNnslkr0tcFo7q97UurcfDHL2AiOOxTnh+J2/EJZ3c5tOkD6KJ6XfTLk8TqzcDTmtuqbW+KfWs1re8eajh0TVu15o5xPU0BpqLH4mf+3RNeI9QWNQBo5YxzWucDTmZ/0/oEDm+0foPh8B17/spL9O3BfrVL1V7Zat2vFbrzMIc2WvPH8Ws9hHLSySJ4eyT9Vw7eHHkLGl6s/prbe+qN0fa56ddWz1MDrGE/1X7Na8tMe92hdz8NWtDBZGcwRT2G4DLGWTD6qhqxyWbeGyFiZkM1uhSiWSnG46riaNPF42pXx+Nx1etTx9CpHHFVpU60ba8NStDEyFkdeGGNgib9otHgNHY1i/oEEggEAkEAkEgHjwSAWkgH5BwJ+RHuuMdCD7lYqKvq06SN/Oibe3V2wPUdoDM6C3C0lefDNWysLnY3PYz4kjKeo9NZaB0tDO6fykIilq5LFW7lZzn/AAHSssNdAzXps6yeqTo91K7WHTDvxubsjn5gwX7OhNT3MXRy3a4PazOYQOODz0Iaz+1185j8nEByyMMLjxdB9ZPp9dI/X5oF23fVVstpfc3ExRStwuZtRSYjWuk5p43RvuaT1lh5K2fwF77Re+TH3o4HODSa8j2h4iqb8fQpOnbUGVvZLpy6t9z9saViVv1TTm4+k8DuNTowP7/iwtzOJn0dk5oY2uEUDbMNieVvm7ZsOL5HcgeD+Ifp026f7/T3q8OHt2+W3ft7d/h7fYOu6jfaa+lV+tDp3FxYyz1CaH1S+CGCGPJ6j2U23flSyFrQPjWsPgsIy3NIB/b7FyCexIe4ibuPK+C1x9Jz9anW1aSkesCxpWtI8yNGi9qNoNP2oST+pBkWaKtZItYeCz4t57gQDyCOVmdtfQjuocW3spdb+z0mObK/4E1vbLWcd90YJ7DLWhz0tSEuHuYbE7mHyGuIAPY+lfoQeqn/AFR+uOvjAxj4jfrtfSuyV18jIe8fFbXuZTXEQlldH3fDdNVazvI7wG8hV5me4fl/f9g/Ddu3p8gOg6jtuSfb7fYPb791Cj6h+qHqE6t9wH7pdSe7etd6NxHYmtgmar1xlZctlYcRQlszVMbVc9gipUo5bVh7KdGGvXaZ3N7Q08DKn9GuY9vrd9BwLfI1dutyBweCOnzdt7h4J+0xpBkb+tH5Dw0tcBLz2j+ha9CGl5YbO8HUN1D7qPYIzJQwLtHbd46VzXBz2PMWH1HkBBKAWP8AgX4LDWuJhnik7ZG5uejn0NPTL6FNa6V3P6f+m/G43dfRv1yTT+6er9T6p1zrnH28ljJcJlchWyupMxer4+3k8TbuVLLcTjsfW+FbuxxxRtmYQ52jsD+Q/r9FUOaDv17bez4fLr+ay5oiLiXGiIiIiIiIiIiIiIiIiIiIiIiIiIiIiIiIiIiIiIiIiIiIiIiIiIiIiIiIiIiIiIiIiIiIiIiIiIiIiIiIiIiIiIiIiIiIiIiIiIiIiIiIiIiIiIiIiIiIiIiIiIiIiIiIiIiIiIiIiIiIiIiIiIiIiIiIiIiIiIiIiIiIiIiIiIiIiIiIiIiIiIiIiIiIiIiIiIiIiIiIiIiIiIiIiIiIiIiIiIiIiIiIiIiIiIiIiIiIiIiIiIiIiIiIiIiIiIiIiIiIiIiIiIiIiIiIiIiIiIiIiIiIiIiIiIiIiIiIiIiIiIiIiIiIiIiIiIiIiIiIiIiIiIiIiIiIiIiIiIiIiIiIiIiIiIiIiIiIiIiIiIiIiIiIiIiIiIiIiIiIiIiIiIiIiIiIiIiIiIiIiIiIiIiIiIiIiIiIiIiIiIiIiIiIiIiIiIiIiIiIiIiIiIiIiIiIiIiIiIiIiIiIiIiIiIiIiIiIiIiIiIiIiIiIiIiIiIiIiIiIiIiIiIiIiIiIiIiIiIiIiIiIiIiIiIiIiIiIiIiIiIiIiIiIiIiIiIiIiIiIiIiIiIiIiIiIiIiIiIiIiIiIiIiIiIiIiIiIiIiIiIiIiIiIiIiIiIiIiIiIiIiIiIiIiIiIiIiIiIiIiIiIiIiIiIiIiIiIiIiIiIiIiIiIiIiIiIiIiIiIiIiIiIiIv//Z;clipPath=inset(9.28% 16.67% 9.79% 16.67%);" parent="1" vertex="1">
                    <mxGeometry x="290" y="92" width="63.69" height="50" as="geometry"/>
                </mxCell>
                <mxCell id="53" value="" style="shape=flexArrow;endArrow=classic;html=1;fillColor=#d80073;entryX=-0.02;entryY=0.807;entryDx=0;entryDy=0;entryPerimeter=0;startArrow=block;strokeColor=#A50040;exitX=1;exitY=0.522;exitDx=0;exitDy=0;exitPerimeter=0;" parent="1" source="26" edge="1">
                    <mxGeometry width="50" height="50" relative="1" as="geometry">
                        <mxPoint x="193" y="210" as="sourcePoint"/>
                        <mxPoint x="313" y="210.04999999999995" as="targetPoint"/>
                        <Array as="points">
                            <mxPoint x="243" y="210"/>
                            <mxPoint x="283" y="210"/>
                        </Array>
                        <mxPoint as="offset"/>
                    </mxGeometry>
                </mxCell>
                <mxCell id="58" value="" style="shape=flexArrow;endArrow=classic;html=1;fillColor=#d80073;startArrow=block;strokeColor=#A50040;" parent="1" edge="1">
                    <mxGeometry width="50" height="50" relative="1" as="geometry">
                        <mxPoint x="515" y="207.66" as="sourcePoint"/>
                        <mxPoint x="595" y="207.66" as="targetPoint"/>
                        <Array as="points">
                            <mxPoint x="553.4300000000001" y="207.66"/>
                        </Array>
                        <mxPoint as="offset"/>
                    </mxGeometry>
                </mxCell>
            </root>
        </mxGraphModel>
    </diagram>
</mxfile>